<?xml version="1.0" encoding="UTF-8" standalone="no"?>
<!DOCTYPE svg PUBLIC "-//W3C//DTD SVG 1.1//EN" "http://www.w3.org/Graphics/SVG/1.1/DTD/svg11.dtd">
<svg xmlns="http://www.w3.org/2000/svg" xmlns:xlink="http://www.w3.org/1999/xlink" version="1.1">
<metadata>
Created by FontForge 20200427 at Fri Sep 14 18:33:13 2012
 By www
Copyright 1994, 2005 International Typeface Corporation. All rights reserved.
</metadata>
<defs>
<font id="ITCEdwardianScriptW04-Reg" horiz-adv-x="318">
  <font-face font-family="ITCEdwardianScriptW04-Reg" font-weight="400" font-stretch="normal" units-per-em="1000" panose-1="2 0 5 5 9 0 0 2 0 2" ascent="599" descent="-401" x-height="261" cap-height="651" bbox="-383 -385 1735 863" underline-thickness="50" underline-position="-125" unicode-range="U+000D-FB04"/>
<missing-glyph horiz-adv-x="500" d="M12 665h475v-665h-475v665zM250 375l161 243h-323zM60 91l7 10t18 27t25.5 39t29.5 45q35 54 81 121l-161 242v-484zM278 333l162 -243v485zM250 290l-162 -242h323z"/>
    <glyph glyph-name="IJ" unicode="IJ" horiz-adv-x="1359" d="M962 593q13 10 31.5 20t37.5 18.5t35 14t24 5.5t8 -5q0 -4 -11 -11t-29.5 -15t-42.5 -16.5t-50 -15.5q-34 -24 -64 -54t-59.5 -68.5t-60.5 -88.5t-65 -114q5 -1 7.5 -1h6.5q30 0 58 10t51.5 27t39.5 39.5t22 48.5q2 8 5 8t3 -4q0 -11 -9.5 -31.5t-22.5 -36.5 q-25 -30 -66 -49.5t-81 -19.5h-6.5t-11.5 1q-23 -41 -35.5 -64t-21 -36.5t-16 -22t-19.5 -21.5q-28 -30 -64 -55t-76 -42t-82.5 -26.5t-84.5 -9.5q-48 0 -86.5 12.5t-66 36t-42.5 56t-15 73.5q0 51 26.5 99.5t70.5 86t100 60.5t116 23q68 0 109 -38t41 -102q0 -44 -20 -86.5 t-53 -75.5t-75 -53.5t-85 -20.5q-23 0 -43 8.5t-34.5 24t-23 36t-8.5 44.5q0 33 16 63.5t43 54.5t61.5 38t72.5 14q12 0 25 -3.5t23.5 -9.5t17 -13t6.5 -14q0 -3 -4 -3q-1 0 -4 3q-21 32 -59 32q-32 0 -64 -15.5t-57.5 -40.5t-41 -56.5t-15.5 -62.5q0 -42 25 -66.5t68 -24.5 q40 0 79 20t70.5 52.5t51 73.5t19.5 82q0 28 -10 52t-28.5 41.5t-43.5 27t-55 9.5q-56 0 -108.5 -24t-93 -64t-65 -92t-24.5 -108q0 -31 13 -57t36 -44.5t54.5 -29t69.5 -10.5q148 0 265 147q15 19 38.5 52.5t55.5 81.5q-41 17 -62.5 47t-21.5 70q0 47 28 84.5t82 60.5 q30 13 70.5 23t105.5 21q15 3 25 4.5t17.5 3l15 3l17.5 3.5zM917 576q-13 -3 -26 -6.5t-27 -6.5q-60 -14 -108 -35.5t-81.5 -48t-52 -57t-18.5 -62.5q0 -58 61 -86q66 106 136.5 181.5t149.5 128.5zM1283 132q10 -22 14 -39.5t4 -41.5q0 -53 -23.5 -100t-64.5 -82 t-95.5 -55.5t-115.5 -20.5q-35 0 -61.5 6t-55.5 21q-19 -5 -33 -6.5t-31 -1.5q-42 0 -75.5 11t-57.5 32t-37 50t-13 65q0 57 32.5 108t92.5 92q30 19 64.5 35.5t70.5 27.5t72.5 17.5t69.5 6.5q61 0 108.5 -17.5t94.5 -57.5q9 17 14.5 27t15.5 28q-51 16 -79 53.5t-28 88.5 q0 41 19.5 80t54.5 67q21 17 40.5 28.5t45.5 19.5t64 14.5t96 14.5q35 5 66.5 11t53.5 12q48 30 76.5 43.5t44.5 13.5q8 0 8 -5q0 -4 -11 -11t-29 -15t-41 -16.5t-48 -15.5q-44 -38 -78 -74t-65 -80t-61 -100t-65 -132q36 -1 68 9t57 29t42 45t22 58q2 8 6 8t4 -5 q0 -10 -6.5 -30t-14.5 -32q-27 -43 -74.5 -66t-108.5 -23l-7 -13l-36 -71zM1591 616q-16 -4 -27 -6.5t-20 -5t-19 -4.5t-23 -5q-45 -10 -78.5 -19.5t-60 -20.5t-47 -24t-40.5 -30q-38 -32 -61 -73.5t-23 -77.5q0 -73 84 -106q45 79 82.5 136t73.5 99.5t74 74.5t85 62z M897 -177q27 -12 51.5 -17t56.5 -5q59 0 111.5 20t91.5 54.5t62 80.5t23 97q0 20 -3.5 35t-11.5 36q-60 -112 -158 -189t-223 -112zM1239 174q-45 38 -91 55.5t-103 17.5q-71 0 -138.5 -25.5t-120.5 -67.5t-85.5 -95t-32.5 -108q0 -63 42 -96.5t121 -33.5q13 0 21 1t22 3 q-44 26 -67 61.5t-23 77.5q0 36 18 69t48.5 58t70 40t83.5 15q15 0 31.5 -3t30 -7.5t22.5 -9.5t9 -10q0 -4 -4 -4q-2 0 -4 2q-33 23 -82 23q-37 0 -72.5 -16.5t-63 -43.5t-44.5 -62t-17 -71q0 -38 17.5 -65t58.5 -51q95 22 183 108.5t170 237.5z"/>
    <glyph glyph-name="ij" unicode="ij" horiz-adv-x="319" d="M217 96q-42 -57 -71.5 -82t-53.5 -25q-23 0 -38.5 16t-15.5 41q0 17 7 35.5t27 50.5l76 129q8 -2 12.5 -2.5t11.5 -0.5q10 0 17.5 0.5t19.5 2.5l-111 -182q-24 -38 -24 -61q0 -22 23 -22q43 0 148 148q22 38 39 67t29 50q7 -2 11 -2.5t12 -0.5q9 0 17 0.5t19 2.5 q-27 -46 -56.5 -95.5t-61.5 -104.5l-45 -82q31 18 56 34.5t46.5 36t42.5 42.5t44 54q6 10 10 10q2 0 2 -2q0 -3 -16 -23.5t-38 -44.5q-17 -19 -31.5 -33.5t-31.5 -27.5t-38.5 -26.5t-50.5 -29.5l-25 -43q-20 -36 -37 -63t-34.5 -49t-36 -40.5t-41.5 -37.5 q-38 -31 -72.5 -47.5t-61.5 -16.5q-23 0 -36.5 12.5t-13.5 33.5q0 25 21.5 57t54.5 58q17 13 33 24t38 23t54 27.5t82 39.5l7 3zM132 -59q-72 -37 -116 -61.5t-61 -35.5q-48 -33 -75 -67t-27 -61q0 -16 12 -26.5t29 -10.5q27 0 52.5 13t52.5 42.5t58 77.5t69 119 q1 1 2.5 3.5t3.5 6.5zM230 376q9 0 15 -6t6 -15q0 -17 -14.5 -32t-31.5 -15q-22 0 -22 22q0 17 15 31.5t32 14.5zM403 375q9 0 15 -6t6 -15q0 -17 -14.5 -31t-31.5 -14q-9 0 -14.5 6t-5.5 15q0 16 14 30.5t31 14.5z"/>
    <glyph glyph-name="napostrophe" unicode="'n" horiz-adv-x="391" d="M138 114q65 105 65 129q0 15 -12 15q-11 0 -39 -29.5t-59 -75.5q-6 -7 -7 -7q-3 0 -3 3q0 2 2 4l9 12q39 55 62 77.5t39 22.5q17 0 28.5 -15t11.5 -36q0 -18 -8 -36.5t-29 -50.5q29 40 50.5 66.5t38.5 42.5t30.5 22.5t26.5 6.5q22 0 36.5 -17.5t14.5 -43.5q0 -10 -2 -19 t-7 -20.5t-13.5 -25.5t-22.5 -35q-15 -23 -24.5 -37.5t-14 -23.5t-6 -15t-1.5 -12q0 -20 20 -20t61 43t89 112q2 5 5 5t3 -3q0 -1 -7.5 -12t-18.5 -25.5t-23.5 -30.5t-21.5 -27q-32 -38 -52.5 -53.5t-38.5 -15.5q-23 0 -37.5 17t-14.5 42q0 11 1.5 19.5t7.5 20.5t17 29.5 t30 45.5q25 36 32.5 50.5t7.5 24.5q0 20 -21 20q-17 0 -40.5 -18.5t-52 -52.5t-61 -83.5t-66.5 -110.5q-9 1 -15 1.5t-14 0.5h-14.5t-17.5 -2zM175 445q20 0 20 -21q0 -15 -10 -35t-26 -37q-7 -8 -16.5 -15.5t-19.5 -14t-19 -10.5t-13 -4q-3 0 -3 3t4 4q22 8 37.5 21 t15.5 23q0 3 -5 3q-22 0 -22 21q0 9 5.5 20t14 20.5t18.5 15.5t19 6z"/>
    <glyph glyph-name="uniFB00" unicode="ff" horiz-adv-x="291" d="M303 265q29 51 64.5 98t71 83t67 58t52.5 22q22 0 22 -23q0 -22 -16.5 -50t-45.5 -59.5t-70.5 -64.5t-90.5 -64h84l-3 -7h-85l-41 -78q-37 -72 -67.5 -124.5t-59 -92.5t-57 -71t-62.5 -59q-46 -38 -91 -58t-85 -20q-17 0 -26.5 2.5t-9.5 7.5t5 5q4 0 6 -1q11 -3 18 -4 t15 -1q35 0 66.5 14t66.5 45q22 19 37.5 36.5t35 47.5t47 80t72.5 134l75 137h-104l-40 -78q-38 -72 -68 -125t-58.5 -93t-57.5 -70.5t-63 -58.5q-93 -78 -175 -78q-17 0 -26.5 2.5t-9.5 7.5t5 5q4 0 6 -1q11 -3 18 -4t15 -1q35 0 66.5 14t66.5 45q21 19 37.5 36.5t36 48 t47 80.5t71.5 133l75 137h-52l4 7h53q31 53 67 100.5t71 83t65.5 56.5t51.5 21q22 0 22 -23q0 -22 -16 -50t-45.5 -59.5t-70.5 -64.5t-91 -64h104zM203 275q40 28 78.5 61.5t68.5 65.5t48 59.5t18 42.5q0 16 -16 16q-17 0 -45 -23.5t-56 -61.5q-11 -14 -19.5 -27t-19 -30 t-24 -41.5t-33.5 -61.5zM361 275q39 27 77 60t68.5 65.5t49 60.5t18.5 43q0 16 -16 16q-17 0 -45 -23.5t-56 -61.5q-10 -13 -20 -28t-21.5 -33.5t-25 -43t-29.5 -55.5z"/>
    <glyph glyph-name="uniFB01" unicode="fi" horiz-adv-x="311" d="M252 265q60 0 60 -51q0 -23 -12 -44l-53 -91q-24 -41 -24 -61q0 -22 20 -22t61 42.5t89 112.5q2 5 6 5q2 0 2 -3t-5 -8q-5 -8 -10.5 -15t-10.5 -14q-48 -66 -80.5 -96.5t-55.5 -30.5t-37.5 16t-14.5 41q0 17 8 37t26 49l19 31q23 36 30.5 50.5t7.5 26.5q0 18 -22 18h-62 l-40 -78q-36 -71 -66.5 -123.5t-59 -93t-58 -71.5t-63.5 -59q-93 -78 -175 -78q-17 0 -26.5 2.5t-9.5 7.5q0 4 5 4q4 0 6 -1q9 -2 17.5 -3t15.5 -1q35 0 66.5 14t66.5 45q21 19 37.5 36.5t36 48t47 80.5t71.5 133l75 137h-52l4 7h53q31 53 67 100.5t71 83t65.5 56.5t51.5 21 q22 0 22 -23q0 -22 -16 -50t-45.5 -59.5t-70.5 -64.5t-91 -64h53zM203 275q40 28 78.5 61.5t68.5 65.5t48 59.5t18 42.5q0 16 -16 16q-17 0 -45 -23.5t-56 -61.5q-11 -14 -19.5 -27t-19 -30t-24 -41.5t-33.5 -61.5zM381 372q9 0 15 -6t6 -14q0 -18 -14.5 -33t-31.5 -15 q-22 0 -22 22q0 17 15 31.5t32 14.5z"/>
    <glyph glyph-name="uniFB02" unicode="fl" horiz-adv-x="308" d="M283 265l-4 -7h-85l-40 -78q-36 -71 -66.5 -123.5t-59 -93t-58 -71.5t-63.5 -59q-93 -78 -175 -78q-17 0 -26.5 2.5t-9.5 7.5q0 4 5 4q4 0 6 -1q9 -2 17.5 -3t15.5 -1q35 0 66.5 14t66.5 45q21 19 37.5 36.5t36 48t47 80.5t71.5 133l75 137h-52l4 7h53q32 54 68 102 t71 83t66 55.5t53 20.5q14 0 22.5 -6.5t8.5 -17.5v-5q9 -2 14.5 -2.5t13.5 -0.5q10 0 16.5 1t16.5 4q-69 -114 -115.5 -192t-77 -129.5t-47 -80.5t-24 -44.5t-9 -21.5t-1.5 -12q0 -23 19 -23q20 0 59.5 40.5t91.5 114.5q2 5 6 5q2 0 2 -3t-5 -8l-21 -29q-43 -61 -78 -94 t-57 -33t-35.5 15.5t-13.5 40.5q0 14 1.5 24t11 29t29.5 53t57 96l44 73q15 23 29 47.5t28 50.5q-11 -14 -30.5 -32.5t-45 -39t-55 -41.5t-59.5 -40h84zM203 275q41 27 81.5 60.5t72.5 66t51.5 59.5t19.5 41q0 18 -24 18q-20 0 -48 -22.5t-57 -62.5q-11 -15 -20 -28 t-19.5 -30t-23.5 -41t-33 -61z"/>
    <glyph glyph-name="uniFB03" unicode="ffi" horiz-adv-x="469" d="M410 265q60 0 60 -51q0 -23 -12 -44l-53 -91q-24 -41 -24 -61q0 -22 20 -22t61 42.5t89 112.5q2 5 6 5q2 0 2 -3t-5 -8q-5 -8 -10.5 -15t-10.5 -14q-48 -66 -80.5 -96.5t-55.5 -30.5t-37.5 16t-14.5 41q0 17 8 37t26 49l19 31q23 36 30.5 50.5t7.5 26.5q0 18 -22 18h-61 l-41 -78q-37 -72 -67.5 -124.5t-59 -92.5t-57 -71t-62.5 -59q-46 -38 -91 -58t-85 -20q-17 0 -26.5 2.5t-9.5 7.5t5 5q4 0 6 -1q11 -3 18 -4t15 -1q35 0 66.5 14t66.5 45q22 19 37.5 36.5t35 47.5t47 80t72.5 134l75 137h-104l-40 -78q-38 -72 -68 -125t-58.5 -93 t-57.5 -70.5t-63 -58.5q-93 -78 -175 -78q-17 0 -26.5 2.5t-9.5 7.5t5 5q4 0 6 -1q11 -3 18 -4t15 -1q35 0 66.5 14t66.5 45q21 19 37.5 36.5t36 48t47 80.5t71.5 133l75 137h-52l4 7h53q31 53 67 100.5t71 83t65.5 56.5t51.5 21q22 0 22 -23q0 -22 -16 -50t-45.5 -59.5 t-70.5 -64.5t-91 -64h104q29 51 64.5 98t71 83t67 58t52.5 22q22 0 22 -23q0 -22 -16.5 -50t-45.5 -59.5t-70.5 -64.5t-90.5 -64h53zM203 275q40 28 78.5 61.5t68.5 65.5t48 59.5t18 42.5q0 16 -16 16q-17 0 -45 -23.5t-56 -61.5q-11 -14 -19.5 -27t-19 -30t-24 -41.5 t-33.5 -61.5zM361 275q39 27 77 60t68.5 65.5t49 60.5t18.5 43q0 16 -16 16q-17 0 -45 -23.5t-56 -61.5q-10 -13 -20 -28t-21.5 -33.5t-25 -43t-29.5 -55.5zM539 372q9 0 15 -6t6 -14q0 -18 -14.5 -33t-31.5 -15q-22 0 -22 22q0 17 15 31.5t32 14.5z"/>
    <glyph glyph-name="uniFB04" unicode="ffl" horiz-adv-x="466" d="M203 275q40 28 78.5 61.5t68.5 65.5t48 59.5t18 42.5q0 16 -16 16q-17 0 -45 -23.5t-56 -61.5q-11 -14 -19.5 -27t-19 -30t-24 -41.5t-33.5 -61.5zM361 275q41 27 81.5 60.5t72.5 66t51.5 59.5t19.5 41q0 18 -24 18q-20 0 -48.5 -23.5t-56.5 -61.5q-10 -13 -20 -28 t-21.5 -33.5t-25 -43t-29.5 -55.5zM441 265l-3 -7h-85l-41 -78q-37 -72 -67.5 -124.5t-59 -92.5t-57 -71t-62.5 -59q-46 -38 -91 -58t-85 -20q-17 0 -26.5 2.5t-9.5 7.5t5 5q4 0 6 -1q11 -3 18 -4t15 -1q35 0 66.5 14t66.5 45q22 19 37.5 36.5t35 47.5t47 80t72.5 134 l75 137h-104l-40 -78q-38 -72 -68 -125t-58.5 -93t-57.5 -70.5t-63 -58.5q-93 -78 -175 -78q-17 0 -26.5 2.5t-9.5 7.5t5 5q4 0 6 -1q11 -3 18 -4t15 -1q35 0 66.5 14t66.5 45q21 19 37.5 36.5t36 48t47 80.5t71.5 133l75 137h-52l4 7h53q31 53 67 100.5t71 83t65.5 56.5 t51.5 21q22 0 22 -23q0 -22 -16 -50t-45.5 -59.5t-70.5 -64.5t-91 -64h104q29 51 64.5 98t71 83t67.5 58t55 22q14 0 22.5 -6.5t8.5 -17.5v-5q9 -2 14.5 -2.5t13.5 -0.5q10 0 16.5 1t16.5 4q-68 -114 -115 -192t-77.5 -129.5t-47 -80.5t-24 -44.5t-9 -21.5t-1.5 -12 q0 -23 19 -23q20 0 59.5 40.5t91.5 114.5q2 5 6 5q2 0 2 -3t-5 -8l-21 -29q-43 -61 -78 -94t-57 -33t-35.5 15.5t-13.5 40.5q0 14 1.5 24t11 29t29.5 53t57 96l44 73q15 23 29 47.5t28 50.5q-11 -14 -30.5 -32.5t-45 -39t-55 -41.5t-59.5 -40h84z"/>
    <glyph glyph-name="f_f_t.liga" unicode="fft" horiz-adv-x="470" d="M455 265l57 95q8 -2 14 -3t14 -1t14 1t14 3l-56 -95h64l-4 -7h-64l-109 -186q-20 -32 -20 -54t23 -22q19 0 49.5 30t77.5 93l15 21l9 11q2 5 5 5t3 -3q0 -2 -5 -8l-21 -29q-48 -66 -81 -96.5t-56 -30.5q-24 0 -39.5 16t-15.5 42q0 29 26 73l82 138h-98l-41 -78 q-37 -72 -67.5 -124.5t-59 -92.5t-57 -71t-62.5 -59q-46 -38 -91 -58t-85 -20q-17 0 -26.5 2.5t-9.5 7.5t5 5q4 0 6 -1q11 -3 18 -4t15 -1q35 0 66.5 14t66.5 45q22 19 37.5 36.5t35 47.5t47 80t72.5 134l75 137h-104l-40 -78q-38 -72 -68 -125t-58.5 -93t-57.5 -70.5 t-63 -58.5q-93 -78 -175 -78q-17 0 -26.5 2.5t-9.5 7.5t5 5q4 0 6 -1q11 -3 18 -4t15 -1q35 0 66.5 14t66.5 45q21 19 37.5 36.5t36 48t47 80.5t71.5 133l75 137h-52l4 7h53q31 53 67 100.5t71 83t65.5 56.5t51.5 21q22 0 22 -23q0 -22 -16 -50t-45.5 -59.5t-70.5 -64.5 t-91 -64h104q29 51 64.5 98t71 83t67 58t52.5 22q22 0 22 -23q0 -22 -16.5 -50t-45.5 -59.5t-70.5 -64.5t-90.5 -64h98zM203 275q40 28 78.5 61.5t68.5 65.5t48 59.5t18 42.5q0 16 -16 16q-17 0 -45 -23.5t-56 -61.5q-11 -14 -19.5 -27t-19 -30t-24 -41.5t-33.5 -61.5z M361 275q39 27 77 60t68.5 65.5t49 60.5t18.5 43q0 16 -16 16q-17 0 -45 -23.5t-56 -61.5q-10 -13 -20 -28t-21.5 -33.5t-25 -43t-29.5 -55.5z"/>
    <glyph glyph-name="f_t.liga" unicode="ft" horiz-adv-x="312" d="M297 265l57 95q8 -2 14 -3t14 -1t14 1t14 3l-56 -95h64l-4 -7h-64l-109 -186q-20 -32 -20 -54t23 -22q19 0 49.5 30t77.5 93l15 21l9 11q2 5 5 5t3 -3q0 -2 -5 -8l-21 -29q-48 -66 -81 -96.5t-56 -30.5q-24 0 -39.5 16t-15.5 42q0 29 26 73l82 138h-99l-40 -78 q-36 -71 -66.5 -123.5t-59 -93t-58 -71.5t-63.5 -59q-93 -78 -175 -78q-17 0 -26.5 2.5t-9.5 7.5q0 4 5 4q4 0 6 -1q9 -2 17.5 -3t15.5 -1q35 0 66.5 14t66.5 45q21 19 37.5 36.5t36 48t47 80.5t71.5 133l75 137h-52l4 7h53q31 53 67 100.5t71 83t65.5 56.5t51.5 21 q22 0 22 -23q0 -22 -16 -50t-45.5 -59.5t-70.5 -64.5t-91 -64h98zM203 275q40 28 78.5 61.5t68.5 65.5t48 59.5t18 42.5q0 16 -16 16q-17 0 -45 -23.5t-56 -61.5q-11 -14 -19.5 -27t-19 -30t-24 -41.5t-33.5 -61.5z"/>
    <glyph glyph-name="s_s.liga" unicode="ss" horiz-adv-x="448" d="M269 58q-26 -33 -50.5 -51t-43.5 -18t-32 10q-21 -6 -31.5 -8t-22.5 -2q-35 0 -55 18.5t-20 50.5q0 18 7.5 37t19 34.5t25.5 25t28 9.5q5 0 9 -2q10 12 19.5 24.5t19.5 23.5q10 13 17 21.5t12.5 14.5t9 11t8.5 11q8 35 25 59t34 24q8 0 8 -8q0 -10 -14.5 -28t-46.5 -50 q-3 -15 -3 -26q0 -10 1 -17.5t3.5 -16.5t7.5 -22t14 -34q8 -17 10.5 -28.5t2.5 -22.5q0 -32 -20.5 -57t-58.5 -39q8 -4 12.5 -5t9.5 -1q20 0 42 16.5t53 54.5q8 42 30.5 69t49.5 27q4 0 8 -1q6 7 17.5 21t24.5 29.5t24.5 30.5t19.5 25q9 37 25 60t33 23q8 0 8 -8 q0 -10 -14 -27.5t-46 -51.5q-2 -6 -2.5 -10t-0.5 -10q0 -11 0.5 -18.5t3.5 -17.5t9 -25.5t18 -43.5q9 -23 9 -45q0 -21 -12 -40t-31.5 -33.5t-45 -23t-53.5 -8.5q-32 0 -53.5 16.5t-21.5 42.5v10zM442 256q-11 -12 -19 -22t-21 -27q-18 -23 -25.5 -32t-13.5 -16q9 -8 9 -19 q0 -14 -10 -23t-34 -16q-23 -6 -36.5 -20.5t-13.5 -34.5q0 -18 14.5 -31.5t34.5 -13.5q21 0 41.5 13t37 34t27 47.5t10.5 53.5q0 6 -0.5 15.5t-1.5 20.5t-1.5 19.5t-0.5 15.5q0 9 0.5 16.5t2.5 19.5zM109 159q9 -6 9 -18q0 -30 -47 -40q-19 -4 -33 -20t-14 -35t14 -32 t35 -13t41.5 13t37 34.5t26.5 48t10 53.5v14t-1 16q-1 13 -1 22.5v17.5q0 11 0.5 18.5t1.5 18.5q-26 -32 -43.5 -54t-35.5 -44z"/>
    <glyph glyph-name="f_m.liga" unicode="fm" horiz-adv-x="620" d="M258 265q53 0 53 -50q0 -16 -6.5 -34.5t-22.5 -44.5q25 36 44 61t34.5 40t28 21.5t24.5 6.5q20 0 33.5 -16t13.5 -42q0 -17 -4.5 -30.5t-21.5 -40.5q26 36 46.5 61t36.5 40t29.5 21.5t26.5 6.5q22 0 36 -17.5t14 -44.5q0 -12 -2 -21.5t-9 -23.5t-20.5 -34.5t-35.5 -53.5 q-13 -20 -18 -31.5t-5 -22.5q0 -20 20 -20q18 0 47.5 28.5t78.5 94.5l16 21l8 11q2 5 5 5t3 -3t-5 -8l-21 -29q-48 -66 -80.5 -96.5t-55.5 -30.5t-37.5 17t-14.5 43q0 11 1.5 20t7.5 21t16.5 28.5t28.5 42.5q23 32 32 49t9 28q0 20 -20 20q-17 0 -38 -15.5t-48 -47.5 t-60.5 -82t-74.5 -120q-8 2 -13.5 2h-13.5h-16t-18 -2l69 110q37 59 52.5 89t15.5 44q0 22 -18 22q-14 0 -37 -20.5t-51 -56.5t-59.5 -84.5t-61.5 -103.5q-8 2 -14 2h-15h-15.5t-17.5 -2l70 110q32 50 52 88.5t20 49.5q0 17 -31 17h-55l-40 -78q-37 -71 -67.5 -123.5 t-59 -93t-57.5 -71.5t-63 -59q-93 -78 -175 -78q-17 0 -26.5 2.5t-9.5 7.5q0 4 5 4q4 0 6 -1q9 -2 17.5 -3t15.5 -1q35 0 66.5 14t66.5 45q21 19 37.5 37t36 48.5t47 80t71.5 132.5l75 137h-52l4 7h52q31 53 67 100.5t71.5 83t66 56.5t51.5 21q22 0 22 -23q0 -22 -16 -50 t-45.5 -59.5t-70.5 -64.5t-91 -64h59zM202 275q41 28 79.5 61.5t68.5 65.5t48 59.5t18 42.5q0 16 -16 16q-17 0 -45 -23.5t-56 -61.5q-11 -15 -20 -27.5t-19.5 -30t-24 -41.5t-33.5 -61z"/>
    <glyph glyph-name="f_n.liga" unicode="fn" horiz-adv-x="467" d="M262 265q23 0 36 -14t13 -38q0 -17 -8 -35.5t-29 -50.5q29 40 50.5 66.5t38.5 42.5t30.5 22.5t27.5 6.5q21 0 35.5 -17.5t14.5 -43.5q0 -12 -1.5 -20.5t-8 -21.5t-20 -34t-37.5 -57q-14 -22 -19 -33t-5 -22q0 -20 20 -20t61 43t89 112q2 5 5 5t3 -3q0 -1 -7.5 -12 t-18.5 -25.5t-23.5 -30.5t-21.5 -27q-32 -38 -52.5 -53.5t-38.5 -15.5q-22 0 -37 17t-15 42q0 11 1.5 20t7.5 20.5t17 29t30 45.5q25 36 32.5 50.5t7.5 24.5q0 20 -21 20q-17 0 -40.5 -18.5t-52 -52.5t-61 -83.5t-66.5 -110.5q-9 1 -15 1.5t-14 0.5h-14.5t-17.5 -2l76 121 q21 33 34 54.5t20.5 35t10 21.5t2.5 14q0 19 -30 19h-57l-40 -78q-37 -71 -67.5 -124t-59 -93t-57.5 -71t-63 -59q-93 -78 -175 -78q-17 0 -26.5 2.5t-9.5 7.5q0 4 5 4q4 0 6 -1q9 -2 17.5 -3t15.5 -1q35 0 67 14t66 45q21 19 37.5 37t36.5 48.5t47 80.5t71 132l75 137h-52 l4 7h52q31 53 67.5 100.5t71 83t65 56.5t51.5 21q22 0 22 -23q0 -22 -16.5 -50t-45.5 -59.5t-70.5 -64.5t-90.5 -64h64zM202 275q41 28 79.5 61.5t68.5 65.5t48 59.5t18 42.5q0 16 -16 16q-17 0 -45 -23.5t-56 -61.5q-11 -14 -20 -27.5t-19.5 -30.5t-24 -41.5t-33.5 -60.5z "/>
    <glyph glyph-name="f_r.liga" unicode="fr" horiz-adv-x="356" d="M255 265q55 0 55 -49q0 -21 -8.5 -44t-28.5 -57q14 16 24 26.5t24 21.5q19 44 46 73t49 29q15 0 15 -14q0 -7 -4.5 -14t-15.5 -16.5t-30 -23t-49 -32.5l-6 -5q-8 -20 -8 -37q0 -19 8.5 -30t23.5 -11q17 0 39.5 17t42.5 46q10 11 12 11q3 0 3 -3q0 -2 -10 -14t-19 -22 q-39 -41 -69 -41q-16 0 -26.5 12t-10.5 31q0 8 1 16t5 19q-16 -14 -27 -25t-22.5 -27t-27.5 -41t-41 -68q-10 1 -16 1.5t-13 0.5t-13.5 -0.5t-17.5 -1.5l80 130q26 42 42.5 75.5t16.5 44.5q0 15 -21 15h-64l-40 -78q-36 -70 -66.5 -122.5t-59.5 -93t-58 -72t-63 -59.5 q-93 -78 -175 -78q-17 0 -26.5 2.5t-9.5 7.5q0 4 5 4q4 0 6 -1q9 -2 17.5 -3t15.5 -1q35 0 66.5 14t66.5 45q21 19 37.5 36.5t36 48t47 80.5t71.5 133l75 137h-52l4 7h53q31 52 67 99.5t71 83.5t65.5 57t51.5 21q22 0 22 -23q0 -22 -16.5 -50.5t-46 -60t-70.5 -64t-90 -63.5 h56zM202 275q40 27 78.5 60t68.5 65.5t48.5 60.5t18.5 43q0 16 -16 16q-17 0 -45.5 -24t-55.5 -61q-11 -14 -20 -27.5t-20 -31t-24.5 -42t-32.5 -59.5z"/>
    <glyph glyph-name="f_f_m.liga" unicode="ffm" horiz-adv-x="778" d="M416 265q53 0 53 -50q0 -16 -6.5 -34.5t-22.5 -44.5q25 36 44 61t34.5 40t28 21.5t24.5 6.5q20 0 33.5 -16t13.5 -42q0 -17 -4.5 -30.5t-21.5 -40.5q26 36 46.5 61t36.5 40t29.5 21.5t26.5 6.5q22 0 36 -17.5t14 -44.5q0 -12 -2 -21.5t-9 -23.5t-20.5 -34.5t-35.5 -53.5 q-13 -20 -18 -31.5t-5 -22.5q0 -20 20 -20q18 0 47.5 28.5t78.5 94.5l16 21l8 11q2 5 5 5t3 -3t-5 -8l-21 -29q-48 -66 -80.5 -96.5t-55.5 -30.5t-37.5 17t-14.5 43q0 11 1.5 20t7.5 21t16.5 28.5t28.5 42.5q23 32 32 49t9 28q0 20 -20 20q-17 0 -38 -15.5t-48 -47.5 t-60.5 -82t-74.5 -120q-8 2 -13.5 2h-13.5h-16t-18 -2l69 110q37 59 52.5 89t15.5 44q0 22 -18 22q-14 0 -37 -20.5t-51 -56.5t-59.5 -84.5t-61.5 -103.5q-8 2 -14 2h-15h-15.5t-17.5 -2l70 110q32 50 52 88.5t20 49.5q0 17 -31 17h-54l-41 -78q-37 -72 -67.5 -124.5 t-59 -92.5t-57 -71t-62.5 -59q-46 -38 -91 -58t-85 -20q-17 0 -26.5 2.5t-9.5 7.5t5 5q4 0 6 -1q11 -3 18 -4t15 -1q35 0 66.5 14t66.5 45q22 19 37.5 36.5t35 47.5t47 80t72.5 134l75 137h-104l-40 -78q-38 -72 -68 -125t-58.5 -93t-57.5 -70.5t-63 -58.5q-93 -78 -175 -78 q-17 0 -26.5 2.5t-9.5 7.5t5 5q4 0 6 -1q11 -3 18 -4t15 -1q35 0 66.5 14t66.5 45q21 19 37.5 36.5t36 48t47 80.5t71.5 133l75 137h-52l4 7h53q31 53 67 100.5t71 83t65.5 56.5t51.5 21q22 0 22 -23q0 -22 -16 -50t-45.5 -59.5t-70.5 -64.5t-91 -64h104q29 51 64.5 98 t71 83t67 58t52.5 22q22 0 22 -23q0 -22 -16.5 -50t-45.5 -59.5t-70.5 -64.5t-90.5 -64h59zM203 275q40 28 78.5 61.5t68.5 65.5t48 59.5t18 42.5q0 16 -16 16q-17 0 -45 -23.5t-56 -61.5q-11 -14 -19.5 -27t-19 -30t-24 -41.5t-33.5 -61.5zM361 275q39 27 77 60t68.5 65.5 t49 60.5t18.5 43q0 16 -16 16q-17 0 -45 -23.5t-56 -61.5q-10 -13 -20 -28t-21.5 -33.5t-25 -43t-29.5 -55.5z"/>
    <glyph glyph-name="f_f_n.liga" unicode="ffn" horiz-adv-x="625" d="M420 265q23 0 36 -14t13 -38q0 -17 -8 -35.5t-29 -50.5q29 40 50.5 66.5t38.5 42.5t30.5 22.5t27.5 6.5q21 0 35.5 -17.5t14.5 -43.5q0 -12 -1.5 -20.5t-8 -21.5t-20 -34t-37.5 -57q-14 -22 -19 -33t-5 -22q0 -20 20 -20t61 43t89 112q2 5 5 5t3 -3q0 -1 -7.5 -12 t-18.5 -25.5t-23.5 -30.5t-21.5 -27q-32 -38 -52.5 -53.5t-38.5 -15.5q-22 0 -37 17t-15 42q0 11 1.5 20t7.5 20.5t17 29t30 45.5q25 36 32.5 50.5t7.5 24.5q0 20 -21 20q-17 0 -40.5 -18.5t-52 -52.5t-61 -83.5t-66.5 -110.5q-9 1 -15 1.5t-14 0.5h-14.5t-17.5 -2l76 121 q21 33 34 54.5t20.5 35t10 21.5t2.5 14q0 19 -30 19h-56l-41 -78q-37 -72 -67.5 -124.5t-59 -92.5t-57 -71t-62.5 -59q-46 -38 -91 -58t-85 -20q-17 0 -26.5 2.5t-9.5 7.5t5 5q4 0 6 -1q11 -3 18 -4t15 -1q35 0 66.5 14t66.5 45q22 19 37.5 36.5t35 47.5t47 80t72.5 134 l75 137h-104l-40 -78q-38 -72 -68 -125t-58.5 -93t-57.5 -70.5t-63 -58.5q-93 -78 -175 -78q-17 0 -26.5 2.5t-9.5 7.5t5 5q4 0 6 -1q11 -3 18 -4t15 -1q35 0 66.5 14t66.5 45q21 19 37.5 36.5t36 48t47 80.5t71.5 133l75 137h-52l4 7h53q31 53 67 100.5t71 83t65.5 56.5 t51.5 21q22 0 22 -23q0 -22 -16 -50t-45.5 -59.5t-70.5 -64.5t-91 -64h104q29 51 64.5 98t71 83t67 58t52.5 22q22 0 22 -23q0 -22 -16.5 -50t-45.5 -59.5t-70.5 -64.5t-90.5 -64h63zM203 275q40 28 78.5 61.5t68.5 65.5t48 59.5t18 42.5q0 16 -16 16q-17 0 -45 -23.5 t-56 -61.5q-11 -14 -19.5 -27t-19 -30t-24 -41.5t-33.5 -61.5zM361 275q39 27 77 60t68.5 65.5t49 60.5t18.5 43q0 16 -16 16q-17 0 -45 -23.5t-56 -61.5q-10 -13 -20 -28t-21.5 -33.5t-25 -43t-29.5 -55.5z"/>
    <glyph glyph-name="f_f_r.liga" unicode="ffr" horiz-adv-x="513" d="M413 265q55 0 55 -49q0 -21 -8.5 -44t-28.5 -57q14 16 24 26.5t24 21.5q19 44 46 73t49 29q15 0 15 -14q0 -7 -4.5 -14t-15.5 -16.5t-30 -23t-49 -32.5l-6 -5q-8 -20 -8 -37q0 -19 8.5 -30t23.5 -11q17 0 39.5 17t42.5 46q10 11 12 11q3 0 3 -3q0 -2 -10 -14t-19 -22 q-39 -41 -69 -41q-16 0 -26.5 12t-10.5 31q0 8 1 16t5 19q-16 -14 -27 -25t-22.5 -27t-27.5 -41t-41 -68q-10 1 -16 1.5t-13 0.5t-13.5 -0.5t-17.5 -1.5l80 130q26 42 42.5 75.5t16.5 44.5q0 15 -21 15h-63l-41 -78q-37 -72 -67.5 -124.5t-59 -92.5t-57 -71t-62.5 -59 q-46 -38 -91 -58t-85 -20q-17 0 -26.5 2.5t-9.5 7.5t5 5q4 0 6 -1q11 -3 18 -4t15 -1q35 0 66.5 14t66.5 45q22 19 37.5 36.5t35 47.5t47 80t72.5 134l75 137h-104l-40 -78q-38 -72 -68 -125t-58.5 -93t-57.5 -70.5t-63 -58.5q-93 -78 -175 -78q-17 0 -26.5 2.5t-9.5 7.5 t5 5q4 0 6 -1q11 -3 18 -4t15 -1q35 0 66.5 14t66.5 45q21 19 37.5 36.5t36 48t47 80.5t71.5 133l75 137h-52l4 7h53q31 53 67 100.5t71 83t65.5 56.5t51.5 21q22 0 22 -23q0 -22 -16 -50t-45.5 -59.5t-70.5 -64.5t-91 -64h104q29 51 64.5 98t71 83t67 58t52.5 22 q22 0 22 -23q0 -22 -16.5 -50t-45.5 -59.5t-70.5 -64.5t-90.5 -64h56zM203 275q40 28 78.5 61.5t68.5 65.5t48 59.5t18 42.5q0 16 -16 16q-17 0 -45 -23.5t-56 -61.5q-11 -14 -19.5 -27t-19 -30t-24 -41.5t-33.5 -61.5zM361 275q39 27 77 60t68.5 65.5t49 60.5t18.5 43 q0 16 -16 16q-17 0 -45 -23.5t-56 -61.5q-10 -13 -20 -28t-21.5 -33.5t-25 -43t-29.5 -55.5z"/>
    <glyph glyph-name=".notdef" horiz-adv-x="500" d="M12 665h475v-665h-475v665zM250 375l161 243h-323zM60 91l7 10t18 27t25.5 39t29.5 45q35 54 81 121l-161 242v-484zM278 333l162 -243v485zM250 290l-162 -242h323z"/>
    <glyph glyph-name="glyph1" horiz-adv-x="0"/>
    <glyph glyph-name="glyph1" horiz-adv-x="0"/>
    <glyph glyph-name="uni000D" unicode="&#xD;" horiz-adv-x="177"/>
    <glyph glyph-name="space" unicode=" " horiz-adv-x="177"/>
    <glyph glyph-name="exclam" unicode="!" horiz-adv-x="287" d="M413 568q12 0 20 -8.5t8 -20.5q0 -7 -3.5 -16.5t-15.5 -28t-34 -50t-59 -82.5q-65 -89 -102.5 -147t-59.5 -101q-3 -6 -7 -6t-4 5q0 1 1 3t5 7q15 22 29 46.5t32 61.5t42 90t59 132q14 33 25.5 55t22 35.5t20.5 19t21 5.5zM142 77q19 0 19 -20q0 -11 -5.5 -22t-14.5 -20 t-20 -14.5t-21 -5.5q-21 0 -21 22q0 10 6 20.5t15 19.5t20 14.5t22 5.5z"/>
    <glyph glyph-name="quotedbl" unicode="&quot;" horiz-adv-x="478" d="M413 407q5 18 8.5 30.5t7 27.5t8 37t12.5 59q9 45 20 63.5t28 18.5q8 0 13.5 -6.5t5.5 -17.5t-5 -24.5t-17 -36.5q-17 -32 -28.5 -54.5t-19.5 -39.5t-13.5 -30t-10.5 -27h-9zM496 407q5 17 8 28t6.5 26t8.5 37.5t13 62.5q9 45 19.5 63.5t27.5 18.5q8 0 13.5 -6.5 t5.5 -16.5q0 -8 -1 -13.5t-6 -17.5t-16 -33.5t-32 -61.5q-14 -27 -23.5 -48t-15.5 -39h-8z"/>
    <glyph glyph-name="numbersign" unicode="#" horiz-adv-x="478" d="M466 493q-17 -29 -35.5 -60.5t-37.5 -66.5h53h13t20 1q12 28 19.5 47.5t13 33.5t9 24.5t6.5 20.5h47q-5 -7 -14.5 -22.5t-20 -34.5t-20.5 -37.5t-17 -31.5q17 -1 27 -1h21h29t51 1q-7 -8 -14 -20.5t-12 -25.5q-24 1 -41 1.5t-30.5 1t-25.5 1t-27 0.5q-11 -19 -17.5 -31.5 t-12 -22.5t-9.5 -18.5t-10 -19.5q24 0 39.5 0.5t28 1t24.5 1t30 0.5q-11 -15 -17 -25t-10 -20q-45 1 -116 3q-18 -35 -29.5 -56t-18.5 -34.5t-11 -21.5t-8 -17h-18q9 16 17 29.5t16 27.5t17 31.5t21 40.5h-39h-10.5h-10.5t-15 -0.5t-24 -0.5q-18 -32 -35.5 -63.5 t-35.5 -64.5h-15q4 9 7 15t7 12.5t9.5 16t14.5 25.5q6 11 10 18t7 12.5t6 12t8 15.5l-29 -1l-76 -2h-21q17 20 28 47q21 -1 36.5 -1.5t29 -1t26.5 -1t28 -0.5l9 18t8.5 18t11 23t15.5 33h-27l-68 -3h-21q9 12 17 25.5t11 21.5l13 -1h68l26 -1q18 42 30 73t19 54h52zM370 325 q-14 -24 -25 -44t-27 -49h18h56l24 1l46 92q-11 1 -19.5 1h-13.5h-15t-25 -1h-19z"/>
    <glyph glyph-name="dollar" unicode="$" horiz-adv-x="478" d="M586 591q5 11 10 11t5 -6q0 -2 -4 -12l-75 -137q80 -16 80 -72q0 -18 -9 -34t-25 -28t-37.5 -18.5t-46.5 -6.5q-30 0 -47.5 12.5t-17.5 34.5q0 9 5.5 20.5t14 21.5t18 17t17.5 7q4 0 4 -3q0 -2 -2 -2q-23 -11 -36 -27t-13 -33t12 -28t32 -11q16 0 33.5 9t31.5 22.5 t23.5 30t9.5 31.5q0 24 -20 38.5t-54 14.5q-28 0 -54.5 -10t-47 -26t-33 -36.5t-12.5 -41.5q0 -10 2.5 -17.5t12 -18t27.5 -25.5t50 -40q29 -23 42.5 -45.5t13.5 -48.5q0 -32 -17 -60.5t-46.5 -49.5t-68 -33.5t-81.5 -12.5h-9t-13 1l-98 -183q-5 -8 -9 -8q-5 0 -5 6 q0 3 1 4.5t3 6.5l98 176q-54 9 -84.5 35.5t-30.5 65.5q0 22 13.5 43.5t35.5 38.5t50 27.5t56 10.5q7 0 7 -2q0 -3 -11 -5q-23 -5 -42.5 -16t-34 -27t-23 -35t-8.5 -39q0 -45 27.5 -69.5t76.5 -24.5q33 0 62.5 9.5t52 25.5t35.5 38t13 46q0 13 -2.5 22.5t-11.5 20t-26.5 25 t-48.5 37.5q-32 24 -46.5 46t-14.5 48q0 28 16 55t43 47.5t62 33t73 12.5h9t12 -1z"/>
    <glyph glyph-name="percent" unicode="%" horiz-adv-x="461" d="M565 470q-12 -12 -21 -20.5t-19.5 -16t-25 -15.5t-36.5 -20q-26 -15 -42 -30t-30 -35q-26 -37 -53 -57t-52 -20q-23 0 -37 15t-14 39q0 22 15 47.5t38 47.5t50 36.5t50 14.5q17 0 27 -11t10 -29q0 -14 -4.5 -27t-16.5 -32q9 12 18 21t18.5 17.5t22 16.5t29.5 18 q21 12 34 19.5t22.5 14.5t18.5 15.5t22 21.5q5 5 7 5q3 0 3 -3t-5 -9q-21 -23 -53.5 -67.5t-71 -104t-80.5 -130t-83 -144.5q-11 3 -19 4t-18 1q-7 0 -12.5 -0.5t-15.5 -1.5q47 65 92.5 126.5t86 114t74.5 94t57 67.5zM391 449q-17 0 -38.5 -17.5t-41 -42.5t-33 -53 t-13.5 -49q0 -24 21 -24q17 0 39 16.5t41.5 41t32.5 52.5t13 50q0 26 -21 26zM577 275q37 0 37 -40q0 -24 -14 -52t-34.5 -52t-45 -40t-45.5 -16q-23 0 -37 15t-14 38q0 22 15 48t38 48t49.5 36.5t50.5 14.5zM580 268q-17 0 -38.5 -17.5t-41 -42.5t-33 -52.5t-13.5 -48.5 q0 -25 21 -25q17 0 39 16.5t41.5 41t32.5 52.5t13 50q0 26 -21 26z"/>
    <glyph glyph-name="ampersand" unicode="&amp;" horiz-adv-x="703" d="M861 216q0 3 4 3t8.5 -17t4.5 -33q0 -40 -21 -79t-55 -69.5t-77 -49.5t-88 -19q-81 0 -132 57q-29 -9 -55 -13.5t-52 -4.5q-50 0 -93.5 15.5t-76 42.5t-51.5 63.5t-19 78.5q0 105 121 187q14 9 28.5 17.5t33 17.5t41.5 18.5t54 21.5q15 6 24 9.5t15.5 6t12 4.5t12.5 5 q17 32 41.5 64t50.5 57t49.5 40.5t39.5 15.5q8 0 12.5 -4.5t4.5 -10.5q0 -12 -14.5 -31t-40 -41.5t-59.5 -47t-74 -48.5q-6 -15 -10.5 -26t-8 -20.5t-7 -21t-8.5 -28.5q16 3 27.5 4.5t22.5 1.5q34 0 62 -11.5t48 -31.5t31.5 -48t11.5 -62q0 -70 -42.5 -126.5t-120.5 -89.5 q25 -28 52.5 -40t65.5 -12q43 0 85.5 18t75.5 47.5t53.5 67t20.5 76.5q0 11 -1.5 20t-6.5 23v3zM495 463q-45 -24 -72 -38.5t-44 -25t-29 -19.5t-28 -22q-120 -99 -120 -202q0 -32 14.5 -60t40 -49t60 -33t74.5 -12q26 0 49.5 5.5t51.5 17.5q-7 10 -14 22t-12 23 q-15 -3 -20.5 -3.5t-13.5 -0.5q-27 0 -51 9.5t-42 25.5t-28.5 37.5t-10.5 46.5q0 59 43 109.5t116 76.5q7 23 16.5 47.5t19.5 44.5zM503 31q34 18 63 42.5t50 53t33 58.5t12 58t-10 52t-27.5 41.5t-42 27.5t-53.5 10q-14 0 -26 -1.5t-29 -6.5q-11 -42 -16 -80t-5 -76 q0 -35 5.5 -64.5t18.5 -63.5q21 7 39.5 19.5t32 27.5t21 31t6.5 31q0 14 10 14q11 0 11 -11q0 -15 -10 -32.5t-26.5 -34t-37.5 -31t-43 -22.5q1 -2 3.5 -7.5t7.5 -15.5q2 -4 5 -9t8 -11zM455 359q-28 -12 -52 -31t-41.5 -43t-27.5 -51t-10 -54q0 -45 30.5 -74.5t77.5 -29.5 q9 0 15.5 0.5t14.5 2.5q-14 35 -20.5 68.5t-6.5 71.5q0 35 4.5 67t15.5 73zM516 487q29 16 60 38t56 44t41 41t16 29q0 8 -8 8q-13 0 -34.5 -14.5t-45.5 -38t-47 -52t-38 -55.5z"/>
    <glyph glyph-name="quotesingle" unicode="'" horiz-adv-x="321" d="M376 407q5 18 8.5 30.5t7 27.5t8 37t12.5 59q9 45 20 63.5t28 18.5q8 0 13.5 -6.5t5.5 -17.5t-5 -24.5t-17 -36.5q-17 -32 -28.5 -54.5t-19.5 -39.5t-13.5 -30t-10.5 -27h-9z"/>
    <glyph glyph-name="parenleft" unicode="(" horiz-adv-x="439" d="M847 708q7 0 7 -4q0 -3 -2 -4t-16 -3q-67 -11 -131 -41.5t-122 -76.5t-107 -103.5t-85 -122t-56 -133t-20 -135.5q0 -96 60 -154q3 -3 3 -5q0 -3 -3 -3q-5 0 -31 29q-33 38 -51 90.5t-18 110.5q0 68 24 138t66.5 134t100.5 118t127 89q25 13 61 26.5t72.5 24.5t69.5 18 t51 7z"/>
    <glyph glyph-name="parenright" unicode=")" horiz-adv-x="439" d="M363 705q2 0 19 -15q43 -42 61.5 -87.5t18.5 -105.5q0 -53 -6 -97t-18.5 -84t-33 -76.5t-48.5 -73.5q-33 -42 -69 -76t-78 -61.5t-91 -49t-108 -39.5q-17 -5 -33.5 -9.5t-30.5 -8t-24 -5.5t-14 -2q-5 0 -5 4t12 6q64 12 126.5 44t119 78.5t104 105t82.5 123t55 132.5 t20 134q0 100 -59 154q-4 3 -4 6t4 3z"/>
    <glyph glyph-name="asterisk" unicode="*" horiz-adv-x="478" d="M480 548q-22 20 -35.5 42t-13.5 37q0 21 23 21q9 0 15 -6t6 -14q0 -2 -0.5 -5.5t-1.5 -8.5t-1 -15q0 -11 2.5 -20t7.5 -22l3 -6zM490 552q12 52 22.5 71t27.5 19q8 0 14 -5.5t6 -13.5q0 -15 -19 -26q-20 -13 -28 -21t-18 -24h-5zM497 546q43 19 71 19q25 0 25 -24 q0 -11 -5.5 -18t-13.5 -7q-6 0 -18 8q-11 8 -23.5 13t-20.5 5h-4.5t-10.5 -2v6zM497 535l8 -8l21 -19q10 -10 18 -25t8 -23q0 -9 -6.5 -15t-16.5 -6q-13 0 -17 7.5t-4 31.5q-2 37 -17 54zM487 531q-12 -52 -22.5 -72t-26.5 -20q-10 0 -16 6t-6 14q0 9 5 14.5t19 13.5 q28 13 41 45zM478 536q-36 -11 -65 -11q-31 0 -31 25q0 11 6 18t14 7q4 0 7 -1.5t9 -7.5q31 -24 60 -24v-6z"/>
    <glyph glyph-name="plus" unicode="+" horiz-adv-x="523" d="M414 251v-232h-19v232h-205v19h205v232h19v-232h205v-19h-205z"/>
    <glyph glyph-name="comma" unicode="," horiz-adv-x="223" d="M131 80q20 0 20 -21q0 -15 -10 -35t-26 -37q-7 -8 -16.5 -15.5t-19.5 -14t-19 -10.5t-13 -4q-3 0 -3 3t4 4q20 8 36.5 21t16.5 23q0 3 -5 3q-22 0 -22 21q0 10 5.5 21t14 20t18.5 15t19 6z"/>
    <glyph glyph-name="hyphen" unicode="-" horiz-adv-x="358" d="M227 136q8 0 14 -1.5t28 -5.5q24 -6 39 -6q10 0 22.5 3t20.5 7q3 2 5 2t2 -2q0 -3 -12 -8t-28 -10.5t-33.5 -9t-27.5 -3.5q-9 0 -18 1t-23 4q-15 4 -22.5 5t-15.5 1q-20 0 -39 -10q-1 -1 -3 -1t-2 2q0 3 11.5 8.5t26.5 10.5t30.5 9t24.5 4z"/>
    <glyph glyph-name="period" unicode="." horiz-adv-x="223" d="M151 77q19 0 19 -20q0 -11 -5.5 -22t-14.5 -20t-20 -14.5t-21 -5.5q-21 0 -21 22q0 10 6 20.5t15 19.5t20 14.5t22 5.5z"/>
    <glyph glyph-name="slash" unicode="/" horiz-adv-x="529" d="M710 726l-525 -827h-15l525 827h15z"/>
    <glyph glyph-name="zero" unicode="0" horiz-adv-x="478" d="M517 527q52 0 83 -38.5t31 -102.5q0 -111 -112 -238q-65 -73 -131 -113.5t-121 -40.5q-29 0 -53.5 11t-42 31t-27.5 47t-10 60q0 67 39.5 132.5t121.5 134.5q139 117 222 117zM518 520q-32 0 -70 -20t-75.5 -54t-72.5 -78t-62 -91.5t-43 -95t-16 -88.5q0 -45 22.5 -68.5 t64.5 -23.5q52 0 107 38t109 112q25 35 46 73.5t36 76.5t23 73.5t8 65.5q0 80 -77 80z"/>
    <glyph glyph-name="one" unicode="1" horiz-adv-x="478" d="M583 476q-27 -32 -60 -67t-67.5 -68.5t-67.5 -63t-60 -49.5q-16 -12 -32.5 -23.5t-30 -20.5t-23.5 -14t-13 -5q-4 0 -4 3t6 6q60 27 152.5 108.5t207.5 209.5q9 10 12 13.5t5 3.5t2 -2t-27 -45t-84 -131q-45 -69 -74.5 -117.5t-48.5 -85.5t-30.5 -67.5t-20.5 -63.5 q-17 4 -30 4q-11 0 -22 -1.5t-31 -4.5q9 26 25 56.5t40.5 67t58.5 80.5t79 98q29 36 51.5 63.5t39 49t28 38t19.5 28.5z"/>
    <glyph glyph-name="two" unicode="2" horiz-adv-x="478" d="M111 28q24 19 45 26.5t50 7.5q23 0 48 -5t60 -16q17 -5 29.5 -8.5t22.5 -5.5t18.5 -3t17.5 -1q42 0 77 33.5t48 85.5q1 6 5 6q2 0 2 -2q0 -10 -11 -33.5t-22 -40.5q-62 -85 -152 -85q-20 0 -39.5 4t-60.5 16q-27 8 -43 13t-26.5 7.5t-17 3t-14.5 0.5q-24 0 -39 -10.5 t-17 -30.5q-2 -11 -7 -11q-4 0 -4 4q0 10 11 28t28 35q16 17 31.5 30t37 26.5t53 29.5t81.5 39q61 29 110 62.5t82.5 70t51.5 74t18 74.5q0 31 -23 49t-61 18q-43 0 -93 -25t-93 -63t-71.5 -82t-28.5 -82q0 -26 18 -40.5t48 -14.5q26 0 57 14t60 37.5t53 52.5t36 59q1 5 4 5 t3 -3q0 -4 -4 -12t-10 -18t-13.5 -21t-14.5 -20q-37 -44 -84.5 -71.5t-85.5 -27.5t-60.5 22.5t-22.5 59.5q0 91 121 171q48 32 94.5 48.5t88.5 16.5q57 0 93 -30.5t36 -79.5q0 -31 -15 -62.5t-41 -57.5q-20 -19 -38.5 -32.5t-44.5 -27.5t-65.5 -31t-101.5 -42 q-83 -33 -133.5 -64.5t-81.5 -69.5z"/>
    <glyph glyph-name="three" unicode="3" horiz-adv-x="478" d="M285 182q-9 2 -15.5 2.5t-14.5 0.5q-27 0 -50 -8t-40 -22.5t-27 -33.5t-10 -41q0 -36 29 -59t75 -23q45 0 87.5 17.5t76.5 46t54.5 65t20.5 74.5q0 63 -77 83q-16 -2 -35.5 -4t-33.5 -2q-25 0 -25 6q0 10 36 10q13 0 26.5 -1t31.5 -4q75 25 118.5 71.5t43.5 102.5 q0 62 -79 62q-34 0 -70.5 -13t-66.5 -34t-49 -46t-19 -49q0 -20 15 -32t41 -12q17 0 37 7.5t39.5 20t37 29t29.5 34.5q2 5 6 5q2 0 2 -2q0 -3 -5.5 -10t-13.5 -16t-17 -18t-17 -15q-24 -19 -50.5 -30t-49.5 -11q-29 0 -47 17t-18 43q0 25 19.5 49.5t50 44t69.5 32t78 12.5 q57 0 91 -25t34 -68q0 -57 -50.5 -95.5t-150.5 -55.5q57 -13 87.5 -44t30.5 -76q0 -35 -22 -67t-58.5 -56.5t-85 -39t-101.5 -14.5q-33 0 -61.5 7t-48.5 20t-31.5 30.5t-11.5 38.5q0 22 11.5 41t31 33t46.5 22.5t57 8.5q17 0 31.5 -2t14.5 -4q0 -3 -3 -3h-4z"/>
    <glyph glyph-name="four" unicode="4" horiz-adv-x="478" d="M575 472q-9 -18 -17 -33t-16 -29t-17 -30t-20 -35q-20 -37 -35 -64.5t-25.5 -48t-18.5 -36t-14 -28.5q23 -2 33.5 -2h22.5q51 0 83 22.5t32 57.5q0 13 -7 28q-1 2 -1 5t3 3q4 0 7.5 -12t3.5 -24q0 -48 -48 -73t-139 -25q-43 -93 -52 -150q-11 4 -18 5t-18 1t-21.5 -1 t-27.5 -5q12 32 34 73t47 77q-12 1 -20.5 1.5t-31.5 2.5q-54 6 -85 6h-13.5t-12 -0.5t-14.5 -1.5t-20 -2q-11 -7 -24.5 -13.5t-26 -12t-24 -8.5t-18.5 -3q-8 0 -8 5q0 7 26.5 17.5t67.5 18.5q34 20 60 37.5t53 41t60 56.5t83 84q105 106 186 157t145 51q18 0 35.5 -5 t17.5 -10q0 -4 -4 -4q-3 0 -5 1q-13 5 -22.5 6.5t-21.5 1.5q-65 0 -144 -50t-182 -156q-49 -51 -83 -84t-61 -56t-52 -39t-55 -32q31 8 64.5 11.5t86.5 3.5h29t29 -2q13 19 21.5 32t19.5 28.5t28 39t47 64.5q13 19 28.5 41.5t29.5 43.5t24.5 37.5t13.5 23.5q3 6 6 6 q2 0 2 -2t-1 -3z"/>
    <glyph glyph-name="five" unicode="5" horiz-adv-x="478" d="M306 318q41 19 82 19q33 0 61 -10t49 -27.5t32.5 -41.5t11.5 -52q0 -41 -25 -80t-67 -69t-96 -48t-112 -18q-61 0 -99.5 27.5t-38.5 71.5q0 25 13 46.5t36.5 37.5t55 25t68.5 9q20 0 31 -1.5t11 -4.5q0 -2 -3 -2h-4t-11 1q-5 1 -9 1h-11q-33 0 -60 -9t-47 -25t-31 -38 t-11 -48q0 -39 27 -61.5t75 -22.5q45 0 90.5 21t83 54t61 73.5t23.5 79.5q0 47 -31 74.5t-84 27.5q-35 0 -77 -16q-24 -31 -43 -48.5t-28 -17.5q-6 0 -6 5q0 9 19 25t53 36q19 25 34.5 52t27 53.5t18 50.5t6.5 42q0 9 -1 13q-1 2 -1 5q0 6 6 6t6 -16q0 -15 -6 -40 q28 48 73 48q7 0 12.5 -0.5t14.5 -3t24.5 -8t42.5 -14.5q28 -9 41 -9q15 0 26.5 11t11.5 26q0 3 -2 9q-2 5 -2 7q0 6 5 6q6 0 6 -13q0 -15 -7.5 -29.5t-20.5 -25t-29.5 -17t-34.5 -6.5q-15 0 -27 2t-31 9q-27 10 -41.5 13.5t-27.5 3.5q-17 0 -25 -7t-16 -27 q-16 -42 -32.5 -73t-39.5 -62z"/>
    <glyph glyph-name="six" unicode="6" horiz-adv-x="478" d="M628 566q-29 0 -64.5 -15.5t-73.5 -43.5t-77 -65.5t-74.5 -81t-65.5 -91.5t-51 -96q24 39 53.5 71.5t60.5 56t62.5 36t60.5 12.5q49 0 79.5 -30t30.5 -78q0 -43 -26.5 -87.5t-68.5 -81t-93.5 -59.5t-101.5 -23q-55 0 -87.5 35t-32.5 95q0 44 18.5 91t54 94t87 93.5 t117.5 90.5q27 18 56.5 33.5t57 27.5t51 19t37.5 7q9 0 9 -5t-10 -5h-9zM454 343q-39 0 -83 -26t-82 -65t-63 -85.5t-25 -86.5q0 -38 19 -61t51 -23q25 0 54 13t57.5 35t54.5 51t46 60t32 62.5t12 59.5q0 31 -19.5 48.5t-53.5 17.5z"/>
    <glyph glyph-name="seven" unicode="7" horiz-adv-x="478" d="M626 549q0 8 7 8t7 -8q0 -9 -7 -28t-17 -34q-9 -15 -16.5 -26.5t-21.5 -26.5t-37.5 -38.5l-63.5 -63.5q-92 -90 -146 -178t-58 -156q-14 3 -23.5 4t-21.5 1t-19.5 -1t-18.5 -4q9 48 29.5 92t58 89.5t93.5 95.5t136 109q25 20 43 35.5t31 29.5t22 27.5t16 28.5 q-35 -52 -106 -52q-37 0 -96 22q-20 7 -32 11.5t-20 6.5t-13.5 3t-11.5 1q-15 0 -29 -8l-3 -6q-17 -35 -32 -55.5t-23 -20.5q-6 0 -6 6q0 11 17 33t40 43q11 22 11 38q0 3 -0.5 5.5t-2.5 10.5v2q0 6 6 6t6 -10q0 -18 -11 -45q21 17 39.5 24.5t39.5 7.5q8 0 15 -0.5t16.5 -3 t25 -7.5t41.5 -14q41 -14 69 -14q32 0 50 12.5t18 35.5q0 4 -1 9v3z"/>
    <glyph glyph-name="eight" unicode="8" horiz-adv-x="478" d="M441 307q23 -22 38 -38.5t23.5 -31t12 -29t3.5 -30.5q0 -36 -20 -70t-54 -60.5t-77.5 -42t-90.5 -15.5q-68 0 -109.5 30.5t-41.5 80.5q0 30 13.5 55.5t43.5 49t79 45.5t120 44q-28 27 -38.5 47t-10.5 43q0 28 17.5 55.5t46 48.5t65 34t74.5 13q24 0 44.5 -6.5t36 -17.5 t24 -26t8.5 -32q0 -45 -48.5 -81t-158.5 -66zM438 311q85 29 131 71t46 87q0 26 -22 43.5t-58 17.5q-32 0 -60 -9.5t-49.5 -26t-34 -38t-12.5 -45.5q0 -11 2.5 -20.5t9 -20.5t18 -25t29.5 -34zM384 291q-109 -40 -165 -92t-56 -115q0 -42 29 -65t83 -23q39 0 74.5 12 t61.5 32.5t41.5 48t15.5 58.5q0 18 -2.5 31t-11.5 28t-25.5 35t-44.5 50z"/>
    <glyph glyph-name="nine" unicode="9" horiz-adv-x="478" d="M128 -32q44 0 102.5 32.5t117.5 85t111 119.5t84 135q-24 -36 -54.5 -66t-63.5 -52t-66 -34.5t-62 -12.5q-48 0 -75.5 28.5t-27.5 76.5q0 44 25.5 85.5t74.5 79.5q24 19 51 35t54 27t52.5 17.5t45.5 6.5q51 0 83 -36t32 -95q0 -42 -19.5 -87.5t-55.5 -92t-87.5 -91.5 t-115.5 -86q-29 -18 -60 -34t-60.5 -27.5t-55 -18.5t-41.5 -7q-8 0 -8 5q0 7 12 7h7zM498 525q-25 0 -54 -13.5t-58.5 -35.5t-56.5 -51t-48 -60t-33.5 -62.5t-12.5 -57.5q0 -29 18 -46t49 -17q22 0 49 9.5t55.5 26.5t56 40t49.5 49q58 68 58 135q0 39 -19 61t-53 22z"/>
    <glyph glyph-name="colon" unicode=":" horiz-adv-x="223" d="M151 77q19 0 19 -20q0 -11 -5.5 -22t-14.5 -20t-20 -14.5t-21 -5.5q-21 0 -21 22q0 10 6 20.5t15 19.5t20 14.5t22 5.5zM239 220q19 0 19 -20q0 -11 -5.5 -22t-14.5 -20t-20 -14.5t-21 -5.5q-21 0 -21 22q0 10 6 20.5t15 19.5t20 14.5t22 5.5z"/>
    <glyph glyph-name="semicolon" unicode=";" horiz-adv-x="223" d="M132 80q20 0 20 -21q0 -15 -10 -35t-26 -37q-7 -8 -16.5 -15.5t-19.5 -14t-19 -10.5t-13 -4q-3 0 -3 3t4 4q20 8 36.5 21t16.5 23q0 3 -5 3q-22 0 -22 21q0 10 5.5 21t14 20t18.5 15t19 6zM229 224q19 0 19 -20q0 -11 -5.5 -22t-14.5 -20t-20 -14.5t-21 -5.5 q-21 0 -21 21q0 10 6 21t15 20t20 14.5t22 5.5z"/>
    <glyph glyph-name="less" unicode="&lt;" horiz-adv-x="523" d="M177 259l422 224v-26l-380 -195v-3l380 -197v-26z"/>
    <glyph glyph-name="equal" unicode="=" horiz-adv-x="523" d="M190 350v19h429v-19h-429zM190 153v19h429v-19h-429z"/>
    <glyph glyph-name="greater" unicode="&gt;" horiz-adv-x="523" d="M200 484l422 -223l-422 -224v26l380 196v2l-380 198v25z"/>
    <glyph glyph-name="question" unicode="?" horiz-adv-x="436" d="M464 575q66 -5 107 -41t41 -90q0 -77 -93 -135q-12 -8 -22.5 -13.5t-27 -12.5t-43 -17.5t-71.5 -27.5q-63 -24 -98.5 -52t-35.5 -54q0 -11 7.5 -18t18.5 -7q19 0 42.5 16.5t40.5 40.5q1 3 4 3q2 0 2 -3t-8.5 -13.5t-19.5 -20.5q-15 -14 -31.5 -22t-29.5 -8q-15 0 -24 8.5 t-9 22.5q0 26 31 54q7 6 12 10t15.5 11t29.5 17.5t54 30.5q106 58 156 113t50 112q0 80 -96 91q2 -11 3 -18.5t1 -18.5q0 -43 -19 -86.5t-50 -78t-69 -56.5t-76 -22q-32 0 -53.5 20.5t-21.5 52.5q0 40 23.5 78t62.5 68t88.5 48t101.5 18q-26 60 -83 60q-20 0 -38 -7 q-4 -2 -5 -2q-3 0 -3 3q0 4 16 8.5t30 4.5q63 0 90 -67zM459 570q-98 0 -184 -81q-37 -35 -58 -72.5t-21 -66.5q0 -25 16 -39t43 -14q35 0 72 22t67.5 56.5t50 76.5t19.5 81q0 10 -1 18t-4 19zM214 77q19 0 19 -20q0 -11 -5.5 -22t-14.5 -20t-20 -14.5t-21 -5.5 q-21 0 -21 22q0 10 6 20.5t15 19.5t20 14.5t22 5.5z"/>
    <glyph glyph-name="at" unicode="@" horiz-adv-x="684" d="M604 232q-24 -41 -34.5 -64t-10.5 -36q0 -24 30 -24q14 0 35 6.5t38 16.5q59 33 93.5 88.5t34.5 116.5q0 38 -17.5 71.5t-47.5 58t-70.5 38.5t-86.5 14q-63 0 -123.5 -30t-107.5 -79.5t-76 -112.5t-29 -129q0 -42 20.5 -79.5t55 -66t81 -45t97.5 -16.5q39 0 72 6.5 t55 19.5q6 3 9 3t3 -3q0 -6 -13.5 -13t-34.5 -12.5t-46 -9t-48 -3.5q-61 0 -113.5 20.5t-91 56t-60.5 84t-22 104.5q0 64 29.5 121.5t79.5 101t116 69t140 25.5q54 0 98.5 -14.5t76.5 -40.5t49.5 -62.5t17.5 -80.5q0 -42 -19 -83t-50 -74t-70 -53.5t-78 -20.5q-63 0 -63 61 q0 14 3.5 26.5t13.5 29.5q-25 -34 -43 -56t-32.5 -35t-26.5 -18.5t-24 -5.5q-26 0 -43.5 22t-17.5 57q0 45 34 87.5t98 77.5q29 15 53 23.5t41 8.5q30 0 30 -29q0 -9 -3 -22l25 47q8 -2 13 -3t13 -1q9 0 15.5 1t17.5 3zM580 372q-15 0 -35 -12t-41 -31.5t-42 -44.5 t-37 -50.5t-26 -49.5t-10 -42q0 -32 28 -32q10 0 20.5 5.5t24.5 18.5t31.5 34.5t40.5 53.5q68 91 68 126q0 24 -22 24z"/>
    <glyph glyph-name="A" unicode="A" horiz-adv-x="953" d="M650 294h25h19.5t21 -0.5t30.5 -0.5q72 79 140.5 137t137 95.5t139 55.5t145.5 19q17 4 33.5 5.5t31.5 1.5q32 0 50 -6t18 -17q0 -9 -10 -9q-4 0 -8 0.5t-25 5.5t-46 8.5t-42 3.5q-41 -13 -73.5 -34.5t-64.5 -58t-65.5 -92t-75.5 -137.5q-57 -118 -130.5 -185t-168.5 -89 q24 -4 37.5 -5t29.5 -1q50 0 84 13t67 45q17 16 41.5 45t56.5 72q5 7 8 7q2 0 2 -3q0 -1 -6 -9t-14.5 -19.5t-18 -24.5t-17.5 -22q-26 -32 -48.5 -53.5t-46 -34t-49 -18t-56.5 -5.5q-22 0 -41 2.5t-46 7.5q-17 -5 -34 -7.5t-38 -2.5q-28 0 -28 10q0 12 38 12q14 0 29.5 -1.5 t32.5 -3.5q37 9 63 20.5t52.5 40t60.5 81t88 142.5h-188q-71 -78 -134.5 -135t-121.5 -94t-111.5 -55t-105.5 -18q-91 0 -144 50.5t-53 137.5q0 53 22 105t60 96.5t90.5 79t113.5 52.5q20 40 52 73.5t71 58t82 38.5t86 14q51 0 80 -25t29 -70q0 -20 -5 -37t-18 -42 q-14 -26 -17.5 -36t-3.5 -20q0 -16 12 -26t30 -10q26 0 49.5 17t51.5 55q4 6 7 6q4 0 4 -4q0 -5 -23 -31q-46 -52 -89 -52q-29 0 -46 20t-17 52q0 10 1 17.5t4 16t9.5 21t17.5 33.5q15 27 15 47q0 25 -27 42t-66 17q-40 0 -80.5 -13t-77.5 -36t-68 -54.5t-51 -68.5 q20 5 34 6.5t30 1.5q72 0 113 -38t41 -105v-13t-2 -15q19 15 36 38.5t27 46.5q1 5 4 5q4 0 4 -5q0 -7 -6 -19t-16 -25.5t-23.5 -27t-27.5 -25.5q-9 -47 -36 -90.5t-64.5 -77.5t-82.5 -54t-88 -20q-48 0 -78.5 30t-30.5 77q0 56 35.5 110t95.5 88q-1 9 -1 12v6q0 35 17 77 q-52 -19 -97.5 -55t-80 -81.5t-54.5 -96.5t-20 -101q0 -75 46 -119.5t123 -44.5q44 0 86 13.5t90 47t107 90t138 142.5h-49.5t-45.5 -1zM609 316q-29 -17 -53 -24t-50 -7q-50 0 -81.5 26.5t-39.5 74.5q-27 -17 -49.5 -38.5t-38.5 -45.5t-25 -50t-9 -51q0 -46 27 -74t71 -28 q35 0 71.5 16.5t69.5 46t61 69t46 85.5zM413 494q-11 -26 -15.5 -45.5t-4.5 -48.5q9 5 21 10t23 8.5t20 6t13 2.5q5 0 5 -3t-2 -4t-16 -4q-15 -4 -32 -10.5t-31 -14.5q8 -48 37 -73t77 -25q26 0 50.5 8t54.5 27q5 17 6.5 29t1.5 27q0 56 -36.5 89.5t-97.5 33.5 q-36 0 -74 -13zM984 293q30 54 69 104t80.5 90.5t81 68t71.5 35.5q-64 -3 -121 -20.5t-114.5 -52.5t-119 -90.5t-133.5 -134.5h186z"/>
    <glyph glyph-name="B" unicode="B" horiz-adv-x="929" d="M896 584q-32 -24 -57.5 -51t-51 -65t-53 -91.5t-63.5 -130.5q-19 -39 -40 -71t-46.5 -58t-56 -47.5t-68.5 -40.5q-99 -49 -179 -49q-77 0 -122 38.5t-45 104.5q0 58 43 119q-2 6 -2 10v9q0 50 20 98.5t56 92.5t84.5 81.5t105.5 65t120 43t128 15.5q66 0 126 -15.5 t105 -44.5q47 29 85 42t76 13q31 0 57 -10.5t45 -29t29.5 -44.5t10.5 -56q0 -14 -1 -28t-3.5 -25t-5 -18t-5.5 -7t-3 4t1 8q5 18 6.5 31t1.5 29q0 63 -36.5 100t-98.5 37q-35 0 -72 -12.5t-79 -38.5q40 -29 58 -58t18 -64q0 -51 -39.5 -85.5t-107.5 -44.5q60 -18 91.5 -58.5 t31.5 -97.5q0 -42 -19.5 -80t-52 -67t-76 -46t-91.5 -17q-46 0 -73.5 23.5t-27.5 62.5q0 31 16 64t41 60t55.5 44t59.5 17q32 0 53 -20t21 -49q0 -10 -3.5 -23.5t-8.5 -25.5t-10.5 -20t-9.5 -8q-3 0 -3 4q0 1 5 9q10 13 16 31t6 32q0 26 -18.5 44t-47.5 18q-28 0 -57 -16.5 t-52.5 -42.5t-38.5 -58t-15 -62q0 -32 23 -53t57 -21q37 0 73 20t64 53t45.5 74.5t17.5 84.5q0 97 -85 122q-10 -2 -26 -3t-30 -1q-18 0 -25 1.5t-7 5.5q0 9 32 9q11 0 23 -1t36 -6q25 6 45.5 19.5t35.5 33t23.5 43.5t8.5 50q0 29 -10.5 52t-33.5 43zM888 590 q-37 27 -95 42.5t-123 15.5q-86 0 -168 -30.5t-149 -82.5t-113.5 -121t-60.5 -145q24 25 60 46.5t70 30.5q19 34 45 62t54.5 48t59 31t59.5 11q35 0 57.5 -22.5t22.5 -58.5q0 -42 -24 -92t-66 -98q-108 -120 -218 -120q-57 0 -93.5 32t-47.5 90q-35 -54 -35 -105 q0 -63 42 -99.5t114 -36.5q45 0 85 13t78.5 41.5t76 74.5t78.5 111q46 75 84 131.5t72.5 99t67 74t67.5 57.5zM177 238q0 -57 33 -90t89 -33q58 0 117 35.5t110 101.5q35 44 53.5 86.5t18.5 78.5q0 31 -19 52t-47 21q-46 0 -96.5 -37t-91.5 -100q6 2 10.5 2h11.5 q45 0 71.5 -20t26.5 -54q0 -14 -4 -14t-4 10q1 32 -24.5 51t-68.5 19q-6 0 -11.5 -0.5t-12.5 -1.5q-35 -62 -35 -106q0 -21 11.5 -35t28.5 -14q3 0 4 1h3q3 0 3 -3q0 -5 -10 -5q-25 0 -42 23t-17 58q0 34 19 73q-35 -11 -68.5 -33t-58.5 -51v-15z"/>
    <glyph glyph-name="C" unicode="C" horiz-adv-x="797" d="M386 347q-102 17 -156.5 60t-54.5 107q0 38 20.5 71t57.5 57t87 37.5t109 13.5q80 0 166 -28.5t165 -80.5q18 4 29.5 5t27.5 1q48 0 73.5 -12.5t25.5 -35.5q0 -16 -10.5 -31.5t-33.5 -34.5q19 -29 29.5 -57.5t10.5 -51.5q0 -12 -7 -12q-4 0 -5 3t-1 13q-2 49 -34 99 q-36 -26 -87 -49.5t-106.5 -41t-112 -28t-103.5 -10.5h-9.5t-13.5 1q-38 -53 -58 -106.5t-20 -103.5q0 -68 41 -107t113 -41q-19 20 -29.5 48.5t-10.5 59.5q0 49 24 97t62.5 85.5t87.5 61t100 23.5q47 0 72 -26.5t25 -75.5q0 -51 -25.5 -99.5t-68 -87.5t-98 -64.5 t-116.5 -29.5q18 -14 46 -23t58 -9q14 0 30.5 3.5t33.5 9t32.5 13.5t27.5 17q5 4 8 4t3 -3q0 -6 -15 -15t-36.5 -17.5t-44.5 -14t-39 -5.5q-70 0 -118 39q-32 1 -51 4.5t-42 13.5q-26 11 -47.5 30.5t-37 43.5t-24 52.5t-8.5 57.5q0 81 58 170zM792 575q32 -22 52.5 -42.5 t43.5 -50.5q40 33 40 60q0 18 -21.5 29t-56.5 11q-16 0 -28.5 -1.5t-29.5 -5.5zM471 349q47 0 103 10t111.5 27.5t106.5 41t89 49.5q-17 26 -44.5 51.5t-56.5 44.5q-45 -12 -90.5 -33.5t-87.5 -51t-78.5 -65t-64.5 -74.5h12zM766 582q-69 40 -153 63t-162 23q-52 0 -99 -13 t-82.5 -35.5t-56.5 -52t-21 -62.5q0 -57 50.5 -95t147.5 -57q59 83 157 142.5t219 86.5zM543 -16q52 0 106 26.5t98 68t72.5 92t28.5 98.5q0 38 -21.5 59.5t-59.5 21.5q-42 0 -86.5 -26t-81.5 -66t-61 -89t-24 -94q0 -26 7.5 -50t21.5 -41z"/>
    <glyph glyph-name="D" unicode="D" horiz-adv-x="847" d="M370 2q34 9 61.5 19.5t52 26.5t47.5 38.5t49 56t56.5 79.5t69.5 109q36 57 76.5 107t80.5 88q-34 57 -94.5 88.5t-136.5 31.5q-79 0 -158 -33.5t-145 -96.5q-35 -33 -63 -69.5t-47.5 -74.5t-30.5 -75.5t-11 -70.5q0 -53 34.5 -84.5t91.5 -31.5q48 0 99 29t94 74 t70.5 99.5t27.5 104.5q0 32 -19 52.5t-48 20.5q-35 0 -74 -25t-72.5 -62.5t-55.5 -81.5t-22 -83q0 -24 12.5 -38t33.5 -13q6 0 6 -3q0 -4 -9 -4q-28 0 -45 23t-17 60q0 40 22.5 81.5t57.5 75.5t78.5 56t84.5 22q34 0 55 -23t21 -60q0 -34 -13 -70.5t-35.5 -71.5t-52.5 -66.5 t-63 -55t-68 -37t-68 -13.5q-35 0 -64.5 12t-50.5 33t-33 50.5t-12 64.5q0 42 14.5 85.5t41.5 84.5t64.5 77.5t83.5 65.5q61 38 137 59.5t151 21.5t137.5 -31t101.5 -88q59 54 120.5 82t121.5 28q62 0 100 -39.5t38 -104.5q0 -12 -1.5 -26t-4 -26t-5.5 -20t-6 -8t-3 3t1 6 q5 12 8 33t3 37q0 62 -37 99t-99 37q-119 0 -229 -112q22 -41 32 -80.5t10 -84.5q0 -80 -33 -150t-90 -122t-134.5 -81.5t-165.5 -29.5q-32 0 -65 3.5t-85 11.5q-25 -5 -44 -7.5t-37 -4.5t-36 -2.5t-41 -0.5q-62 0 -95.5 6.5t-33.5 19.5t31.5 22.5t73.5 9.5q16 0 31 -1 t36.5 -4.5t53 -10t81.5 -17.5zM870 513q-17 -19 -31 -38t-28 -41.5t-28.5 -49.5t-30.5 -60q-33 -75 -66.5 -127.5t-75 -89.5t-95.5 -62.5t-129 -46.5q32 -7 66 -10t66 -3q188 0 303 181q36 56 55.5 115.5t19.5 115.5q0 32 -6 59t-20 57zM333 -5q-64 9 -115 14t-86 5 q-32 0 -45.5 -2.5t-13.5 -8.5q0 -17 128 -17q42 0 72.5 2t59.5 7z"/>
    <glyph glyph-name="E" unicode="E" horiz-adv-x="872" d="M777 -62q3 0 3 -4q0 -3 -10.5 -7t-25.5 -7.5t-32.5 -5.5t-32.5 -2q-54 0 -91 18t-65 56q-76 17 -117.5 56.5t-41.5 94.5q0 17 4 36q-48 1 -87.5 15t-68 38.5t-44 59t-15.5 75.5q0 54 25 100.5t69 80.5t104 53t131 19q33 0 59 -1.5t54.5 -5.5t64.5 -11.5t91 -20.5 q33 16 73.5 24t82.5 8q33 0 62.5 -4.5t51 -13t34 -19.5t12.5 -23q0 -15 -16 -24t-44 -9q-20 0 -33 0.5t-34 5t-57 13t-100 25.5q-38 -22 -60.5 -53.5t-22.5 -65.5t23 -49q15 2 27 3t26 1q24 0 37.5 -3.5t13.5 -8.5t-6 -6.5t-22 -1.5t-35 2.5t-38 7.5q-44 -6 -102 -31 q-5 -32 -22.5 -61t-44 -53t-60 -40t-70.5 -22q-5 -18 -7.5 -32t-2.5 -29q0 -45 25.5 -75.5t74.5 -42.5q-19 29 -19 68q0 48 27 94.5t71 83t100.5 59t115.5 22.5q53 0 85 -26.5t32 -70.5q0 -48 -28.5 -92.5t-76 -79t-109 -55.5t-126.5 -21q-17 0 -27.5 0.5t-21.5 2.5 q22 -32 57 -47.5t82 -15.5q23 0 50 5t42 12zM740 570q-60 12 -112 18.5t-94 6.5q-76 0 -142.5 -19.5t-115.5 -54t-77 -81t-28 -99.5q0 -34 14.5 -62.5t41 -49.5t63 -34t80.5 -14q10 32 32 61.5t54.5 54.5t73 44t86.5 30q1 5 1 8v5q0 52 -37.5 90t-97.5 48q-5 2 -5 4q0 5 7 5 t18 -3t23 -8t23.5 -11t19.5 -12q58 -44 58 -123q25 5 42.5 8t45.5 7q-54 23 -54 72q0 65 80 109zM430 186q34 6 64 21t54.5 36.5t41 48t23.5 56.5q-70 -32 -116.5 -73t-66.5 -89zM794 564q28 -9 59 -16.5t60.5 -13t54.5 -8.5t43 -3q46 0 46 24q0 9 -11 18t-29.5 15.5 t-42.5 10.5t-50 4q-36 0 -67.5 -7.5t-62.5 -23.5zM533 -6q13 -2 25.5 -3.5t26.5 -1.5q57 0 116.5 22.5t108 57.5t79.5 78t31 85q0 35 -28 58t-71 23q-53 0 -107 -24.5t-98 -62.5t-72 -85.5t-28 -92.5q0 -27 17 -54z"/>
    <glyph glyph-name="F" unicode="F" horiz-adv-x="730" d="M733 311q-29 -51 -46.5 -82t-28.5 -49.5t-18 -29t-16 -20.5q-27 -34 -63.5 -61.5t-78.5 -47.5t-88 -31t-91 -11q-48 0 -86.5 12.5t-66.5 36t-43 56t-15 73.5q0 42 18.5 83.5t50.5 76.5t76 61.5t95 39.5q104 151 269 187q-39 55 -115 55q-60 0 -119.5 -32t-107.5 -90 q-8 -8 -9 -8q-4 0 -4 3t13 18t28 29q49 45 96.5 66.5t100.5 21.5q88 0 130 -61q23 6 57.5 9.5t62.5 3.5q22 0 38.5 -1t41.5 -5.5t65.5 -14t110.5 -26.5q49 19 105 30.5t100 11.5q57 0 91 -12.5t34 -32.5q0 -12 -13 -22.5t-35 -18.5t-52 -12.5t-64 -4.5q-25 0 -47.5 1.5 t-47.5 4.5t-54 8t-66 13q-108 -50 -203 -219q17 -3 29 -4.5l20 -2.5q12 28 33.5 45t44.5 17q16 0 25.5 -7.5t9.5 -19.5q0 -46 -94 -47q-9 -20 -15 -32.5t-10.5 -20t-9 -12t-10.5 -9.5q-11 -8 -24 -14.5t-21 -6.5q-6 0 -6 3t6 4q34 10 66 90q-11 1 -18 3l-24 4zM556 281 q1 -42 -19.5 -83t-54 -74t-75.5 -53.5t-85 -20.5q-23 0 -43 8.5t-34.5 24t-23 36t-8.5 44.5q0 76 77 133q0 29 8 54t25 53q-45 -16 -82.5 -44.5t-65 -65.5t-43 -79t-15.5 -85q0 -29 13 -55t36 -45t54 -30t66 -11q134 0 239 112q15 16 27 30.5t26 33t31 43.5t41 61 q11 18 17.5 27.5t16.5 23.5q-6 1 -9 1h-7q-23 0 -45 -12.5t-30 -29.5q-2 -7 -5 -7q-4 0 -4 4q0 10 7.5 19.5t20 17t27.5 12.5t30 5h9t12 -2q25 37 55 70.5t61.5 62t63 49.5t60.5 33q-24 5 -44.5 10t-34.5 9q-39 10 -67.5 16.5t-51.5 10.5t-42.5 5.5t-40.5 1.5h-13.5 t-14.5 -1q20 -40 20 -91q0 -52 -21.5 -103.5t-63.5 -99.5v-4v-15zM344 420q17 4 30 5.5t29 1.5q112 0 147 -96q35 48 54 98t19 97q0 33 -16 66q-73 -8 -142.5 -53.5t-120.5 -118.5zM299 301q55 33 106 33q13 0 26 -4t23.5 -10t17.5 -14t7 -15q0 -3 -3 -3q-2 0 -3 1t-6 9 q-8 12 -23.5 20t-31.5 8q-49 0 -110 -48q7 -29 26.5 -45t46.5 -16q40 0 84 27.5t84 78.5q-13 45 -49 70t-89 25q-17 0 -33 -2.5t-37 -8.5q-20 -33 -27.5 -55.5t-8.5 -50.5zM294 271q-32 -30 -46 -58.5t-14 -63.5q0 -42 25 -66t67 -24q41 0 86.5 24.5t80.5 65.5 q27 32 39.5 63.5t14.5 78.5q-38 -40 -82 -62t-85 -22q-32 0 -55 17t-31 47zM1007 569q4 -1 7.5 -2t9.5 -2.5t17 -4t31 -6.5q38 -8 79.5 -13.5t70.5 -5.5q36 0 62.5 10t26.5 24q0 15 -32 26t-77 11q-22 0 -48.5 -3t-53 -8t-51 -12t-42.5 -14zM809 310q82 0 82 38q0 8 -7 14 t-17 6q-9 0 -16 -2.5t-13.5 -8.5t-13 -17.5t-15.5 -29.5z"/>
    <glyph glyph-name="G" unicode="G" horiz-adv-x="734" d="M833 544q2 -15 3 -24.5t1 -20.5q0 -30 -6.5 -54t-24.5 -59q-6 -12 -8 -15t-5 -3t-3 3q0 1 2 5q17 27 26.5 60.5t9.5 64.5v16.5t-2 20.5q-41 -36 -87.5 -68t-94.5 -57.5t-97 -44.5t-94 -29q-9 -15 -14 -27t-10 -26q125 -23 128 -149q45 11 108 61t132 131q16 25 33 47.5 t32 40t27 28t18 10.5q4 0 4 -3q0 -6 -10.5 -21.5t-27 -35t-37 -40.5t-39.5 -37q-18 -29 -30 -50t-21.5 -42.5t-18.5 -48t-21 -66.5q-15 -48 -32.5 -85t-41 -67t-53.5 -54t-69 -46q-55 -31 -114 -47t-118 -16q-50 0 -91.5 14.5t-71 40.5t-46 62.5t-16.5 80.5q0 38 12 74.5 t35 69.5t55 61t73 49q17 9 37 16.5t40.5 13t39.5 9t34 3.5h4.5t5.5 -1q0 9 1.5 17.5t5.5 25.5q-7 -1 -12.5 -1h-8.5q-79 0 -125.5 34.5t-46.5 92.5q0 50 30.5 96t82 81t119 56t140.5 21q57 0 106 -15t84 -43q29 11 45.5 15t30.5 4q21 0 34 -10.5t13 -28.5q0 -36 -55 -90z M831 553q48 46 48 80q0 32 -37 32q-29 0 -68 -19q42 -36 57 -93zM766 643q-44 -22 -88.5 -54.5t-85 -71.5t-75.5 -82.5t-59 -86.5q43 10 90.5 29t95.5 45t94 57.5t86 67.5q-13 58 -58 96zM399 340q29 94 118.5 171.5t238.5 139.5q-32 25 -78 38t-101 13q-69 0 -134.5 -21 t-116.5 -55t-82.5 -77.5t-31.5 -89.5q0 -57 44.5 -88t125.5 -31h17zM428 278q-7 -27 -7 -50q0 -43 27 -70t71 -27q11 0 29 3q0 58 -31.5 95.5t-88.5 48.5zM780 298q-70 -77 -122.5 -117t-100.5 -54q-3 -50 -25 -95t-56.5 -80t-78.5 -55.5t-90 -20.5q-27 0 -50 9t-39.5 24.5 t-25.5 37.5t-9 48q0 32 14.5 62.5t37.5 54.5t53 38.5t62 14.5q18 0 37 -9t19 -18q0 -3 -3 -3q-2 0 -5 3q-21 18 -47 18t-52 -15.5t-48 -40t-35.5 -55t-13.5 -59.5q0 -48 28.5 -75t78.5 -27q37 0 77 17.5t74 48.5q42 38 62.5 79.5t25.5 95.5q-9 -2 -14.5 -2.5t-12.5 -0.5 q-60 0 -96.5 43t-36.5 115q-62 -4 -117.5 -31.5t-97.5 -71t-67 -98.5t-25 -114q0 -36 14 -65t39 -50t60 -32.5t77 -11.5q58 0 108.5 19t101 62.5t103.5 114.5t115 175q13 22 22 36.5t17 26.5t17.5 25t24.5 33z"/>
    <glyph glyph-name="H" unicode="H" horiz-adv-x="935" d="M919 278q46 82 96 146t102 108t105 67t104 23t82.5 -27t31.5 -70q0 -37 -25 -71t-70 -60q-15 -8 -33 -15.5t-23 -7.5q-4 0 -4 4q0 2 1.5 2.5t12.5 5.5q27 10 50 26t39.5 35t26 40t9.5 42q0 39 -26.5 63.5t-70.5 24.5q-89 0 -164.5 -64.5t-145.5 -200.5 q-44 -89 -80 -149.5t-71 -101t-72.5 -65t-84.5 -41.5q15 -2 24 -3t16 -2t13 -1h14q50 0 83.5 13t67.5 45q11 10 24 24t26 30t25.5 32t22.5 31q6 7 8 7t2 -3q0 -2 -10 -15.5t-23.5 -31t-28 -35.5t-24.5 -28q-21 -22 -40 -36.5t-39 -23.5t-42 -12.5t-50 -3.5q-20 0 -38 1.5 t-49 6.5l-4 -1l-19 -5q-5 -2 -18.5 -3t-21.5 -1q-25 0 -25 11q0 12 40 12q13 0 24.5 -1t31.5 -5q32 14 54 29t43.5 42t46 71t62.5 117l8 15h-189q-27 -47 -46 -78t-37 -52.5t-38.5 -38.5t-49.5 -37q-123 -85 -238 -85q-90 0 -142 51t-52 139q0 76 42 147t121 129 q10 51 39.5 96t72.5 79.5t94.5 54.5t104.5 20q48 0 74.5 -24t26.5 -66q0 -10 -1 -18.5t-4.5 -19t-10 -24t-16.5 -33.5q-11 -22 -11 -38q0 -15 11.5 -25.5t28.5 -10.5q26 0 55.5 22.5t49.5 55.5q2 5 5 5q4 0 4 -4t-9 -16.5t-20 -25.5q-21 -22 -42.5 -34t-40.5 -12 q-28 0 -46.5 20t-18.5 49q0 14 4.5 28t16.5 38q16 31 20.5 44.5t4.5 25.5q0 25 -23.5 40t-61.5 15q-48 0 -96 -19.5t-89 -52t-71 -75t-40 -88.5q95 63 185 63q71 0 110 -39t39 -110q0 -23 -4 -42.5t-13 -43.5h58q25 41 44.5 71t36 52.5t31.5 41t32 36.5q65 70 133 99 q18 8 21 9t5 1q3 0 3 -4q0 -3 -10 -7q-30 -12 -55.5 -31t-52.5 -53t-58 -86t-71 -129h190zM607 268q-20 -40 -48.5 -73.5t-61.5 -57.5t-68.5 -37.5t-69.5 -13.5q-48 0 -78 30.5t-30 78.5q0 66 55 136q-25 34 -25 74v12q-30 -28 -54.5 -60t-42 -66t-26.5 -68.5t-9 -67.5 q0 -78 44 -123t119 -45q53 0 102.5 19.5t92.5 57.5q20 18 35.5 34t32 37t36 50.5t47.5 73.5l6 9h-57zM548 278q8 -1 16 -1h22q14 29 20.5 54.5t6.5 51.5q0 55 -35.5 88.5t-92.5 33.5q-50 0 -99 -20.5t-95 -59.5q-1 -6 -1 -10.5v-7.5q0 -36 23 -69q13 15 29.5 28.5t32 24 t29.5 17t22 6.5q4 0 4 -3q0 -2 -2 -3.5t-14 -6.5q-54 -22 -96 -70q17 -20 36.5 -28.5t47.5 -8.5q22 0 45 6.5t44.5 18.5t40 28t32.5 35q1 3 3 3q4 0 4 -4q0 -5 -8.5 -15.5t-22.5 -22.5q-30 -27 -66.5 -42t-72.5 -15q-29 0 -49 8.5t-40 28.5q-51 -66 -51 -125q0 -47 26.5 -75 t71.5 -28q119 0 222 174q-14 0 -22.5 -0.5t-15.5 -0.5h-13.5h-16.5l4 10h6h25z"/>
    <glyph glyph-name="I" unicode="I" horiz-adv-x="719" d="M962 593q13 10 31.5 20t37.5 18.5t35 14t24 5.5t8 -5q0 -4 -11 -11t-29.5 -15t-42.5 -16.5t-50 -15.5q-34 -24 -64 -54t-59.5 -68.5t-60.5 -88.5t-65 -114q5 -1 7.5 -1h6.5q30 0 58 10t51.5 27t39.5 39.5t22 48.5q2 8 5 8t3 -4q0 -11 -9.5 -31.5t-22.5 -36.5 q-25 -30 -66 -49.5t-81 -19.5h-6.5t-11.5 1q-23 -41 -35.5 -64t-21 -36.5t-16 -22t-19.5 -21.5q-28 -30 -64 -55t-76 -42t-82.5 -26.5t-84.5 -9.5q-48 0 -86.5 12.5t-66 36t-42.5 56t-15 73.5q0 51 26.5 99.5t70.5 86t100 60.5t116 23q68 0 109 -38t41 -102q0 -44 -20 -86.5 t-53 -75.5t-75 -53.5t-85 -20.5q-23 0 -43 8.5t-34.5 24t-23 36t-8.5 44.5q0 33 16 63.5t43 54.5t61.5 38t72.5 14q12 0 25 -3.5t23.5 -9.5t17 -13t6.5 -14q0 -3 -4 -3q-1 0 -4 3q-21 32 -59 32q-32 0 -64 -15.5t-57.5 -40.5t-41 -56.5t-15.5 -62.5q0 -42 25 -66.5t68 -24.5 q40 0 79 20t70.5 52.5t51 73.5t19.5 82q0 28 -10 52t-28.5 41.5t-43.5 27t-55 9.5q-56 0 -108.5 -24t-93 -64t-65 -92t-24.5 -108q0 -31 13 -57t36 -44.5t54.5 -29t69.5 -10.5q148 0 265 147q15 19 38.5 52.5t55.5 81.5q-41 17 -62.5 47t-21.5 70q0 47 28 84.5t82 60.5 q30 13 70.5 23t105.5 21q15 3 25 4.5t17.5 3l15 3l17.5 3.5zM917 576q-13 -3 -26 -6.5t-27 -6.5q-60 -14 -108 -35.5t-81.5 -48t-52 -57t-18.5 -62.5q0 -58 61 -86q66 106 136.5 181.5t149.5 128.5z"/>
    <glyph glyph-name="J" unicode="J" horiz-adv-x="716" d="M640 132q10 -22 14 -39.5t4 -41.5q0 -53 -23.5 -100t-64.5 -82t-95.5 -55.5t-115.5 -20.5q-35 0 -61.5 6t-55.5 21q-19 -5 -33 -6.5t-31 -1.5q-42 0 -75.5 11t-57.5 32t-37 50t-13 65q0 57 32.5 108t92.5 92q30 19 64.5 35.5t70.5 27.5t72.5 17.5t69.5 6.5 q61 0 108.5 -17.5t94.5 -57.5q9 17 14.5 27t15.5 28q-51 16 -79 53.5t-28 88.5q0 41 19.5 80t54.5 67q21 17 40.5 28.5t45.5 19.5t64 14.5t96 14.5q35 5 66.5 11t53.5 12q48 30 76.5 43.5t44.5 13.5q8 0 8 -5q0 -4 -11 -11t-29 -15t-41 -16.5t-48 -15.5q-44 -38 -78 -74 t-65 -80t-61 -100t-65 -132q36 -1 68 9t57 29t42 45t22 58q2 8 6 8t4 -5q0 -10 -6.5 -30t-14.5 -32q-27 -43 -74.5 -66t-108.5 -23l-7 -13l-36 -71zM948 616q-16 -4 -27 -6.5t-20 -5t-19 -4.5t-23 -5q-45 -10 -78.5 -19.5t-60 -20.5t-47 -24t-40.5 -30q-38 -32 -61 -73.5 t-23 -77.5q0 -73 84 -106q45 79 82.5 136t73.5 99.5t74 74.5t85 62zM254 -177q27 -12 51.5 -17t56.5 -5q59 0 111.5 20t91.5 54.5t62 80.5t23 97q0 20 -3.5 35t-11.5 36q-60 -112 -158 -189t-223 -112zM596 174q-45 38 -91 55.5t-103 17.5q-71 0 -138.5 -25.5t-120.5 -67.5 t-85.5 -95t-32.5 -108q0 -63 42 -96.5t121 -33.5q13 0 21 1t22 3q-44 26 -67 61.5t-23 77.5q0 36 18 69t48.5 58t70 40t83.5 15q15 0 31.5 -3t30 -7.5t22.5 -9.5t9 -10q0 -4 -4 -4q-2 0 -4 2q-33 23 -82 23q-37 0 -72.5 -16.5t-63 -43.5t-44.5 -62t-17 -71q0 -38 17.5 -65 t58.5 -51q95 22 183 108.5t170 237.5z"/>
    <glyph glyph-name="K" unicode="K" horiz-adv-x="952" d="M281 417q-30 -27 -54.5 -59t-41.5 -66.5t-26.5 -69.5t-9.5 -68q0 -77 44 -122t119 -45q106 0 195 78q22 19 38 36t35 42t44 64t65 103q28 45 53 80t48.5 62.5t46.5 49t47 39.5q9 7 23 15.5t27.5 15.5t24 11.5t14.5 4.5q3 0 3 -4q0 -3 -10 -7q-32 -13 -57.5 -32.5t-53 -55 t-60.5 -91.5t-78 -143q-22 -40 -42.5 -70.5t-43 -55.5t-48 -45.5t-58.5 -39.5q-112 -67 -210 -67q-90 0 -142 51t-52 139q0 76 42.5 147.5t120.5 128.5q9 50 39 95t72.5 79.5t94.5 55t105 20.5q48 0 74.5 -24t26.5 -66q0 -10 -1 -18.5t-4.5 -19t-10 -24t-16.5 -33.5 q-11 -21 -11 -37q0 -15 11.5 -25.5t28.5 -10.5q26 0 55.5 22.5t49.5 54.5q2 5 5 5q4 0 4 -4t-9 -16.5t-20 -24.5q-20 -22 -42 -34t-41 -12q-28 0 -46.5 19.5t-18.5 48.5q0 15 4.5 29t16.5 38q16 31 20.5 44t4.5 25q0 25 -23.5 40t-61.5 15q-47 0 -95 -19.5t-89 -52 t-71 -74.5t-41 -88q94 62 187 62q69 0 108 -39.5t39 -108.5q0 -50 -24 -100t-63 -89.5t-87 -64.5t-96 -25t-78 30.5t-30 78.5q0 35 13 67.5t42 68.5q-25 34 -25 75v11zM291 426q-1 -7 -1 -11.5v-7.5q0 -18 6 -36t17 -32q14 15 30 28.5t32 24t29.5 16.5t21.5 6q4 0 4 -3 q0 -2 -2 -3.5t-14 -6.5q-56 -24 -96 -70q17 -20 36.5 -28.5t46.5 -8.5q45 0 90 24.5t73 65.5q2 2 3 2q4 0 4 -4q0 -5 -8.5 -15.5t-22.5 -22.5q-30 -28 -66.5 -43t-72.5 -15q-29 0 -49 8.5t-40 29.5q-51 -64 -51 -127q0 -45 27 -73.5t70 -28.5t88.5 26.5t82.5 68.5t60.5 93.5 t23.5 101.5q0 54 -36 87t-96 33q-47 0 -95 -20.5t-95 -58.5zM839 323q45 -26 45 -90q0 -11 -0.5 -18.5t-2.5 -19t-7 -31t-14 -53.5q-6 -23 -8.5 -36.5t-2.5 -24.5q0 -35 21.5 -57.5t55.5 -22.5q31 0 55 19q6 5 8 5q3 0 3 -3q0 -5 -7 -10t-17 -9.5t-22 -7.5t-22 -3 q-24 0 -45.5 11t-37 29.5t-25 43.5t-9.5 53q0 12 1.5 23t4.5 24t8.5 30t13.5 40t11 36.5t3 26.5q0 16 -4 25.5t-15 19.5q-7 -1 -15 -1.5t-15 -0.5q-36 0 -36 9q0 7 20 7t44 -9q25 4 46.5 12.5t44.5 24.5t51 41t66 64q45 45 84.5 77t75.5 52.5t70 29.5t70 9q49 0 81 -27.5 t32 -69.5t-29 -78t-83 -62q-14 -7 -25.5 -11t-15.5 -4t-4 3q0 4 4 5q63 20 100.5 59.5t37.5 86.5q0 39 -27.5 63.5t-72.5 24.5q-29 0 -56 -7.5t-55.5 -25t-60 -46t-70.5 -70.5q-68 -74 -129 -112t-124 -44z"/>
    <glyph glyph-name="L" unicode="L" horiz-adv-x="727" d="M452 41q65 -17 109.5 -29t74.5 -19.5t48.5 -12t31 -6t21.5 -2t21 -0.5q28 0 48.5 8.5t43.5 28.5q4 2 5 2q3 0 3 -2q0 -4 -7.5 -11t-18.5 -15q-26 -17 -59 -25t-80 -8q-33 0 -63 2.5t-65.5 10t-80.5 20.5t-109 33q-42 -8 -82.5 -12t-85.5 -4q-73 0 -113 12t-40 35 q0 20 31 32t86 12q26 0 53 -2.5t58.5 -8t70.5 -14.5t89 -22q27 10 50 25t46 37.5t48 55.5t57 81q-76 -66 -140.5 -96.5t-131.5 -30.5q-87 0 -137.5 50.5t-50.5 137.5q0 44 16 88.5t44 86t65.5 77t81 62t90 41.5t93.5 15q65 0 103 -33.5t38 -90.5q0 -51 -26.5 -106 t-67.5 -101t-90 -76t-94 -30q-42 0 -67 28.5t-25 76.5q0 41 20 82t52 74t71.5 53.5t79.5 20.5q30 0 48.5 -17t18.5 -46q0 -15 -3 -26t-7 -11t-4 3q0 1 2 6t3 12t1 13q0 25 -15.5 40.5t-40.5 15.5q-33 0 -69.5 -23t-67 -58.5t-50.5 -78t-20 -81.5q0 -35 20 -55t55 -20 q28 0 58.5 13.5t60 37t56.5 54t47.5 64.5t32.5 68.5t12 66.5q0 51 -34.5 83t-89.5 32q-64 0 -129 -36t-117.5 -93.5t-85.5 -128.5t-33 -141q0 -66 42 -103.5t116 -37.5q32 0 62.5 7.5t64 24t71 43t83.5 65.5q39 65 65 107t46 71.5t38.5 51t41.5 45.5q42 45 78.5 70t59.5 25 q8 0 14 -5t6 -13q0 -17 -24 -53.5t-61 -79.5t-81.5 -85.5t-84.5 -72.5q-30 -67 -60.5 -114.5t-65.5 -80.5t-77.5 -54.5t-97.5 -35.5zM359 21q-49 15 -84.5 25.5t-62.5 17t-47.5 9t-38.5 2.5q-27 0 -45.5 -8t-18.5 -20q0 -17 40.5 -27.5t109.5 -10.5q42 0 78 3t69 9zM760 341 q42 34 84 75.5t75.5 81t55 72t21.5 47.5q0 11 -12 11q-16 0 -44 -21t-55 -53q-30 -35 -59 -84t-66 -129z"/>
    <glyph glyph-name="M" unicode="M" horiz-adv-x="1051" d="M935 614q-2 0 -10.5 -6.5t-17.5 -15.5q-22 -23 -40.5 -45.5t-38 -52t-41.5 -68.5t-51 -94q-31 -58 -56.5 -100.5t-50.5 -74.5t-51 -57t-57 -47q-51 -36 -106.5 -56t-106.5 -20q-42 0 -76.5 14t-59 39t-38 60t-13.5 77q0 77 42 147.5t121 128.5q10 51 39.5 96t72.5 79.5 t94.5 54.5t104.5 20q48 0 74.5 -24t26.5 -66q0 -10 -1 -18.5t-4.5 -19t-10 -24t-16.5 -33.5q-11 -21 -11 -37q0 -15 11.5 -25.5t28.5 -10.5q24 0 53.5 23t47.5 56q2 5 5 5q4 0 4 -4t-8.5 -17t-19.5 -25q-42 -47 -81 -47q-27 0 -45.5 19.5t-18.5 48.5q0 15 4.5 29t16.5 38 q16 31 20.5 44t4.5 25q0 25 -23.5 40t-61.5 15q-47 0 -95.5 -19.5t-89.5 -52t-71 -75t-40 -87.5q96 62 185 62q71 0 110 -39t39 -109q0 -50 -24 -100t-63 -89.5t-87 -64.5t-96 -25t-78 30t-30 78q0 35 13 67.5t42 69.5q-25 34 -25 75v11q-61 -55 -96.5 -125.5t-35.5 -137.5 q0 -76 44 -122t117 -46q129 0 255 135q16 18 29.5 33.5t26.5 33t28 39t33.5 52t43.5 71t58 96.5q21 36 46.5 70t50 60.5t45 42.5t32.5 16q3 0 3 -3q0 -2 -0.5 -3t-5.5 -6q-12 -15 -22.5 -32.5t-20 -39t-18 -49t-17.5 -62.5q-29 -103 -53.5 -174.5t-50 -121t-55 -81.5 t-67.5 -55q-2 0 -2 -2l2 -1q4 0 22 10t33 21q17 12 32.5 24.5t31 28t33 36t40.5 50t52.5 69t68.5 93.5q41 57 72 96.5t58 68.5t53 50.5t56 42.5q48 32 91.5 47t91.5 15q42 0 77 -12.5t60.5 -35t39.5 -53t14 -67.5q0 -21 -4 -38.5t-9 -17.5q-3 0 -3 3l1 4q3 7 5 20.5t2 25.5 q0 33 -14 61t-38 49t-56.5 33t-69.5 12q-120 0 -247 -118q-25 -23 -43.5 -42t-41 -46t-54 -68t-83.5 -110q-42 -56 -76 -96.5t-62.5 -69.5t-54.5 -48.5t-52 -32.5q-15 -8 -32.5 -15t-22.5 -7q-3 0 -3 3q0 1 1 2t9 6q16 12 29 24.5t24.5 29t23 40.5t25 59.5t30.5 85t40 118.5 q16 48 31.5 86.5t31 68.5t32.5 53.5t37 43.5q3 3 3 5zM291 426q-1 -7 -1 -11.5v-7.5q0 -36 23 -68q14 15 30 28.5t32 24t29.5 16.5t21.5 6q4 0 4 -3q0 -2 -2 -3.5t-14 -6.5q-29 -12 -51.5 -28.5t-44.5 -41.5q17 -20 36.5 -28.5t47.5 -8.5q45 0 89.5 25t72.5 65q2 2 3 2 q4 0 4 -4q0 -5 -8.5 -15.5t-22.5 -22.5q-30 -28 -66.5 -43t-72.5 -15q-29 0 -49 8.5t-40 29.5q-51 -66 -51 -127q0 -45 27 -73.5t70 -28.5t88.5 26.5t82.5 68.5t60.5 93.5t23.5 101.5q0 54 -36 87t-94 33q-98 0 -192 -79zM813 -5q26 9 47.5 23t41 36.5t40 55t45.5 80.5 q52 97 90.5 163t72 111t66 75.5t72.5 56.5q17 11 32 19t20 8q3 0 3 -3q0 -2 -2.5 -3.5t-10.5 -5.5q-29 -16 -53.5 -36.5t-47.5 -51t-47 -73t-52 -102.5q-41 -86 -75.5 -146t-69.5 -101t-73 -66t-85 -42q14 -2 23 -3t16 -2t13.5 -1h14.5q36 0 66 8t58.5 28.5t58 54t65.5 84.5 q6 7 8 7t2 -3q0 -1 -6 -9t-14.5 -19.5t-18 -24t-17.5 -22.5q-26 -32 -48.5 -53.5t-46 -34t-49 -18t-56.5 -5.5q-22 0 -44.5 2t-40.5 7q-31 -11 -67 -11q-26 0 -26 10q0 12 36 12q11 0 19.5 -1t33.5 -4h6z"/>
    <glyph glyph-name="N" unicode="N" horiz-adv-x="944" d="M281 417q-61 -55 -96.5 -125.5t-35.5 -137.5q0 -37 11.5 -68t32.5 -53t50 -34.5t64 -12.5q56 0 107 20.5t102.5 66.5t106 119t117.5 178q30 50 52.5 85.5t41 61.5t35 44.5t34.5 33.5q7 6 15.5 13t16.5 12t14 8.5t8 3.5t2 -2t-0.5 -3t-5.5 -6q-15 -21 -24.5 -40t-14.5 -49 t-7.5 -76.5t-3.5 -121.5q-2 -99 -13 -161.5t-33 -104.5q-1 0 -1 -1t1 -2q2 0 10.5 12.5t22 34.5t31 51.5t37.5 63.5q42 73 68.5 119t46.5 76.5t37 51.5t39 45q59 63 123.5 96.5t129.5 33.5q40 0 73.5 -12.5t58 -34.5t38 -53t13.5 -67q0 -20 -2.5 -31t-6.5 -11t-4 4q0 3 1 6 q2 3 2.5 12.5t0.5 20.5q0 32 -13 59t-35.5 47t-54 31.5t-67.5 11.5q-147 0 -296 -191q-15 -20 -29 -40t-33.5 -50.5t-48 -77t-71.5 -119.5q-20 -34 -41 -64.5t-40 -54t-33 -37t-21 -13.5t-7 7q0 6 4 9.5t18 10.5q20 10 31.5 35t11.5 63q0 11 -0.5 24t-1.5 28q-3 48 -4 81.5 t-1 68.5q0 53 5 95.5t15.5 77.5t27 64t40.5 55q3 3 3 2v1q0 2 -2 2q-3 0 -14 -9.5t-26 -24.5q-16 -17 -29.5 -33.5t-29 -40.5t-36 -59t-50.5 -89q-32 -59 -54 -96.5t-40 -64t-35.5 -46t-40.5 -41.5q-64 -62 -135 -95t-139 -33q-41 0 -74.5 14t-57.5 39t-37.5 60t-13.5 77 q0 77 42 147.5t121 128.5q10 51 39.5 96t72.5 79.5t94.5 54.5t104.5 20q48 0 74.5 -24t26.5 -66q0 -10 -1 -18.5t-4.5 -19t-10 -24t-16.5 -33.5q-11 -21 -11 -37q0 -15 11.5 -25.5t28.5 -10.5q24 0 53.5 23t47.5 56q2 5 5 5q4 0 4 -4t-8.5 -17t-19.5 -25q-42 -47 -81 -47 q-27 0 -45.5 19.5t-18.5 48.5q0 15 4.5 29t16.5 38q16 31 20.5 44t4.5 25q0 25 -23.5 40t-61.5 15q-47 0 -95.5 -19.5t-89.5 -52t-71 -75t-40 -87.5q96 62 185 62q71 0 110 -39t39 -109q0 -50 -24 -100t-63 -89.5t-87 -64.5t-96 -25t-78 30t-30 78q0 35 13 67.5t42 69.5 q-25 34 -25 75v11zM291 426q-1 -7 -1 -11.5v-7.5q0 -38 23 -68q14 15 30 28.5t32 24t29.5 16.5t21.5 6q4 0 4 -3q0 -2 -2 -3.5t-14 -6.5q-29 -12 -51.5 -28.5t-44.5 -41.5q31 -37 84 -37q45 0 89.5 25t72.5 65q2 2 3 2q4 0 4 -4q0 -5 -8.5 -15.5t-22.5 -22.5 q-30 -28 -66.5 -43t-72.5 -15q-29 0 -49 8.5t-40 29.5q-51 -66 -51 -127q0 -45 27 -73.5t70 -28.5t88.5 26.5t82.5 68.5t60.5 93.5t23.5 101.5q0 54 -36 87t-94 33q-98 0 -192 -79z"/>
    <glyph glyph-name="O" unicode="O" horiz-adv-x="773" d="M869 506q11 -26 15.5 -48t4.5 -50q0 -41 -11.5 -82.5t-33.5 -82.5t-54 -79.5t-72 -72.5q-68 -59 -139.5 -91t-134.5 -32q-44 0 -80.5 17t-62.5 47t-41 72t-15 92q0 43 12 88t35 88.5t55.5 84t73.5 75.5q35 30 75.5 55t82.5 43t82.5 28t74.5 10q63 0 100 -32.5t37 -87.5 q0 -19 -4 -42zM621 453q-4 0 -4 3q0 6 16 6q30 0 49 -25.5t19 -65.5q0 -49 -21 -98t-54.5 -88t-75 -63.5t-83.5 -24.5q-46 0 -74 33t-28 87q0 43 15 87.5t41.5 86.5t61 79.5t74 65t81 44t81.5 16.5q48 0 86 -20.5t57 -56.5q3 15 3 27q0 49 -32.5 80.5t-83.5 31.5 q-55 0 -110 -20.5t-106 -57t-95 -85t-76.5 -105t-51 -117.5t-18.5 -122q0 -38 11 -70t31 -55t48 -36t61 -13q45 0 92.5 20t92.5 54.5t84.5 80.5t69.5 98.5t47.5 109t18.5 110.5q-7 -16 -22.5 -36.5t-32 -39t-31.5 -31.5t-22 -13q-4 0 -4 4q0 1 7 7q16 11 32 26t30.5 32.5 t25.5 35t17 33.5q-5 58 -38.5 89t-91.5 31q-105 0 -211 -115q-61 -66 -94.5 -136t-33.5 -132q0 -45 24.5 -72t64.5 -27q73 0 143 99q35 48 53.5 96t18.5 88q0 29 -14 47t-36 18q-6 0 -8 -1h-4z"/>
    <glyph glyph-name="P" unicode="P" horiz-adv-x="759" d="M908 592q81 -56 81 -130q0 -31 -14.5 -58.5t-39 -47.5t-58 -32t-71.5 -12q-11 0 -22.5 1.5t-21.5 4t-16.5 5.5t-6.5 6q0 4 4 4q1 0 2 -0.5l5 -2.5q10 -5 24 -7.5t27 -2.5q30 0 56 12.5t45.5 34.5t31 50.5t11.5 61.5q0 30 -13 57.5t-36 47.5q-32 -24 -57.5 -51t-51 -65 t-53 -91.5t-63.5 -130.5q-19 -39 -40 -71t-46.5 -58t-56 -47.5t-68.5 -40.5q-99 -49 -179 -49q-77 0 -122 38.5t-45 104.5q0 58 43 119q-2 6 -2 10v9q0 50 20 98.5t56 92.5t84.5 81.5t105.5 65t120 43t128 15.5q66 0 126 -15.5t105 -44.5q47 29 85 42t76 13q31 0 57 -10.5 t45 -29t29.5 -44.5t10.5 -56q0 -14 -1 -28t-3.5 -25t-5 -18t-5.5 -7t-3 4t1 8q5 18 6.5 31t1.5 29q0 63 -36.5 100t-98.5 37q-35 0 -72 -12.5t-79 -38.5zM888 590q-37 27 -95 42.5t-123 15.5q-86 0 -168 -30.5t-149 -82.5t-113.5 -121t-60.5 -145q24 25 60 46.5t70 30.5 q19 34 45 62t54.5 48t59 31t59.5 11q35 0 57.5 -22.5t22.5 -58.5q0 -42 -24 -92t-66 -98q-108 -120 -218 -120q-57 0 -93.5 32t-47.5 90q-35 -54 -35 -105q0 -63 42 -99.5t114 -36.5q45 0 85 13t78.5 41.5t76 74.5t78.5 111q46 75 84 131.5t72.5 99t67 74t67.5 57.5z M177 238q0 -57 33 -90t89 -33q58 0 117 35.5t110 101.5q35 44 53.5 86.5t18.5 78.5q0 31 -19 52t-47 21q-46 0 -96.5 -37t-91.5 -100q6 2 10.5 2h11.5q45 0 71.5 -20t26.5 -54q0 -14 -4 -14t-4 10q1 32 -24.5 51t-68.5 19q-6 0 -11.5 -0.5t-12.5 -1.5q-35 -62 -35 -106 q0 -21 11.5 -35t28.5 -14q3 0 4 1h3q3 0 3 -3q0 -5 -10 -5q-25 0 -42 23t-17 58q0 34 19 73q-35 -11 -68.5 -33t-58.5 -51v-15z"/>
    <glyph glyph-name="Q" unicode="Q" horiz-adv-x="669" d="M330 9q-32 -8 -66.5 -11.5t-73.5 -3.5q-67 0 -103.5 11.5t-36.5 33.5q0 18 28 28t80 10q49 0 104.5 -10.5t133.5 -34.5q78 25 145.5 72.5t116.5 109t77 132.5t28 143q0 75 -39 117t-109 42q-48 0 -97.5 -17.5t-96 -47t-87 -70t-70.5 -86t-47.5 -94.5t-17.5 -97 q0 -56 31 -88.5t85 -32.5q46 0 95 26.5t88.5 68.5t65 93t25.5 100q0 32 -18.5 52t-47.5 20q-32 0 -67 -21t-64.5 -53.5t-49 -71t-19.5 -72.5q0 -20 13 -34t30 -14q6 0 6 -3q0 -4 -7 -4q-24 0 -41 21t-17 51q0 36 20 73t51.5 67t69.5 49.5t75 19.5q35 0 55.5 -22.5 t20.5 -59.5q0 -51 -31 -110t-83 -108q-82 -77 -170 -77q-34 0 -62 12.5t-48.5 35t-31.5 53.5t-11 68q0 46 18.5 92.5t50.5 89.5t75.5 79.5t94 63.5t105.5 42.5t110 15.5q43 0 78.5 -15t61 -42.5t39.5 -66t14 -84.5q0 -40 -12 -81.5t-34 -81t-53.5 -77t-71.5 -68.5 q-93 -73 -230 -114q81 -24 129 -38t76 -21t43 -9t30 -2q21 0 42.5 9t38.5 24l4 2q3 0 3 -4q0 -3 -6.5 -9.5t-17.5 -13.5q-23 -14 -51.5 -20.5t-69.5 -6.5q-33 0 -60.5 2.5t-59 9.5t-71 20t-96.5 33zM316 14q-45 15 -76 24t-53 14.5t-38.5 7.5t-32.5 2q-57 0 -57 -23 q0 -17 34 -26.5t98 -9.5q76 0 125 11z"/>
    <glyph glyph-name="R" unicode="R" horiz-adv-x="920" d="M908 592q39 -29 57 -57.5t18 -63.5q0 -62 -45 -103t-120 -48q52 -24 52 -91q0 -9 -0.5 -16.5t-3 -18t-7 -27.5t-13.5 -45q-16 -51 -16 -81q0 -28 18.5 -46t47.5 -18q31 0 54 14q5 3 6 3.5t3 0.5q3 0 3 -4q0 -3 -7 -7t-17 -7.5t-22 -6t-22 -2.5q-22 0 -41 10t-33.5 27 t-23 40t-8.5 49q0 11 0.5 19t3.5 19.5t8.5 30t15.5 50.5q6 21 9.5 38t3.5 30q0 23 -16 39q-17 -3 -45 -3q-20 0 -32.5 2t-12.5 6q0 8 34 8q33 0 54 -9q28 5 52.5 19.5t41.5 35t27 46.5t10 55q0 30 -12.5 58t-33.5 46q-32 -24 -57.5 -51t-51 -65t-53 -91.5t-63.5 -130.5 q-19 -39 -40 -71t-46.5 -58t-56 -47.5t-68.5 -40.5q-99 -49 -179 -49q-77 0 -122 38.5t-45 104.5q0 58 43 119q-2 6 -2 10v9q0 50 20 98.5t56 92.5t84.5 81.5t105.5 65t120 43t128 15.5q66 0 126 -15.5t105 -44.5q47 29 85 42t76 13q31 0 57 -10.5t45 -29t29.5 -44.5 t10.5 -56q0 -14 -1 -28t-3.5 -25t-5 -18t-5.5 -7t-3 4t1 8q5 18 6.5 31t1.5 29q0 63 -36.5 100t-98.5 37q-35 0 -72 -12.5t-79 -38.5zM888 590q-37 27 -95 42.5t-123 15.5q-86 0 -168 -30.5t-149 -82.5t-113.5 -121t-60.5 -145q24 25 60 46.5t70 30.5q19 34 45 62t54.5 48 t59 31t59.5 11q35 0 57.5 -22.5t22.5 -58.5q0 -42 -24 -92t-66 -98q-108 -120 -218 -120q-57 0 -93.5 32t-47.5 90q-35 -54 -35 -105q0 -63 42 -99.5t114 -36.5q45 0 85 13t78.5 41.5t76 74.5t78.5 111q46 75 84 131.5t72.5 99t67 74t67.5 57.5zM177 238q0 -57 33 -90 t89 -33q58 0 117 35.5t110 101.5q35 44 53.5 86.5t18.5 78.5q0 31 -19 52t-47 21q-46 0 -96.5 -37t-91.5 -100q6 2 10.5 2h11.5q45 0 71.5 -20t26.5 -54q0 -14 -4 -14t-4 10q1 32 -24.5 51t-68.5 19q-6 0 -11.5 -0.5t-12.5 -1.5q-35 -62 -35 -106q0 -21 11.5 -35t28.5 -14 q3 0 4 1h3q3 0 3 -3q0 -5 -10 -5q-25 0 -42 23t-17 58q0 34 19 73q-35 -11 -68.5 -33t-58.5 -51v-15z"/>
    <glyph glyph-name="S" unicode="S" horiz-adv-x="707" d="M203 23q-14 -26 -20.5 -46.5t-6.5 -40.5q0 -18 6 -37.5t17 -33.5q3 -3 3 -5q0 -5 -4 -5q-5 0 -11 8t-11 20t-8 26t-3 26q0 23 7 45.5t23 48.5q-63 58 -63 155q0 83 48.5 164t137.5 146q54 40 112 61.5t111 21.5q62 0 96.5 -33.5t34.5 -93.5q0 -14 -1.5 -24t-4.5 -24 q31 17 54.5 30.5t39.5 22.5q18 11 31 18q18 39 41.5 72.5t47.5 58t47.5 39t43.5 14.5q23 0 23 -19q0 -12 -12.5 -29.5t-34.5 -38t-51.5 -42.5t-63.5 -42q-2 -8 -4 -15.5t-5 -18.5t-7 -27l-10 -40q-13 -58 -24.5 -96.5t-25 -66.5t-31.5 -50.5t-45 -47.5 q-72 -69 -161.5 -106.5t-180.5 -37.5q-43 0 -74 10t-61 33zM786 461q-8 -5 -14 -8.5l-12 -7t-13.5 -7.5t-17.5 -10q-16 -9 -26 -15t-17 -10t-12 -7t-11 -6q-14 -54 -44 -103.5t-67.5 -88t-79.5 -61.5t-81 -23q-49 0 -76 41q-37 -35 -61.5 -63t-44.5 -59q51 -44 130 -44 q92 0 177.5 51.5t147.5 144.5q14 21 24.5 38.5t20.5 40t22.5 55.5t31.5 84q3 9 9 24.5t14 33.5zM652 383q-125 -73 -203 -125t-124 -94q21 -42 70 -42q34 0 73 22t75 58.5t65 83.5t44 97zM595 394q1 2 1 7q0 24 -15.5 38t-41.5 14q-37 0 -76.5 -23.5t-72 -60.5t-53.5 -81 t-21 -85q0 -9 1 -15.5t4 -14.5q27 24 58 47.5t70.5 50t89.5 56.5t116 68q5 22 6.5 33t1.5 24q0 54 -32 85t-86 31q-44 0 -88.5 -17.5t-86.5 -47.5t-79 -71t-64 -87t-43 -95.5t-16 -97.5q0 -73 34 -111q17 26 45.5 58.5t62.5 63.5q-14 27 -14 55q0 44 21 88t55.5 79t77 56.5 t86.5 21.5q31 0 49.5 -16.5t18.5 -44.5q0 -18 -7 -18q-3 0 -3 4zM836 498q32 19 59 39.5t47 39.5t31.5 34.5t11.5 25.5q0 12 -14 12q-16 0 -35 -12t-37.5 -33t-35 -48.5t-27.5 -57.5z"/>
    <glyph glyph-name="T" unicode="T" horiz-adv-x="672" d="M946 557q-31 -17 -58 -39.5t-53 -54t-52 -74t-54 -98.5q-29 -57 -48.5 -92t-36 -58.5t-33 -39t-39.5 -33.5q-121 -91 -258 -91q-46 0 -83.5 12.5t-64.5 35.5t-41.5 55.5t-14.5 71.5q0 42 17.5 82.5t48 75.5t73 62t92.5 42q98 154 262 196q-39 51 -110 51 q-30 0 -61.5 -9.5t-61.5 -26.5t-57.5 -41t-48.5 -52q-6 -9 -9 -9q-4 0 -4 3t12.5 18t27.5 30q50 49 98 72t102 23q82 0 125 -56q27 8 65.5 12.5t69.5 4.5q19 0 33.5 -0.5t38 -4.5t62.5 -11.5t108 -21.5q54 23 112 36t106 13q49 0 78 -11t29 -31q0 -13 -14 -24.5t-39 -20 t-58 -13.5t-72 -5q-42 0 -88 5t-101 16zM934 559q-20 4 -38 7.5t-41 8.5q-37 8 -63.5 13.5t-47.5 8.5t-39.5 4t-38.5 1q-11 0 -20.5 -0.5t-22.5 -1.5q11 -20 17.5 -46t6.5 -52q0 -50 -20.5 -102t-58.5 -96q1 -8 1.5 -14.5t0.5 -10.5q0 -42 -20.5 -83t-53 -74t-74 -53 t-83.5 -20q-47 0 -78 31.5t-31 79.5q0 38 18 69.5t56 60.5q-1 5 -1 8v5q0 23 6 43.5t23 52.5q-43 -18 -79 -47t-62 -65.5t-40.5 -78t-14.5 -84.5q0 -29 12.5 -54.5t35 -44.5t52.5 -29.5t65 -10.5q138 0 243 120q16 18 27 31.5t24 32t30.5 46t45.5 73.5q59 99 126.5 169 t136.5 102zM560 295q-36 -42 -81.5 -65.5t-87.5 -23.5q-30 0 -52 16t-31 44q-30 -29 -43.5 -58t-13.5 -62q0 -41 24.5 -64.5t66.5 -23.5q39 0 78 20t70.5 51.5t51 71.5t19.5 79v6t-1 9zM561 335q32 46 49.5 95t17.5 94q0 38 -18 74q-74 -12 -141.5 -59.5t-115.5 -121.5 q32 8 67 8q106 0 141 -90zM555 327q-14 42 -48.5 65.5t-82.5 23.5q-20 0 -38 -3t-42 -10q-18 -32 -25.5 -56t-6.5 -51q58 36 110 36q12 0 24 -3.5t22.5 -9.5t17 -13t6.5 -14q0 -3 -3 -3q-2 0 -3 1t-6 9q-8 11 -23 18t-30 7q-55 0 -112 -51q19 -57 72 -57q84 0 168 111z M1010 588q4 -1 7.5 -1.5t9.5 -1.5t17 -3t31 -6q35 -7 72.5 -11t61.5 -4q44 0 72.5 10.5t28.5 26.5q0 14 -27.5 24t-67.5 10q-23 0 -50 -3.5t-55 -9.5t-54 -14t-46 -17z"/>
    <glyph glyph-name="U" unicode="U" horiz-adv-x="904" d="M333 243q3 1 6 1q4 0 4 -4q0 -5 -10 -5q-28 0 -45.5 22t-17.5 57q0 37 21 76t54 71t72.5 52.5t77.5 20.5q36 0 56.5 -23.5t20.5 -65.5q0 -45 -24 -101t-68 -111q-94 -119 -198 -119q-62 0 -99 42t-37 111q0 78 43.5 153.5t124.5 138.5q33 25 69 46t72.5 36t72 23t65.5 8 q75 0 115.5 -39.5t40.5 -111.5q0 -30 -5.5 -55.5t-24 -59.5t-54 -83.5t-94.5 -127.5q-26 -35 -42.5 -58t-25.5 -40t-12.5 -30t-3.5 -26q0 -24 14.5 -39.5t37.5 -15.5q37 0 87 36t116 111.5t149 191.5t187 276q10 -1 16.5 -1.5t12.5 -0.5q19 0 47 5q-166 -227 -252.5 -380.5 t-86.5 -219.5q0 -33 21.5 -54.5t55.5 -21.5q26 0 58 17.5t56 44.5q5 5 7 5q3 0 3 -4t-17 -20q-58 -51 -107 -51q-47 0 -77.5 36t-30.5 91q0 47 24.5 109.5t72.5 137.5l-16 -21l-23 -32q-45 -62 -88 -111t-82.5 -82.5t-73.5 -51.5t-61 -18q-35 0 -56.5 25.5t-21.5 67.5 q0 22 5 42t19 46.5t39.5 62t66.5 89.5q43 57 69 94t40.5 63.5t19 47.5t4.5 46q0 47 -34 74t-94 27q-50 0 -100.5 -17.5t-98 -47.5t-88.5 -71t-72 -87t-48.5 -96t-17.5 -99q0 -55 31 -88.5t82 -33.5q98 0 187 110q44 54 69 110.5t25 100.5q0 38 -17.5 59.5t-48.5 21.5 q-33 0 -69.5 -22.5t-67 -57t-50.5 -76t-20 -79.5q0 -20 11.5 -33.5t27.5 -13.5h4z"/>
    <glyph glyph-name="V" unicode="V" horiz-adv-x="749" d="M347 177q2 1 5 1t3 -3q0 -6 -12 -6q-28 0 -46 24.5t-18 61.5q0 41 21 83.5t53.5 77t72.5 56.5t78 22q35 0 56 -24t21 -66q0 -39 -18 -84.5t-52 -92.5q-50 -69 -105 -104t-114 -35q-31 0 -57 11.5t-45 32.5t-29.5 50t-10.5 64q0 46 17.5 93.5t47.5 92.5t70.5 84.5t86 69 t94 46.5t95.5 17q41 0 75 -15t58.5 -42.5t38 -66t13.5 -84.5q0 -50 -13.5 -101.5t-42.5 -108t-74 -119.5t-107 -136q-5 -5 -5 -7l1 -1q4 0 22.5 14t38.5 31q14 12 25.5 22.5t25.5 24.5t33 34.5t46.5 51.5t66 75t93.5 106q49 56 91.5 99.5t82.5 78t80.5 62.5t87.5 55 q74 42 143 64.5t125 22.5q23 0 31.5 -3t8.5 -11q0 -12 -14 -12h-8q-27 3 -44 3q-61 0 -138 -28.5t-159 -81.5q-28 -18 -50 -33.5t-44 -33.5t-45 -40.5t-52.5 -54t-67 -73.5t-87.5 -99t-88.5 -99t-70.5 -73.5t-58.5 -55t-52.5 -42.5q-50 -35 -53 -35t-3 3q0 1 1.5 2.5 t9.5 12.5q43 56 81.5 125t67 140t45 138t16.5 118q0 80 -34.5 122.5t-99.5 42.5q-26 0 -57.5 -9.5t-64 -26.5t-65 -41t-60.5 -53q-31 -32 -56 -67.5t-42.5 -72.5t-27 -74t-9.5 -71q0 -60 32 -95t86 -35q55 0 109.5 36t102.5 104q32 46 49 88.5t17 77.5q0 39 -18.5 61.5 t-50.5 22.5t-67 -24.5t-65 -61.5t-49.5 -81t-19.5 -83q0 -26 11.5 -42.5t29.5 -16.5h4z"/>
    <glyph glyph-name="W" unicode="W" horiz-adv-x="924" d="M979 576q-15 -17 -28.5 -34t-31.5 -40t-42 -55.5t-59 -79.5q-89 -120 -173.5 -213.5t-151.5 -146.5q-11 -9 -25.5 -19.5t-27.5 -19t-22.5 -14.5t-11.5 -6q-3 0 -3 3q0 2 6 7q32 29 64.5 71t63 91t56.5 101.5t45.5 103t30.5 96t11 80.5q0 72 -34.5 113t-94.5 41 q-42 0 -86.5 -18.5t-86 -49.5t-78.5 -73t-65 -89.5t-44 -97.5t-16 -98q0 -60 32 -96t86 -36q57 0 112 39t101 112q28 45 43 87t15 77q0 41 -18.5 64.5t-50.5 23.5q-31 0 -65.5 -25t-64 -62.5t-49 -82.5t-19.5 -84q0 -30 12 -47t34 -17h8q2 1 5 1t3 -3q0 -7 -17 -7 q-28 0 -46 26t-18 67t20 84t51.5 78t70.5 57.5t76 22.5q35 0 56 -25.5t21 -68.5q0 -39 -16 -84t-45 -91q-48 -74 -104 -112t-117 -38q-31 0 -57 12t-44.5 34t-29 52.5t-10.5 66.5q0 68 35.5 140.5t98.5 133.5q66 64 137 100t132 36q38 0 70.5 -16t56.5 -44t38 -65.5 t14 -80.5q0 -47 -20 -105t-55 -118.5t-83.5 -120.5t-105.5 -111q-8 -7 -9.5 -8.5t-1.5 -2.5q0 -2 2 -2q3 0 12.5 7.5t23 19.5t30 27.5t31.5 30.5q35 36 64.5 69t64 74.5t78.5 98t107 139.5q29 38 58 73t54 61.5t43 42.5t24 16q3 0 3 -2t-3 -6q-15 -20 -26.5 -38t-23.5 -45.5 t-27 -70t-38 -111.5q-23 -72 -44 -126t-43 -96t-47.5 -76t-56.5 -66q-1 -1 -1 -2t-1 -1q0 -2 2 -2q6 0 70 64q14 15 27.5 29.5t37.5 43t65 77.5t110 133q51 61 95.5 109t88 86t87.5 69t94 59q66 38 128 57.5t113 19.5q19 0 26 -3t7 -11q0 -12 -15 -12h-7q-11 2 -19.5 2 h-16.5q-57 0 -126 -25.5t-147 -75.5q-30 -19 -54.5 -36t-48 -37t-48.5 -44.5t-55.5 -58.5t-68.5 -80t-89 -107q-52 -63 -92 -108.5t-72.5 -79.5t-60.5 -59t-57 -46q-20 -14 -28 -19.5t-11 -5.5t-3 2q0 1 0.5 1.5l5.5 5.5q19 18 35.5 41t33 53.5t33 69.5t34.5 89 q30 81 52.5 138.5t41.5 99t36.5 70.5t36.5 54l9 12q0 1 -1 2q-1 0 -6 -5z"/>
    <glyph glyph-name="X" unicode="X" horiz-adv-x="1006" d="M819 414q64 64 118 110.5t99.5 76t84.5 43.5t75 14q45 0 74 -23t29 -59q0 -8 -2.5 -18t-6.5 -18t-8.5 -13.5t-8.5 -5.5q-5 0 -5 5q0 2 1 3t6 7q8 7 11.5 17.5t3.5 21.5q0 29 -23 48t-58 19q-53 0 -127.5 -38.5t-157.5 -107.5q-6 -5 -21.5 -19t-37.5 -34.5t-48.5 -45 t-52.5 -49.5q-23 -59 -38 -99.5t-23.5 -69.5t-12 -49.5t-3.5 -39.5q0 -49 24 -75t70 -26q43 0 88 24.5t96 77.5q98 99 98 180q0 36 -22 57.5t-59 21.5q-20 0 -44 -8.5t-48 -22.5t-47.5 -33.5t-41.5 -41.5q-6 -9 -10 -9q-3 0 -3 3q0 5 24 29q45 45 89.5 68.5t82.5 23.5 q40 0 67 -28t27 -70q0 -31 -13 -64t-36 -64.5t-53 -59t-64 -48.5t-69.5 -33t-69.5 -12q-29 0 -53 10.5t-42 29t-28 44t-10 54.5q0 32 9 67t32 92q-11 -10 -17.5 -17t-22.5 -23q-64 -70 -119.5 -119.5t-105.5 -81.5t-95.5 -47t-90.5 -15q-29 0 -53.5 9.5t-42.5 26.5t-28 40 t-10 50q0 28 10.5 56t29.5 52t45 43t58 31q-2 9 -2.5 15t-0.5 13q0 138 159 251q69 48 136 73.5t125 25.5q69 0 110 -38.5t41 -104.5q0 -31 -8.5 -66.5t-26.5 -83.5zM303 288q-11 0 -21 -1.5t-26 -6.5q12 -101 124 -101q57 0 114.5 31.5t111.5 91.5q37 42 57.5 84.5 t20.5 77.5q0 30 -19.5 49t-51.5 19q-35 0 -75 -23t-74.5 -58t-57.5 -76t-23 -77q0 -20 12.5 -34.5t29.5 -13.5q6 0 6 -3t-7 -3q-27 0 -43.5 20t-16.5 54q0 38 22.5 77.5t58.5 71.5t80 52.5t87 20.5q36 0 58.5 -21t22.5 -55q0 -45 -29 -97.5t-81 -101.5q-53 -50 -101.5 -72.5 t-100.5 -22.5q-58 0 -92 25.5t-49 79.5q-61 -25 -97 -72.5t-36 -103.5q0 -50 33 -81.5t85 -31.5q39 0 82.5 15t94 47t109.5 82t130 120l13 13l10 10t10.5 10t14.5 13q27 66 42.5 106.5t24 66t10.5 42.5t2 36q0 50 -28.5 78t-78.5 28q-74 0 -156 -42t-154 -117 q-94 -99 -96 -206q19 5 28.5 6t22.5 1q14 0 19 -1t5 -4t-4 -3h-4z"/>
    <glyph glyph-name="Y" unicode="Y" horiz-adv-x="884" d="M308 211q4 0 4 -3q0 -5 -10 -5q-26 0 -43 22t-17 55q0 41 21.5 83t56 76t76.5 55.5t84 21.5q35 0 56.5 -21.5t21.5 -58.5q0 -46 -26.5 -100.5t-74.5 -105.5q-97 -105 -203 -105q-64 0 -103 43t-39 115q0 69 40 138t115 128q37 28 76.5 51t80 39t80 24.5t75.5 8.5 q73 0 116 -42t43 -114q0 -33 -6 -60.5t-24 -61.5t-51.5 -80.5t-88.5 -116.5q-8 -10 -16.5 -22.5t-17.5 -26.5q8 1 14 1h10q42 0 83.5 -11.5t78.5 -32.5q17 17 34 35t36 39.5t40 47t47 57.5q33 41 57.5 70t45.5 51.5t40.5 40.5t42.5 37q11 9 23 18t22.5 15.5t18 11t10.5 4.5 q5 0 5 -6q0 -2 -1 -3t-9 -6q-38 -27 -72.5 -62.5t-68 -81t-66 -103t-66.5 -128.5q-24 -48 -37 -73t-25 -44q20 -40 20 -83q0 -51 -25 -98.5t-70 -83.5q-19 -15 -41.5 -28.5t-29.5 -13.5q-4 0 -4 4q0 2 2.5 3.5t18.5 9.5q31 16 57 38.5t44.5 50t28.5 58t10 62.5q0 20 -3.5 37 t-12.5 36q-24 -38 -42 -65t-35.5 -47.5t-36 -37.5t-42.5 -36q-37 -29 -76.5 -51.5t-78.5 -38.5t-76.5 -24.5t-70.5 -8.5q-41 0 -74 11.5t-56.5 32.5t-36.5 50t-13 65q0 47 24 91t66.5 80.5t102.5 63t132 40.5q6 19 12.5 34t18.5 34t32 46t53 69q32 41 53.5 73.5t35 59.5 t19.5 49.5t6 44.5q0 53 -35.5 83t-98.5 30q-50 0 -101.5 -17.5t-101 -48t-93 -71t-76 -86t-51.5 -94t-19 -94.5q0 -54 33.5 -87t89.5 -33q45 0 87.5 20t88.5 62q27 25 48.5 53.5t37 57t24 56.5t8.5 53q0 32 -19 52t-50 20q-35 0 -73.5 -24t-71.5 -61t-54.5 -80t-21.5 -82 q0 -22 11.5 -36.5t28.5 -14.5q3 0 6 1h2zM869 263q-29 -36 -48 -58.5t-33.5 -39.5t-28.5 -31.5t-32 -32.5q11 -7 17.5 -12t14.5 -13q3 6 6 11t7 12l10 17.5t15 27.5q10 18 18.5 32.5t17 28t17 27.5t19.5 31zM755 69q-8 8 -15.5 13t-18.5 13q-54 -52 -93.5 -75t-72.5 -23 q-38 0 -60.5 26t-22.5 68q0 10 1 18t3 22q-63 -15 -116.5 -44t-93 -67.5t-61.5 -83.5t-22 -92q0 -58 42 -92.5t113 -34.5q110 0 216.5 89.5t200.5 262.5zM714 99q-34 20 -73 30.5t-81 10.5h-13t-19 -1q-15 -26 -21 -43t-6 -34q0 -27 14.5 -42t40.5 -15q32 0 68.5 21.5 t89.5 72.5z"/>
    <glyph glyph-name="Z" unicode="Z" horiz-adv-x="689" d="M837 445q-31 -53 -56 -93.5t-48.5 -71t-48.5 -53t-54.5 -41.5t-66 -36t-83.5 -36q37 -3 68.5 -15.5t54 -32.5t35.5 -47.5t14 -60.5q55 -52 55 -126q0 -48 -29 -94t-80 -79q-12 -8 -28.5 -16t-33 -14t-31 -10t-23.5 -4q-5 0 -5 4q0 5 8 6q42 6 80 26.5t67 49.5t46.5 64 t17.5 71q0 60 -44 108q-6 -82 -61 -146q-26 -30 -63.5 -55t-82.5 -43t-95 -27.5t-100 -9.5q-48 0 -87.5 12.5t-68 34.5t-44.5 53t-16 68q0 48 26.5 89t73 71.5t110 48t136.5 17.5q64 0 117.5 -14t102.5 -44q-8 49 -41 75.5t-96 34.5q-20 -8 -43.5 -13.5t-39.5 -5.5 q-17 0 -17 6q0 8 28 13t71 6q35 14 65 32.5t67 53.5t86 92.5t123 148.5q-30 3 -51 12t-35 26t-22 44t-12 66q-12 72 -92 72q-55 0 -115 -25t-122 -75q-149 -117 -149 -241q0 -53 36.5 -83.5t99.5 -30.5q46 0 95 23t90 58.5t67.5 78t26.5 82.5q0 32 -19.5 50.5t-52.5 18.5 q-22 0 -47 -9.5t-50 -25.5t-48.5 -37t-41 -43t-28.5 -44.5t-11 -41.5q0 -12 7 -22.5t18 -17.5q10 -5 10 -8t-3 -3q-8 0 -16.5 6t-15.5 16t-11.5 21.5t-4.5 22.5q0 34 21.5 68.5t56 62.5t76.5 46t83 18q40 0 63 -20.5t23 -55.5q0 -43 -27 -88t-69 -82t-93 -61t-99 -24 q-71 0 -113.5 40.5t-42.5 108.5q0 51 27 101.5t78 94.5q34 30 73.5 54t79.5 41.5t80 26.5t76 9q86 0 121 -59q6 -9 9.5 -17t6 -18t4.5 -24t4 -36q6 -68 67 -67q30 35 60.5 65.5t57.5 53t49 35t35 12.5q8 0 13 -5t5 -11q0 -16 -20.5 -40.5t-50.5 -48.5t-63.5 -43t-59.5 -24z M844 455q35 9 72 34t73 64q32 35 32 47q0 8 -9 8q-12 0 -32.5 -13.5t-44 -35t-48 -49t-43.5 -55.5zM602 -12q-84 56 -204 56q-66 0 -126.5 -19.5t-107 -52.5t-74.5 -75.5t-28 -88.5q0 -30 14 -55t38.5 -43t58 -28t73.5 -10q64 0 128 26.5t114.5 69.5t82 97t31.5 109v14z"/>
    <glyph glyph-name="bracketleft" unicode="[" horiz-adv-x="439" d="M207 -63q41 0 52 -0.5t11 -3.5t-6.5 -5.5t-15.5 -2.5l-80 1h-28l442 780h23h15.5t24 0.5t23.5 1t15 0.5h9q12 0 12 -5q0 -3 -1 -4.5t-7.5 -2t-20.5 -1t-40 -0.5z"/>
    <glyph glyph-name="backslash" unicode="\" horiz-adv-x="478" d="M545 726l-224 -827h-12l224 827h12z"/>
    <glyph glyph-name="bracketright" unicode="]" horiz-adv-x="439" d="M522 695h-12l-20 1q-5 -1 -9 -1h-7h-6q-2 0 -5.5 1.5t-3.5 2.5q0 4 6.5 6.5t15.5 2.5h15.5t28.5 -1q12 -1 20.5 -1h15.5h11.5t16.5 1l-442 -781q-8 1 -14.5 1h-8.5q-20 0 -43 -0.5t-35 -1.5h-10q-12 0 -12 5q0 3 1.5 4t8 2t20.5 1.5t40 0.5z"/>
    <glyph glyph-name="asciicircum" unicode="^" horiz-adv-x="523" d="M582 205l-179 284h-2l-180 -284h-23l204 322l203 -322h-23z"/>
    <glyph glyph-name="underscore" unicode="_" horiz-adv-x="500" d="M546 -83v-21h-500v21h500z"/>
    <glyph glyph-name="grave" unicode="`" horiz-adv-x="500" d="M414 452q-5 -14 -6.5 -24.5t-1.5 -22.5q0 -21 8 -46.5t19 -40.5q4 -4 4 -6t-3 -2q-6 0 -14.5 10t-17.5 26t-17 36.5t-13 40.5z"/>
    <glyph glyph-name="a" unicode="a" horiz-adv-x="344" d="M328 261q8 -2 13 -2.5t13 -0.5q9 0 16 0.5t18 2.5l-86 -143q-22 -37 -33.5 -62.5t-11.5 -36.5q0 -23 19 -23q10 0 26 12t36.5 33t43 49t44.5 61q2 5 5 5t3 -3q0 -1 -7.5 -12t-18.5 -25.5t-23.5 -30.5t-21.5 -27q-32 -38 -52.5 -53.5t-38.5 -15.5q-23 0 -37 16.5t-14 42.5 q0 15 3.5 27.5t12.5 29.5q-25 -35 -43 -57t-32.5 -35.5t-26 -18.5t-23.5 -5q-26 0 -43.5 22t-17.5 56q0 45 34 88t98 78q59 32 94 32q30 0 30 -29q0 -9 -4 -22zM278 258q-15 0 -35 -12t-41 -31.5t-42 -44.5t-37 -50.5t-26 -49.5t-10 -42q0 -32 28 -32q10 0 20.5 5.5t24.5 19 t31.5 34.5t40.5 53q68 91 68 126q0 24 -22 24z"/>
    <glyph glyph-name="b" unicode="b" horiz-adv-x="263" d="M134 147q25 35 43.5 57.5t33 36t25.5 19t23 5.5q27 0 44.5 -22t17.5 -56q0 -74 -94 -145q-34 -26 -66 -39.5t-58 -13.5t-41.5 19t-15.5 50q0 11 2 21.5t7.5 23.5t14.5 29t23 38l202 324q8 -2 13 -3t15 -1q8 0 14.5 0.5t15.5 2.5zM258 258q-20 0 -47.5 -26.5t-74.5 -91.5 q-35 -48 -49.5 -74.5t-14.5 -43.5q0 -26 25 -26q22 0 54 26t62 62t51 75t21 66q0 15 -7.5 24t-19.5 9z"/>
    <glyph glyph-name="c" unicode="c" horiz-adv-x="242" d="M253 265q17 0 26.5 -11.5t9.5 -31.5q0 -17 -6.5 -35t-16.5 -32.5t-22 -24t-23 -9.5q-9 0 -15.5 6t-6.5 16q0 15 9.5 25t35.5 23q35 17 35 45q0 10 -6.5 16t-17.5 6q-20 0 -47.5 -23.5t-52.5 -57t-42 -71t-17 -64.5q0 -21 11.5 -33.5t31.5 -12.5q16 0 37.5 11t45.5 31 t49.5 48t50.5 62q5 8 9 8q2 0 2 -3q0 -1 -6.5 -9.5t-16.5 -20.5t-22 -26t-24 -26q-41 -45 -70 -63.5t-58 -18.5q-17 0 -32 7t-26.5 19t-18 28t-6.5 34q0 42 33 85.5t90 75.5q23 13 43 20t34 7z"/>
    <glyph glyph-name="d" unicode="d" horiz-adv-x="344" d="M472 497q10 -3 16 -4t16 -1q7 0 13.5 0.5t16.5 1.5q-61 -96 -105 -167t-75 -121.5t-50.5 -83.5t-30 -53.5t-14.5 -32t-4 -18.5q0 -22 20 -22q10 0 26 11t35.5 31.5t42.5 49t47 63.5q2 5 5 5t3 -3q0 -2 -5 -8l-21 -29q-49 -68 -81 -97.5t-55 -29.5t-37 17t-14 43 q0 15 3.5 28t14.5 33q-24 -35 -42.5 -58t-33.5 -37t-27 -20t-24 -6q-26 0 -43.5 22t-17.5 56q0 81 100 146q35 23 69.5 37.5t55.5 14.5q14 0 22 -8t8 -21q0 -14 -8 -31zM275 258q-22 0 -54 -26t-62 -62t-51 -75t-21 -66q0 -15 7.5 -24t19.5 -9q21 0 52 31t82 105 q27 38 39 62t12 38q0 26 -24 26z"/>
    <glyph glyph-name="e" unicode="e" horiz-adv-x="246" d="M307 114q-48 -60 -93 -92.5t-80 -32.5t-58 24.5t-23 61.5q0 87 123 155q65 35 105 35q17 0 29.5 -10.5t12.5 -25.5q0 -35 -45.5 -59.5t-153.5 -46.5q-14 -22 -23.5 -45t-9.5 -39q0 -19 12.5 -30.5t32.5 -11.5q36 0 86.5 40t102.5 111q7 8 10 8q2 0 2 -3q0 -1 -9 -13z M128 130q35 9 66 22.5t53.5 28.5t35.5 31t13 31q0 16 -17 16q-13 0 -30.5 -9.5t-37.5 -26.5t-41.5 -41t-41.5 -52z"/>
    <glyph glyph-name="f" unicode="f" horiz-adv-x="133" d="M283 265l-4 -7h-85l-40 -78q-38 -72 -68 -125t-58.5 -93t-57.5 -70.5t-63 -58.5q-93 -78 -175 -78q-17 0 -26.5 2.5t-9.5 7.5t5 5q4 0 6 -1q11 -3 18 -4t15 -1q35 0 66.5 14t66.5 45q21 19 37.5 36.5t36 48t47 80.5t71.5 133l75 137h-52l4 7h53q31 53 67 100.5t71 83 t65.5 56.5t51.5 21q22 0 22 -23q0 -22 -16 -50t-45.5 -59.5t-70.5 -64.5t-91 -64h84zM203 275q40 28 78.5 61.5t68.5 65.5t48 59.5t18 42.5q0 16 -16 16q-17 0 -45 -23.5t-56 -61.5q-11 -14 -19.5 -27t-19 -30t-24 -41.5t-33.5 -61.5z"/>
    <glyph glyph-name="g" unicode="g" horiz-adv-x="335" d="M328 261q7 -2 11 -2.5t12 -0.5q9 0 17 0.5t20 2.5q-6 -9 -43 -73q-20 -33 -37 -62.5t-37 -64.5l-47 -82q32 18 56.5 34.5t45.5 35t42 42t45 55.5q7 10 10 10q2 0 2 -3q0 -1 -5 -7.5t-12.5 -16.5t-17 -21.5t-18.5 -21.5q-17 -19 -32.5 -33.5t-33 -28t-38.5 -27t-49 -28.5 l-24 -44q-20 -36 -37.5 -63t-34.5 -49t-36 -40.5t-41 -36.5q-38 -30 -74 -47t-63 -17q-21 0 -34.5 12.5t-13.5 31.5q0 101 226 203q32 15 43.5 20t19.5 10l83 153q-27 -36 -45 -58t-31.5 -34t-23.5 -16.5t-22 -4.5q-26 0 -43.5 22.5t-17.5 54.5q0 41 28 80.5t82 72.5 q32 20 64 33t52 13q13 0 21 -9t8 -23q0 -9 -4 -21zM276 258q-15 0 -34.5 -12t-40.5 -31.5t-41.5 -44.5t-36.5 -50.5t-26 -49t-10 -41.5q0 -33 28 -33q9 0 18 4.5t20 14.5t25.5 26.5t34.5 41.5q87 109 87 150q0 25 -24 25zM145 -59q-5 -3 -8.5 -5t-9 -4.5t-14 -7t-23.5 -11.5 q-108 -54 -165.5 -104.5t-57.5 -93.5q0 -15 11.5 -25.5t28.5 -10.5q27 0 52.5 13t52.5 42.5t58 77.5t69 119q1 0 2.5 3z"/>
    <glyph glyph-name="h" unicode="h" horiz-adv-x="313" d="M377 116q-48 -66 -81 -96.5t-56 -30.5t-38 16.5t-15 42.5q0 20 8.5 39t28.5 50q19 27 30.5 44.5t17.5 28t8 17t2 12.5q0 8 -6 13.5t-14 5.5q-29 0 -80 -58q-15 -17 -27 -32.5t-26.5 -38t-33.5 -55t-47 -83.5q-8 2 -12.5 2.5t-12.5 0.5t-14 -0.5t-15 -2.5q17 30 33.5 60.5 t38.5 69.5q11 21 22.5 41.5t22.5 40.5q49 79 99 168l74 126q8 -2 12.5 -2.5t12.5 -0.5q11 0 18.5 1t18.5 4q-38 -62 -75.5 -122.5t-75.5 -121.5q-8 -13 -14 -23t-14 -23.5t-19 -32t-29 -47.5q48 70 83.5 103t61.5 33q21 0 36 -18t15 -44q0 -10 -2 -19t-6.5 -20t-13 -25 t-21.5 -33q-16 -23 -25.5 -37.5t-14.5 -24t-6.5 -15.5t-1.5 -12q0 -21 21 -21q19 0 49.5 30t76.5 93l15 21l9 11q2 5 6 5q2 0 2 -2q0 -4 -5 -9z"/>
    <glyph glyph-name="i" unicode="i" horiz-adv-x="168" d="M98 79q-24 -38 -24 -61q0 -22 23 -22t60 38t93 117q2 5 5 5t3 -3q0 -2 -5 -8l-21 -29q-49 -68 -81.5 -97.5t-58.5 -29.5q-23 0 -38.5 16t-15.5 41q0 17 7 35.5t27 50.5l76 129q8 -2 12.5 -2.5t11.5 -0.5q10 0 17.5 0.5t19.5 2.5zM230 376q9 0 15 -6t6 -15 q0 -17 -14.5 -32t-31.5 -15q-22 0 -22 22q0 17 15 31.5t32 14.5z"/>
    <glyph glyph-name="j" unicode="j" horiz-adv-x="151" d="M53 102q31 54 54 93.5t38 65.5q7 -2 11 -2.5t12 -0.5q9 0 17 0.5t19 2.5q-27 -46 -56.5 -95.5t-61.5 -104.5l-45 -82q31 18 56 34.5t46.5 36t42.5 42.5t44 54q6 10 10 10q2 0 2 -2q0 -3 -16 -23.5t-38 -44.5q-17 -19 -31.5 -33.5t-31.5 -27.5t-38.5 -26.5t-50.5 -29.5 l-25 -43q-20 -36 -37 -63t-34.5 -49t-36 -40.5t-41.5 -37.5q-38 -31 -72.5 -47.5t-61.5 -16.5q-23 0 -36.5 12.5t-13.5 33.5q0 25 21.5 57t54.5 58q17 13 33 24t38 23t54 27.5t82 39.5l7 3zM-36 -59q-72 -37 -116 -61.5t-61 -35.5q-48 -33 -75 -67t-27 -61q0 -16 12 -26.5 t29 -10.5q27 0 52.5 13t52.5 42.5t58 77.5t69 119q1 1 2.5 3.5t3.5 6.5zM235 375q9 0 15 -6t6 -15q0 -17 -14.5 -31t-31.5 -14q-9 0 -14.5 6t-5.5 15q0 16 14 30.5t31 14.5z"/>
    <glyph glyph-name="k" unicode="k" horiz-adv-x="301" d="M289 499q20 -4 30 -4q7 0 13 1l18 3l-6 -10l-6 -10q-10 -15 -19.5 -30.5t-18.5 -30.5q-10 -15 -19.5 -30.5t-18.5 -32.5l-84 -136q-28 -46 -44.5 -73.5t-28.5 -48.5t-23 -42t-28 -54l-6 -10q-7 2 -12 2.5t-14 0.5q-8 0 -14.5 -0.5t-17.5 -2.5q7 13 11 19.5t14 23.5l57 99 q9 17 18.5 33t19.5 33zM366 116q-48 -67 -81 -97t-58 -30q-21 0 -37 14t-16 32q0 5 1 10t3.5 12t8 18.5t14.5 29.5q6 11 8 17.5t2 11.5q0 11 -16 20q-19 -8 -31 -8q-7 0 -12 2.5t-5 7.5q0 8 16 8t29 -5q8 4 15 8.5t15.5 12.5t19.5 20t28 32q16 18 29 25.5t30 7.5 q16 0 26.5 -9.5t10.5 -25.5q0 -12 -5 -24t-13.5 -22.5t-18.5 -17t-19 -6.5t-15 5.5t-6 13.5q0 11 6.5 19t25.5 19q5 4 9 10.5t4 12.5q0 12 -15 12q-13 0 -23.5 -7.5t-29.5 -29.5t-36.5 -37.5t-29.5 -20.5q51 -23 51 -54q0 -9 -5.5 -24t-18.5 -42q-6 -11 -8 -17t-2 -11 q0 -13 16 -13q10 0 26 11.5t36 32t42.5 49t45.5 62.5q4 5 6 5q3 0 3 -3q0 -2 -5 -8z"/>
    <glyph glyph-name="l" unicode="l" horiz-adv-x="160" d="M225 116q-92 -127 -136 -127q-21 0 -34.5 15.5t-13.5 40.5q0 13 1.5 23.5t11 29t29 51.5t55.5 93q17 29 37.5 63t40.5 68.5t38.5 66.5t32.5 57q8 -2 13 -3t13 -1q11 0 17.5 1t16.5 5q-68 -114 -115 -192t-77 -129t-46.5 -80t-24 -44.5t-9 -22.5t-1.5 -13q0 -22 19 -22 q41 0 150 155q2 5 6 5q2 0 2 -3t-5 -8z"/>
    <glyph glyph-name="m" unicode="m" horiz-adv-x="544" d="M131 103q37 58 54.5 92t17.5 48q0 15 -11 15q-24 0 -99 -105q-6 -7 -8 -7t-2 3q0 1 4 6.5t10.5 14.5t14.5 19.5t16 20.5q25 32 39.5 43.5t28.5 11.5q16 0 27 -15t11 -35q0 -28 -29 -79q25 36 44 61t34.5 40t28 21.5t24.5 6.5q20 0 33.5 -16.5t13.5 -41.5q0 -17 -5 -31 t-21 -40q52 72 83 100.5t56 28.5q21 0 35.5 -18t14.5 -44q0 -12 -2 -21.5t-9 -23.5t-20 -34.5t-35 -53.5q-14 -20 -19 -31.5t-5 -22.5q0 -20 20 -20q18 0 48 29.5t78 93.5l15 21l9 11q2 5 5 5t3 -3q0 -2 -5 -8l-21 -29q-49 -67 -81 -97t-55 -30t-37.5 17t-14.5 44 q0 11 1.5 20t7.5 20.5t16.5 28t28.5 42.5q23 32 32 49t9 28q0 20 -20 20q-17 0 -38 -15.5t-48 -47.5t-60.5 -82t-74.5 -120q-8 2 -13.5 2h-13.5h-16t-18 -2l69 110q37 60 52.5 89.5t15.5 43.5q0 22 -18 22q-14 0 -37 -20.5t-51 -56.5t-59.5 -84.5t-61.5 -103.5q-8 2 -14 2 h-15h-15.5t-17.5 -2z"/>
    <glyph glyph-name="n" unicode="n" horiz-adv-x="391" d="M138 114q65 105 65 129q0 15 -12 15q-11 0 -39 -29.5t-59 -75.5q-6 -7 -7 -7q-3 0 -3 3q0 2 2 4l9 12q39 55 62 77.5t39 22.5q17 0 28.5 -15t11.5 -36q0 -18 -8 -36.5t-29 -50.5q29 40 50.5 66.5t38.5 42.5t30.5 22.5t26.5 6.5q22 0 36.5 -17.5t14.5 -43.5q0 -10 -2 -19 t-7 -20.5t-13.5 -25.5t-22.5 -35q-15 -23 -24.5 -37.5t-14 -23.5t-6 -15t-1.5 -12q0 -20 20 -20t61 43t89 112q2 5 5 5t3 -3q0 -1 -7.5 -12t-18.5 -25.5t-23.5 -30.5t-21.5 -27q-32 -38 -52.5 -53.5t-38.5 -15.5q-23 0 -37.5 17t-14.5 42q0 11 1.5 19.5t7.5 20.5t17 29.5 t30 45.5q25 36 32.5 50.5t7.5 24.5q0 20 -21 20q-17 0 -40.5 -18.5t-52 -52.5t-61 -83.5t-66.5 -110.5q-9 1 -15 1.5t-14 0.5h-14.5t-17.5 -2z"/>
    <glyph glyph-name="o" unicode="o" horiz-adv-x="290" d="M245 80q-31 -44 -62 -67.5t-59 -23.5q-29 0 -50 24t-21 58q0 76 99 145q33 24 62.5 36.5t51.5 12.5q20 0 31 -12t11 -33q0 -25 -16.5 -62.5t-42.5 -72.5q10 -6 22 -6q22 0 51 20.5t48 49.5q6 7 8 7t2 -2q0 -3 -9 -15t-20 -22q-42 -43 -79 -43q-15 0 -27 6zM293 181 q8 17 8 38q0 40 -36 40q-22 0 -51.5 -25t-56.5 -60.5t-45.5 -74.5t-18.5 -68q0 -15 9 -24.5t23 -9.5q26 0 55.5 22.5t59.5 64.5q-14 15 -14 32q0 12 5.5 25t13.5 24.5t18 18.5t19 7q8 0 11 -10z"/>
    <glyph glyph-name="p" unicode="p" horiz-adv-x="265" d="M226 387q8 -2 13 -3t13 -1q13 0 32 4l-145 -234q26 34 44.5 56t32 34.5t24 17t22.5 4.5q26 0 43.5 -22.5t17.5 -55.5q0 -80 -99 -145q-35 -23 -70 -38t-56 -15q-31 0 -31 29q0 5 1 10t4 14l-187 -312q-17 4 -28 4q-8 0 -15 -1t-17 -5zM259 258q-19 0 -47 -27.5t-73 -87.5 q-65 -90 -65 -122q0 -25 23 -25q15 0 35 12t41 31.5t41.5 44t36.5 50t26 50t10 42.5q0 14 -7.5 23t-20.5 9z"/>
    <glyph glyph-name="q" unicode="q" horiz-adv-x="289" d="M234 101q-5 -6 -8.5 -11t-10.5 -14q-65 -87 -105 -87q-26 0 -43 22.5t-17 55.5q0 38 25.5 75.5t74.5 69.5q35 23 70 38t56 15q14 0 22 -8t8 -21q0 -10 -7 -28l29 53q7 -2 12 -2h11q8 0 15.5 0.5t19.5 2.5q-42 -70 -79.5 -132t-77.5 -127q-24 -39 -46 -75.5t-40 -66.5 t-31 -52.5t-20 -34.5q-12 -18 -25 -40q-9 2 -15.5 3t-15.5 1q-10 0 -16.5 -1t-14.5 -3zM277 258q-15 0 -34.5 -12t-41 -31.5t-42 -44.5t-36.5 -50.5t-26 -49.5t-10 -42q0 -14 7.5 -23t20.5 -9q19 0 45.5 25.5t70.5 84.5q68 92 68 128q0 24 -22 24z"/>
    <glyph glyph-name="r" unicode="r" horiz-adv-x="278" d="M142 123q60 97 60 121q0 14 -11 14q-6 0 -16.5 -8.5t-24 -22.5t-28.5 -33t-30 -41q-6 -7 -8 -7t-2 3q0 2 2 4l9 12q34 49 60 74.5t42 25.5q17 0 28 -14t11 -36q0 -20 -9 -43t-31 -57q14 17 24.5 27t23.5 21q19 44 46.5 73t49.5 29q6 0 10.5 -4t4.5 -9q0 -23 -68 -67 l-16 -10l-16 -10l-6 -5q-7 -22 -7 -37q0 -19 8.5 -30t22.5 -11q17 0 40 17t43 46q10 11 12 11q3 0 3 -3q0 -2 -9 -13t-20 -23q-38 -41 -70 -41q-16 0 -26.5 12t-10.5 31q0 14 6 35q-15 -14 -26.5 -25.5t-23.5 -28t-27.5 -41.5t-39.5 -66q-10 1 -16 1.5t-14 0.5 q-7 0 -13 -0.5t-17 -1.5z"/>
    <glyph glyph-name="s" unicode="s" horiz-adv-x="195" d="M142 210q21 25 29.5 35.5t17.5 22.5q8 34 25 58.5t34 24.5q8 0 8 -8q0 -10 -14.5 -29t-46.5 -49q-3 -15 -3 -26q0 -10 1 -17.5t3.5 -16.5t7.5 -22t14 -34q8 -17 10.5 -29t2.5 -23q0 -22 -11.5 -41.5t-31 -34.5t-46 -23.5t-55.5 -8.5q-33 0 -53 18.5t-20 50.5q0 18 7.5 37 t19 34.5t25.5 25t28 9.5q5 0 9 -2zM109 159q9 -8 9 -19q0 -29 -47 -39q-20 -5 -33.5 -21t-13.5 -34q0 -20 14 -33t35 -13t41.5 13t37 34.5t26.5 48.5t10 54v13.5t-1 15.5q-1 14 -1 23.5v17.5v18.5t2 18.5q-26 -32 -43.5 -54.5t-35.5 -43.5z"/>
    <glyph glyph-name="t" unicode="t" horiz-adv-x="165" d="M271 265l-4 -7h-64l-109 -186q-20 -34 -20 -54q0 -22 23 -22q10 0 26 11t35.5 31.5t42 49t46.5 63.5q4 5 6 5q3 0 3 -3q0 -2 -5 -8l-21 -29q-48 -66 -81 -96.5t-57 -30.5q-23 0 -38.5 16.5t-15.5 41.5q0 30 26 73l82 138h-50l5 7h49l57 95q8 -2 14 -3t14 -1t14 1t14 3 l-56 -95h64z"/>
    <glyph glyph-name="u" unicode="u" horiz-adv-x="313" d="M281 134q-31 -50 -43.5 -76.5t-12.5 -40.5q0 -21 20 -21q19 0 49 28.5t78 94.5l15 21l9 11q2 5 5 5t3 -3q0 -2 -7.5 -12.5t-19 -25.5t-23.5 -30.5t-21 -26.5q-33 -38 -53 -53.5t-40 -15.5q-21 0 -36 17t-15 42q0 11 4 22.5t15 30.5l-10 -13q-41 -57 -64.5 -78t-44.5 -21 q-22 0 -36.5 16.5t-14.5 41.5q0 15 5 30t17 35l89 149q8 -2 13.5 -2.5t12.5 -0.5t14 0.5t19 2.5l-116 -191q-18 -29 -18 -52q0 -22 19 -22q12 0 28.5 13t37 37t44 58t48.5 76l48 81q8 -2 13 -2.5t12 -0.5q9 0 16.5 0.5t18.5 2.5z"/>
    <glyph glyph-name="v" unicode="v" horiz-adv-x="273" d="M148 261q9 -1 16 -1.5t16 -0.5h15.5t13.5 2l-102 -165q-20 -32 -27 -48t-7 -29q0 -23 26 -23q12 0 23.5 5t25.5 17t31.5 32.5t40.5 50.5q-4 15 -4 26q0 22 7.5 46.5t19.5 44.5t26 33.5t27 13.5q12 0 12 -14q0 -20 -18.5 -54.5t-62.5 -96.5q10 -22 32 -22q17 0 40.5 17 t49.5 49q6 8 8.5 10t4.5 2t2 -2q0 -3 -7 -11.5t-24 -26.5q-44 -44 -74 -44q-22 0 -36 23q-22 -30 -39 -50.5t-32 -32.5t-28 -17.5t-27 -5.5q-25 0 -42 17t-17 42q0 9 1.5 17t5 17t10 21t16.5 29z"/>
    <glyph glyph-name="w" unicode="w" horiz-adv-x="424" d="M98 80q-26 -43 -26 -62q0 -22 20 -22q11 0 27.5 13t37 36t43 54t44.5 68l55 94q10 -1 17.5 -1.5t15.5 -0.5h14t14 2l-102 -165q-19 -30 -26.5 -47t-7.5 -29q0 -24 25 -24q24 0 55 27t66 78q-3 18 -3 27q0 22 7.5 46t19.5 44t26 33.5t27 13.5q11 0 11 -15 q0 -19 -22.5 -60.5t-57.5 -89.5q12 -22 32 -22q17 0 41 17.5t49 48.5q6 8 8.5 10t4.5 2t2 -2q0 -3 -7 -11.5t-24 -26.5q-44 -44 -74 -44q-11 0 -19.5 5t-16.5 18q-22 -30 -39 -50.5t-32 -32.5t-28 -17.5t-27 -5.5q-25 0 -41.5 16.5t-16.5 41.5q0 12 2.5 22t10.5 27 q-41 -59 -66.5 -83t-48.5 -24q-21 0 -35.5 17t-14.5 41q0 16 6 32.5t23 44.5l81 137q10 -2 16 -2.5t13 -0.5t13.5 0.5t18.5 2.5z"/>
    <glyph glyph-name="x" unicode="x" horiz-adv-x="348" d="M430 141q-31 -42 -55 -71t-43.5 -47t-35.5 -26t-31 -8t-28 6t-23 16.5t-16 24t-6 28.5q0 8 1.5 16t5.5 21q-35 -59 -62.5 -85.5t-53.5 -26.5q-16 0 -26.5 12t-10.5 29q0 13 5 25t13 21.5t18 15.5t21 6t18.5 -7t7.5 -18q0 -28 -40 -39q-22 -6 -22 -22q0 -15 18 -15 q36 0 83 66q16 22 29.5 46t23.5 45.5t15.5 40.5t5.5 33q0 30 -27 30q-24 0 -52.5 -24t-66.5 -77q-8 -11 -11 -11q-2 0 -2 3q0 1 5 8t12.5 16.5t15.5 19.5t15 18q27 30 46 42t41 12q29 0 48 -20t19 -50q0 -9 -1.5 -16t-5.5 -17q35 54 63 78.5t53 24.5q17 0 27 -11t10 -29 q0 -24 -16 -44.5t-35 -20.5q-11 0 -17.5 7t-6.5 18q0 24 35 34q22 7 22 23t-20 16q-21 0 -48.5 -24.5t-52 -59.5t-42 -73.5t-17.5 -67.5q0 -17 10 -27t25 -10q26 0 64 36t93 113q5 7 6.5 9t3.5 2q3 0 3 -3l-2 -4z"/>
    <glyph glyph-name="y" unicode="y" horiz-adv-x="308" d="M112 105q-22 -36 -31.5 -56t-9.5 -31q0 -22 20 -22q24 0 67.5 50t94.5 137l45 77q8 -2 13.5 -2h13.5q11 0 17 0.5t16 2.5q-21 -34 -36.5 -59t-32.5 -54t-39 -68.5t-56 -100.5q30 15 54 31t46 35.5t44 44t48 57.5q6 9 9 9t3 -3q0 -1 -5 -8t-13 -17t-17.5 -21t-18.5 -21 q-18 -20 -33.5 -34.5t-32.5 -28t-38.5 -26.5t-50.5 -29l-24 -43q-20 -35 -36.5 -62t-34 -49t-36 -41t-41.5 -37q-38 -31 -74 -47.5t-64 -16.5q-20 0 -33.5 12.5t-13.5 31.5q0 98 226 203q14 7 28 13.5t28 12.5l7 4l86 153q-26 -35 -43.5 -57t-30.5 -34.5t-23.5 -17 t-22.5 -4.5q-20 0 -35 17t-15 40q0 17 7 34.5t28 52.5l75 127q8 -2 13.5 -2h12.5q9 0 16.5 0.5t18.5 2.5zM116 -59q-5 -3 -8.5 -5t-9 -4.5t-14.5 -7l-23 -11.5q-109 -54 -165.5 -104.5t-56.5 -93.5q0 -17 11.5 -27t29.5 -10q26 0 51 13t52 43t58 78.5t69 118.5q1 0 2.5 3z "/>
    <glyph glyph-name="z" unicode="z" horiz-adv-x="279" d="M314 207q-17 -11 -28 -15t-22 -4q-10 0 -17.5 3.5t-23.5 17.5q-13 11 -21.5 15t-16.5 4q-17 0 -38 -17.5t-52 -56.5q-7 -8 -9 -8t-2 3q0 1 4 6.5t10.5 14t14.5 17.5l16 18q29 31 50.5 44.5t41.5 13.5q6 0 10 -1t10.5 -4t17 -9.5t27.5 -17.5q18 -11 31 -11q7 0 15 4l6 8 l16 20q12 14 22 14q8 0 8 -6q0 -8 -12 -19t-33 -23q-18 -15 -31 -25.5t-29.5 -24t-41.5 -32.5t-67 -50q-20 -14 -26.5 -19.5t-14.5 -11.5l14 1q24 0 42 -17t23 -44q14 8 34.5 26t42.5 39.5t42 45t32 41.5q5 9 9 9q2 0 2 -2t-5 -9t-12.5 -17t-17 -21.5t-18.5 -21.5 q-56 -62 -108 -98v-13q0 -27 -10.5 -57t-28.5 -59t-42.5 -54.5t-52.5 -44.5q-58 -38 -111 -60t-87 -22q-27 0 -42 12t-15 34q0 26 20.5 55.5t57.5 57.5q14 10 27.5 18.5t35 19.5t56.5 26.5t91 40.5q31 13 62 31q8 22 8 41q0 16 -11 26.5t-28 10.5h-7.5t-9.5 -1l-7 -6 l-18 -17q-43 -43 -59 -43q-12 0 -12 11q0 14 24 30t66 29q40 30 69 52t52 40t43.5 34t43.5 35zM167 -36q-9 -5 -15.5 -8.5t-19.5 -9.5t-37 -17t-67 -31q-95 -44 -148.5 -91t-53.5 -86q0 -17 13.5 -27.5t36.5 -10.5q35 0 77.5 24t83.5 63.5t75.5 90t54.5 103.5z"/>
    <glyph glyph-name="braceleft" unicode="{" horiz-adv-x="439" d="M276 304q5 -1 10 -1q38 -3 53 -12.5t15 -30.5q0 -20 -15 -54.5t-50 -94.5q-19 -32 -31 -54t-19 -37.5t-9.5 -26t-2.5 -19.5q0 -20 15 -28.5t50 -7.5q19 0 24 -0.5t5 -2.5q0 -9 -25 -9q-39 0 -64 2t-39.5 7.5t-19.5 15.5t-5 25q0 14 4 29.5t14.5 39t28.5 56.5t47 82 q13 22 21 36t12 23.5t5.5 15.5t1.5 12q0 11 -11.5 19.5t-29.5 8.5q-7 0 -7 4q0 6 18 8q31 5 53 14.5t40 30t35 55.5t38 91q16 41 32 70.5t33 51t37 36.5t45 26q49 22 105 22q19 0 19 -5q0 -6 -18 -7q-41 -3 -69.5 -14t-50.5 -36.5t-41 -68t-40 -109.5q-26 -73 -77 -112.5 t-137 -50.5z"/>
    <glyph glyph-name="bar" unicode="|" horiz-adv-x="500" d="M419 667v-834h-19v834h19z"/>
    <glyph glyph-name="braceright" unicode="}" horiz-adv-x="439" d="M403 304q-42 7 -65 24.5t-23 43.5q0 9 2 17.5t6.5 19t13 24.5t22.5 34q33 50 52.5 80t29.5 48t13 28.5t3 21.5q0 51 -64 50q-12 0 -12 4q0 8 25 8q103 0 103 -68q0 -12 -2.5 -22.5t-12.5 -30t-30.5 -53.5t-57.5 -93q-13 -20 -21 -34t-12.5 -24t-6.5 -17.5t-2 -14.5 q0 -17 15 -29t35 -11q11 0 11 -5q0 -6 -13 -7q-25 -3 -41.5 -9t-29 -18t-24 -33t-26.5 -54q-28 -63 -49 -104.5t-40 -68.5t-37.5 -43t-40.5 -26q-10 -5 -21.5 -8t-27 -4.5t-36 -2.5t-49.5 -1q-16 0 -16 6q0 4 5 5t26 1q33 0 58 7t46 26t40.5 52.5t42.5 86.5q28 60 49.5 97 t44 57.5t49.5 28.5t68 11z"/>
    <glyph glyph-name="asciitilde" unicode="~" horiz-adv-x="523" d="M622 291q-9 -13 -20.5 -26t-26.5 -24t-33.5 -18t-40.5 -7q-31 0 -57 11t-47 25q-20 13 -43.5 24t-48.5 11q-26 0 -53.5 -16.5t-49.5 -50.5l-15 9q21 30 49 53t71 23q31 0 58 -10.5t46 -24.5q23 -16 46 -26t46 -10q28 0 55.5 17t49.5 49l14 -9v0z"/>
    <glyph glyph-name="uni00A0" unicode="" horiz-adv-x="177"/>
    <glyph glyph-name="exclamdown" unicode="" horiz-adv-x="287" d="M368 454q4 0 4 -4q0 -2 -0.5 -3t-5.5 -8q-14 -21 -28.5 -45.5t-32.5 -62t-42 -91t-58 -131.5q-29 -65 -48 -90t-41 -25q-13 0 -21 8.5t-8 20.5q0 7 3 16t14.5 27t34 49.5t60.5 84.5q34 46 59 82t44 65.5t33 53.5t26 47q3 6 7 6zM431 565q21 0 21 -22q0 -10 -6 -20.5 t-15 -19.5t-20.5 -14.5t-21.5 -5.5q-19 0 -19 20q0 11 5.5 22t14.5 20t19.5 14.5t21.5 5.5z"/>
    <glyph glyph-name="cent" unicode="" horiz-adv-x="478" d="M520 486q4 6 5.5 7.5t3.5 1.5q5 0 5 -4q0 -3 -3 -9l-66 -108q42 -8 42 -45q0 -17 -8.5 -32.5t-22 -27.5t-32 -19.5t-37.5 -7.5q-17 0 -27.5 9.5t-10.5 25.5q0 6 2 11t5 5q2 0 2 -3l-1 -3l-1 -9q0 -11 7 -18.5t18 -7.5q13 0 28 9.5t28 23.5t21.5 30t8.5 30q0 23 -26 23 q-23 0 -53 -22.5t-57 -55.5t-45.5 -69.5t-18.5 -64.5q0 -20 11 -31t30 -11q31 0 64.5 25.5t64.5 72.5q3 6 5 6q4 0 4 -4q0 -3 -5 -11t-13 -18t-17 -20.5t-17 -17.5q-43 -40 -88 -40h-7t-9 2l-83 -144l-3 -5q-5 -6 -7 -6q-5 0 -5 5q0 4 5 10l85 142q-54 22 -54 78 q0 30 18.5 62t47.5 58t66 44.5t75 21.5z"/>
    <glyph glyph-name="sterling" unicode="" horiz-adv-x="478" d="M545 303l-4 -8h-86q-28 -49 -51 -84t-46 -62t-48 -48.5t-56 -42.5q42 -20 80 -30.5t67 -10.5q44 0 74 17.5t30 42.5q0 21 -22 24q6 33 38 33q19 0 31.5 -14t12.5 -36q0 -38 -33 -61.5t-84 -23.5q-22 0 -43.5 3t-45 9.5t-51 17t-60.5 25.5q-87 -56 -154 -56 q-35 0 -58.5 16t-23.5 41q0 24 23.5 39.5t60.5 15.5q13 0 25 -1.5t27.5 -6.5t36.5 -14t53 -23q13 12 25 27t28 38t37.5 57.5t52.5 85.5q3 6 6.5 11.5t6.5 10.5h-85l4 8h86q61 96 129 144.5t141 48.5q23 0 37 -7.5t14 -21.5q0 -8 -4.5 -13t-12.5 -5q-10 0 -16 5t-13 19 q-8 15 -21 15q-15 0 -38 -11t-43 -29q-12 -10 -24 -22.5t-25 -29.5t-29 -40t-35 -53h86zM233 61q-49 24 -80.5 34t-58.5 10q-32 0 -52 -14t-20 -36t21 -36t53 -14q33 0 71.5 15.5t65.5 40.5z"/>
    <glyph glyph-name="currency" unicode="" horiz-adv-x="508" d="M612 61l-10 -10l-91 92q-27 -22 -51.5 -31t-55.5 -9q-32 0 -57.5 9.5t-51.5 30.5l-92 -92l-9 10l92 92q-45 43 -45 108q0 63 45 108l-92 92l9 9l92 -91q46 40 109 40q30 0 55 -9.5t52 -30.5l91 91l10 -9l-92 -92q21 -21 32.5 -49.5t11.5 -59.5q0 -65 -44 -107zM403 403 q-30 0 -56 -11t-45.5 -30.5t-30.5 -45.5t-11 -55t11.5 -55t31 -45t46 -30t56.5 -11t56 10.5t44.5 29.5t29 45t10.5 56q0 63 -39.5 102.5t-102.5 39.5z"/>
    <glyph glyph-name="yen" unicode="" horiz-adv-x="478" d="M580 288l-6 -9h-129q-11 -17 -21.5 -32t-15.5 -23h154l-6 -9h-154q-15 -24 -29 -47.5t-29 -50.5t-33 -60.5t-40 -76.5q-20 6 -33 6q-16 0 -34 -6l133 235h-115l5 9h115q7 13 15 27.5t16 27.5h-133l5 9h133q23 43 38.5 72.5t24.5 50.5t12.5 35t3.5 25q0 19 -17 30t-46 11 q-32 0 -61 -10.5t-52 -28.5t-36.5 -41t-13.5 -47q0 -20 14 -31.5t37 -11.5t49.5 15t42.5 37q1 3 4 3q2 0 2 -3t-18 -21q-39 -37 -82 -37q-29 0 -46.5 15.5t-17.5 40.5q0 24 15 46.5t39.5 40t56 28.5t64.5 11q41 0 63 -18.5t22 -53.5q0 -29 -12 -70t-41 -108l-6 -13 q88 132 163 199.5t132 67.5q8 0 8 -5t-3.5 -6t-18.5 -1q-23 -1 -51 -17t-60 -44.5t-66.5 -69t-69.5 -91.5h129z"/>
    <glyph glyph-name="brokenbar" unicode="" horiz-adv-x="500" d="M419 667v-320h-19v320h19zM419 153v-320h-19v320h19z"/>
    <glyph glyph-name="section" unicode="" horiz-adv-x="478" d="M549 642q17 0 38.5 -5.5t40.5 -13t32 -16t13 -15.5q0 -4 -4 -4q-2 0 -4 1t-12 8q-40 31 -86 31q-26 0 -48.5 -9t-39 -25t-26 -37t-9.5 -46q0 -10 0.5 -17t3.5 -21t9.5 -40t18.5 -72q19 -70 19 -144q0 -58 -18.5 -109t-51 -89.5t-75.5 -60.5t-92 -22q-20 0 -45 6 t-46.5 14.5t-36 18.5t-14.5 18q0 5 5 5q3 0 6.5 -2.5t22.5 -15.5q20 -14 46 -22.5t48 -8.5q26 0 50.5 10.5t43 28.5t29.5 41t11 48q0 28 -11 72q-12 46 -19.5 77.5t-11.5 55t-5.5 43t-1.5 40.5q0 60 16.5 110.5t46 87.5t69.5 58t88 21zM509 625q-138 -48 -138 -211 q0 -33 5.5 -73.5t18.5 -105.5q8 -35 12 -66.5t4 -54.5q0 -93 -92 -153q65 25 99.5 80.5t34.5 136.5q0 38 -4.5 74t-15.5 89q-6 28 -10 48.5t-6.5 35.5t-3.5 26.5t-1 20.5q0 51 25 90.5t72 62.5z"/>
    <glyph glyph-name="dieresis" unicode="" horiz-adv-x="500" d="M396 380q9 0 15 -6t6 -14q0 -18 -13 -32.5t-30 -14.5q-24 0 -24 23q0 17 14.5 30.5t31.5 13.5zM479 380q9 0 15 -5.5t6 -14.5q0 -18 -13 -32.5t-30 -14.5q-24 0 -24 22q0 17 14.5 31t31.5 14z"/>
    <glyph glyph-name="copyright" unicode="" horiz-adv-x="768" d="M575 653q64 0 120.5 -24t97.5 -66t65 -98.5t24 -121.5q0 -75 -30 -142.5t-80.5 -118t-117.5 -80.5t-142 -30q-66 0 -123 24t-99 65.5t-66 98t-24 122.5q0 75 30 142.5t81.5 118.5t119.5 80.5t144 29.5zM565 641q-70 0 -134 -29t-112.5 -78t-77 -114t-28.5 -136 q0 -63 23 -118t63.5 -95.5t95.5 -63.5t118 -23q72 0 136.5 29t113 77.5t77.5 113.5t29 137q0 64 -23 119t-63.5 95.5t-96.5 63t-121 22.5zM664 510q36 0 58 -19.5t22 -52.5q0 -25 -11 -48t-30 -41t-43 -28.5t-50 -10.5q-23 0 -38.5 10.5t-15.5 25.5q0 5 3 5q2 0 2 -3 q3 -25 31 -25q23 0 46.5 12.5t43 31.5t32 42.5t12.5 46.5q0 21 -13.5 33t-36.5 12q-35 0 -81 -21t-97 -61q-58 -46 -91 -101.5t-33 -106.5q0 -43 26 -67t74 -24q47 0 97.5 35.5t94.5 99.5q6 8 8.5 11t4.5 3q3 0 3 -3q0 -2 -5 -10t-13 -18.5t-17 -22.5t-18 -21 q-79 -83 -156 -83q-29 0 -54 10.5t-43.5 28.5t-29.5 42.5t-11 52.5t11 57.5t30.5 57.5t47.5 52.5t63 43.5q43 24 92 39t85 15z"/>
    <glyph glyph-name="ordfeminine" unicode="" horiz-adv-x="478" d="M468 445q5 -2 8.5 -2h10.5q9 0 15.5 0.5t17.5 1.5l-64 -100q-18 -29 -26 -45t-8 -26q0 -12 9 -12q6 0 18.5 9t28 24t32 34t31.5 39q3 3 5 3q3 0 3 -2q0 -1 -6 -8.5t-14 -18t-17.5 -21.5t-16.5 -18q-25 -26 -40.5 -37t-29.5 -11q-17 0 -27.5 11.5t-10.5 29.5q0 11 2.5 19 t10.5 21q-19 -24 -32.5 -39.5t-24.5 -24.5t-20.5 -13t-18.5 -4q-21 0 -35.5 16t-14.5 39q0 32 27 62.5t76 53.5q46 22 72 22q23 0 23 -20q0 -6 -3 -16zM429 441q-16 0 -39.5 -18t-45 -43t-37 -52t-15.5 -46q0 -20 16 -20q14 0 33 16.5t54 60.5q50 64 50 87q0 15 -16 15z"/>
    <glyph glyph-name="guillemotleft" unicode="" horiz-adv-x="347" d="M219 59q7 -5 8 -5.5t1 -1.5q0 -2 -2 -2t-5.5 2t-25.5 14q-7 5 -14 8.5l-15 7.5q-15 8 -24.5 13t-15.5 8t-10.5 6l-10.5 7q17 3 40.5 11.5t50 21.5t54.5 29.5t54 34.5q2 2 4 2l1 -1q0 -2 -16.5 -16t-35.5 -28q-50 -38 -100 -60l7 -6l20 -16l20 -17zM311 51q-1 0 -2.5 0.5 t-9.5 5.5q-19 9 -32.5 15.5t-25 12t-21 9.5t-21.5 9q41 10 94.5 38.5t101.5 65.5q2 2 4 2l1 -1q0 -2 -15 -15.5t-31 -26.5l-31.5 -24.5t-25 -18t-22 -13t-22.5 -10.5q11 -11 26 -23.5t30 -20.5q3 -2 3 -4z"/>
    <glyph glyph-name="logicalnot" unicode="" horiz-adv-x="523" d="M600 129v221h-410v19h429v-240h-19z"/>
    <glyph glyph-name="uni00AD" unicode="" horiz-adv-x="358" d="M227 136q8 0 14 -1.5t28 -5.5q24 -6 39 -6q10 0 22.5 3t20.5 7q3 2 5 2t2 -2q0 -3 -12 -8t-28 -10.5t-33.5 -9t-27.5 -3.5q-9 0 -18 1t-23 4q-15 4 -22.5 5t-15.5 1q-20 0 -39 -10q-1 -1 -3 -1t-2 2q0 3 11.5 8.5t26.5 10.5t30.5 9t24.5 4z"/>
    <glyph glyph-name="registered" unicode="" horiz-adv-x="768" d="M575 653q64 0 120.5 -24t97.5 -66t65 -98.5t24 -121.5q0 -75 -30 -142.5t-80.5 -118t-117.5 -80.5t-142 -30q-66 0 -123 24t-99 65.5t-66 98t-24 122.5q0 75 30 142.5t81.5 118.5t119.5 80.5t144 29.5zM565 641q-70 0 -134 -29t-112.5 -78t-77 -114t-28.5 -136 q0 -63 23 -118t63.5 -95.5t95.5 -63.5t118 -23q72 0 136.5 29t113 77.5t77.5 113.5t29 137q0 64 -23 119t-63.5 95.5t-96.5 63t-121 22.5zM698 491q52 -33 52 -84q0 -33 -26.5 -55t-74.5 -29q42 -23 42 -64q0 -17 -10 -56q-4 -16 -6 -25.5t-3 -15t-1.5 -9.5t-0.5 -8 q0 -18 9.5 -28t26.5 -10q11 0 23.5 6t20.5 17q4 4 5 4q2 0 2 -3q-1 -4 -6.5 -9t-14 -9.5t-17 -7.5t-15.5 -3q-27 0 -46.5 24.5t-19.5 57.5q0 13 2.5 25t11.5 39q10 33 10 47q0 16 -18 26q-9 -1 -17.5 -1.5t-14.5 -0.5q-23 0 -23 6q0 5 17 5q20 0 38 -6q34 11 53 36t19 60 q0 38 -31 61q-39 -29 -69.5 -73t-48.5 -98q-25 -66 -49.5 -104.5t-54.5 -59.5q-21 -15 -47 -24t-48 -9q-18 0 -34.5 5.5t-28.5 15.5t-19 22.5t-7 27.5q0 19 11 32t28 13q11 0 18 -7.5t7 -19.5t-7 -20t-18 -8q-23 0 -23 20q0 5 1 7.5t3 8.5q1 1 1 3t-2 2q-5 0 -9.5 -10.5 t-4.5 -20.5q0 -13 6.5 -25t18 -21t26.5 -14t32 -5q43 0 76 42q7 9 12.5 16.5t13 21.5t18.5 38.5t30 67.5q26 58 64 100.5t98 80.5q-20 15 -47 24t-54 9q-42 0 -83.5 -16t-73.5 -41.5t-52 -58t-20 -66.5q0 -27 17 -42t49 -15q11 0 23.5 2.5t20.5 5.5q7 3 9 3q3 0 3 -2 t-5.5 -4.5t-14.5 -4.5t-19 -3.5t-19 -1.5q-35 0 -56 19t-21 50q0 37 18.5 70t50.5 58t73.5 40t88.5 15q65 0 125 -32q58 29 79 29q7 0 7 -3q0 -2 -2.5 -2.5t-11.5 -1.5q-11 -2 -30.5 -9.5t-35.5 -16.5z"/>
    <glyph glyph-name="macron" unicode="" horiz-adv-x="500" d="M288 348h221l-3 -9h-221z"/>
    <glyph glyph-name="degree" unicode="" horiz-adv-x="478" d="M491 621q18 0 34 -7t27.5 -18.5t18.5 -27t7 -33.5t-7 -33.5t-19 -27t-28 -18.5t-34 -7t-34 7t-28 18.5t-19 27t-7 33.5q0 36 25.5 61t63.5 25zM489 607q-29 0 -50 -21.5t-21 -50.5q0 -30 21 -51t51 -21q29 0 50.5 21.5t21.5 50.5q0 30 -21 51t-52 21z"/>
    <glyph glyph-name="plusminus" unicode="" horiz-adv-x="523" d="M189 -12v19h429v-19h-429zM414 297v-211h-19v211h-206v19h206v212h19v-212h204v-19h-204z"/>
    <glyph glyph-name="uni00B2" unicode="" d="M247 396q12 9 23 12.5t27 3.5q13 0 29.5 -3.5t36.5 -9.5q22 -8 31.5 -10t20.5 -2q26 0 46.5 18.5t29.5 50.5q1 5 4 5t3 -3q0 -5 -6.5 -20t-14.5 -25q-37 -52 -93 -52q-8 0 -13 0.5t-13.5 2.5t-23 6.5t-39.5 12.5q-20 6 -33 6q-31 0 -34 -23q0 -8 -5 -8q-4 0 -4 4 q0 6 7 17t17 21t19.5 18t23 16.5t33 17.5t49.5 23q73 33 116 77.5t43 87.5q0 18 -13.5 28.5t-36.5 10.5q-26 0 -56.5 -15t-56.5 -37t-43.5 -48.5t-17.5 -48.5q0 -14 10.5 -22.5t28.5 -8.5q16 0 34.5 8t36 21.5t32 30.5t22.5 36q1 4 4 4t3 -3q0 -5 -8 -18.5t-18 -24.5 q-23 -26 -52.5 -43t-52.5 -17t-37.5 13.5t-14.5 36.5q0 26 16.5 51.5t43 45.5t60 32.5t67.5 12.5q36 0 59 -18.5t23 -47.5q0 -53 -64 -95q-11 -8 -19.5 -13t-21 -10.5t-32 -13t-52.5 -20.5q-23 -9 -41 -17t-32 -16.5t-26.5 -17.5t-24.5 -20z"/>
    <glyph glyph-name="uni00B3" unicode="" d="M363 516q-11 0 -11 5q0 7 23 7q16 0 36 -3q45 16 71 43t26 59q0 36 -46 36q-21 0 -43 -8t-40 -20t-29.5 -26.5t-11.5 -28.5q0 -11 9 -18t24 -7q21 0 44 14.5t42 39.5q1 3 5 3q2 0 2 -2q0 -4 -11 -16.5t-22 -20.5q-15 -12 -31.5 -18.5t-30.5 -6.5q-18 0 -29.5 10.5 t-11.5 27.5q0 16 11 31t29.5 26.5t42.5 18.5t50 7q36 0 58 -15t22 -41q0 -34 -30.5 -57t-88.5 -34q32 -8 50.5 -26.5t18.5 -44.5q0 -21 -13.5 -40t-36.5 -34t-53.5 -23.5t-63.5 -8.5q-42 0 -69 16t-27 42q0 27 27 45.5t66 18.5q13 0 21 -1.5t8 -3.5q0 -3 -4 -3l-8 1h-10 q-34 0 -56.5 -17t-22.5 -43q0 -22 17.5 -35t45.5 -13q27 0 52.5 10.5t46 27.5t33 38t12.5 43q0 35 -45 49q-11 -2 -21.5 -3t-20.5 -1h-6z"/>
    <glyph glyph-name="acute" unicode="" horiz-adv-x="500" d="M567 412q-27 -21 -54 -36t-67 -32q-7 -3 -17.5 -7t-20.5 -8t-18 -6.5t-9 -2.5h-2q-1 0 -1 1q0 2 6 4q24 12 48.5 27t46.5 30.5t40 31.5t28 29z"/>
    <glyph glyph-name="uni00B5" unicode="" horiz-adv-x="348" d="M314 134q-55 -91 -55 -117q0 -21 20 -21q10 0 26 11t35.5 31t42.5 49t47 64q2 5 5 5t3 -3q0 -2 -5 -8l-21 -29q-50 -68 -81.5 -97.5t-55.5 -29.5q-22 0 -37 17t-15 42q0 11 4 22t15 31q-37 -60 -64 -86t-51 -26q-14 0 -23 10.5t-9 26.5v7t1 9l-174 -312q-17 2 -22.5 3 t-11.5 1q-7 0 -13 -1t-16 -5l323 533q8 -2 13.5 -2.5t13.5 -0.5q7 0 13.5 0.5t19.5 2.5l-116 -191q-15 -24 -15 -47q0 -12 6 -19.5t15 -7.5q47 0 153 184l47 81q8 -2 13 -2.5t12 -0.5q10 0 17 0.5t19 2.5z"/>
    <glyph glyph-name="paragraph" unicode="" horiz-adv-x="827" d="M885 588q44 31 89.5 47.5t85.5 16.5q31 0 57.5 -10.5t45.5 -29t29.5 -44.5t10.5 -57q0 -14 -1.5 -27.5t-3.5 -24.5t-4.5 -18t-5.5 -7t-3 4q0 5 1 8q4 10 6 28t2 35q0 60 -37 97t-98 37q-46 0 -95.5 -21.5t-93.5 -59.5q-26 -23 -47 -47t-42.5 -58.5t-47.5 -85t-62 -125.5 q-19 -39 -40 -71t-46.5 -58t-56.5 -47.5t-68 -40.5q-51 -25 -94.5 -37t-84.5 -12q-77 0 -122 39t-45 105q0 14 5 34t12 38.5t14.5 31.5t12.5 13q3 0 3 -4q0 -1 -4 -8q-34 -55 -34 -105q0 -63 42 -99.5t114 -36.5q45 0 85 13t78.5 41.5t76 74.5t78.5 111q45 73 81.5 127 t68.5 95t63.5 72t66.5 60q-31 14 -55 20t-51 6q-47 0 -87 -17.5t-70 -47.5t-47 -70.5t-17 -87.5q0 -44 12.5 -68.5t35.5 -24.5q12 0 22 7q0 1 1 1q2 0 2 -2q0 -6 -19.5 -12t-38.5 -6q-32 0 -61 11.5t-51 31.5t-34.5 46.5t-12.5 56.5q0 41 25 77t68.5 63t102 42.5t126.5 15.5 q44 0 81.5 -8.5t75.5 -27.5z"/>
    <glyph glyph-name="periodcentered" unicode="" horiz-adv-x="223" d="M210 155q11 0 17.5 -6.5t6.5 -16.5q0 -24 -19.5 -44t-43.5 -20q-11 0 -17.5 6t-6.5 17t6 22.5t15 20.5t20 15t22 6z"/>
    <glyph glyph-name="cedilla" unicode="" horiz-adv-x="500" d="M225 4q25 -17 33 -27.5t8 -25.5q0 -16 -11.5 -26t-30.5 -10q-10 0 -24.5 5t-28.5 12t-24 14.5t-10 12.5q0 3 3 3q1 0 8 -4q13 -9 27.5 -14t26.5 -5q14 0 24.5 9t10.5 20q0 15 -20 38z"/>
    <glyph glyph-name="uni00B9" unicode="" d="M502 622q-34 -36 -66.5 -67t-59.5 -54t-47 -36t-29 -13q-4 0 -4 3q0 2 1.5 3t11.5 6q37 19 92.5 68t125.5 124q3 4 5 4t2 -3q0 -1 -2.5 -5.5t-10 -16t-20.5 -31.5t-34 -52q-27 -41 -45 -70t-30 -51.5t-19 -40.5t-12 -38q-7 2 -11.5 2.5t-10.5 0.5q-8 0 -15 -1t-19 -3 q12 33 41 74.5t85 107.5q26 31 41.5 50t29.5 39z"/>
    <glyph glyph-name="ordmasculine" unicode="" horiz-adv-x="478" d="M426 319q-49 -64 -92 -64q-24 0 -41 17t-17 41q0 22 15.5 45.5t39.5 43.5t53 33t56 13q33 0 33 -32q0 -17 -11.5 -42t-31.5 -50q7 -4 15 -4q17 0 38.5 13.5t36.5 33.5q4 5 6 5q3 0 3 -2t-7 -10t-15 -16q-32 -30 -61 -30q-14 0 -20 5zM459 391q4 7 5.5 12t1.5 13 q0 25 -25 25q-15 0 -36 -17t-40 -41.5t-32 -51.5t-13 -47q0 -21 17 -21q37 0 83 61q-14 8 -14 20q0 8 4.5 17.5t11.5 17t15.5 12.5t15.5 5q5 0 6 -5z"/>
    <glyph glyph-name="guillemotright" unicode="" horiz-adv-x="347" d="M258 148q-45 -12 -90.5 -35.5t-102.5 -63.5l-3 -2l-4 -3q-1 -1 -2 -1l-1 1q0 2 5 6l8 8q35 31 67.5 53.5t67.5 39.5q-6 7 -21.5 19.5t-29.5 22.5q-5 4 -6 4.5t-1 1.5t1 1q2 0 4.5 -1t17.5 -9l12 -6t13 -6l29 -14q6 -2 12 -5l12 -6zM238 198q26 -14 56.5 -32t68.5 -38 q-44 -8 -94 -28.5t-105 -52.5q-9 -5 -10 -5t-1 1q0 4 18.5 17t44 28t51.5 28t41 18q-23 20 -40 34l-34 28q-2 2 -2 3l1 1q2 0 2 -1z"/>
    <glyph glyph-name="onequarter" unicode="" horiz-adv-x="651" d="M510 558q-6 -8 -28 -37q-12 -16 -24 -31.5t-24 -30.5q-33 -42 -54.5 -70.5t-35.5 -50.5t-23.5 -40t-16.5 -38q-8 2 -12.5 2h-9.5q-7 0 -14.5 -0.5t-19.5 -2.5q15 32 49.5 74t97.5 108q28 29 45.5 48t37.5 41q-38 -35 -74 -66t-66.5 -54t-52.5 -36.5t-31 -13.5q-3 0 -3 3 q0 2 2 3t13 6q37 17 101 68t139 123q4 4 6 4t2 -2t-1 -3zM673 561q1 3 4 3q1 0 1 -2q0 -1 -2.5 -4.5t-9 -11t-19 -21.5t-33.5 -36q-23 -24 -56.5 -64.5t-72.5 -89t-80 -101.5t-79.5 -103.5t-71 -95t-52.5 -75.5q-8 4 -14.5 5t-14.5 1h-12t-13 -2q74 89 140.5 166.5t129 149 t124.5 139.5t127 137zM562 102q36 0 58 13.5t22 36.5q0 3 -0.5 6t-1.5 7q-1 1 -1 3q0 3 3 3q6 0 6 -17q0 -31 -31.5 -48.5t-88.5 -17.5q-19 -32 -28 -52t-14 -37q-8 2 -13 2.5t-12 0.5q-6 0 -12.5 -0.5t-19.5 -2.5q11 20 25.5 42t34.5 47q-8 1 -14 1.5t-15 1.5 q-23 2 -32.5 2.5t-19.5 0.5h-13t-24 -2q-13 -8 -32 -15.5t-28 -7.5q-5 0 -5 4q0 5 16.5 11.5t44.5 12.5q22 11 39 21.5t35.5 24.5t41.5 33.5t56 49.5q140 125 218 125q12 0 22 -3t10 -7t-4 -4q-1 0 -3 0.5t-7 2.5q-10 2 -19 2q-40 0 -91 -29.5t-122 -92.5q-32 -29 -54 -48 t-39.5 -32.5t-32.5 -22.5t-32 -18q22 5 38 6.5t42 1.5q11 0 18.5 -0.5t17.5 -2.5q9 12 15 19.5t14 16.5t20 23t33 39q23 26 41.5 49.5t28.5 37.5q1 4 5 4q2 0 2 -2t-1 -3l-4 -6l-10 -15q-31 -47 -48.5 -73t-28 -41.5t-16.5 -25.5l-15 -25h25z"/>
    <glyph glyph-name="onehalf" unicode="" horiz-adv-x="651" d="M459 530q-34 -36 -66.5 -67t-59.5 -54t-47 -36t-29 -13q-4 0 -4 3q0 2 1.5 3t11.5 6q37 19 92.5 68t125.5 124q3 4 5 4t2 -3q0 -1 -2.5 -5.5t-10 -16t-20.5 -31.5t-34 -52q-27 -41 -45 -70t-30 -51.5t-19 -40.5t-12 -38q-7 2 -11.5 2.5t-10.5 0.5q-8 0 -15 -1t-19 -3 q12 33 41 74.5t85 107.5q26 31 41.5 50t29.5 39zM670 561q1 3 4 3q1 0 1 -2q0 -1 -2.5 -4.5t-9 -11t-19 -21.5t-33.5 -36q-22 -24 -56 -64.5t-73 -89t-80 -101.5t-79.5 -103.5t-71 -95t-52.5 -75.5q-8 4 -14.5 5t-14.5 1h-12t-13 -2q74 89 140.5 166.5t129 149t124.5 139.5 t127 137zM401 25q12 9 23 12.5t27 3.5q13 0 29.5 -3.5t36.5 -9.5q22 -8 31.5 -10t20.5 -2q26 0 46.5 18.5t29.5 50.5q1 5 4 5t3 -3q0 -5 -6.5 -20t-14.5 -25q-37 -52 -93 -52q-8 0 -13 0.5t-13.5 2.5t-23 6.5t-39.5 12.5q-20 6 -33 6q-31 0 -34 -23q0 -8 -5 -8q-4 0 -4 4 q0 6 7 17t17 21t19.5 18t23 16.5t33 17.5t49.5 23q73 33 116 77.5t43 87.5q0 18 -13.5 28.5t-36.5 10.5q-26 0 -56.5 -15t-56.5 -37t-43.5 -48.5t-17.5 -48.5q0 -14 10.5 -22.5t28.5 -8.5q16 0 34.5 8t36 21.5t32 30.5t22.5 36q1 4 4 4t3 -3q0 -5 -8 -18.5t-18 -24.5 q-23 -26 -52.5 -43t-52.5 -17t-37.5 13.5t-14.5 36.5q0 26 16.5 51.5t43 45.5t60 32.5t67.5 12.5q36 0 59 -18.5t23 -47.5q0 -53 -64 -95q-11 -8 -19.5 -13t-21 -10.5t-32 -13t-52.5 -20.5q-23 -9 -41 -17t-32 -16.5t-26.5 -17.5t-24.5 -20z"/>
    <glyph glyph-name="threequarters" unicode="" horiz-adv-x="651" d="M327 428q-11 0 -11 5q0 7 23 7q16 0 36 -3q45 16 71 43t26 59q0 36 -46 36q-21 0 -43 -8t-40 -20t-29.5 -26.5t-11.5 -28.5q0 -11 9 -18t24 -7q21 0 44 14.5t42 39.5q1 3 5 3q2 0 2 -2q0 -4 -11 -16.5t-22 -20.5q-15 -12 -31.5 -18.5t-30.5 -6.5q-18 0 -29.5 10.5 t-11.5 27.5q0 16 11 31t29.5 26.5t42.5 18.5t50 7q36 0 58 -15t22 -41q0 -34 -30.5 -57t-88.5 -34q32 -8 50.5 -26.5t18.5 -44.5q0 -21 -13.5 -40t-36.5 -34t-53.5 -23.5t-63.5 -8.5q-42 0 -69 16t-27 42q0 27 27 45.5t66 18.5q13 0 21 -1.5t8 -3.5q0 -3 -4 -3l-8 1h-10 q-34 0 -56.5 -17t-22.5 -43q0 -22 17.5 -35t45.5 -13q27 0 52.5 10.5t46 27.5t33 38t12.5 43q0 35 -45 49q-11 -2 -21.5 -3t-20.5 -1h-6zM727 561q1 3 4 3q1 0 1 -2q0 -1 -2.5 -4.5t-9 -11t-19 -21.5t-33.5 -36q-23 -24 -56.5 -64.5t-72.5 -89t-80 -101.5t-79.5 -103.5 t-71 -95t-52.5 -75.5q-8 4 -14.5 5t-14.5 1h-12t-13 -2q74 89 140.5 166.5t129 149t124.5 139.5t127 137zM611 102q34 0 53.5 12t19.5 34q0 7 -4 16q-1 1 -1 3q0 3 3 3t5.5 -7t2.5 -15q0 -29 -29.5 -44.5t-84.5 -15.5q-27 -58 -31 -89q-8 2 -12.5 2.5t-10.5 0.5 q-8 0 -14.5 -0.5t-17.5 -2.5q8 20 20 42.5t28 46.5q-8 1 -13.5 1.5t-15.5 1.5q-23 2 -32.5 2.5t-19.5 0.5h-13t-23 -2q-14 -9 -31 -16t-26 -7q-6 0 -6 4q0 5 16 11.5t42 12.5q20 12 36 22t32.5 24t37 33.5t50.5 49.5q125 125 202 125q13 0 23.5 -3t10.5 -7t-4 -4 q-1 0 -2 0.5t-8 2.5q-5 1 -9.5 1.5t-9.5 0.5q-40 0 -88 -29.5t-111 -92.5q-28 -29 -47.5 -48t-35.5 -32.5t-30 -22.5t-30 -18q22 5 38 6t44 1h16t18 -2q7 11 12 18.5t12 17t17.5 23.5t28.5 39q20 26 37 51t22 36q1 4 4 4t3 -3l-1 -2l-3 -6l-8 -15l-14 -24q-10 -19 -20 -37 q-11 -20 -18 -33t-13 -23.5t-11.5 -21t-13.5 -26.5h28z"/>
    <glyph glyph-name="questiondown" unicode="" horiz-adv-x="436" d="M226 -5q-66 5 -107 41t-41 90q0 77 93 136q12 7 21.5 12.5t26 12.5t43.5 17.5t73 28.5q64 24 99.5 52t35.5 54q0 11 -7.5 18t-19.5 7q-18 0 -42 -16.5t-41 -41.5q-2 -3 -4 -3t-2 2q0 4 8.5 14.5t19.5 20.5q15 14 32 22.5t31 8.5t23 -8.5t9 -22.5q0 -26 -32 -55 q-6 -6 -11 -10t-15.5 -10.5t-30 -17.5t-54.5 -30q-106 -59 -156 -114t-50 -112q0 -82 97 -90q-3 11 -4 19t-1 17q0 43 19 86.5t50 78t69.5 56.5t76.5 22q32 0 53 -20.5t21 -51.5q0 -40 -23.5 -78t-62 -68t-88.5 -48.5t-102 -18.5q25 -60 83 -60q19 0 38 7q4 2 5 2q3 0 3 -3 q0 -4 -16 -8.5t-30 -4.5q-63 0 -90 67zM231 0q98 0 184 81q37 35 58 72.5t21 66.5q0 24 -16 38.5t-43 14.5q-35 0 -72 -22t-67.5 -56.5t-50 -76.5t-19.5 -82q0 -10 1 -17.5t4 -18.5zM521 572q21 0 21 -22q0 -10 -6 -20.5t-15 -19.5t-20 -14.5t-21 -5.5q-20 0 -20 20 q0 11 5.5 22t14.5 20t19.5 14.5t21.5 5.5z"/>
    <glyph glyph-name="Agrave" unicode="" horiz-adv-x="953" d="M650 294h25h19.5t21 -0.5t30.5 -0.5q72 79 140.5 137t137 95.5t139 55.5t145.5 19q17 4 33.5 5.5t31.5 1.5q32 0 50 -6t18 -17q0 -9 -10 -9q-4 0 -8 0.5t-25 5.5t-46 8.5t-42 3.5q-41 -13 -73.5 -34.5t-64.5 -58t-65.5 -92t-75.5 -137.5q-57 -118 -130.5 -185t-168.5 -89 q24 -4 37.5 -5t29.5 -1q50 0 84 13t67 45q17 16 41.5 45t56.5 72q5 7 8 7q2 0 2 -3q0 -1 -6 -9t-14.5 -19.5t-18 -24.5t-17.5 -22q-26 -32 -48.5 -53.5t-46 -34t-49 -18t-56.5 -5.5q-22 0 -41 2.5t-46 7.5q-17 -5 -34 -7.5t-38 -2.5q-28 0 -28 10q0 12 38 12q14 0 29.5 -1.5 t32.5 -3.5q37 9 63 20.5t52.5 40t60.5 81t88 142.5h-188q-71 -78 -134.5 -135t-121.5 -94t-111.5 -55t-105.5 -18q-91 0 -144 50.5t-53 137.5q0 53 22 105t60 96.5t90.5 79t113.5 52.5q20 40 52 73.5t71 58t82 38.5t86 14q51 0 80 -25t29 -70q0 -20 -5 -37t-18 -42 q-14 -26 -17.5 -36t-3.5 -20q0 -16 12 -26t30 -10q26 0 49.5 17t51.5 55q4 6 7 6q4 0 4 -4q0 -5 -23 -31q-46 -52 -89 -52q-29 0 -46 20t-17 52q0 10 1 17.5t4 16t9.5 21t17.5 33.5q15 27 15 47q0 25 -27 42t-66 17q-40 0 -80.5 -13t-77.5 -36t-68 -54.5t-51 -68.5 q20 5 34 6.5t30 1.5q72 0 113 -38t41 -105v-13t-2 -15q19 15 36 38.5t27 46.5q1 5 4 5q4 0 4 -5q0 -7 -6 -19t-16 -25.5t-23.5 -27t-27.5 -25.5q-9 -47 -36 -90.5t-64.5 -77.5t-82.5 -54t-88 -20q-48 0 -78.5 30t-30.5 77q0 56 35.5 110t95.5 88q-1 9 -1 12v6q0 35 17 77 q-52 -19 -97.5 -55t-80 -81.5t-54.5 -96.5t-20 -101q0 -75 46 -119.5t123 -44.5q44 0 86 13.5t90 47t107 90t138 142.5h-49.5t-45.5 -1zM609 316q-29 -17 -53 -24t-50 -7q-50 0 -81.5 26.5t-39.5 74.5q-27 -17 -49.5 -38.5t-38.5 -45.5t-25 -50t-9 -51q0 -46 27 -74t71 -28 q35 0 71.5 16.5t69.5 46t61 69t46 85.5zM413 494q-11 -26 -15.5 -45.5t-4.5 -48.5q9 5 21 10t23 8.5t20 6t13 2.5q5 0 5 -3t-2 -4t-16 -4q-15 -4 -32 -10.5t-31 -14.5q8 -48 37 -73t77 -25q26 0 50.5 8t54.5 27q5 17 6.5 29t1.5 27q0 56 -36.5 89.5t-97.5 33.5 q-36 0 -74 -13zM984 293q30 54 69 104t80.5 90.5t81 68t71.5 35.5q-64 -3 -121 -20.5t-114.5 -52.5t-119 -90.5t-133.5 -134.5h186zM1241 808q-5 -14 -7 -25.5t-2 -23.5q0 -11 2.5 -23.5t6 -24.5t8.5 -23t11 -18q4 -5 4 -7t-3 -2q-6 0 -15 10.5t-18 27t-17.5 37.5t-13.5 42z "/>
    <glyph glyph-name="Aacute" unicode="" horiz-adv-x="953" d="M650 294h25h19.5t21 -0.5t30.5 -0.5q72 79 140.5 137t137 95.5t139 55.5t145.5 19q17 4 33.5 5.5t31.5 1.5q32 0 50 -6t18 -17q0 -9 -10 -9q-4 0 -8 0.5t-25 5.5t-46 8.5t-42 3.5q-41 -13 -73.5 -34.5t-64.5 -58t-65.5 -92t-75.5 -137.5q-57 -118 -130.5 -185t-168.5 -89 q24 -4 37.5 -5t29.5 -1q50 0 84 13t67 45q17 16 41.5 45t56.5 72q5 7 8 7q2 0 2 -3q0 -1 -6 -9t-14.5 -19.5t-18 -24.5t-17.5 -22q-26 -32 -48.5 -53.5t-46 -34t-49 -18t-56.5 -5.5q-22 0 -41 2.5t-46 7.5q-17 -5 -34 -7.5t-38 -2.5q-28 0 -28 10q0 12 38 12q14 0 29.5 -1.5 t32.5 -3.5q37 9 63 20.5t52.5 40t60.5 81t88 142.5h-188q-71 -78 -134.5 -135t-121.5 -94t-111.5 -55t-105.5 -18q-91 0 -144 50.5t-53 137.5q0 53 22 105t60 96.5t90.5 79t113.5 52.5q20 40 52 73.5t71 58t82 38.5t86 14q51 0 80 -25t29 -70q0 -20 -5 -37t-18 -42 q-14 -26 -17.5 -36t-3.5 -20q0 -16 12 -26t30 -10q26 0 49.5 17t51.5 55q4 6 7 6q4 0 4 -4q0 -5 -23 -31q-46 -52 -89 -52q-29 0 -46 20t-17 52q0 10 1 17.5t4 16t9.5 21t17.5 33.5q15 27 15 47q0 25 -27 42t-66 17q-40 0 -80.5 -13t-77.5 -36t-68 -54.5t-51 -68.5 q20 5 34 6.5t30 1.5q72 0 113 -38t41 -105v-13t-2 -15q19 15 36 38.5t27 46.5q1 5 4 5q4 0 4 -5q0 -7 -6 -19t-16 -25.5t-23.5 -27t-27.5 -25.5q-9 -47 -36 -90.5t-64.5 -77.5t-82.5 -54t-88 -20q-48 0 -78.5 30t-30.5 77q0 56 35.5 110t95.5 88q-1 9 -1 12v6q0 35 17 77 q-52 -19 -97.5 -55t-80 -81.5t-54.5 -96.5t-20 -101q0 -75 46 -119.5t123 -44.5q44 0 86 13.5t90 47t107 90t138 142.5h-49.5t-45.5 -1zM609 316q-29 -17 -53 -24t-50 -7q-50 0 -81.5 26.5t-39.5 74.5q-27 -17 -49.5 -38.5t-38.5 -45.5t-25 -50t-9 -51q0 -46 27 -74t71 -28 q35 0 71.5 16.5t69.5 46t61 69t46 85.5zM413 494q-11 -26 -15.5 -45.5t-4.5 -48.5q9 5 21 10t23 8.5t20 6t13 2.5q5 0 5 -3t-2 -4t-16 -4q-15 -4 -32 -10.5t-31 -14.5q8 -48 37 -73t77 -25q26 0 50.5 8t54.5 27q5 17 6.5 29t1.5 27q0 56 -36.5 89.5t-97.5 33.5 q-36 0 -74 -13zM984 293q30 54 69 104t80.5 90.5t81 68t71.5 35.5q-64 -3 -121 -20.5t-114.5 -52.5t-119 -90.5t-133.5 -134.5h186zM1401 761q-26 -20 -55 -36t-70 -33q-6 -3 -17 -7.5t-21.5 -8t-19 -6.5t-9.5 -3q-3 0 -3 2t6 4q24 12 49.5 27t48.5 31.5t41.5 33t28.5 29.5z "/>
    <glyph glyph-name="Acircumflex" unicode="" horiz-adv-x="953" d="M650 294h25h19.5t21 -0.5t30.5 -0.5q72 79 140.5 137t137 95.5t139 55.5t145.5 19q17 4 33.5 5.5t31.5 1.5q32 0 50 -6t18 -17q0 -9 -10 -9q-4 0 -8 0.5t-25 5.5t-46 8.5t-42 3.5q-41 -13 -73.5 -34.5t-64.5 -58t-65.5 -92t-75.5 -137.5q-57 -118 -130.5 -185t-168.5 -89 q24 -4 37.5 -5t29.5 -1q50 0 84 13t67 45q17 16 41.5 45t56.5 72q5 7 8 7q2 0 2 -3q0 -1 -6 -9t-14.5 -19.5t-18 -24.5t-17.5 -22q-26 -32 -48.5 -53.5t-46 -34t-49 -18t-56.5 -5.5q-22 0 -41 2.5t-46 7.5q-17 -5 -34 -7.5t-38 -2.5q-28 0 -28 10q0 12 38 12q14 0 29.5 -1.5 t32.5 -3.5q37 9 63 20.5t52.5 40t60.5 81t88 142.5h-188q-71 -78 -134.5 -135t-121.5 -94t-111.5 -55t-105.5 -18q-91 0 -144 50.5t-53 137.5q0 53 22 105t60 96.5t90.5 79t113.5 52.5q20 40 52 73.5t71 58t82 38.5t86 14q51 0 80 -25t29 -70q0 -20 -5 -37t-18 -42 q-14 -26 -17.5 -36t-3.5 -20q0 -16 12 -26t30 -10q26 0 49.5 17t51.5 55q4 6 7 6q4 0 4 -4q0 -5 -23 -31q-46 -52 -89 -52q-29 0 -46 20t-17 52q0 10 1 17.5t4 16t9.5 21t17.5 33.5q15 27 15 47q0 25 -27 42t-66 17q-40 0 -80.5 -13t-77.5 -36t-68 -54.5t-51 -68.5 q20 5 34 6.5t30 1.5q72 0 113 -38t41 -105v-13t-2 -15q19 15 36 38.5t27 46.5q1 5 4 5q4 0 4 -5q0 -7 -6 -19t-16 -25.5t-23.5 -27t-27.5 -25.5q-9 -47 -36 -90.5t-64.5 -77.5t-82.5 -54t-88 -20q-48 0 -78.5 30t-30.5 77q0 56 35.5 110t95.5 88q-1 9 -1 12v6q0 35 17 77 q-52 -19 -97.5 -55t-80 -81.5t-54.5 -96.5t-20 -101q0 -75 46 -119.5t123 -44.5q44 0 86 13.5t90 47t107 90t138 142.5h-49.5t-45.5 -1zM609 316q-29 -17 -53 -24t-50 -7q-50 0 -81.5 26.5t-39.5 74.5q-27 -17 -49.5 -38.5t-38.5 -45.5t-25 -50t-9 -51q0 -46 27 -74t71 -28 q35 0 71.5 16.5t69.5 46t61 69t46 85.5zM413 494q-11 -26 -15.5 -45.5t-4.5 -48.5q9 5 21 10t23 8.5t20 6t13 2.5q5 0 5 -3t-2 -4t-16 -4q-15 -4 -32 -10.5t-31 -14.5q8 -48 37 -73t77 -25q26 0 50.5 8t54.5 27q5 17 6.5 29t1.5 27q0 56 -36.5 89.5t-97.5 33.5 q-36 0 -74 -13zM984 293q30 54 69 104t80.5 90.5t81 68t71.5 35.5q-64 -3 -121 -20.5t-114.5 -52.5t-119 -90.5t-133.5 -134.5h186zM1334 794q-2 -23 -3 -38t-2 -27.5t-2 -25.5t-2 -31q0 -4 -2 -4t-2 4q-2 23 -4.5 41t-7.5 28q-15 -10 -40 -22.5t-51 -24t-48 -19.5t-30 -8 q-3 0 -3 2q0 1 7 4q27 12 56 27t55 31.5t46.5 33t32.5 29.5z"/>
    <glyph glyph-name="Atilde" unicode="" horiz-adv-x="953" d="M650 294h25h19.5t21 -0.5t30.5 -0.5q72 79 140.5 137t137 95.5t139 55.5t145.5 19q17 4 33.5 5.5t31.5 1.5q32 0 50 -6t18 -17q0 -9 -10 -9q-4 0 -8 0.5t-25 5.5t-46 8.5t-42 3.5q-41 -13 -73.5 -34.5t-64.5 -58t-65.5 -92t-75.5 -137.5q-57 -118 -130.5 -185t-168.5 -89 q24 -4 37.5 -5t29.5 -1q50 0 84 13t67 45q17 16 41.5 45t56.5 72q5 7 8 7q2 0 2 -3q0 -1 -6 -9t-14.5 -19.5t-18 -24.5t-17.5 -22q-26 -32 -48.5 -53.5t-46 -34t-49 -18t-56.5 -5.5q-22 0 -41 2.5t-46 7.5q-17 -5 -34 -7.5t-38 -2.5q-28 0 -28 10q0 12 38 12q14 0 29.5 -1.5 t32.5 -3.5q37 9 63 20.5t52.5 40t60.5 81t88 142.5h-188q-71 -78 -134.5 -135t-121.5 -94t-111.5 -55t-105.5 -18q-91 0 -144 50.5t-53 137.5q0 53 22 105t60 96.5t90.5 79t113.5 52.5q20 40 52 73.5t71 58t82 38.5t86 14q51 0 80 -25t29 -70q0 -20 -5 -37t-18 -42 q-14 -26 -17.5 -36t-3.5 -20q0 -16 12 -26t30 -10q26 0 49.5 17t51.5 55q4 6 7 6q4 0 4 -4q0 -5 -23 -31q-46 -52 -89 -52q-29 0 -46 20t-17 52q0 10 1 17.5t4 16t9.5 21t17.5 33.5q15 27 15 47q0 25 -27 42t-66 17q-40 0 -80.5 -13t-77.5 -36t-68 -54.5t-51 -68.5 q20 5 34 6.5t30 1.5q72 0 113 -38t41 -105v-13t-2 -15q19 15 36 38.5t27 46.5q1 5 4 5q4 0 4 -5q0 -7 -6 -19t-16 -25.5t-23.5 -27t-27.5 -25.5q-9 -47 -36 -90.5t-64.5 -77.5t-82.5 -54t-88 -20q-48 0 -78.5 30t-30.5 77q0 56 35.5 110t95.5 88q-1 9 -1 12v6q0 35 17 77 q-52 -19 -97.5 -55t-80 -81.5t-54.5 -96.5t-20 -101q0 -75 46 -119.5t123 -44.5q44 0 86 13.5t90 47t107 90t138 142.5h-49.5t-45.5 -1zM609 316q-29 -17 -53 -24t-50 -7q-50 0 -81.5 26.5t-39.5 74.5q-27 -17 -49.5 -38.5t-38.5 -45.5t-25 -50t-9 -51q0 -46 27 -74t71 -28 q35 0 71.5 16.5t69.5 46t61 69t46 85.5zM413 494q-11 -26 -15.5 -45.5t-4.5 -48.5q9 5 21 10t23 8.5t20 6t13 2.5q5 0 5 -3t-2 -4t-16 -4q-15 -4 -32 -10.5t-31 -14.5q8 -48 37 -73t77 -25q26 0 50.5 8t54.5 27q5 17 6.5 29t1.5 27q0 56 -36.5 89.5t-97.5 33.5 q-36 0 -74 -13zM984 293q30 54 69 104t80.5 90.5t81 68t71.5 35.5q-64 -3 -121 -20.5t-114.5 -52.5t-119 -90.5t-133.5 -134.5h186zM1199 721q5 0 9 -0.5t10 -1.5t15.5 -3t25.5 -6q26 -6 36.5 -8t19.5 -2q17 0 29 8q4 2 5 2q3 0 3 -2q0 -3 -8.5 -9t-20 -11t-23 -9t-18.5 -4 q-8 0 -17.5 1.5t-26.5 5.5q-33 8 -48.5 11t-23.5 3q-13 0 -28 -7q-4 -3 -7 -3t-3 2t5 5.5t20 12.5q14 9 24 12t22 3z"/>
    <glyph glyph-name="Adieresis" unicode="" horiz-adv-x="953" d="M650 294h25h19.5t21 -0.5t30.5 -0.5q72 79 140.5 137t137 95.5t139 55.5t145.5 19q17 4 33.5 5.5t31.5 1.5q32 0 50 -6t18 -17q0 -9 -10 -9q-4 0 -8 0.5t-25 5.5t-46 8.5t-42 3.5q-41 -13 -73.5 -34.5t-64.5 -58t-65.5 -92t-75.5 -137.5q-57 -118 -130.5 -185t-168.5 -89 q24 -4 37.5 -5t29.5 -1q50 0 84 13t67 45q17 16 41.5 45t56.5 72q5 7 8 7q2 0 2 -3q0 -1 -6 -9t-14.5 -19.5t-18 -24.5t-17.5 -22q-26 -32 -48.5 -53.5t-46 -34t-49 -18t-56.5 -5.5q-22 0 -41 2.5t-46 7.5q-17 -5 -34 -7.5t-38 -2.5q-28 0 -28 10q0 12 38 12q14 0 29.5 -1.5 t32.5 -3.5q37 9 63 20.5t52.5 40t60.5 81t88 142.5h-188q-71 -78 -134.5 -135t-121.5 -94t-111.5 -55t-105.5 -18q-91 0 -144 50.5t-53 137.5q0 53 22 105t60 96.5t90.5 79t113.5 52.5q20 40 52 73.5t71 58t82 38.5t86 14q51 0 80 -25t29 -70q0 -20 -5 -37t-18 -42 q-14 -26 -17.5 -36t-3.5 -20q0 -16 12 -26t30 -10q26 0 49.5 17t51.5 55q4 6 7 6q4 0 4 -4q0 -5 -23 -31q-46 -52 -89 -52q-29 0 -46 20t-17 52q0 10 1 17.5t4 16t9.5 21t17.5 33.5q15 27 15 47q0 25 -27 42t-66 17q-40 0 -80.5 -13t-77.5 -36t-68 -54.5t-51 -68.5 q20 5 34 6.5t30 1.5q72 0 113 -38t41 -105v-13t-2 -15q19 15 36 38.5t27 46.5q1 5 4 5q4 0 4 -5q0 -7 -6 -19t-16 -25.5t-23.5 -27t-27.5 -25.5q-9 -47 -36 -90.5t-64.5 -77.5t-82.5 -54t-88 -20q-48 0 -78.5 30t-30.5 77q0 56 35.5 110t95.5 88q-1 9 -1 12v6q0 35 17 77 q-52 -19 -97.5 -55t-80 -81.5t-54.5 -96.5t-20 -101q0 -75 46 -119.5t123 -44.5q44 0 86 13.5t90 47t107 90t138 142.5h-49.5t-45.5 -1zM609 316q-29 -17 -53 -24t-50 -7q-50 0 -81.5 26.5t-39.5 74.5q-27 -17 -49.5 -38.5t-38.5 -45.5t-25 -50t-9 -51q0 -46 27 -74t71 -28 q35 0 71.5 16.5t69.5 46t61 69t46 85.5zM413 494q-11 -26 -15.5 -45.5t-4.5 -48.5q9 5 21 10t23 8.5t20 6t13 2.5q5 0 5 -3t-2 -4t-16 -4q-15 -4 -32 -10.5t-31 -14.5q8 -48 37 -73t77 -25q26 0 50.5 8t54.5 27q5 17 6.5 29t1.5 27q0 56 -36.5 89.5t-97.5 33.5 q-36 0 -74 -13zM984 293q30 54 69 104t80.5 90.5t81 68t71.5 35.5q-64 -3 -121 -20.5t-114.5 -52.5t-119 -90.5t-133.5 -134.5h186zM1205 734q10 0 16 -6t6 -15q0 -19 -14 -33.5t-31 -14.5q-11 0 -17.5 6t-6.5 17q0 17 15 31.5t32 14.5zM1290 734q9 0 15.5 -6t6.5 -15 q0 -19 -14 -33.5t-31 -14.5q-11 0 -17.5 6.5t-6.5 16.5q0 17 15 31.5t32 14.5z"/>
    <glyph glyph-name="Aring" unicode="" horiz-adv-x="953" d="M650 294h25h19.5t21 -0.5t30.5 -0.5q72 79 140.5 137t137 95.5t139 55.5t145.5 19q17 4 33.5 5.5t31.5 1.5q32 0 50 -6t18 -17q0 -9 -10 -9q-4 0 -8 0.5t-25 5.5t-46 8.5t-42 3.5q-41 -13 -73.5 -34.5t-64.5 -58t-65.5 -92t-75.5 -137.5q-57 -118 -130.5 -185t-168.5 -89 q24 -4 37.5 -5t29.5 -1q50 0 84 13t67 45q17 16 41.5 45t56.5 72q5 7 8 7q2 0 2 -3q0 -1 -6 -9t-14.5 -19.5t-18 -24.5t-17.5 -22q-26 -32 -48.5 -53.5t-46 -34t-49 -18t-56.5 -5.5q-22 0 -41 2.5t-46 7.5q-17 -5 -34 -7.5t-38 -2.5q-28 0 -28 10q0 12 38 12q14 0 29.5 -1.5 t32.5 -3.5q37 9 63 20.5t52.5 40t60.5 81t88 142.5h-188q-71 -78 -134.5 -135t-121.5 -94t-111.5 -55t-105.5 -18q-91 0 -144 50.5t-53 137.5q0 53 22 105t60 96.5t90.5 79t113.5 52.5q20 40 52 73.5t71 58t82 38.5t86 14q51 0 80 -25t29 -70q0 -20 -5 -37t-18 -42 q-14 -26 -17.5 -36t-3.5 -20q0 -16 12 -26t30 -10q26 0 49.5 17t51.5 55q4 6 7 6q4 0 4 -4q0 -5 -23 -31q-46 -52 -89 -52q-29 0 -46 20t-17 52q0 10 1 17.5t4 16t9.5 21t17.5 33.5q15 27 15 47q0 25 -27 42t-66 17q-40 0 -80.5 -13t-77.5 -36t-68 -54.5t-51 -68.5 q20 5 34 6.5t30 1.5q72 0 113 -38t41 -105v-13t-2 -15q19 15 36 38.5t27 46.5q1 5 4 5q4 0 4 -5q0 -7 -6 -19t-16 -25.5t-23.5 -27t-27.5 -25.5q-9 -47 -36 -90.5t-64.5 -77.5t-82.5 -54t-88 -20q-48 0 -78.5 30t-30.5 77q0 56 35.5 110t95.5 88q-1 9 -1 12v6q0 35 17 77 q-52 -19 -97.5 -55t-80 -81.5t-54.5 -96.5t-20 -101q0 -75 46 -119.5t123 -44.5q44 0 86 13.5t90 47t107 90t138 142.5h-49.5t-45.5 -1zM609 316q-29 -17 -53 -24t-50 -7q-50 0 -81.5 26.5t-39.5 74.5q-27 -17 -49.5 -38.5t-38.5 -45.5t-25 -50t-9 -51q0 -46 27 -74t71 -28 q35 0 71.5 16.5t69.5 46t61 69t46 85.5zM413 494q-11 -26 -15.5 -45.5t-4.5 -48.5q9 5 21 10t23 8.5t20 6t13 2.5q5 0 5 -3t-2 -4t-16 -4q-15 -4 -32 -10.5t-31 -14.5q8 -48 37 -73t77 -25q26 0 50.5 8t54.5 27q5 17 6.5 29t1.5 27q0 56 -36.5 89.5t-97.5 33.5 q-36 0 -74 -13zM984 293q30 54 69 104t80.5 90.5t81 68t71.5 35.5q-64 -3 -121 -20.5t-114.5 -52.5t-119 -90.5t-133.5 -134.5h186zM1281 777q12 0 19.5 -7.5t7.5 -21.5q0 -15 -7.5 -30.5t-19 -28t-26 -20.5t-28.5 -8t-22 8t-8 21q0 16 7.5 31.5t19.5 28t27 20t30 7.5z M1281 766q-11 0 -23 -8t-23 -20t-18 -25.5t-7 -24.5q0 -16 15 -16q10 0 22.5 8t23 20t18 25.5t7.5 24.5q0 16 -15 16z"/>
    <glyph glyph-name="AE" unicode="" horiz-adv-x="1337" d="M974 285q-48 -42 -70 -82t-22 -86q0 -93 101 -119q-19 29 -19 68q0 49 27 95.5t71 83t100.5 58.5t115.5 22q54 0 85.5 -26t31.5 -71q0 -48 -28.5 -92.5t-76 -79t-108.5 -55.5t-127 -21q-17 0 -27.5 0.5t-21.5 2.5q21 -31 56.5 -47t82.5 -16q23 0 50 5t42 12l6 1q3 0 3 -4 q0 -3 -10.5 -7t-25.5 -7.5t-32.5 -5.5t-32.5 -2q-105 0 -156 74q-73 14 -116 55.5t-43 96.5q0 38 18.5 74t58.5 73h-116q-71 -78 -134.5 -135t-121.5 -94t-111.5 -55t-105.5 -18q-91 0 -144 50.5t-53 137.5q0 53 22 105t60 96.5t90.5 79t113.5 52.5q20 39 51.5 72.5t70 58 t80 39t80.5 14.5q48 0 76.5 -26t28.5 -69q0 -20 -5 -37t-18 -42q-15 -27 -18.5 -36.5t-3.5 -19.5q0 -16 12 -26t31 -10q26 0 49.5 17t51.5 55q4 6 7 6q4 0 4 -4q0 -5 -23 -31q-45 -52 -89 -52q-29 0 -46.5 20t-17.5 52q0 10 1 17t4.5 16t10 22t17.5 33q7 13 11 25.5t4 21.5 q0 12 -7 22.5t-19 18.5t-28 13t-34 5q-20 0 -45 -6t-51.5 -17t-51.5 -25.5t-45 -30.5q-25 -21 -43 -43t-33 -50q20 5 34 6.5t30 1.5q72 0 113 -38t41 -105v-13t-2 -15q19 15 36 38.5t27 46.5q1 5 4 5q4 0 4 -5q0 -7 -6 -19t-16 -25.5t-23.5 -27t-27.5 -25.5 q-9 -47 -36 -90.5t-64.5 -77.5t-82.5 -54t-88 -20q-48 0 -78.5 30t-30.5 77q0 56 35.5 110t95.5 88q-1 9 -1 12v6q0 35 17 77q-52 -19 -97.5 -55t-80 -81.5t-54.5 -96.5t-20 -101q0 -75 46 -119.5t123 -44.5q44 0 86 13.5t90 47t107 90t138 142.5h-49.5t-45.5 -1l7 10h25 h19.5t21 -0.5t30.5 -0.5q72 82 129 138t105.5 90.5t91 49.5t86.5 15q7 0 13 -0.5t12.5 -1t15 -2.5t22.5 -5q69 31 152 31q33 0 62 -5t51 -13t34.5 -19t12.5 -24q0 -15 -16 -24t-44 -9q-50 0 -140 23q-6 1 -10 2l-10 2.5l-16 4t-28 7.5q-11 3 -13.5 3.5t-6.5 1.5 q-39 -22 -61 -53.5t-22 -65.5q0 -35 23 -48q17 2 27 2.5t23 0.5q54 0 54 -12q0 -8 -23 -8q-37 0 -78 11q-23 -3 -50.5 -12t-55.5 -21t-54.5 -27.5t-47.5 -31.5h85l-5 -8h-90zM917 293q48 39 112 62.5t151 34.5q-54 22 -54 72q0 34 20 60.5t64 49.5l-8 1q-18 3 -25 4t-17 1 q-36 0 -68 -11t-72 -42.5t-92.5 -87t-129.5 -144.5h119zM609 316q-29 -17 -53 -24t-50 -7q-50 0 -81.5 26.5t-39.5 74.5q-27 -17 -49.5 -38.5t-38.5 -45.5t-25 -50t-9 -51q0 -46 27 -74t71 -28q35 0 71.5 16.5t69.5 46t61 69t46 85.5zM413 494q-11 -26 -15.5 -45.5 t-4.5 -48.5q9 5 21 10t23 8.5t20 6t13 2.5q5 0 5 -3t-2 -4t-16 -4q-15 -4 -32 -10.5t-31 -14.5q8 -48 37 -73t77 -25q26 0 50.5 8t54.5 27q5 17 6.5 29t1.5 27q0 56 -36.5 89.5t-97.5 33.5q-36 0 -74 -13zM1260 565q30 -9 61 -16.5t59.5 -13.5t53.5 -9t42 -3q47 0 47 25 q0 9 -11 18t-29.5 15.5t-42.5 10.5t-50 4q-36 0 -67.5 -7.5t-62.5 -23.5zM999 -6q15 -3 26 -4t24 -1q39 0 79 10t77.5 28t70.5 41.5t57.5 51t38.5 56.5t14 57q0 35 -27.5 58t-71.5 23q-53 0 -107 -24.5t-98 -63t-72 -86t-28 -93.5q0 -26 17 -53z"/>
    <glyph glyph-name="Ccedilla" unicode="" horiz-adv-x="797" d="M455 -11q20 -14 28 -26.5t8 -26.5q0 -20 -13 -31.5t-36 -11.5q-11 0 -28 6t-33.5 14t-28 17t-11.5 15q0 3 3 3q2 0 3.5 -0.5t6.5 -4.5q14 -10 31 -16t31 -6q17 0 29 10t12 24q0 17 -7.5 27t-33.5 27q-40 27 -64 73t-24 94q0 84 58 171q-102 17 -156.5 60t-54.5 107 q0 38 20.5 71t57.5 57t87 37.5t109 13.5q80 0 166 -28.5t165 -80.5q18 4 29.5 5t27.5 1q48 0 73.5 -12.5t25.5 -35.5q0 -16 -10.5 -31.5t-33.5 -34.5q19 -29 29.5 -57.5t10.5 -51.5q0 -12 -7 -12q-4 0 -5 3t-1 13q-2 49 -34 99q-36 -26 -87 -49.5t-106.5 -41t-112 -28 t-103.5 -10.5h-9.5t-13.5 1q-38 -53 -58 -106.5t-20 -103.5q0 -68 41 -107t113 -41q-19 20 -29.5 48.5t-10.5 59.5q0 49 24 97t62.5 85.5t87.5 61t100 23.5q47 0 72 -26.5t25 -75.5q0 -51 -25.5 -99.5t-68 -87.5t-98 -64.5t-116.5 -29.5q18 -14 46 -23t58 -9q14 0 30.5 3.5 t33.5 9t32.5 13.5t27.5 17q5 4 8 4t3 -3q0 -6 -15 -15t-36.5 -17.5t-44.5 -14t-39 -5.5q-70 0 -118 39q-14 0 -23.5 0.5t-18.5 2t-18.5 4.5t-22.5 7zM792 575q32 -22 52.5 -42.5t43.5 -50.5q40 33 40 60q0 18 -21.5 29t-56.5 11q-16 0 -28.5 -1.5t-29.5 -5.5zM471 349 q47 0 103 10t111.5 27.5t106.5 41t89 49.5q-17 26 -44.5 51.5t-56.5 44.5q-45 -12 -90.5 -33.5t-87.5 -51t-78.5 -65t-64.5 -74.5h12zM766 582q-69 40 -153 63t-162 23q-52 0 -99 -13t-82.5 -35.5t-56.5 -52t-21 -62.5q0 -57 50.5 -95t147.5 -57q59 83 157 142.5t219 86.5z M543 -16q52 0 106 26.5t98 68t72.5 92t28.5 98.5q0 38 -21.5 59.5t-59.5 21.5q-42 0 -86.5 -26t-81.5 -66t-61 -89t-24 -94q0 -26 7.5 -50t21.5 -41z"/>
    <glyph glyph-name="Egrave" unicode="" horiz-adv-x="872" d="M777 -62q3 0 3 -4q0 -3 -10.5 -7t-25.5 -7.5t-32.5 -5.5t-32.5 -2q-54 0 -91 18t-65 56q-76 17 -117.5 56.5t-41.5 94.5q0 17 4 36q-48 1 -87.5 15t-68 38.5t-44 59t-15.5 75.5q0 54 25 100.5t69 80.5t104 53t131 19q33 0 59 -1.5t54.5 -5.5t64.5 -11.5t91 -20.5 q33 16 73.5 24t82.5 8q33 0 62.5 -4.5t51 -13t34 -19.5t12.5 -23q0 -15 -16 -24t-44 -9q-20 0 -33 0.5t-34 5t-57 13t-100 25.5q-38 -22 -60.5 -53.5t-22.5 -65.5t23 -49q15 2 27 3t26 1q24 0 37.5 -3.5t13.5 -8.5t-6 -6.5t-22 -1.5t-35 2.5t-38 7.5q-44 -6 -102 -31 q-5 -32 -22.5 -61t-44 -53t-60 -40t-70.5 -22q-5 -18 -7.5 -32t-2.5 -29q0 -45 25.5 -75.5t74.5 -42.5q-19 29 -19 68q0 48 27 94.5t71 83t100.5 59t115.5 22.5q53 0 85 -26.5t32 -70.5q0 -48 -28.5 -92.5t-76 -79t-109 -55.5t-126.5 -21q-17 0 -27.5 0.5t-21.5 2.5 q22 -32 57 -47.5t82 -15.5q23 0 50 5t42 12zM740 570q-60 12 -112 18.5t-94 6.5q-76 0 -142.5 -19.5t-115.5 -54t-77 -81t-28 -99.5q0 -34 14.5 -62.5t41 -49.5t63 -34t80.5 -14q10 32 32 61.5t54.5 54.5t73 44t86.5 30q1 5 1 8v5q0 52 -37.5 90t-97.5 48q-5 2 -5 4q0 5 7 5 t18 -3t23 -8t23.5 -11t19.5 -12q58 -44 58 -123q25 5 42.5 8t45.5 7q-54 23 -54 72q0 65 80 109zM430 186q34 6 64 21t54.5 36.5t41 48t23.5 56.5q-70 -32 -116.5 -73t-66.5 -89zM794 564q28 -9 59 -16.5t60.5 -13t54.5 -8.5t43 -3q46 0 46 24q0 9 -11 18t-29.5 15.5 t-42.5 10.5t-50 4q-36 0 -67.5 -7.5t-62.5 -23.5zM533 -6q13 -2 25.5 -3.5t26.5 -1.5q57 0 116.5 22.5t108 57.5t79.5 78t31 85q0 35 -28 58t-71 23q-53 0 -107 -24.5t-98 -62.5t-72 -85.5t-28 -92.5q0 -27 17 -54zM952 808q-5 -14 -7 -25.5t-2 -23.5q0 -11 2.5 -23.5 t6 -24.5t8.5 -23t11 -18q4 -5 4 -7t-3 -2q-6 0 -15 10.5t-18 27t-17.5 37.5t-13.5 42z"/>
    <glyph glyph-name="Eacute" unicode="" horiz-adv-x="872" d="M777 -62q3 0 3 -4q0 -3 -10.5 -7t-25.5 -7.5t-32.5 -5.5t-32.5 -2q-54 0 -91 18t-65 56q-76 17 -117.5 56.5t-41.5 94.5q0 17 4 36q-48 1 -87.5 15t-68 38.5t-44 59t-15.5 75.5q0 54 25 100.5t69 80.5t104 53t131 19q33 0 59 -1.5t54.5 -5.5t64.5 -11.5t91 -20.5 q33 16 73.5 24t82.5 8q33 0 62.5 -4.5t51 -13t34 -19.5t12.5 -23q0 -15 -16 -24t-44 -9q-20 0 -33 0.5t-34 5t-57 13t-100 25.5q-38 -22 -60.5 -53.5t-22.5 -65.5t23 -49q15 2 27 3t26 1q24 0 37.5 -3.5t13.5 -8.5t-6 -6.5t-22 -1.5t-35 2.5t-38 7.5q-44 -6 -102 -31 q-5 -32 -22.5 -61t-44 -53t-60 -40t-70.5 -22q-5 -18 -7.5 -32t-2.5 -29q0 -45 25.5 -75.5t74.5 -42.5q-19 29 -19 68q0 48 27 94.5t71 83t100.5 59t115.5 22.5q53 0 85 -26.5t32 -70.5q0 -48 -28.5 -92.5t-76 -79t-109 -55.5t-126.5 -21q-17 0 -27.5 0.5t-21.5 2.5 q22 -32 57 -47.5t82 -15.5q23 0 50 5t42 12zM740 570q-60 12 -112 18.5t-94 6.5q-76 0 -142.5 -19.5t-115.5 -54t-77 -81t-28 -99.5q0 -34 14.5 -62.5t41 -49.5t63 -34t80.5 -14q10 32 32 61.5t54.5 54.5t73 44t86.5 30q1 5 1 8v5q0 52 -37.5 90t-97.5 48q-5 2 -5 4q0 5 7 5 t18 -3t23 -8t23.5 -11t19.5 -12q58 -44 58 -123q25 5 42.5 8t45.5 7q-54 23 -54 72q0 65 80 109zM430 186q34 6 64 21t54.5 36.5t41 48t23.5 56.5q-70 -32 -116.5 -73t-66.5 -89zM794 564q28 -9 59 -16.5t60.5 -13t54.5 -8.5t43 -3q46 0 46 24q0 9 -11 18t-29.5 15.5 t-42.5 10.5t-50 4q-36 0 -67.5 -7.5t-62.5 -23.5zM533 -6q13 -2 25.5 -3.5t26.5 -1.5q57 0 116.5 22.5t108 57.5t79.5 78t31 85q0 35 -28 58t-71 23q-53 0 -107 -24.5t-98 -62.5t-72 -85.5t-28 -92.5q0 -27 17 -54zM1127 761q-26 -20 -55 -36t-70 -33q-6 -3 -17 -7.5 t-21.5 -8t-19 -6.5t-9.5 -3q-3 0 -3 2t6 4q24 12 49.5 27t48.5 31.5t41.5 33t28.5 29.5z"/>
    <glyph glyph-name="Ecircumflex" unicode="" horiz-adv-x="872" d="M777 -62q3 0 3 -4q0 -3 -10.5 -7t-25.5 -7.5t-32.5 -5.5t-32.5 -2q-54 0 -91 18t-65 56q-76 17 -117.5 56.5t-41.5 94.5q0 17 4 36q-48 1 -87.5 15t-68 38.5t-44 59t-15.5 75.5q0 54 25 100.5t69 80.5t104 53t131 19q33 0 59 -1.5t54.5 -5.5t64.5 -11.5t91 -20.5 q33 16 73.5 24t82.5 8q33 0 62.5 -4.5t51 -13t34 -19.5t12.5 -23q0 -15 -16 -24t-44 -9q-20 0 -33 0.5t-34 5t-57 13t-100 25.5q-38 -22 -60.5 -53.5t-22.5 -65.5t23 -49q15 2 27 3t26 1q24 0 37.5 -3.5t13.5 -8.5t-6 -6.5t-22 -1.5t-35 2.5t-38 7.5q-44 -6 -102 -31 q-5 -32 -22.5 -61t-44 -53t-60 -40t-70.5 -22q-5 -18 -7.5 -32t-2.5 -29q0 -45 25.5 -75.5t74.5 -42.5q-19 29 -19 68q0 48 27 94.5t71 83t100.5 59t115.5 22.5q53 0 85 -26.5t32 -70.5q0 -48 -28.5 -92.5t-76 -79t-109 -55.5t-126.5 -21q-17 0 -27.5 0.5t-21.5 2.5 q22 -32 57 -47.5t82 -15.5q23 0 50 5t42 12zM740 570q-60 12 -112 18.5t-94 6.5q-76 0 -142.5 -19.5t-115.5 -54t-77 -81t-28 -99.5q0 -34 14.5 -62.5t41 -49.5t63 -34t80.5 -14q10 32 32 61.5t54.5 54.5t73 44t86.5 30q1 5 1 8v5q0 52 -37.5 90t-97.5 48q-5 2 -5 4q0 5 7 5 t18 -3t23 -8t23.5 -11t19.5 -12q58 -44 58 -123q25 5 42.5 8t45.5 7q-54 23 -54 72q0 65 80 109zM430 186q34 6 64 21t54.5 36.5t41 48t23.5 56.5q-70 -32 -116.5 -73t-66.5 -89zM794 564q28 -9 59 -16.5t60.5 -13t54.5 -8.5t43 -3q46 0 46 24q0 9 -11 18t-29.5 15.5 t-42.5 10.5t-50 4q-36 0 -67.5 -7.5t-62.5 -23.5zM533 -6q13 -2 25.5 -3.5t26.5 -1.5q57 0 116.5 22.5t108 57.5t79.5 78t31 85q0 35 -28 58t-71 23q-53 0 -107 -24.5t-98 -62.5t-72 -85.5t-28 -92.5q0 -27 17 -54zM1054 794q-2 -23 -3 -38t-2 -27.5t-2 -25.5t-2 -31 q0 -4 -2 -4t-2 4q-2 23 -4.5 41t-7.5 28q-15 -10 -40 -22.5t-51 -24t-48 -19.5t-30 -8q-3 0 -3 2q0 1 7 4q27 12 56 27t55 31.5t46.5 33t32.5 29.5z"/>
    <glyph glyph-name="Edieresis" unicode="" horiz-adv-x="872" d="M777 -62q3 0 3 -4q0 -3 -10.5 -7t-25.5 -7.5t-32.5 -5.5t-32.5 -2q-54 0 -91 18t-65 56q-76 17 -117.5 56.5t-41.5 94.5q0 17 4 36q-48 1 -87.5 15t-68 38.5t-44 59t-15.5 75.5q0 54 25 100.5t69 80.5t104 53t131 19q33 0 59 -1.5t54.5 -5.5t64.5 -11.5t91 -20.5 q33 16 73.5 24t82.5 8q33 0 62.5 -4.5t51 -13t34 -19.5t12.5 -23q0 -15 -16 -24t-44 -9q-20 0 -33 0.5t-34 5t-57 13t-100 25.5q-38 -22 -60.5 -53.5t-22.5 -65.5t23 -49q15 2 27 3t26 1q24 0 37.5 -3.5t13.5 -8.5t-6 -6.5t-22 -1.5t-35 2.5t-38 7.5q-44 -6 -102 -31 q-5 -32 -22.5 -61t-44 -53t-60 -40t-70.5 -22q-5 -18 -7.5 -32t-2.5 -29q0 -45 25.5 -75.5t74.5 -42.5q-19 29 -19 68q0 48 27 94.5t71 83t100.5 59t115.5 22.5q53 0 85 -26.5t32 -70.5q0 -48 -28.5 -92.5t-76 -79t-109 -55.5t-126.5 -21q-17 0 -27.5 0.5t-21.5 2.5 q22 -32 57 -47.5t82 -15.5q23 0 50 5t42 12zM740 570q-60 12 -112 18.5t-94 6.5q-76 0 -142.5 -19.5t-115.5 -54t-77 -81t-28 -99.5q0 -34 14.5 -62.5t41 -49.5t63 -34t80.5 -14q10 32 32 61.5t54.5 54.5t73 44t86.5 30q1 5 1 8v5q0 52 -37.5 90t-97.5 48q-5 2 -5 4q0 5 7 5 t18 -3t23 -8t23.5 -11t19.5 -12q58 -44 58 -123q25 5 42.5 8t45.5 7q-54 23 -54 72q0 65 80 109zM430 186q34 6 64 21t54.5 36.5t41 48t23.5 56.5q-70 -32 -116.5 -73t-66.5 -89zM794 564q28 -9 59 -16.5t60.5 -13t54.5 -8.5t43 -3q46 0 46 24q0 9 -11 18t-29.5 15.5 t-42.5 10.5t-50 4q-36 0 -67.5 -7.5t-62.5 -23.5zM533 -6q13 -2 25.5 -3.5t26.5 -1.5q57 0 116.5 22.5t108 57.5t79.5 78t31 85q0 35 -28 58t-71 23q-53 0 -107 -24.5t-98 -62.5t-72 -85.5t-28 -92.5q0 -27 17 -54zM906 740q10 0 16 -6t6 -15q0 -19 -14 -33.5t-31 -14.5 q-11 0 -17.5 6t-6.5 17q0 17 15 31.5t32 14.5zM991 740q9 0 15.5 -6t6.5 -15q0 -19 -14 -33.5t-31 -14.5q-11 0 -17.5 6.5t-6.5 16.5q0 17 15 31.5t32 14.5z"/>
    <glyph glyph-name="Igrave" unicode="" horiz-adv-x="719" d="M962 593q13 10 31.5 20t37.5 18.5t35 14t24 5.5t8 -5q0 -4 -11 -11t-29.5 -15t-42.5 -16.5t-50 -15.5q-34 -24 -64 -54t-59.5 -68.5t-60.5 -88.5t-65 -114q5 -1 7.5 -1h6.5q30 0 58 10t51.5 27t39.5 39.5t22 48.5q2 8 5 8t3 -4q0 -11 -9.5 -31.5t-22.5 -36.5 q-25 -30 -66 -49.5t-81 -19.5h-6.5t-11.5 1q-23 -41 -35.5 -64t-21 -36.5t-16 -22t-19.5 -21.5q-28 -30 -64 -55t-76 -42t-82.5 -26.5t-84.5 -9.5q-48 0 -86.5 12.5t-66 36t-42.5 56t-15 73.5q0 51 26.5 99.5t70.5 86t100 60.5t116 23q68 0 109 -38t41 -102q0 -44 -20 -86.5 t-53 -75.5t-75 -53.5t-85 -20.5q-23 0 -43 8.5t-34.5 24t-23 36t-8.5 44.5q0 33 16 63.5t43 54.5t61.5 38t72.5 14q12 0 25 -3.5t23.5 -9.5t17 -13t6.5 -14q0 -3 -4 -3q-1 0 -4 3q-21 32 -59 32q-32 0 -64 -15.5t-57.5 -40.5t-41 -56.5t-15.5 -62.5q0 -42 25 -66.5t68 -24.5 q40 0 79 20t70.5 52.5t51 73.5t19.5 82q0 28 -10 52t-28.5 41.5t-43.5 27t-55 9.5q-56 0 -108.5 -24t-93 -64t-65 -92t-24.5 -108q0 -31 13 -57t36 -44.5t54.5 -29t69.5 -10.5q148 0 265 147q15 19 38.5 52.5t55.5 81.5q-41 17 -62.5 47t-21.5 70q0 47 28 84.5t82 60.5 q30 13 70.5 23t105.5 21q15 3 25 4.5t17.5 3l15 3l17.5 3.5zM917 576q-13 -3 -26 -6.5t-27 -6.5q-60 -14 -108 -35.5t-81.5 -48t-52 -57t-18.5 -62.5q0 -58 61 -86q66 106 136.5 181.5t149.5 128.5zM920 818q-5 -14 -7 -25.5t-2 -23.5q0 -11 2.5 -23.5t6 -24.5t8.5 -23 t11 -18q4 -5 4 -7t-3 -2q-6 0 -15 10.5t-18 27t-17.5 37.5t-13.5 42z"/>
    <glyph glyph-name="Iacute" unicode="" horiz-adv-x="719" d="M962 593q13 10 31.5 20t37.5 18.5t35 14t24 5.5t8 -5q0 -4 -11 -11t-29.5 -15t-42.5 -16.5t-50 -15.5q-34 -24 -64 -54t-59.5 -68.5t-60.5 -88.5t-65 -114q5 -1 7.5 -1h6.5q30 0 58 10t51.5 27t39.5 39.5t22 48.5q2 8 5 8t3 -4q0 -11 -9.5 -31.5t-22.5 -36.5 q-25 -30 -66 -49.5t-81 -19.5h-6.5t-11.5 1q-23 -41 -35.5 -64t-21 -36.5t-16 -22t-19.5 -21.5q-28 -30 -64 -55t-76 -42t-82.5 -26.5t-84.5 -9.5q-48 0 -86.5 12.5t-66 36t-42.5 56t-15 73.5q0 51 26.5 99.5t70.5 86t100 60.5t116 23q68 0 109 -38t41 -102q0 -44 -20 -86.5 t-53 -75.5t-75 -53.5t-85 -20.5q-23 0 -43 8.5t-34.5 24t-23 36t-8.5 44.5q0 33 16 63.5t43 54.5t61.5 38t72.5 14q12 0 25 -3.5t23.5 -9.5t17 -13t6.5 -14q0 -3 -4 -3q-1 0 -4 3q-21 32 -59 32q-32 0 -64 -15.5t-57.5 -40.5t-41 -56.5t-15.5 -62.5q0 -42 25 -66.5t68 -24.5 q40 0 79 20t70.5 52.5t51 73.5t19.5 82q0 28 -10 52t-28.5 41.5t-43.5 27t-55 9.5q-56 0 -108.5 -24t-93 -64t-65 -92t-24.5 -108q0 -31 13 -57t36 -44.5t54.5 -29t69.5 -10.5q148 0 265 147q15 19 38.5 52.5t55.5 81.5q-41 17 -62.5 47t-21.5 70q0 47 28 84.5t82 60.5 q30 13 70.5 23t105.5 21q15 3 25 4.5t17.5 3l15 3l17.5 3.5zM917 576q-13 -3 -26 -6.5t-27 -6.5q-60 -14 -108 -35.5t-81.5 -48t-52 -57t-18.5 -62.5q0 -58 61 -86q66 106 136.5 181.5t149.5 128.5zM1097 771q-26 -20 -55 -36t-70 -33q-6 -3 -17 -7.5t-21.5 -8t-19 -6.5 t-9.5 -3q-3 0 -3 2t6 4q24 12 49.5 27t48.5 31.5t41.5 33t28.5 29.5z"/>
    <glyph glyph-name="Icircumflex" unicode="" horiz-adv-x="719" d="M962 593q13 10 31.5 20t37.5 18.5t35 14t24 5.5t8 -5q0 -4 -11 -11t-29.5 -15t-42.5 -16.5t-50 -15.5q-34 -24 -64 -54t-59.5 -68.5t-60.5 -88.5t-65 -114q5 -1 7.5 -1h6.5q30 0 58 10t51.5 27t39.5 39.5t22 48.5q2 8 5 8t3 -4q0 -11 -9.5 -31.5t-22.5 -36.5 q-25 -30 -66 -49.5t-81 -19.5h-6.5t-11.5 1q-23 -41 -35.5 -64t-21 -36.5t-16 -22t-19.5 -21.5q-28 -30 -64 -55t-76 -42t-82.5 -26.5t-84.5 -9.5q-48 0 -86.5 12.5t-66 36t-42.5 56t-15 73.5q0 51 26.5 99.5t70.5 86t100 60.5t116 23q68 0 109 -38t41 -102q0 -44 -20 -86.5 t-53 -75.5t-75 -53.5t-85 -20.5q-23 0 -43 8.5t-34.5 24t-23 36t-8.5 44.5q0 33 16 63.5t43 54.5t61.5 38t72.5 14q12 0 25 -3.5t23.5 -9.5t17 -13t6.5 -14q0 -3 -4 -3q-1 0 -4 3q-21 32 -59 32q-32 0 -64 -15.5t-57.5 -40.5t-41 -56.5t-15.5 -62.5q0 -42 25 -66.5t68 -24.5 q40 0 79 20t70.5 52.5t51 73.5t19.5 82q0 28 -10 52t-28.5 41.5t-43.5 27t-55 9.5q-56 0 -108.5 -24t-93 -64t-65 -92t-24.5 -108q0 -31 13 -57t36 -44.5t54.5 -29t69.5 -10.5q148 0 265 147q15 19 38.5 52.5t55.5 81.5q-41 17 -62.5 47t-21.5 70q0 47 28 84.5t82 60.5 q30 13 70.5 23t105.5 21q15 3 25 4.5t17.5 3l15 3l17.5 3.5zM917 576q-13 -3 -26 -6.5t-27 -6.5q-60 -14 -108 -35.5t-81.5 -48t-52 -57t-18.5 -62.5q0 -58 61 -86q66 106 136.5 181.5t149.5 128.5zM1014 804q-2 -23 -3 -38t-2 -27.5t-2 -25.5t-2 -31q0 -4 -2 -4t-2 4 q-2 23 -4.5 41t-7.5 28q-15 -10 -40 -22.5t-51 -24t-48 -19.5t-30 -8q-3 0 -3 2q0 1 7 4q27 12 56 27t55 31.5t46.5 33t32.5 29.5z"/>
    <glyph glyph-name="Idieresis" unicode="" horiz-adv-x="719" d="M962 593q13 10 31.5 20t37.5 18.5t35 14t24 5.5t8 -5q0 -4 -11 -11t-29.5 -15t-42.5 -16.5t-50 -15.5q-34 -24 -64 -54t-59.5 -68.5t-60.5 -88.5t-65 -114q5 -1 7.5 -1h6.5q30 0 58 10t51.5 27t39.5 39.5t22 48.5q2 8 5 8t3 -4q0 -11 -9.5 -31.5t-22.5 -36.5 q-25 -30 -66 -49.5t-81 -19.5h-6.5t-11.5 1q-23 -41 -35.5 -64t-21 -36.5t-16 -22t-19.5 -21.5q-28 -30 -64 -55t-76 -42t-82.5 -26.5t-84.5 -9.5q-48 0 -86.5 12.5t-66 36t-42.5 56t-15 73.5q0 51 26.5 99.5t70.5 86t100 60.5t116 23q68 0 109 -38t41 -102q0 -44 -20 -86.5 t-53 -75.5t-75 -53.5t-85 -20.5q-23 0 -43 8.5t-34.5 24t-23 36t-8.5 44.5q0 33 16 63.5t43 54.5t61.5 38t72.5 14q12 0 25 -3.5t23.5 -9.5t17 -13t6.5 -14q0 -3 -4 -3q-1 0 -4 3q-21 32 -59 32q-32 0 -64 -15.5t-57.5 -40.5t-41 -56.5t-15.5 -62.5q0 -42 25 -66.5t68 -24.5 q40 0 79 20t70.5 52.5t51 73.5t19.5 82q0 28 -10 52t-28.5 41.5t-43.5 27t-55 9.5q-56 0 -108.5 -24t-93 -64t-65 -92t-24.5 -108q0 -31 13 -57t36 -44.5t54.5 -29t69.5 -10.5q148 0 265 147q15 19 38.5 52.5t55.5 81.5q-41 17 -62.5 47t-21.5 70q0 47 28 84.5t82 60.5 q30 13 70.5 23t105.5 21q15 3 25 4.5t17.5 3l15 3l17.5 3.5zM917 576q-13 -3 -26 -6.5t-27 -6.5q-60 -14 -108 -35.5t-81.5 -48t-52 -57t-18.5 -62.5q0 -58 61 -86q66 106 136.5 181.5t149.5 128.5zM912 744q10 0 16 -6t6 -15q0 -19 -14 -33.5t-31 -14.5q-11 0 -17.5 6 t-6.5 17q0 17 15 31.5t32 14.5zM997 744q9 0 15.5 -6t6.5 -15q0 -19 -14 -33.5t-31 -14.5q-11 0 -17.5 6.5t-6.5 16.5q0 17 15 31.5t32 14.5z"/>
    <glyph glyph-name="Eth" unicode="" horiz-adv-x="847" d="M589 273l3 9h83q27 43 50 77t45 62.5t44.5 53.5t48.5 51q-34 57 -94.5 88.5t-136.5 31.5q-79 0 -158 -33.5t-145 -96.5q-35 -33 -63 -70t-48 -75t-30.5 -75t-10.5 -71q0 -52 34.5 -83.5t91.5 -31.5q48 0 99 29t94 74t70.5 99.5t27.5 104.5q0 32 -19 52.5t-48 20.5 q-35 0 -74.5 -25t-72.5 -62.5t-55 -82t-22 -83.5q0 -23 11.5 -37t30.5 -14h4q1 0 1 0.5t1 0.5h1q3 0 3 -3q0 -4 -9 -4q-28 0 -45 23t-17 60q0 40 22.5 81.5t57.5 75.5t78.5 56t84.5 22q34 0 55 -23t21 -60q0 -52 -28.5 -107.5t-72.5 -101.5t-97 -75.5t-102 -29.5 q-35 0 -64.5 12t-50.5 33t-33 50.5t-12 64.5q0 42 14.5 85.5t41.5 84.5t64.5 77.5t83.5 65.5q61 38 137 59.5t151 21.5t137.5 -31t101.5 -88q60 54 121 82t121 28q63 0 100.5 -39.5t37.5 -104.5q0 -12 -1.5 -26t-4 -26t-5.5 -20t-6 -8t-3 3t1 6q5 12 8 33t3 37q0 62 -37 99 t-99 37q-121 0 -229 -113q42 -78 42 -164q0 -80 -33 -150t-90 -122t-134.5 -81.5t-165.5 -29.5q-32 0 -65 3.5t-85 11.5q-25 -5 -44 -7.5t-37 -4.5t-36 -2.5t-41 -0.5q-62 0 -95.5 6.5t-33.5 19.5t31.5 22.5t73.5 9.5q16 0 31 -1t36.5 -4.5t53 -10t81.5 -17.5q48 12 83.5 29 t68.5 47t67.5 76.5t79.5 118.5h-80zM727 273q-26 -57 -57.5 -100t-72 -76t-92.5 -57t-119 -42q32 -7 66 -10t66 -3q187 0 303 180q36 57 55.5 116.5t19.5 114.5q0 32 -6 60t-20 57q-16 -18 -30 -36.5t-28 -40.5t-28.5 -49.5t-31.5 -62.5l-20 -42h94l-3 -9h-96zM333 -5 q-64 9 -115 14t-86 5q-32 0 -45.5 -2.5t-13.5 -8.5q0 -17 128 -17q42 0 72.5 2t59.5 7z"/>
    <glyph glyph-name="Ntilde" unicode="" horiz-adv-x="944" d="M281 417q-61 -55 -96.5 -125.5t-35.5 -137.5q0 -37 11.5 -68t32.5 -53t50 -34.5t64 -12.5q56 0 107 20.5t102.5 66.5t106 119t117.5 178q30 50 52.5 85.5t41 61.5t35 44.5t34.5 33.5q7 6 15.5 13t16.5 12t14 8.5t8 3.5t2 -2t-0.5 -3t-5.5 -6q-15 -21 -24.5 -40t-14.5 -49 t-7.5 -76.5t-3.5 -121.5q-2 -99 -13 -161.5t-33 -104.5q-1 0 -1 -1t1 -2q2 0 10.5 12.5t22 34.5t31 51.5t37.5 63.5q42 73 68.5 119t46.5 76.5t37 51.5t39 45q59 63 123.5 96.5t129.5 33.5q40 0 73.5 -12.5t58 -34.5t38 -53t13.5 -67q0 -20 -2.5 -31t-6.5 -11t-4 4q0 3 1 6 q2 3 2.5 12.5t0.5 20.5q0 32 -13 59t-35.5 47t-54 31.5t-67.5 11.5q-147 0 -296 -191q-15 -20 -29 -40t-33.5 -50.5t-48 -77t-71.5 -119.5q-20 -34 -41 -64.5t-40 -54t-33 -37t-21 -13.5t-7 7q0 6 4 9.5t18 10.5q20 10 31.5 35t11.5 63q0 11 -0.5 24t-1.5 28q-3 48 -4 81.5 t-1 68.5q0 53 5 95.5t15.5 77.5t27 64t40.5 55q3 3 3 2v1q0 2 -2 2q-3 0 -14 -9.5t-26 -24.5q-16 -17 -29.5 -33.5t-29 -40.5t-36 -59t-50.5 -89q-32 -59 -54 -96.5t-40 -64t-35.5 -46t-40.5 -41.5q-64 -62 -135 -95t-139 -33q-41 0 -74.5 14t-57.5 39t-37.5 60t-13.5 77 q0 77 42 147.5t121 128.5q10 51 39.5 96t72.5 79.5t94.5 54.5t104.5 20q48 0 74.5 -24t26.5 -66q0 -10 -1 -18.5t-4.5 -19t-10 -24t-16.5 -33.5q-11 -21 -11 -37q0 -15 11.5 -25.5t28.5 -10.5q24 0 53.5 23t47.5 56q2 5 5 5q4 0 4 -4t-8.5 -17t-19.5 -25q-42 -47 -81 -47 q-27 0 -45.5 19.5t-18.5 48.5q0 15 4.5 29t16.5 38q16 31 20.5 44t4.5 25q0 25 -23.5 40t-61.5 15q-47 0 -95.5 -19.5t-89.5 -52t-71 -75t-40 -87.5q96 62 185 62q71 0 110 -39t39 -109q0 -50 -24 -100t-63 -89.5t-87 -64.5t-96 -25t-78 30t-30 78q0 35 13 67.5t42 69.5 q-25 34 -25 75v11zM291 426q-1 -7 -1 -11.5v-7.5q0 -38 23 -68q14 15 30 28.5t32 24t29.5 16.5t21.5 6q4 0 4 -3q0 -2 -2 -3.5t-14 -6.5q-29 -12 -51.5 -28.5t-44.5 -41.5q31 -37 84 -37q45 0 89.5 25t72.5 65q2 2 3 2q4 0 4 -4q0 -5 -8.5 -15.5t-22.5 -22.5 q-30 -28 -66.5 -43t-72.5 -15q-29 0 -49 8.5t-40 29.5q-51 -66 -51 -127q0 -45 27 -73.5t70 -28.5t88.5 26.5t82.5 68.5t60.5 93.5t23.5 101.5q0 54 -36 87t-94 33q-98 0 -192 -79zM1096 731q5 0 9 -0.5t10 -1.5t15.5 -3t25.5 -6q26 -6 36.5 -8t19.5 -2q17 0 29 8q4 2 5 2 q3 0 3 -2q0 -3 -8.5 -9t-20 -11t-23 -9t-18.5 -4q-8 0 -17.5 1.5t-26.5 5.5q-33 8 -48.5 11t-23.5 3q-13 0 -28 -7q-4 -3 -7 -3t-3 2t5 5.5t20 12.5q14 9 24 12t22 3z"/>
    <glyph glyph-name="Ograve" unicode="" horiz-adv-x="773" d="M869 506q11 -26 15.5 -48t4.5 -50q0 -41 -11.5 -82.5t-33.5 -82.5t-54 -79.5t-72 -72.5q-68 -59 -139.5 -91t-134.5 -32q-44 0 -80.5 17t-62.5 47t-41 72t-15 92q0 43 12 88t35 88.5t55.5 84t73.5 75.5q35 30 75.5 55t82.5 43t82.5 28t74.5 10q63 0 100 -32.5t37 -87.5 q0 -19 -4 -42zM621 453q-4 0 -4 3q0 6 16 6q30 0 49 -25.5t19 -65.5q0 -49 -21 -98t-54.5 -88t-75 -63.5t-83.5 -24.5q-46 0 -74 33t-28 87q0 43 15 87.5t41.5 86.5t61 79.5t74 65t81 44t81.5 16.5q48 0 86 -20.5t57 -56.5q3 15 3 27q0 49 -32.5 80.5t-83.5 31.5 q-55 0 -110 -20.5t-106 -57t-95 -85t-76.5 -105t-51 -117.5t-18.5 -122q0 -38 11 -70t31 -55t48 -36t61 -13q45 0 92.5 20t92.5 54.5t84.5 80.5t69.5 98.5t47.5 109t18.5 110.5q-7 -16 -22.5 -36.5t-32 -39t-31.5 -31.5t-22 -13q-4 0 -4 4q0 1 7 7q16 11 32 26t30.5 32.5 t25.5 35t17 33.5q-5 58 -38.5 89t-91.5 31q-105 0 -211 -115q-61 -66 -94.5 -136t-33.5 -132q0 -45 24.5 -72t64.5 -27q73 0 143 99q35 48 53.5 96t18.5 88q0 29 -14 47t-36 18q-6 0 -8 -1h-4zM816 848q-5 -14 -7 -25.5t-2 -23.5q0 -11 2.5 -23.5t6 -24.5t8.5 -23t11 -18 q4 -5 4 -7t-3 -2q-6 0 -15 10.5t-18 27t-17.5 37.5t-13.5 42z"/>
    <glyph glyph-name="Oacute" unicode="" horiz-adv-x="773" d="M869 506q11 -26 15.5 -48t4.5 -50q0 -41 -11.5 -82.5t-33.5 -82.5t-54 -79.5t-72 -72.5q-68 -59 -139.5 -91t-134.5 -32q-44 0 -80.5 17t-62.5 47t-41 72t-15 92q0 43 12 88t35 88.5t55.5 84t73.5 75.5q35 30 75.5 55t82.5 43t82.5 28t74.5 10q63 0 100 -32.5t37 -87.5 q0 -19 -4 -42zM621 453q-4 0 -4 3q0 6 16 6q30 0 49 -25.5t19 -65.5q0 -49 -21 -98t-54.5 -88t-75 -63.5t-83.5 -24.5q-46 0 -74 33t-28 87q0 43 15 87.5t41.5 86.5t61 79.5t74 65t81 44t81.5 16.5q48 0 86 -20.5t57 -56.5q3 15 3 27q0 49 -32.5 80.5t-83.5 31.5 q-55 0 -110 -20.5t-106 -57t-95 -85t-76.5 -105t-51 -117.5t-18.5 -122q0 -38 11 -70t31 -55t48 -36t61 -13q45 0 92.5 20t92.5 54.5t84.5 80.5t69.5 98.5t47.5 109t18.5 110.5q-7 -16 -22.5 -36.5t-32 -39t-31.5 -31.5t-22 -13q-4 0 -4 4q0 1 7 7q16 11 32 26t30.5 32.5 t25.5 35t17 33.5q-5 58 -38.5 89t-91.5 31q-105 0 -211 -115q-61 -66 -94.5 -136t-33.5 -132q0 -45 24.5 -72t64.5 -27q73 0 143 99q35 48 53.5 96t18.5 88q0 29 -14 47t-36 18q-6 0 -8 -1h-4zM949 811q-26 -20 -55 -36t-70 -33q-6 -3 -17 -7.5t-21.5 -8t-19 -6.5t-9.5 -3 q-3 0 -3 2t6 4q24 12 49.5 27t48.5 31.5t41.5 33t28.5 29.5z"/>
    <glyph glyph-name="Ocircumflex" unicode="" horiz-adv-x="773" d="M869 506q11 -26 15.5 -48t4.5 -50q0 -41 -11.5 -82.5t-33.5 -82.5t-54 -79.5t-72 -72.5q-68 -59 -139.5 -91t-134.5 -32q-44 0 -80.5 17t-62.5 47t-41 72t-15 92q0 43 12 88t35 88.5t55.5 84t73.5 75.5q35 30 75.5 55t82.5 43t82.5 28t74.5 10q63 0 100 -32.5t37 -87.5 q0 -19 -4 -42zM621 453q-4 0 -4 3q0 6 16 6q30 0 49 -25.5t19 -65.5q0 -49 -21 -98t-54.5 -88t-75 -63.5t-83.5 -24.5q-46 0 -74 33t-28 87q0 43 15 87.5t41.5 86.5t61 79.5t74 65t81 44t81.5 16.5q48 0 86 -20.5t57 -56.5q3 15 3 27q0 49 -32.5 80.5t-83.5 31.5 q-55 0 -110 -20.5t-106 -57t-95 -85t-76.5 -105t-51 -117.5t-18.5 -122q0 -38 11 -70t31 -55t48 -36t61 -13q45 0 92.5 20t92.5 54.5t84.5 80.5t69.5 98.5t47.5 109t18.5 110.5q-7 -16 -22.5 -36.5t-32 -39t-31.5 -31.5t-22 -13q-4 0 -4 4q0 1 7 7q16 11 32 26t30.5 32.5 t25.5 35t17 33.5q-5 58 -38.5 89t-91.5 31q-105 0 -211 -115q-61 -66 -94.5 -136t-33.5 -132q0 -45 24.5 -72t64.5 -27q73 0 143 99q35 48 53.5 96t18.5 88q0 29 -14 47t-36 18q-6 0 -8 -1h-4zM885 844q-2 -23 -3 -38t-2 -27.5t-2 -25.5t-2 -31q0 -4 -2 -4t-2 4 q-2 23 -4.5 41t-7.5 28q-15 -10 -40 -22.5t-51 -24t-48 -19.5t-30 -8q-3 0 -3 2q0 1 7 4q27 12 56 27t55 31.5t46.5 33t32.5 29.5z"/>
    <glyph glyph-name="Otilde" unicode="" horiz-adv-x="773" d="M869 506q11 -26 15.5 -48t4.5 -50q0 -41 -11.5 -82.5t-33.5 -82.5t-54 -79.5t-72 -72.5q-68 -59 -139.5 -91t-134.5 -32q-44 0 -80.5 17t-62.5 47t-41 72t-15 92q0 43 12 88t35 88.5t55.5 84t73.5 75.5q35 30 75.5 55t82.5 43t82.5 28t74.5 10q63 0 100 -32.5t37 -87.5 q0 -19 -4 -42zM621 453q-4 0 -4 3q0 6 16 6q30 0 49 -25.5t19 -65.5q0 -49 -21 -98t-54.5 -88t-75 -63.5t-83.5 -24.5q-46 0 -74 33t-28 87q0 43 15 87.5t41.5 86.5t61 79.5t74 65t81 44t81.5 16.5q48 0 86 -20.5t57 -56.5q3 15 3 27q0 49 -32.5 80.5t-83.5 31.5 q-55 0 -110 -20.5t-106 -57t-95 -85t-76.5 -105t-51 -117.5t-18.5 -122q0 -38 11 -70t31 -55t48 -36t61 -13q45 0 92.5 20t92.5 54.5t84.5 80.5t69.5 98.5t47.5 109t18.5 110.5q-7 -16 -22.5 -36.5t-32 -39t-31.5 -31.5t-22 -13q-4 0 -4 4q0 1 7 7q16 11 32 26t30.5 32.5 t25.5 35t17 33.5q-5 58 -38.5 89t-91.5 31q-105 0 -211 -115q-61 -66 -94.5 -136t-33.5 -132q0 -45 24.5 -72t64.5 -27q73 0 143 99q35 48 53.5 96t18.5 88q0 29 -14 47t-36 18q-6 0 -8 -1h-4zM775 771q5 0 9 -0.5t10 -1.5t15.5 -3t25.5 -6q26 -6 36.5 -8t19.5 -2q17 0 29 8 q4 2 5 2q3 0 3 -2q0 -3 -8.5 -9t-20 -11t-23 -9t-18.5 -4q-8 0 -17.5 1.5t-26.5 5.5q-33 8 -48.5 11t-23.5 3q-13 0 -28 -7q-4 -3 -7 -3t-3 2t5 5.5t20 12.5q14 9 24 12t22 3z"/>
    <glyph glyph-name="Odieresis" unicode="" horiz-adv-x="773" d="M869 506q11 -26 15.5 -48t4.5 -50q0 -41 -11.5 -82.5t-33.5 -82.5t-54 -79.5t-72 -72.5q-68 -59 -139.5 -91t-134.5 -32q-44 0 -80.5 17t-62.5 47t-41 72t-15 92q0 43 12 88t35 88.5t55.5 84t73.5 75.5q35 30 75.5 55t82.5 43t82.5 28t74.5 10q63 0 100 -32.5t37 -87.5 q0 -19 -4 -42zM621 453q-4 0 -4 3q0 6 16 6q30 0 49 -25.5t19 -65.5q0 -49 -21 -98t-54.5 -88t-75 -63.5t-83.5 -24.5q-46 0 -74 33t-28 87q0 43 15 87.5t41.5 86.5t61 79.5t74 65t81 44t81.5 16.5q48 0 86 -20.5t57 -56.5q3 15 3 27q0 49 -32.5 80.5t-83.5 31.5 q-55 0 -110 -20.5t-106 -57t-95 -85t-76.5 -105t-51 -117.5t-18.5 -122q0 -38 11 -70t31 -55t48 -36t61 -13q45 0 92.5 20t92.5 54.5t84.5 80.5t69.5 98.5t47.5 109t18.5 110.5q-7 -16 -22.5 -36.5t-32 -39t-31.5 -31.5t-22 -13q-4 0 -4 4q0 1 7 7q16 11 32 26t30.5 32.5 t25.5 35t17 33.5q-5 58 -38.5 89t-91.5 31q-105 0 -211 -115q-61 -66 -94.5 -136t-33.5 -132q0 -45 24.5 -72t64.5 -27q73 0 143 99q35 48 53.5 96t18.5 88q0 29 -14 47t-36 18q-6 0 -8 -1h-4zM758 784q10 0 16 -6t6 -15q0 -19 -14 -33.5t-31 -14.5q-11 0 -17.5 6t-6.5 17 q0 17 15 31.5t32 14.5zM843 784q9 0 15.5 -6t6.5 -15q0 -19 -14 -33.5t-31 -14.5q-11 0 -17.5 6.5t-6.5 16.5q0 17 15 31.5t32 14.5z"/>
    <glyph glyph-name="multiply" unicode="" horiz-adv-x="523" d="M604 46l-199 199l-198 -199l-15 14l198 200l-200 202l16 14l199 -202l201 202l15 -14l-201 -202l199 -199z"/>
    <glyph glyph-name="Oslash" unicode="" horiz-adv-x="773" d="M311 -101h-17l62 89q-54 29 -82.5 83t-28.5 125q0 43 12 87.5t35 88t55.5 84.5t73.5 76q34 30 75 55t83 43t82 28t74 10q49 0 83 -20l55 78h16l-60 -86q44 -32 44 -92q0 -19 -4 -42q11 -26 15.5 -48t4.5 -50q0 -41 -11.5 -82.5t-33.5 -82.5t-53.5 -79.5t-71.5 -72.5 q-69 -59 -141 -91t-135 -32q-21 0 -36.5 3t-37.5 11zM789 583q53 -20 73 -64q3 15 3 27q0 55 -41 87zM813 641q-30 17 -64 17q-55 0 -110 -20.5t-106 -57t-95 -85t-76.5 -105t-51 -117.5t-18.5 -122q0 -100 73 -151l71 102q-71 28 -71 115q0 43 15 87.5t41.5 86.5t61 79.5 t74 65.5t81.5 44t82 16q14 0 26.5 -1.5t29.5 -6.5zM376 -7q20 -9 33.5 -12.5t32.5 -3.5q46 0 93.5 20t92.5 54.5t84.5 80.5t69.5 98.5t47.5 109t18.5 110.5q-7 -16 -22.5 -36.5t-32 -39t-31.5 -31.5t-22 -13q-4 0 -4 4q0 1 7 7q16 11 32 26t30.5 32.5t25.5 35t17 33.5 q-3 37 -20 65.5t-44 41.5l-100 -142q10 -17 13.5 -30t3.5 -31q0 -48 -21 -97t-54 -88.5t-74 -64.5t-81 -25h-8t-13 1zM771 580q-16 5 -27 6.5t-25 1.5q-107 0 -212 -116q-61 -66 -94.5 -136t-33.5 -131q0 -38 15 -60t48 -35l228 325q-18 19 -37 19q-6 0 -8 -1h-4q-4 0 -4 3 q0 6 16 6q26 0 42 -18zM456 107q5 -1 12 -1q72 0 144 99q34 49 52.5 96.5t18.5 88.5q0 10 -1 16.5t-5 16.5z"/>
    <glyph glyph-name="Ugrave" unicode="" horiz-adv-x="904" d="M333 243q3 1 6 1q4 0 4 -4q0 -5 -10 -5q-28 0 -45.5 22t-17.5 57q0 37 21 76t54 71t72.5 52.5t77.5 20.5q36 0 56.5 -23.5t20.5 -65.5q0 -45 -24 -101t-68 -111q-94 -119 -198 -119q-62 0 -99 42t-37 111q0 78 43.5 153.5t124.5 138.5q33 25 69 46t72.5 36t72 23t65.5 8 q75 0 115.5 -39.5t40.5 -111.5q0 -30 -5.5 -55.5t-24 -59.5t-54 -83.5t-94.5 -127.5q-26 -35 -42.5 -58t-25.5 -40t-12.5 -30t-3.5 -26q0 -24 14.5 -39.5t37.5 -15.5q37 0 87 36t116 111.5t149 191.5t187 276q10 -1 16.5 -1.5t12.5 -0.5q19 0 47 5q-166 -227 -252.5 -380.5 t-86.5 -219.5q0 -33 21.5 -54.5t55.5 -21.5q26 0 58 17.5t56 44.5q5 5 7 5q3 0 3 -4t-17 -20q-58 -51 -107 -51q-47 0 -77.5 36t-30.5 91q0 47 24.5 109.5t72.5 137.5l-16 -21l-23 -32q-45 -62 -88 -111t-82.5 -82.5t-73.5 -51.5t-61 -18q-35 0 -56.5 25.5t-21.5 67.5 q0 22 5 42t19 46.5t39.5 62t66.5 89.5q43 57 69 94t40.5 63.5t19 47.5t4.5 46q0 47 -34 74t-94 27q-50 0 -100.5 -17.5t-98 -47.5t-88.5 -71t-72 -87t-48.5 -96t-17.5 -99q0 -55 31 -88.5t82 -33.5q98 0 187 110q44 54 69 110.5t25 100.5q0 38 -17.5 59.5t-48.5 21.5 q-33 0 -69.5 -22.5t-67 -57t-50.5 -76t-20 -79.5q0 -20 11.5 -33.5t27.5 -13.5h4zM934 808q-5 -14 -7 -25.5t-2 -23.5q0 -11 2.5 -23.5t6 -24.5t8.5 -23t11 -18q4 -5 4 -7t-3 -2q-6 0 -15 10.5t-18 27t-17.5 37.5t-13.5 42z"/>
    <glyph glyph-name="Uacute" unicode="" horiz-adv-x="904" d="M333 243q3 1 6 1q4 0 4 -4q0 -5 -10 -5q-28 0 -45.5 22t-17.5 57q0 37 21 76t54 71t72.5 52.5t77.5 20.5q36 0 56.5 -23.5t20.5 -65.5q0 -45 -24 -101t-68 -111q-94 -119 -198 -119q-62 0 -99 42t-37 111q0 78 43.5 153.5t124.5 138.5q33 25 69 46t72.5 36t72 23t65.5 8 q75 0 115.5 -39.5t40.5 -111.5q0 -30 -5.5 -55.5t-24 -59.5t-54 -83.5t-94.5 -127.5q-26 -35 -42.5 -58t-25.5 -40t-12.5 -30t-3.5 -26q0 -24 14.5 -39.5t37.5 -15.5q37 0 87 36t116 111.5t149 191.5t187 276q10 -1 16.5 -1.5t12.5 -0.5q19 0 47 5q-166 -227 -252.5 -380.5 t-86.5 -219.5q0 -33 21.5 -54.5t55.5 -21.5q26 0 58 17.5t56 44.5q5 5 7 5q3 0 3 -4t-17 -20q-58 -51 -107 -51q-47 0 -77.5 36t-30.5 91q0 47 24.5 109.5t72.5 137.5l-16 -21l-23 -32q-45 -62 -88 -111t-82.5 -82.5t-73.5 -51.5t-61 -18q-35 0 -56.5 25.5t-21.5 67.5 q0 22 5 42t19 46.5t39.5 62t66.5 89.5q43 57 69 94t40.5 63.5t19 47.5t4.5 46q0 47 -34 74t-94 27q-50 0 -100.5 -17.5t-98 -47.5t-88.5 -71t-72 -87t-48.5 -96t-17.5 -99q0 -55 31 -88.5t82 -33.5q98 0 187 110q44 54 69 110.5t25 100.5q0 38 -17.5 59.5t-48.5 21.5 q-33 0 -69.5 -22.5t-67 -57t-50.5 -76t-20 -79.5q0 -20 11.5 -33.5t27.5 -13.5h4zM1097 761q-26 -20 -55 -36t-70 -33q-6 -3 -17 -7.5t-21.5 -8t-19 -6.5t-9.5 -3q-3 0 -3 2t6 4q24 12 49.5 27t48.5 31.5t41.5 33t28.5 29.5z"/>
    <glyph glyph-name="Ucircumflex" unicode="" horiz-adv-x="904" d="M333 243q3 1 6 1q4 0 4 -4q0 -5 -10 -5q-28 0 -45.5 22t-17.5 57q0 37 21 76t54 71t72.5 52.5t77.5 20.5q36 0 56.5 -23.5t20.5 -65.5q0 -45 -24 -101t-68 -111q-94 -119 -198 -119q-62 0 -99 42t-37 111q0 78 43.5 153.5t124.5 138.5q33 25 69 46t72.5 36t72 23t65.5 8 q75 0 115.5 -39.5t40.5 -111.5q0 -30 -5.5 -55.5t-24 -59.5t-54 -83.5t-94.5 -127.5q-26 -35 -42.5 -58t-25.5 -40t-12.5 -30t-3.5 -26q0 -24 14.5 -39.5t37.5 -15.5q37 0 87 36t116 111.5t149 191.5t187 276q10 -1 16.5 -1.5t12.5 -0.5q19 0 47 5q-166 -227 -252.5 -380.5 t-86.5 -219.5q0 -33 21.5 -54.5t55.5 -21.5q26 0 58 17.5t56 44.5q5 5 7 5q3 0 3 -4t-17 -20q-58 -51 -107 -51q-47 0 -77.5 36t-30.5 91q0 47 24.5 109.5t72.5 137.5l-16 -21l-23 -32q-45 -62 -88 -111t-82.5 -82.5t-73.5 -51.5t-61 -18q-35 0 -56.5 25.5t-21.5 67.5 q0 22 5 42t19 46.5t39.5 62t66.5 89.5q43 57 69 94t40.5 63.5t19 47.5t4.5 46q0 47 -34 74t-94 27q-50 0 -100.5 -17.5t-98 -47.5t-88.5 -71t-72 -87t-48.5 -96t-17.5 -99q0 -55 31 -88.5t82 -33.5q98 0 187 110q44 54 69 110.5t25 100.5q0 38 -17.5 59.5t-48.5 21.5 q-33 0 -69.5 -22.5t-67 -57t-50.5 -76t-20 -79.5q0 -20 11.5 -33.5t27.5 -13.5h4zM1052 794q-2 -23 -3 -38t-2 -27.5t-2 -25.5t-2 -31q0 -4 -2 -4t-2 4q-2 23 -4.5 41t-7.5 28q-15 -10 -40 -22.5t-51 -24t-48 -19.5t-30 -8q-3 0 -3 2q0 1 7 4q27 12 56 27t55 31.5t46.5 33 t32.5 29.5z"/>
    <glyph glyph-name="Udieresis" unicode="" horiz-adv-x="904" d="M333 243q3 1 6 1q4 0 4 -4q0 -5 -10 -5q-28 0 -45.5 22t-17.5 57q0 37 21 76t54 71t72.5 52.5t77.5 20.5q36 0 56.5 -23.5t20.5 -65.5q0 -45 -24 -101t-68 -111q-94 -119 -198 -119q-62 0 -99 42t-37 111q0 78 43.5 153.5t124.5 138.5q33 25 69 46t72.5 36t72 23t65.5 8 q75 0 115.5 -39.5t40.5 -111.5q0 -30 -5.5 -55.5t-24 -59.5t-54 -83.5t-94.5 -127.5q-26 -35 -42.5 -58t-25.5 -40t-12.5 -30t-3.5 -26q0 -24 14.5 -39.5t37.5 -15.5q37 0 87 36t116 111.5t149 191.5t187 276q10 -1 16.5 -1.5t12.5 -0.5q19 0 47 5q-166 -227 -252.5 -380.5 t-86.5 -219.5q0 -33 21.5 -54.5t55.5 -21.5q26 0 58 17.5t56 44.5q5 5 7 5q3 0 3 -4t-17 -20q-58 -51 -107 -51q-47 0 -77.5 36t-30.5 91q0 47 24.5 109.5t72.5 137.5l-16 -21l-23 -32q-45 -62 -88 -111t-82.5 -82.5t-73.5 -51.5t-61 -18q-35 0 -56.5 25.5t-21.5 67.5 q0 22 5 42t19 46.5t39.5 62t66.5 89.5q43 57 69 94t40.5 63.5t19 47.5t4.5 46q0 47 -34 74t-94 27q-50 0 -100.5 -17.5t-98 -47.5t-88.5 -71t-72 -87t-48.5 -96t-17.5 -99q0 -55 31 -88.5t82 -33.5q98 0 187 110q44 54 69 110.5t25 100.5q0 38 -17.5 59.5t-48.5 21.5 q-33 0 -69.5 -22.5t-67 -57t-50.5 -76t-20 -79.5q0 -20 11.5 -33.5t27.5 -13.5h4zM934 734q10 0 16 -6t6 -15q0 -19 -14 -33.5t-31 -14.5q-11 0 -17.5 6t-6.5 17q0 17 15 31.5t32 14.5zM1019 734q9 0 15.5 -6t6.5 -15q0 -19 -14 -33.5t-31 -14.5q-11 0 -17.5 6.5t-6.5 16.5 q0 17 15 31.5t32 14.5z"/>
    <glyph glyph-name="Yacute" unicode="" horiz-adv-x="884" d="M308 211q4 0 4 -3q0 -5 -10 -5q-26 0 -43 22t-17 55q0 41 21.5 83t56 76t76.5 55.5t84 21.5q35 0 56.5 -21.5t21.5 -58.5q0 -46 -26.5 -100.5t-74.5 -105.5q-97 -105 -203 -105q-64 0 -103 43t-39 115q0 69 40 138t115 128q37 28 76.5 51t80 39t80 24.5t75.5 8.5 q73 0 116 -42t43 -114q0 -33 -6 -60.5t-24 -61.5t-51.5 -80.5t-88.5 -116.5q-8 -10 -16.5 -22.5t-17.5 -26.5q8 1 14 1h10q42 0 83.5 -11.5t78.5 -32.5q17 17 34 35t36 39.5t40 47t47 57.5q33 41 57.5 70t45.5 51.5t40.5 40.5t42.5 37q11 9 23 18t22.5 15.5t18 11t10.5 4.5 q5 0 5 -6q0 -2 -1 -3t-9 -6q-38 -27 -72.5 -62.5t-68 -81t-66 -103t-66.5 -128.5q-24 -48 -37 -73t-25 -44q20 -40 20 -83q0 -51 -25 -98.5t-70 -83.5q-19 -15 -41.5 -28.5t-29.5 -13.5q-4 0 -4 4q0 2 2.5 3.5t18.5 9.5q31 16 57 38.5t44.5 50t28.5 58t10 62.5q0 20 -3.5 37 t-12.5 36q-24 -38 -42 -65t-35.5 -47.5t-36 -37.5t-42.5 -36q-37 -29 -76.5 -51.5t-78.5 -38.5t-76.5 -24.5t-70.5 -8.5q-41 0 -74 11.5t-56.5 32.5t-36.5 50t-13 65q0 47 24 91t66.5 80.5t102.5 63t132 40.5q6 19 12.5 34t18.5 34t32 46t53 69q32 41 53.5 73.5t35 59.5 t19.5 49.5t6 44.5q0 53 -35.5 83t-98.5 30q-50 0 -101.5 -17.5t-101 -48t-93 -71t-76 -86t-51.5 -94t-19 -94.5q0 -54 33.5 -87t89.5 -33q45 0 87.5 20t88.5 62q27 25 48.5 53.5t37 57t24 56.5t8.5 53q0 32 -19 52t-50 20q-35 0 -73.5 -24t-71.5 -61t-54.5 -80t-21.5 -82 q0 -22 11.5 -36.5t28.5 -14.5q3 0 6 1h2zM869 263q-29 -36 -48 -58.5t-33.5 -39.5t-28.5 -31.5t-32 -32.5q11 -7 17.5 -12t14.5 -13q3 6 6 11t7 12l10 17.5t15 27.5q10 18 18.5 32.5t17 28t17 27.5t19.5 31zM755 69q-8 8 -15.5 13t-18.5 13q-54 -52 -93.5 -75t-72.5 -23 q-38 0 -60.5 26t-22.5 68q0 10 1 18t3 22q-63 -15 -116.5 -44t-93 -67.5t-61.5 -83.5t-22 -92q0 -58 42 -92.5t113 -34.5q110 0 216.5 89.5t200.5 262.5zM714 99q-34 20 -73 30.5t-81 10.5h-13t-19 -1q-15 -26 -21 -43t-6 -34q0 -27 14.5 -42t40.5 -15q32 0 68.5 21.5 t89.5 72.5zM1136 761q-26 -20 -55 -36t-70 -33q-6 -3 -17 -7.5t-21.5 -8t-19 -6.5t-9.5 -3q-3 0 -3 2t6 4q24 12 49.5 27t48.5 31.5t41.5 33t28.5 29.5z"/>
    <glyph glyph-name="Thorn" unicode="" horiz-adv-x="759" d="M710 550q-11 33 -31 51.5t-46 18.5q-18 0 -37 -8q-2 -1 -5 -1t-3 3q0 5 16 9t32 4q26 0 47.5 -20t33.5 -57q26 -2 52 -7t48 -15q61 62 122.5 93t121.5 31q31 0 57 -10.5t45 -29t29.5 -44.5t10.5 -56q0 -14 -1 -28t-3.5 -25t-5 -18t-5.5 -7t-3 4t1 8q5 18 6.5 31t1.5 29 q0 63 -36.5 100t-98.5 37q-60 0 -119.5 -31.5t-110.5 -89.5q41 -24 64 -59.5t23 -73.5q0 -31 -13.5 -59t-37 -49t-54.5 -33t-66 -12q-20 0 -38.5 4.5t-18.5 9.5q0 4 4 4h1q23 -10 49 -10q27 0 50.5 12.5t41 33.5t27.5 49.5t10 61.5q0 32 -13 61t-39 49q-19 -25 -34 -46.5 t-30.5 -49.5t-35 -68t-48.5 -101q-19 -39 -40 -71t-46.5 -58t-56 -47.5t-68.5 -40.5q-99 -49 -179 -49q-75 0 -121 38.5t-46 101.5q0 36 20.5 70.5t54.5 60.5t78.5 42t91.5 16t76 -21t29 -54q0 -13 -5 -13q-3 0 -3 4v2q0 2 1 4v4q0 29 -27.5 47.5t-69.5 18.5 q-45 0 -88 -15.5t-76 -40.5t-53 -58t-20 -67q0 -60 42.5 -96t113.5 -36q116 0 214 99q15 15 26.5 28.5t28.5 37.5t43 65.5t71 112.5q35 54 70.5 100t75.5 89q-23 11 -43.5 16.5t-46.5 7.5q4 -16 4 -29q0 -21 -8 -46t-22 -50t-33.5 -49t-42.5 -44q-56 -48 -112 -48 q-33 0 -54.5 21.5t-21.5 55.5q0 37 23.5 72t61.5 62.5t87.5 44t102.5 16.5h7zM712 544q-47 0 -94.5 -18t-85.5 -47.5t-61.5 -66t-23.5 -72.5q0 -56 56 -56q34 0 71.5 22.5t68.5 57t51.5 76.5t20.5 80q0 7 -0.5 11.5t-2.5 12.5z"/>
    <glyph glyph-name="germandbls" unicode="" horiz-adv-x="291" d="M146 265q21 35 39 62t34.5 49t33.5 41t37 38q33 32 63.5 51t47.5 19q10 0 16 -6.5t6 -17.5q0 -17 -5.5 -34t-17.5 -35.5t-32 -40t-48 -47.5q-57 -53 -57 -90q0 -17 6.5 -31.5t23.5 -37.5q20 -27 29 -46.5t9 -37.5q0 -22 -11 -42t-30 -35.5t-44 -24.5t-53 -9 q-35 0 -54.5 18.5t-19.5 50.5q0 19 6.5 37.5t17.5 33.5t24 24.5t27 9.5q11 0 18 -6.5t7 -17.5q0 -14 -9 -22.5t-35 -16.5q-20 -7 -33 -22.5t-13 -32.5q0 -20 14 -33t35 -13q19 0 38.5 13t35 33.5t25 46.5t9.5 52q0 15 -4 30t-18 46q-8 18 -11.5 30.5t-3.5 23.5q0 13 3 23.5 t11.5 22.5t24 27t40.5 37q43 38 66 68.5t23 50.5q0 7 -4.5 11t-10.5 4q-31 0 -78 -55q-17 -19 -32 -39.5t-31.5 -48t-37 -64.5t-47.5 -89q-45 -88 -79.5 -149t-64.5 -105t-59.5 -75.5t-65.5 -61.5q-91 -76 -176 -76q-34 0 -34 8q0 5 5 5q1 0 3.5 -0.5t19.5 -3.5q5 -1 18 -1 q37 0 75.5 20t76.5 60q12 13 21.5 23.5t19 23.5t21 31.5t27.5 47t38.5 70t54.5 100.5q11 21 19.5 36.5t16 28.5t14.5 25.5t16 27.5h-54l4 7h53z"/>
    <glyph glyph-name="agrave" unicode="" horiz-adv-x="344" d="M328 261q8 -2 13 -2.5t13 -0.5q9 0 16 0.5t18 2.5l-86 -143q-22 -37 -33.5 -62.5t-11.5 -36.5q0 -23 19 -23q10 0 26 12t36.5 33t43 49t44.5 61q2 5 5 5t3 -3q0 -1 -7.5 -12t-18.5 -25.5t-23.5 -30.5t-21.5 -27q-32 -38 -52.5 -53.5t-38.5 -15.5q-23 0 -37 16.5t-14 42.5 q0 15 3.5 27.5t12.5 29.5q-25 -35 -43 -57t-32.5 -35.5t-26 -18.5t-23.5 -5q-26 0 -43.5 22t-17.5 56q0 45 34 88t98 78q59 32 94 32q30 0 30 -29q0 -9 -4 -22zM278 258q-15 0 -35 -12t-41 -31.5t-42 -44.5t-37 -50.5t-26 -49.5t-10 -42q0 -32 28 -32q10 0 20.5 5.5t24.5 19 t31.5 34.5t40.5 53q68 91 68 126q0 24 -22 24zM313 452q-5 -14 -6.5 -24.5t-1.5 -22.5q0 -21 8 -46.5t19 -40.5q4 -4 4 -6t-3 -2q-6 0 -14.5 10t-17.5 26t-17 36.5t-13 40.5z"/>
    <glyph glyph-name="aacute" unicode="" horiz-adv-x="344" d="M328 261q8 -2 13 -2.5t13 -0.5q9 0 16 0.5t18 2.5l-86 -143q-22 -37 -33.5 -62.5t-11.5 -36.5q0 -23 19 -23q10 0 26 12t36.5 33t43 49t44.5 61q2 5 5 5t3 -3q0 -1 -7.5 -12t-18.5 -25.5t-23.5 -30.5t-21.5 -27q-32 -38 -52.5 -53.5t-38.5 -15.5q-23 0 -37 16.5t-14 42.5 q0 15 3.5 27.5t12.5 29.5q-25 -35 -43 -57t-32.5 -35.5t-26 -18.5t-23.5 -5q-26 0 -43.5 22t-17.5 56q0 45 34 88t98 78q59 32 94 32q30 0 30 -29q0 -9 -4 -22zM278 258q-15 0 -35 -12t-41 -31.5t-42 -44.5t-37 -50.5t-26 -49.5t-10 -42q0 -32 28 -32q10 0 20.5 5.5t24.5 19 t31.5 34.5t40.5 53q68 91 68 126q0 24 -22 24zM469 412q-27 -21 -54 -36t-67 -32q-7 -3 -17.5 -7t-20.5 -8t-18 -6.5t-9 -2.5h-2q-1 0 -1 1q0 2 6 4q24 12 48.5 27t46.5 30.5t40 31.5t28 29z"/>
    <glyph glyph-name="acircumflex" unicode="" horiz-adv-x="344" d="M328 261q8 -2 13 -2.5t13 -0.5q9 0 16 0.5t18 2.5l-86 -143q-22 -37 -33.5 -62.5t-11.5 -36.5q0 -23 19 -23q10 0 26 12t36.5 33t43 49t44.5 61q2 5 5 5t3 -3q0 -1 -7.5 -12t-18.5 -25.5t-23.5 -30.5t-21.5 -27q-32 -38 -52.5 -53.5t-38.5 -15.5q-23 0 -37 16.5t-14 42.5 q0 15 3.5 27.5t12.5 29.5q-25 -35 -43 -57t-32.5 -35.5t-26 -18.5t-23.5 -5q-26 0 -43.5 22t-17.5 56q0 45 34 88t98 78q59 32 94 32q30 0 30 -29q0 -9 -4 -22zM278 258q-15 0 -35 -12t-41 -31.5t-42 -44.5t-37 -50.5t-26 -49.5t-10 -42q0 -32 28 -32q10 0 20.5 5.5t24.5 19 t31.5 34.5t40.5 53q68 91 68 126q0 24 -22 24zM396 440q-2 -27 -3.5 -43.5t-2 -28.5t-1 -22t-1.5 -25q0 -4 -2 -4t-2 1.5t-1 9.5q-3 41 -11 60q-15 -10 -40 -22.5t-49.5 -23.5t-45.5 -18.5t-29 -7.5q-3 0 -3 2q0 1 7 4q27 11 55 26t53.5 31.5t45 32t30.5 28.5z"/>
    <glyph glyph-name="atilde" unicode="" horiz-adv-x="344" d="M328 261q8 -2 13 -2.5t13 -0.5q9 0 16 0.5t18 2.5l-86 -143q-22 -37 -33.5 -62.5t-11.5 -36.5q0 -23 19 -23q10 0 26 12t36.5 33t43 49t44.5 61q2 5 5 5t3 -3q0 -1 -7.5 -12t-18.5 -25.5t-23.5 -30.5t-21.5 -27q-32 -38 -52.5 -53.5t-38.5 -15.5q-23 0 -37 16.5t-14 42.5 q0 15 3.5 27.5t12.5 29.5q-25 -35 -43 -57t-32.5 -35.5t-26 -18.5t-23.5 -5q-26 0 -43.5 22t-17.5 56q0 45 34 88t98 78q59 32 94 32q30 0 30 -29q0 -9 -4 -22zM278 258q-15 0 -35 -12t-41 -31.5t-42 -44.5t-37 -50.5t-26 -49.5t-10 -42q0 -32 28 -32q10 0 20.5 5.5t24.5 19 t31.5 34.5t40.5 53q68 91 68 126q0 24 -22 24zM283 368q5 0 9.5 -0.5t10.5 -1.5t15 -3t24 -5q25 -6 35 -8t19 -2q16 0 29 7q4 2 5 2q2 0 2 -2q0 -3 -8 -8.5t-19 -11t-22.5 -9t-18.5 -3.5q-14 0 -43 7q-32 8 -47 11t-23 3q-11 0 -27 -7l-5 -2.5t-2 -0.5q-3 0 -3 2q0 3 8 8.5 t19 11t22.5 9t19.5 3.5z"/>
    <glyph glyph-name="adieresis" unicode="" horiz-adv-x="344" d="M328 261q8 -2 13 -2.5t13 -0.5q9 0 16 0.5t18 2.5l-86 -143q-22 -37 -33.5 -62.5t-11.5 -36.5q0 -23 19 -23q10 0 26 12t36.5 33t43 49t44.5 61q2 5 5 5t3 -3q0 -1 -7.5 -12t-18.5 -25.5t-23.5 -30.5t-21.5 -27q-32 -38 -52.5 -53.5t-38.5 -15.5q-23 0 -37 16.5t-14 42.5 q0 15 3.5 27.5t12.5 29.5q-25 -35 -43 -57t-32.5 -35.5t-26 -18.5t-23.5 -5q-26 0 -43.5 22t-17.5 56q0 45 34 88t98 78q59 32 94 32q30 0 30 -29q0 -9 -4 -22zM278 258q-15 0 -35 -12t-41 -31.5t-42 -44.5t-37 -50.5t-26 -49.5t-10 -42q0 -32 28 -32q10 0 20.5 5.5t24.5 19 t31.5 34.5t40.5 53q68 91 68 126q0 24 -22 24zM302 380q9 0 15 -6t6 -14q0 -18 -13 -32.5t-30 -14.5q-24 0 -24 23q0 17 14.5 30.5t31.5 13.5zM385 380q9 0 15 -5.5t6 -14.5q0 -18 -13 -32.5t-30 -14.5q-24 0 -24 22q0 17 14.5 31t31.5 14z"/>
    <glyph glyph-name="aring" unicode="" horiz-adv-x="344" d="M328 261q8 -2 13 -2.5t13 -0.5q9 0 16 0.5t18 2.5l-86 -143q-22 -37 -33.5 -62.5t-11.5 -36.5q0 -23 19 -23q10 0 26 12t36.5 33t43 49t44.5 61q2 5 5 5t3 -3q0 -1 -7.5 -12t-18.5 -25.5t-23.5 -30.5t-21.5 -27q-32 -38 -52.5 -53.5t-38.5 -15.5q-23 0 -37 16.5t-14 42.5 q0 15 3.5 27.5t12.5 29.5q-25 -35 -43 -57t-32.5 -35.5t-26 -18.5t-23.5 -5q-26 0 -43.5 22t-17.5 56q0 45 34 88t98 78q59 32 94 32q30 0 30 -29q0 -9 -4 -22zM278 258q-15 0 -35 -12t-41 -31.5t-42 -44.5t-37 -50.5t-26 -49.5t-10 -42q0 -32 28 -32q10 0 20.5 5.5t24.5 19 t31.5 34.5t40.5 53q68 91 68 126q0 24 -22 24zM381 421q26 0 26 -27q0 -15 -7 -29.5t-18 -26.5t-24.5 -19.5t-27.5 -7.5q-12 0 -20 8t-8 20q0 15 7 29.5t18 26t25.5 19t28.5 7.5zM382 412q-10 0 -22 -8t-22.5 -19.5t-17.5 -24.5t-7 -24q0 -16 14 -16q10 0 22.5 8t23 19.5 t17.5 24.5t7 24q0 16 -15 16z"/>
    <glyph glyph-name="ae" unicode="" horiz-adv-x="440" d="M315 124q-16 -23 -25 -46t-9 -40q0 -20 12.5 -31t35.5 -11q39 0 87.5 38t102.5 113q6 9 10 9q2 0 2 -2q0 -1 -5.5 -8.5t-13.5 -17.5t-17.5 -21.5t-17.5 -20.5q-45 -51 -81 -74t-70 -23q-61 0 -80 62q-27 -18 -48 -29.5t-38 -19t-31 -10.5t-28 -3q-21 0 -35 13t-14 32 q0 38 52.5 62t150.5 32q15 21 25 46t10 42q0 19 -13.5 30.5t-35.5 11.5q-35 0 -74.5 -27.5t-71.5 -74.5q-8 -10 -10 -10t-2 3t15.5 21.5t34.5 38.5q55 56 111 56q31 0 53 -17t27 -46q41 29 79 46t65 17q21 0 34 -11.5t13 -30.5q0 -72 -200 -99zM252 122q-78 -12 -123 -41 t-45 -67q0 -18 21 -18q26 0 67 35t80 91zM318 130q33 7 64.5 19.5t56 28t39 32t14.5 31.5q0 16 -22 16q-61 0 -152 -127z"/>
    <glyph glyph-name="ccedilla" unicode="" horiz-adv-x="242" d="M100 -2q21 -14 29 -24t8 -23q0 -16 -11.5 -26t-30.5 -10q-10 0 -24.5 5t-28.5 12t-24 14.5t-10 12.5q0 3 3 3q1 0 8 -4q27 -19 54 -19q14 0 24 9t10 21q0 17 -18 35q-20 18 -28 35t-8 37q0 42 33 85.5t90 76.5q46 27 77 27q17 0 26.5 -11.5t9.5 -31.5q0 -17 -6.5 -35 t-16 -32.5t-21.5 -24t-24 -9.5q-9 0 -15.5 6t-6.5 16q0 15 9 24.5t35 23.5q36 17 36 45q0 10 -6.5 16t-17.5 6q-20 0 -47.5 -23.5t-52.5 -57.5t-42 -71t-17 -65q0 -20 11.5 -32.5t31.5 -12.5q23 0 50 16.5t56 46.5q11 11 23 24t22.5 25.5t19 23t12.5 16.5q5 8 9 8q2 0 2 -3 q0 -1 -6.5 -9.5t-16.5 -21t-22 -26.5t-23 -26q-42 -45 -71 -63t-58 -18q-10 0 -17 2t-19 7z"/>
    <glyph glyph-name="egrave" unicode="" horiz-adv-x="246" d="M307 114q-48 -60 -93 -92.5t-80 -32.5t-58 24.5t-23 61.5q0 87 123 155q65 35 105 35q17 0 29.5 -10.5t12.5 -25.5q0 -35 -45.5 -59.5t-153.5 -46.5q-14 -22 -23.5 -45t-9.5 -39q0 -19 12.5 -30.5t32.5 -11.5q36 0 86.5 40t102.5 111q7 8 10 8q2 0 2 -3q0 -1 -9 -13z M128 130q35 9 66 22.5t53.5 28.5t35.5 31t13 31q0 16 -17 16q-13 0 -30.5 -9.5t-37.5 -26.5t-41.5 -41t-41.5 -52zM298 452q-5 -14 -6.5 -24.5t-1.5 -22.5q0 -21 8 -46.5t19 -40.5q4 -4 4 -6t-3 -2q-6 0 -14.5 10t-17.5 26t-17 36.5t-13 40.5z"/>
    <glyph glyph-name="eacute" unicode="" horiz-adv-x="246" d="M307 114q-48 -60 -93 -92.5t-80 -32.5t-58 24.5t-23 61.5q0 87 123 155q65 35 105 35q17 0 29.5 -10.5t12.5 -25.5q0 -35 -45.5 -59.5t-153.5 -46.5q-14 -22 -23.5 -45t-9.5 -39q0 -19 12.5 -30.5t32.5 -11.5q36 0 86.5 40t102.5 111q7 8 10 8q2 0 2 -3q0 -1 -9 -13z M128 130q35 9 66 22.5t53.5 28.5t35.5 31t13 31q0 16 -17 16q-13 0 -30.5 -9.5t-37.5 -26.5t-41.5 -41t-41.5 -52zM414 412q-27 -21 -54 -36t-67 -32q-7 -3 -17.5 -7t-20.5 -8t-18 -6.5t-9 -2.5h-2q-1 0 -1 1q0 2 6 4q24 12 48.5 27t46.5 30.5t40 31.5t28 29z"/>
    <glyph glyph-name="ecircumflex" unicode="" horiz-adv-x="246" d="M307 114q-48 -60 -93 -92.5t-80 -32.5t-58 24.5t-23 61.5q0 87 123 155q65 35 105 35q17 0 29.5 -10.5t12.5 -25.5q0 -35 -45.5 -59.5t-153.5 -46.5q-14 -22 -23.5 -45t-9.5 -39q0 -19 12.5 -30.5t32.5 -11.5q36 0 86.5 40t102.5 111q7 8 10 8q2 0 2 -3q0 -1 -9 -13z M128 130q35 9 66 22.5t53.5 28.5t35.5 31t13 31q0 16 -17 16q-13 0 -30.5 -9.5t-37.5 -26.5t-41.5 -41t-41.5 -52zM367 440q-2 -27 -3.5 -43.5t-2 -28.5t-1 -22t-1.5 -25q0 -4 -2 -4t-2 1.5t-1 9.5q-3 41 -11 60q-15 -10 -40 -22.5t-49.5 -23.5t-45.5 -18.5t-29 -7.5 q-3 0 -3 2q0 1 7 4q27 11 55 26t53.5 31.5t45 32t30.5 28.5z"/>
    <glyph glyph-name="edieresis" unicode="" horiz-adv-x="246" d="M307 114q-48 -60 -93 -92.5t-80 -32.5t-58 24.5t-23 61.5q0 87 123 155q65 35 105 35q17 0 29.5 -10.5t12.5 -25.5q0 -35 -45.5 -59.5t-153.5 -46.5q-14 -22 -23.5 -45t-9.5 -39q0 -19 12.5 -30.5t32.5 -11.5q36 0 86.5 40t102.5 111q7 8 10 8q2 0 2 -3q0 -1 -9 -13z M128 130q35 9 66 22.5t53.5 28.5t35.5 31t13 31q0 16 -17 16q-13 0 -30.5 -9.5t-37.5 -26.5t-41.5 -41t-41.5 -52zM271 380q9 0 15 -6t6 -14q0 -18 -13 -32.5t-30 -14.5q-24 0 -24 23q0 17 14.5 30.5t31.5 13.5zM354 380q9 0 15 -5.5t6 -14.5q0 -18 -13 -32.5t-30 -14.5 q-24 0 -24 22q0 17 14.5 31t31.5 14z"/>
    <glyph glyph-name="igrave" unicode="" horiz-adv-x="168" d="M98 79q-24 -38 -24 -61q0 -22 23 -22t60 38t93 117q2 5 5 5t3 -3q0 -2 -5 -8l-21 -29q-49 -68 -81.5 -97.5t-58.5 -29.5q-23 0 -38.5 16t-15.5 41q0 17 7 35.5t27 50.5l76 129q8 -2 12.5 -2.5t11.5 -0.5q10 0 17.5 0.5t19.5 2.5zM223 452q-5 -14 -6.5 -24.5t-1.5 -22.5 q0 -21 8 -46.5t19 -40.5q4 -4 4 -6t-3 -2q-6 0 -14.5 10t-17.5 26t-17 36.5t-13 40.5z"/>
    <glyph glyph-name="iacute" unicode="" horiz-adv-x="168" d="M322 416q-13 -11 -22.5 -18.5l-19 -15t-20.5 -15t-28 -18.5q-6 -4 -15 -9t-17 -9.5t-14.5 -7.5t-7.5 -3h-2q-1 0 -1 1t0.5 2t4.5 3q42 29 71.5 59t46.5 59zM98 79q-24 -38 -24 -61q0 -22 23 -22t60 38t93 117q2 5 5 5t3 -3q0 -2 -5 -8l-21 -29q-49 -68 -81.5 -97.5 t-58.5 -29.5q-23 0 -38.5 16t-15.5 41q0 17 7 35.5t27 50.5l76 129q8 -2 12.5 -2.5t11.5 -0.5q10 0 17.5 0.5t19.5 2.5z"/>
    <glyph glyph-name="icircumflex" unicode="" horiz-adv-x="168" d="M98 79q-24 -38 -24 -61q0 -22 23 -22t60 38t93 117q2 5 5 5t3 -3q0 -2 -5 -8l-21 -29q-49 -68 -81.5 -97.5t-58.5 -29.5q-23 0 -38.5 16t-15.5 41q0 17 7 35.5t27 50.5l76 129q8 -2 12.5 -2.5t11.5 -0.5q10 0 17.5 0.5t19.5 2.5zM288 440q-2 -27 -3.5 -43.5t-2 -28.5 t-1 -22t-1.5 -25q0 -4 -2 -4t-2 1.5t-1 9.5q-3 41 -11 60q-15 -10 -40 -22.5t-49.5 -23.5t-45.5 -18.5t-29 -7.5q-3 0 -3 2q0 1 7 4q27 11 55 26t53.5 31.5t45 32t30.5 28.5z"/>
    <glyph glyph-name="idieresis" unicode="" horiz-adv-x="168" d="M98 79q-24 -38 -24 -61q0 -22 23 -22t60 38t93 117q2 5 5 5t3 -3q0 -2 -5 -8l-21 -29q-49 -68 -81.5 -97.5t-58.5 -29.5q-23 0 -38.5 16t-15.5 41q0 17 7 35.5t27 50.5l76 129q8 -2 12.5 -2.5t11.5 -0.5q10 0 17.5 0.5t19.5 2.5zM185 380q9 0 15 -6t6 -14 q0 -18 -13 -32.5t-30 -14.5q-24 0 -24 23q0 17 14.5 30.5t31.5 13.5zM268 380q9 0 15 -5.5t6 -14.5q0 -18 -13 -32.5t-30 -14.5q-24 0 -24 22q0 17 14.5 31t31.5 14z"/>
    <glyph glyph-name="eth" unicode="" horiz-adv-x="290" d="M252 402l-2 7l75 28q-11 29 -32 49.5t-46 24.5q-7 1 -7 4q0 2 4 2q49 0 97 -74l72 26l2 -8l-70 -25q17 -32 24.5 -64.5t7.5 -70.5q0 -132 -105 -234q-80 -78 -144 -78q-32 0 -53.5 23.5t-21.5 58.5q0 38 25.5 76t72.5 70q31 22 62.5 35t51.5 13t32 -12t12 -33 q0 -5 -0.5 -10t-2.5 -14q10 25 16 45.5t10 38.5t5.5 35.5t1.5 37.5q0 23 -2.5 40t-8.5 37zM264 259q-22 0 -51.5 -24.5t-56 -60t-45 -74.5t-18.5 -68q0 -35 34 -35q23 0 53 24t57 58.5t45.5 73t18.5 68.5q0 38 -37 38z"/>
    <glyph glyph-name="ntilde" unicode="" horiz-adv-x="391" d="M138 114q65 105 65 129q0 15 -12 15q-11 0 -39 -29.5t-59 -75.5q-6 -7 -7 -7q-3 0 -3 3q0 2 2 4l9 12q39 55 62 77.5t39 22.5q17 0 28.5 -15t11.5 -36q0 -18 -8 -36.5t-29 -50.5q29 40 50.5 66.5t38.5 42.5t30.5 22.5t26.5 6.5q22 0 36.5 -17.5t14.5 -43.5q0 -10 -2 -19 t-7 -20.5t-13.5 -25.5t-22.5 -35q-15 -23 -24.5 -37.5t-14 -23.5t-6 -15t-1.5 -12q0 -20 20 -20t61 43t89 112q2 5 5 5t3 -3q0 -1 -7.5 -12t-18.5 -25.5t-23.5 -30.5t-21.5 -27q-32 -38 -52.5 -53.5t-38.5 -15.5q-23 0 -37.5 17t-14.5 42q0 11 1.5 19.5t7.5 20.5t17 29.5 t30 45.5q25 36 32.5 50.5t7.5 24.5q0 20 -21 20q-17 0 -40.5 -18.5t-52 -52.5t-61 -83.5t-66.5 -110.5q-9 1 -15 1.5t-14 0.5h-14.5t-17.5 -2zM313 368q5 0 9.5 -0.5t10.5 -1.5t15 -3t24 -5q25 -6 35 -8t19 -2q16 0 29 7q4 2 5 2q2 0 2 -2q0 -3 -8 -8.5t-19 -11t-22.5 -9 t-18.5 -3.5q-14 0 -43 7q-32 8 -47 11t-23 3q-11 0 -27 -7l-5 -2.5t-2 -0.5q-3 0 -3 2q0 3 8 8.5t19 11t22.5 9t19.5 3.5z"/>
    <glyph glyph-name="ograve" unicode="" horiz-adv-x="290" d="M245 80q-31 -44 -62 -67.5t-59 -23.5q-29 0 -50 24t-21 58q0 76 99 145q33 24 62.5 36.5t51.5 12.5q20 0 31 -12t11 -33q0 -25 -16.5 -62.5t-42.5 -72.5q10 -6 22 -6q22 0 51 20.5t48 49.5q6 7 8 7t2 -2q0 -3 -9 -15t-20 -22q-42 -43 -79 -43q-15 0 -27 6zM293 181 q8 17 8 38q0 40 -36 40q-22 0 -51.5 -25t-56.5 -60.5t-45.5 -74.5t-18.5 -68q0 -15 9 -24.5t23 -9.5q26 0 55.5 22.5t59.5 64.5q-14 15 -14 32q0 12 5.5 25t13.5 24.5t18 18.5t19 7q8 0 11 -10zM309 452q-5 -14 -6.5 -24.5t-1.5 -22.5q0 -21 8 -46.5t19 -40.5q4 -4 4 -6 t-3 -2q-6 0 -14.5 10t-17.5 26t-17 36.5t-13 40.5z"/>
    <glyph glyph-name="oacute" unicode="" horiz-adv-x="290" d="M245 80q-31 -44 -62 -67.5t-59 -23.5q-29 0 -50 24t-21 58q0 76 99 145q33 24 62.5 36.5t51.5 12.5q20 0 31 -12t11 -33q0 -25 -16.5 -62.5t-42.5 -72.5q10 -6 22 -6q22 0 51 20.5t48 49.5q6 7 8 7t2 -2q0 -3 -9 -15t-20 -22q-42 -43 -79 -43q-15 0 -27 6zM293 181 q8 17 8 38q0 40 -36 40q-22 0 -51.5 -25t-56.5 -60.5t-45.5 -74.5t-18.5 -68q0 -15 9 -24.5t23 -9.5q26 0 55.5 22.5t59.5 64.5q-14 15 -14 32q0 12 5.5 25t13.5 24.5t18 18.5t19 7q8 0 11 -10zM412 412q-27 -21 -54 -36t-67 -32q-7 -3 -17.5 -7t-20.5 -8t-18 -6.5t-9 -2.5 h-2q-1 0 -1 1q0 2 6 4q24 12 48.5 27t46.5 30.5t40 31.5t28 29z"/>
    <glyph glyph-name="ocircumflex" unicode="" horiz-adv-x="290" d="M245 80q-31 -44 -62 -67.5t-59 -23.5q-29 0 -50 24t-21 58q0 76 99 145q33 24 62.5 36.5t51.5 12.5q20 0 31 -12t11 -33q0 -25 -16.5 -62.5t-42.5 -72.5q10 -6 22 -6q22 0 51 20.5t48 49.5q6 7 8 7t2 -2q0 -3 -9 -15t-20 -22q-42 -43 -79 -43q-15 0 -27 6zM293 181 q8 17 8 38q0 40 -36 40q-22 0 -51.5 -25t-56.5 -60.5t-45.5 -74.5t-18.5 -68q0 -15 9 -24.5t23 -9.5q26 0 55.5 22.5t59.5 64.5q-14 15 -14 32q0 12 5.5 25t13.5 24.5t18 18.5t19 7q8 0 11 -10zM366 440q-2 -27 -3.5 -43.5t-2 -28.5t-1 -22t-1.5 -25q0 -4 -2 -4t-2 1.5 t-1 9.5q-3 41 -11 60q-15 -10 -40 -22.5t-49.5 -23.5t-45.5 -18.5t-29 -7.5q-3 0 -3 2q0 1 7 4q27 11 55 26t53.5 31.5t45 32t30.5 28.5z"/>
    <glyph glyph-name="otilde" unicode="" horiz-adv-x="290" d="M245 80q-31 -44 -62 -67.5t-59 -23.5q-29 0 -50 24t-21 58q0 76 99 145q33 24 62.5 36.5t51.5 12.5q20 0 31 -12t11 -33q0 -25 -16.5 -62.5t-42.5 -72.5q10 -6 22 -6q22 0 51 20.5t48 49.5q6 7 8 7t2 -2q0 -3 -9 -15t-20 -22q-42 -43 -79 -43q-15 0 -27 6zM293 181 q8 17 8 38q0 40 -36 40q-22 0 -51.5 -25t-56.5 -60.5t-45.5 -74.5t-18.5 -68q0 -15 9 -24.5t23 -9.5q26 0 55.5 22.5t59.5 64.5q-14 15 -14 32q0 12 5.5 25t13.5 24.5t18 18.5t19 7q8 0 11 -10zM257 368q5 0 9.5 -0.5t10.5 -1.5t15 -3t24 -5q25 -6 35 -8t19 -2q16 0 29 7 q4 2 5 2q2 0 2 -2q0 -3 -8 -8.5t-19 -11t-22.5 -9t-18.5 -3.5q-14 0 -43 7q-32 8 -47 11t-23 3q-11 0 -27 -7l-5 -2.5t-2 -0.5q-3 0 -3 2q0 3 8 8.5t19 11t22.5 9t19.5 3.5z"/>
    <glyph glyph-name="odieresis" unicode="" horiz-adv-x="290" d="M245 80q-31 -44 -62 -67.5t-59 -23.5q-29 0 -50 24t-21 58q0 76 99 145q33 24 62.5 36.5t51.5 12.5q20 0 31 -12t11 -33q0 -25 -16.5 -62.5t-42.5 -72.5q10 -6 22 -6q22 0 51 20.5t48 49.5q6 7 8 7t2 -2q0 -3 -9 -15t-20 -22q-42 -43 -79 -43q-15 0 -27 6zM293 181 q8 17 8 38q0 40 -36 40q-22 0 -51.5 -25t-56.5 -60.5t-45.5 -74.5t-18.5 -68q0 -15 9 -24.5t23 -9.5q26 0 55.5 22.5t59.5 64.5q-14 15 -14 32q0 12 5.5 25t13.5 24.5t18 18.5t19 7q8 0 11 -10zM269 380q9 0 15 -6t6 -14q0 -18 -13 -32.5t-30 -14.5q-24 0 -24 23 q0 17 14.5 30.5t31.5 13.5zM352 380q9 0 15 -5.5t6 -14.5q0 -18 -13 -32.5t-30 -14.5q-24 0 -24 22q0 17 14.5 31t31.5 14z"/>
    <glyph glyph-name="divide" unicode="" horiz-adv-x="523" d="M431 425q0 -10 -7 -18.5t-19 -8.5q-11 0 -18.5 8.5t-7.5 19.5t8 18t18 7q11 0 18.5 -7.5t7.5 -18.5zM190 251v19h429v-19h-429zM431 98q0 -10 -7 -18.5t-19 -8.5q-11 0 -18.5 8t-7.5 19t8 18t18 7q11 0 18.5 -7t7.5 -18z"/>
    <glyph glyph-name="oslash" unicode="" horiz-adv-x="290" d="M312 322h11l-39 -60q14 -8 19 -17t5 -25q0 -25 -16.5 -62.5t-42.5 -72.5q10 -6 22 -6q23 0 50 19t48 50q5 8 9 8q2 0 2 -2q0 -3 -8.5 -14.5t-20.5 -23.5q-20 -20 -40.5 -31t-38.5 -11q-15 0 -27 6q-30 -43 -61.5 -67t-57.5 -24h-6.5t-8.5 1l-40 -61h-12l42 64 q-48 23 -48 78q0 74 99 146q32 23 62 35.5t50 12.5q6 0 11 -1zM116 -2q5 -1 12 -1q24 0 53.5 22.5t58.5 64.5q-14 15 -14 32q0 12 5.5 25t13.5 24.5t18 18.5t19 7q8 0 11 -10q8 17 8 38q0 26 -20 37zM271 258q-3 1 -8 1q-14 0 -32 -11.5t-37 -30.5t-37 -43.5t-32.5 -49.5 t-23 -49.5t-8.5 -43.5q0 -9 3 -15t11 -14z"/>
    <glyph glyph-name="ugrave" unicode="" horiz-adv-x="313" d="M281 134q-31 -50 -43.5 -76.5t-12.5 -40.5q0 -21 20 -21q19 0 49 28.5t78 94.5l15 21l9 11q2 5 5 5t3 -3q0 -2 -7.5 -12.5t-19 -25.5t-23.5 -30.5t-21 -26.5q-33 -38 -53 -53.5t-40 -15.5q-21 0 -36 17t-15 42q0 11 4 22.5t15 30.5l-10 -13q-41 -57 -64.5 -78t-44.5 -21 q-22 0 -36.5 16.5t-14.5 41.5q0 15 5 30t17 35l89 149q8 -2 13.5 -2.5t12.5 -0.5t14 0.5t19 2.5l-116 -191q-18 -29 -18 -52q0 -22 19 -22q12 0 28.5 13t37 37t44 58t48.5 76l48 81q8 -2 13 -2.5t12 -0.5q9 0 16.5 0.5t18.5 2.5zM264 452q-5 -14 -6.5 -24.5t-1.5 -22.5 q0 -21 8 -46.5t19 -40.5q4 -4 4 -6t-3 -2q-6 0 -14.5 10t-17.5 26t-17 36.5t-13 40.5z"/>
    <glyph glyph-name="uacute" unicode="" horiz-adv-x="313" d="M281 134q-31 -50 -43.5 -76.5t-12.5 -40.5q0 -21 20 -21q19 0 49 28.5t78 94.5l15 21l9 11q2 5 5 5t3 -3q0 -2 -7.5 -12.5t-19 -25.5t-23.5 -30.5t-21 -26.5q-33 -38 -53 -53.5t-40 -15.5q-21 0 -36 17t-15 42q0 11 4 22.5t15 30.5l-10 -13q-41 -57 -64.5 -78t-44.5 -21 q-22 0 -36.5 16.5t-14.5 41.5q0 15 5 30t17 35l89 149q8 -2 13.5 -2.5t12.5 -0.5t14 0.5t19 2.5l-116 -191q-18 -29 -18 -52q0 -22 19 -22q12 0 28.5 13t37 37t44 58t48.5 76l48 81q8 -2 13 -2.5t12 -0.5q9 0 16.5 0.5t18.5 2.5zM424 412q-27 -21 -54 -36t-67 -32 q-7 -3 -17.5 -7t-20.5 -8t-18 -6.5t-9 -2.5h-2q-1 0 -1 1q0 2 6 4q24 12 48.5 27t46.5 30.5t40 31.5t28 29z"/>
    <glyph glyph-name="ucircumflex" unicode="" horiz-adv-x="313" d="M281 134q-31 -50 -43.5 -76.5t-12.5 -40.5q0 -21 20 -21q19 0 49 28.5t78 94.5l15 21l9 11q2 5 5 5t3 -3q0 -2 -7.5 -12.5t-19 -25.5t-23.5 -30.5t-21 -26.5q-33 -38 -53 -53.5t-40 -15.5q-21 0 -36 17t-15 42q0 11 4 22.5t15 30.5l-10 -13q-41 -57 -64.5 -78t-44.5 -21 q-22 0 -36.5 16.5t-14.5 41.5q0 15 5 30t17 35l89 149q8 -2 13.5 -2.5t12.5 -0.5t14 0.5t19 2.5l-116 -191q-18 -29 -18 -52q0 -22 19 -22q12 0 28.5 13t37 37t44 58t48.5 76l48 81q8 -2 13 -2.5t12 -0.5q9 0 16.5 0.5t18.5 2.5zM355 440q-2 -27 -3.5 -43.5t-2 -28.5t-1 -22 t-1.5 -25q0 -4 -2 -4t-2 1.5t-1 9.5q-3 41 -11 60q-15 -10 -40 -22.5t-49.5 -23.5t-45.5 -18.5t-29 -7.5q-3 0 -3 2q0 1 7 4q27 11 55 26t53.5 31.5t45 32t30.5 28.5z"/>
    <glyph glyph-name="udieresis" unicode="" horiz-adv-x="313" d="M281 134q-31 -50 -43.5 -76.5t-12.5 -40.5q0 -21 20 -21q19 0 49 28.5t78 94.5l15 21l9 11q2 5 5 5t3 -3q0 -2 -7.5 -12.5t-19 -25.5t-23.5 -30.5t-21 -26.5q-33 -38 -53 -53.5t-40 -15.5q-21 0 -36 17t-15 42q0 11 4 22.5t15 30.5l-10 -13q-41 -57 -64.5 -78t-44.5 -21 q-22 0 -36.5 16.5t-14.5 41.5q0 15 5 30t17 35l89 149q8 -2 13.5 -2.5t12.5 -0.5t14 0.5t19 2.5l-116 -191q-18 -29 -18 -52q0 -22 19 -22q12 0 28.5 13t37 37t44 58t48.5 76l48 81q8 -2 13 -2.5t12 -0.5q9 0 16.5 0.5t18.5 2.5zM259 380q9 0 15 -6t6 -14q0 -18 -13 -32.5 t-30 -14.5q-24 0 -24 23q0 17 14.5 30.5t31.5 13.5zM342 380q9 0 15 -5.5t6 -14.5q0 -18 -13 -32.5t-30 -14.5q-24 0 -24 22q0 17 14.5 31t31.5 14z"/>
    <glyph glyph-name="yacute" unicode="" horiz-adv-x="308" d="M112 105q-22 -36 -31.5 -56t-9.5 -31q0 -22 20 -22q24 0 67.5 50t94.5 137l45 77q8 -2 13.5 -2h13.5q11 0 17 0.5t16 2.5q-21 -34 -36.5 -59t-32.5 -54t-39 -68.5t-56 -100.5q30 15 54 31t46 35.5t44 44t48 57.5q6 9 9 9t3 -3q0 -1 -5 -8t-13 -17t-17.5 -21t-18.5 -21 q-18 -20 -33.5 -34.5t-32.5 -28t-38.5 -26.5t-50.5 -29l-24 -43q-20 -35 -36.5 -62t-34 -49t-36 -41t-41.5 -37q-38 -31 -74 -47.5t-64 -16.5q-20 0 -33.5 12.5t-13.5 31.5q0 98 226 203q14 7 28 13.5t28 12.5l7 4l86 153q-26 -35 -43.5 -57t-30.5 -34.5t-23.5 -17 t-22.5 -4.5q-20 0 -35 17t-15 40q0 17 7 34.5t28 52.5l75 127q8 -2 13.5 -2h12.5q9 0 16.5 0.5t18.5 2.5zM116 -59q-5 -3 -8.5 -5t-9 -4.5t-14.5 -7l-23 -11.5q-109 -54 -165.5 -104.5t-56.5 -93.5q0 -17 11.5 -27t29.5 -10q26 0 51 13t52 43t58 78.5t69 118.5q1 0 2.5 3z M411 412q-27 -21 -54 -36t-67 -32q-7 -3 -17.5 -7t-20.5 -8t-18 -6.5t-9 -2.5h-2q-1 0 -1 1q0 2 6 4q24 12 48.5 27t46.5 30.5t40 31.5t28 29z"/>
    <glyph glyph-name="thorn" unicode="" horiz-adv-x="261" d="M293 494q8 -2 13 -3t15 -1q9 0 15 0.5t15 2.5l-216 -340q26 34 44.5 56t32 34.5t24 17t22.5 4.5q26 0 43.5 -22.5t17.5 -55.5q0 -80 -99 -145q-35 -23 -70 -38t-56 -15q-31 0 -31 29q0 5 1 10t4 14l-187 -312q-17 4 -28 4q-8 0 -15 -1t-17 -5zM255 258q-19 0 -47 -27.5 t-73 -87.5q-65 -90 -65 -122q0 -25 23 -25q15 0 35 12t41 31.5t41.5 44t36.5 50t26 50t10 42.5q0 14 -7.5 23t-20.5 9z"/>
    <glyph glyph-name="ydieresis" unicode="" horiz-adv-x="308" d="M112 105q-22 -36 -31.5 -56t-9.5 -31q0 -22 20 -22q24 0 67.5 50t94.5 137l45 77q8 -2 13.5 -2h13.5q11 0 17 0.5t16 2.5q-21 -34 -36.5 -59t-32.5 -54t-39 -68.5t-56 -100.5q30 15 54 31t46 35.5t44 44t48 57.5q6 9 9 9t3 -3q0 -1 -5 -8t-13 -17t-17.5 -21t-18.5 -21 q-18 -20 -33.5 -34.5t-32.5 -28t-38.5 -26.5t-50.5 -29l-24 -43q-20 -35 -36.5 -62t-34 -49t-36 -41t-41.5 -37q-38 -31 -74 -47.5t-64 -16.5q-20 0 -33.5 12.5t-13.5 31.5q0 98 226 203q14 7 28 13.5t28 12.5l7 4l86 153q-26 -35 -43.5 -57t-30.5 -34.5t-23.5 -17 t-22.5 -4.5q-20 0 -35 17t-15 40q0 17 7 34.5t28 52.5l75 127q8 -2 13.5 -2h12.5q9 0 16.5 0.5t18.5 2.5zM116 -59q-5 -3 -8.5 -5t-9 -4.5t-14.5 -7l-23 -11.5q-109 -54 -165.5 -104.5t-56.5 -93.5q0 -17 11.5 -27t29.5 -10q26 0 51 13t52 43t58 78.5t69 118.5q1 0 2.5 3z M255 380q9 0 15 -6t6 -14q0 -18 -13 -32.5t-30 -14.5q-24 0 -24 23q0 17 14.5 30.5t31.5 13.5zM338 380q9 0 15 -5.5t6 -14.5q0 -18 -13 -32.5t-30 -14.5q-24 0 -24 22q0 17 14.5 31t31.5 14z"/>
    <glyph glyph-name="Amacron" unicode="" horiz-adv-x="953" d="M650 294h25h19.5t21 -0.5t30.5 -0.5q72 79 140.5 137t137 95.5t139 55.5t145.5 19q17 4 33.5 5.5t31.5 1.5q32 0 50 -6t18 -17q0 -9 -10 -9q-4 0 -8 0.5t-25 5.5t-46 8.5t-42 3.5q-41 -13 -73.5 -34.5t-64.5 -58t-65.5 -92t-75.5 -137.5q-57 -118 -130.5 -185t-168.5 -89 q24 -4 37.5 -5t29.5 -1q50 0 84 13t67 45q17 16 41.5 45t56.5 72q5 7 8 7q2 0 2 -3q0 -1 -6 -9t-14.5 -19.5t-18 -24.5t-17.5 -22q-26 -32 -48.5 -53.5t-46 -34t-49 -18t-56.5 -5.5q-22 0 -41 2.5t-46 7.5q-17 -5 -34 -7.5t-38 -2.5q-28 0 -28 10q0 12 38 12q14 0 29.5 -1.5 t32.5 -3.5q37 9 63 20.5t52.5 40t60.5 81t88 142.5h-188q-71 -78 -134.5 -135t-121.5 -94t-111.5 -55t-105.5 -18q-91 0 -144 50.5t-53 137.5q0 53 22 105t60 96.5t90.5 79t113.5 52.5q20 40 52 73.5t71 58t82 38.5t86 14q51 0 80 -25t29 -70q0 -20 -5 -37t-18 -42 q-14 -26 -17.5 -36t-3.5 -20q0 -16 12 -26t30 -10q26 0 49.5 17t51.5 55q4 6 7 6q4 0 4 -4q0 -5 -23 -31q-46 -52 -89 -52q-29 0 -46 20t-17 52q0 10 1 17.5t4 16t9.5 21t17.5 33.5q15 27 15 47q0 25 -27 42t-66 17q-40 0 -80.5 -13t-77.5 -36t-68 -54.5t-51 -68.5 q20 5 34 6.5t30 1.5q72 0 113 -38t41 -105v-13t-2 -15q19 15 36 38.5t27 46.5q1 5 4 5q4 0 4 -5q0 -7 -6 -19t-16 -25.5t-23.5 -27t-27.5 -25.5q-9 -47 -36 -90.5t-64.5 -77.5t-82.5 -54t-88 -20q-48 0 -78.5 30t-30.5 77q0 56 35.5 110t95.5 88q-1 9 -1 12v6q0 35 17 77 q-52 -19 -97.5 -55t-80 -81.5t-54.5 -96.5t-20 -101q0 -75 46 -119.5t123 -44.5q44 0 86 13.5t90 47t107 90t138 142.5h-49.5t-45.5 -1zM609 316q-29 -17 -53 -24t-50 -7q-50 0 -81.5 26.5t-39.5 74.5q-27 -17 -49.5 -38.5t-38.5 -45.5t-25 -50t-9 -51q0 -46 27 -74t71 -28 q35 0 71.5 16.5t69.5 46t61 69t46 85.5zM413 494q-11 -26 -15.5 -45.5t-4.5 -48.5q9 5 21 10t23 8.5t20 6t13 2.5q5 0 5 -3t-2 -4t-16 -4q-15 -4 -32 -10.5t-31 -14.5q8 -48 37 -73t77 -25q26 0 50.5 8t54.5 27q5 17 6.5 29t1.5 27q0 56 -36.5 89.5t-97.5 33.5 q-36 0 -74 -13zM984 293q30 54 69 104t80.5 90.5t81 68t71.5 35.5q-64 -3 -121 -20.5t-114.5 -52.5t-119 -90.5t-133.5 -134.5h186zM1108 698h225l-3 -9h-225z"/>
    <glyph glyph-name="amacron" unicode="" horiz-adv-x="344" d="M328 261q8 -2 13 -2.5t13 -0.5q9 0 16 0.5t18 2.5l-86 -143q-22 -37 -33.5 -62.5t-11.5 -36.5q0 -23 19 -23q10 0 26 12t36.5 33t43 49t44.5 61q2 5 5 5t3 -3q0 -1 -7.5 -12t-18.5 -25.5t-23.5 -30.5t-21.5 -27q-32 -38 -52.5 -53.5t-38.5 -15.5q-23 0 -37 16.5t-14 42.5 q0 15 3.5 27.5t12.5 29.5q-25 -35 -43 -57t-32.5 -35.5t-26 -18.5t-23.5 -5q-26 0 -43.5 22t-17.5 56q0 45 34 88t98 78q59 32 94 32q30 0 30 -29q0 -9 -4 -22zM278 258q-15 0 -35 -12t-41 -31.5t-42 -44.5t-37 -50.5t-26 -49.5t-10 -42q0 -32 28 -32q10 0 20.5 5.5t24.5 19 t31.5 34.5t40.5 53q68 91 68 126q0 24 -22 24zM218 348h221l-3 -9h-221z"/>
    <glyph glyph-name="Abreve" unicode="" horiz-adv-x="953" d="M650 294h25h19.5t21 -0.5t30.5 -0.5q72 79 140.5 137t137 95.5t139 55.5t145.5 19q17 4 33.5 5.5t31.5 1.5q32 0 50 -6t18 -17q0 -9 -10 -9q-4 0 -8 0.5t-25 5.5t-46 8.5t-42 3.5q-41 -13 -73.5 -34.5t-64.5 -58t-65.5 -92t-75.5 -137.5q-57 -118 -130.5 -185t-168.5 -89 q24 -4 37.5 -5t29.5 -1q50 0 84 13t67 45q17 16 41.5 45t56.5 72q5 7 8 7q2 0 2 -3q0 -1 -6 -9t-14.5 -19.5t-18 -24.5t-17.5 -22q-26 -32 -48.5 -53.5t-46 -34t-49 -18t-56.5 -5.5q-22 0 -41 2.5t-46 7.5q-17 -5 -34 -7.5t-38 -2.5q-28 0 -28 10q0 12 38 12q14 0 29.5 -1.5 t32.5 -3.5q37 9 63 20.5t52.5 40t60.5 81t88 142.5h-188q-71 -78 -134.5 -135t-121.5 -94t-111.5 -55t-105.5 -18q-91 0 -144 50.5t-53 137.5q0 53 22 105t60 96.5t90.5 79t113.5 52.5q20 40 52 73.5t71 58t82 38.5t86 14q51 0 80 -25t29 -70q0 -20 -5 -37t-18 -42 q-14 -26 -17.5 -36t-3.5 -20q0 -16 12 -26t30 -10q26 0 49.5 17t51.5 55q4 6 7 6q4 0 4 -4q0 -5 -23 -31q-46 -52 -89 -52q-29 0 -46 20t-17 52q0 10 1 17.5t4 16t9.5 21t17.5 33.5q15 27 15 47q0 25 -27 42t-66 17q-40 0 -80.5 -13t-77.5 -36t-68 -54.5t-51 -68.5 q20 5 34 6.5t30 1.5q72 0 113 -38t41 -105v-13t-2 -15q19 15 36 38.5t27 46.5q1 5 4 5q4 0 4 -5q0 -7 -6 -19t-16 -25.5t-23.5 -27t-27.5 -25.5q-9 -47 -36 -90.5t-64.5 -77.5t-82.5 -54t-88 -20q-48 0 -78.5 30t-30.5 77q0 56 35.5 110t95.5 88q-1 9 -1 12v6q0 35 17 77 q-52 -19 -97.5 -55t-80 -81.5t-54.5 -96.5t-20 -101q0 -75 46 -119.5t123 -44.5q44 0 86 13.5t90 47t107 90t138 142.5h-49.5t-45.5 -1zM609 316q-29 -17 -53 -24t-50 -7q-50 0 -81.5 26.5t-39.5 74.5q-27 -17 -49.5 -38.5t-38.5 -45.5t-25 -50t-9 -51q0 -46 27 -74t71 -28 q35 0 71.5 16.5t69.5 46t61 69t46 85.5zM413 494q-11 -26 -15.5 -45.5t-4.5 -48.5q9 5 21 10t23 8.5t20 6t13 2.5q5 0 5 -3t-2 -4t-16 -4q-15 -4 -32 -10.5t-31 -14.5q8 -48 37 -73t77 -25q26 0 50.5 8t54.5 27q5 17 6.5 29t1.5 27q0 56 -36.5 89.5t-97.5 33.5 q-36 0 -74 -13zM984 293q30 54 69 104t80.5 90.5t81 68t71.5 35.5q-64 -3 -121 -20.5t-114.5 -52.5t-119 -90.5t-133.5 -134.5h186zM1140 762q2 0 4 -8q5 -26 29 -43t56 -17q26 0 52.5 11t43.5 28q5 6 6.5 7t3.5 1t2 -2q0 -4 -8 -15.5t-19 -20.5q-39 -39 -89 -39 q-38 0 -62.5 22t-24.5 56q0 20 6 20z"/>
    <glyph glyph-name="abreve" unicode="" horiz-adv-x="344" d="M328 261q8 -2 13 -2.5t13 -0.5q9 0 16 0.5t18 2.5l-86 -143q-22 -37 -33.5 -62.5t-11.5 -36.5q0 -23 19 -23q10 0 26 12t36.5 33t43 49t44.5 61q2 5 5 5t3 -3q0 -1 -7.5 -12t-18.5 -25.5t-23.5 -30.5t-21.5 -27q-32 -38 -52.5 -53.5t-38.5 -15.5q-23 0 -37 16.5t-14 42.5 q0 15 3.5 27.5t12.5 29.5q-25 -35 -43 -57t-32.5 -35.5t-26 -18.5t-23.5 -5q-26 0 -43.5 22t-17.5 56q0 45 34 88t98 78q59 32 94 32q30 0 30 -29q0 -9 -4 -22zM278 258q-15 0 -35 -12t-41 -31.5t-42 -44.5t-37 -50.5t-26 -49.5t-10 -42q0 -32 28 -32q10 0 20.5 5.5t24.5 19 t31.5 34.5t40.5 53q68 91 68 126q0 24 -22 24zM255 406q2 0 4 -8q5 -24 27 -39.5t53 -15.5q24 0 49.5 10t41.5 25q5 6 6.5 7t3.5 1t2 -2q0 -4 -8 -14.5t-17 -19.5q-38 -36 -86 -36q-35 0 -58.5 20.5t-23.5 52.5q0 19 6 19z"/>
    <glyph glyph-name="Aogonek" unicode="" horiz-adv-x="953" d="M718 -10q-15 0 -34 -7q-26 -11 -38 -30t-12 -40q0 -14 7.5 -24t23.5 -10q15 0 26 8q3 2 5.5 4.5t3.5 2.5q2 0 2 -5q0 -2 -9 -9q-8 -5 -20.5 -12t-29.5 -7q-26 0 -36 12t-10 28q0 12 5.5 25.5t18.5 27t35.5 25.5t57.5 21q45 12 75 31t56.5 51.5t56.5 81.5t76 121h-188 q-71 -78 -134.5 -135t-121.5 -94t-111.5 -55t-105.5 -18q-91 0 -144 50.5t-53 137.5q0 53 22 105t60 96.5t90.5 79t113.5 52.5q20 40 52 73.5t71 58t82 38.5t86 14q51 0 80 -25t29 -70q0 -20 -5 -37t-18 -42q-14 -26 -17.5 -36t-3.5 -20q0 -16 12 -26t30 -10q26 0 49.5 17 t51.5 55q4 6 7 6q4 0 4 -4q0 -5 -23 -31q-46 -52 -89 -52q-29 0 -46 20t-17 52q0 10 1 17.5t4 16t9.5 21t17.5 33.5q15 27 15 47q0 25 -27 42t-66 17q-40 0 -80.5 -13t-77.5 -36t-68 -54.5t-51 -68.5q20 5 34 6.5t30 1.5q72 0 113 -38t41 -105v-13t-2 -15q19 15 36 38.5 t27 46.5q1 5 4 5q4 0 4 -5q0 -7 -6 -19t-16 -25.5t-23.5 -27t-27.5 -25.5q-9 -47 -36 -90.5t-64.5 -77.5t-82.5 -54t-88 -20q-48 0 -78.5 30t-30.5 77q0 56 35.5 110t95.5 88q-1 9 -1 12v6q0 35 17 77q-52 -19 -97.5 -55t-80 -81.5t-54.5 -96.5t-20 -101q0 -75 46 -119.5 t123 -44.5q44 0 86 13.5t90 47t107 90t138 142.5h-49.5t-45.5 -1l7 10h25h19.5t21 -0.5t30.5 -0.5q72 79 140.5 137t137 95.5t139 55.5t145.5 19q17 4 33.5 5.5t31.5 1.5q32 0 50 -6t18 -17q0 -9 -10 -9q-4 0 -8 0.5t-25 5.5t-46 8.5t-42 3.5q-41 -13 -73.5 -34.5t-64.5 -58 t-65.5 -92t-75.5 -137.5q-113 -232 -298 -274q24 -3 37 -4.5t29 -1.5q50 0 84 13t67 45q17 16 41.5 45t56.5 72q5 7 8 7q2 0 2 -3q0 -1 -6 -9t-14.5 -19.5t-18 -24.5t-17.5 -22q-26 -32 -48.5 -53.5t-46 -34t-49 -18t-56.5 -5.5q-22 0 -46.5 3t-36.5 3zM608 316 q-29 -17 -53 -24t-50 -7q-50 0 -81.5 26.5t-39.5 74.5q-27 -17 -49.5 -38.5t-38.5 -45.5t-25 -50t-9 -51q0 -46 27 -74t71 -28q35 0 71.5 16.5t69.5 46t61 69t46 85.5zM983 293q30 54 69 104t80.5 90.5t81 68t71.5 35.5q-64 -3 -121 -20.5t-114.5 -52.5t-119 -90.5 t-133.5 -134.5h186zM412 494q-11 -26 -15.5 -45.5t-4.5 -48.5q9 5 21 10t23 8.5t20 6t13 2.5q5 0 5 -3t-2 -4t-16 -4q-15 -4 -32 -10.5t-31 -14.5q8 -48 37 -73t77 -25q26 0 50.5 8t54.5 27q5 17 6.5 29t1.5 27q0 56 -36.5 89.5t-97.5 33.5q-36 0 -74 -13z"/>
    <glyph glyph-name="aogonek" unicode="" horiz-adv-x="344" d="M328 261q8 -2 13 -2.5t13 -0.5q9 0 16 0.5t18 2.5l-86 -143q-22 -37 -33.5 -62.5t-11.5 -36.5q0 -23 19 -23q10 0 26 12t36.5 33t43 49t44.5 61q2 5 5 5t3 -3q0 -1 -7.5 -12t-18.5 -25.5t-23.5 -30.5t-21.5 -27q-32 -38 -52.5 -53.5t-38.5 -15.5q-21 0 -36 15 q-23 -17 -38 -37t-15 -46q0 -16 8 -23.5t20 -7.5q8 0 13 2t10 5l8 6q2 0 2 -4q0 -2 -8 -8q-23 -17 -45 -17q-23 0 -32.5 11t-9.5 25q0 12 7 24.5t19 25t27 25t31 23.5q-12 15 -12 40q0 15 3.5 27.5t12.5 29.5q-25 -35 -43 -57t-32.5 -35.5t-26 -18.5t-23.5 -5 q-26 0 -43.5 22t-17.5 56q0 45 34 88t98 78q59 32 94 32q30 0 30 -29q0 -9 -4 -22zM278 258q-15 0 -35 -12t-41 -31.5t-42 -44.5t-37 -50.5t-26 -49.5t-10 -42q0 -32 28 -32q10 0 20.5 5.5t24.5 19t31.5 34.5t40.5 53q68 91 68 126q0 24 -22 24z"/>
    <glyph glyph-name="Cacute" unicode="" horiz-adv-x="797" d="M386 347q-102 17 -156.5 60t-54.5 107q0 38 20.5 71t57.5 57t87 37.5t109 13.5q80 0 166 -28.5t165 -80.5q18 4 29.5 5t27.5 1q48 0 73.5 -12.5t25.5 -35.5q0 -16 -10.5 -31.5t-33.5 -34.5q19 -29 29.5 -57.5t10.5 -51.5q0 -12 -7 -12q-4 0 -5 3t-1 13q-2 49 -34 99 q-36 -26 -87 -49.5t-106.5 -41t-112 -28t-103.5 -10.5h-9.5t-13.5 1q-38 -53 -58 -106.5t-20 -103.5q0 -68 41 -107t113 -41q-19 20 -29.5 48.5t-10.5 59.5q0 49 24 97t62.5 85.5t87.5 61t100 23.5q47 0 72 -26.5t25 -75.5q0 -51 -25.5 -99.5t-68 -87.5t-98 -64.5 t-116.5 -29.5q18 -14 46 -23t58 -9q14 0 30.5 3.5t33.5 9t32.5 13.5t27.5 17q5 4 8 4t3 -3q0 -6 -15 -15t-36.5 -17.5t-44.5 -14t-39 -5.5q-70 0 -118 39q-32 1 -51 4.5t-42 13.5q-26 11 -47.5 30.5t-37 43.5t-24 52.5t-8.5 57.5q0 81 58 170zM792 575q32 -22 52.5 -42.5 t43.5 -50.5q40 33 40 60q0 18 -21.5 29t-56.5 11q-16 0 -28.5 -1.5t-29.5 -5.5zM471 349q47 0 103 10t111.5 27.5t106.5 41t89 49.5q-17 26 -44.5 51.5t-56.5 44.5q-45 -12 -90.5 -33.5t-87.5 -51t-78.5 -65t-64.5 -74.5h12zM766 582q-69 40 -153 63t-162 23q-52 0 -99 -13 t-82.5 -35.5t-56.5 -52t-21 -62.5q0 -57 50.5 -95t147.5 -57q59 83 157 142.5t219 86.5zM543 -16q52 0 106 26.5t98 68t72.5 92t28.5 98.5q0 38 -21.5 59.5t-59.5 21.5q-42 0 -86.5 -26t-81.5 -66t-61 -89t-24 -94q0 -26 7.5 -50t21.5 -41zM1031 741q-26 -20 -55 -36 t-70 -33q-6 -3 -17 -7.5t-21.5 -8t-19 -6.5t-9.5 -3q-3 0 -3 2t6 4q24 12 49.5 27t48.5 31.5t41.5 33t28.5 29.5z"/>
    <glyph glyph-name="cacute" unicode="" horiz-adv-x="242" d="M253 265q17 0 26.5 -11.5t9.5 -31.5q0 -17 -6.5 -35t-16.5 -32.5t-22 -24t-23 -9.5q-9 0 -15.5 6t-6.5 16q0 15 9.5 25t35.5 23q35 17 35 45q0 10 -6.5 16t-17.5 6q-20 0 -47.5 -23.5t-52.5 -57t-42 -71t-17 -64.5q0 -21 11.5 -33.5t31.5 -12.5q16 0 37.5 11t45.5 31 t49.5 48t50.5 62q5 8 9 8q2 0 2 -3q0 -1 -6.5 -9.5t-16.5 -20.5t-22 -26t-24 -26q-41 -45 -70 -63.5t-58 -18.5q-17 0 -32 7t-26.5 19t-18 28t-6.5 34q0 42 33 85.5t90 75.5q23 13 43 20t34 7zM403 412q-27 -21 -54 -36t-67 -32q-7 -3 -17.5 -7t-20.5 -8t-18 -6.5t-9 -2.5 h-2q-1 0 -1 1q0 2 6 4q24 12 48.5 27t46.5 30.5t40 31.5t28 29z"/>
    <glyph glyph-name="Ccircumflex" unicode="" horiz-adv-x="797" d="M386 347q-102 17 -156.5 60t-54.5 107q0 38 20.5 71t57.5 57t87 37.5t109 13.5q80 0 166 -28.5t165 -80.5q18 4 29.5 5t27.5 1q48 0 73.5 -12.5t25.5 -35.5q0 -16 -10.5 -31.5t-33.5 -34.5q19 -29 29.5 -57.5t10.5 -51.5q0 -12 -7 -12q-4 0 -5 3t-1 13q-2 49 -34 99 q-36 -26 -87 -49.5t-106.5 -41t-112 -28t-103.5 -10.5h-9.5t-13.5 1q-38 -53 -58 -106.5t-20 -103.5q0 -68 41 -107t113 -41q-19 20 -29.5 48.5t-10.5 59.5q0 49 24 97t62.5 85.5t87.5 61t100 23.5q47 0 72 -26.5t25 -75.5q0 -51 -25.5 -99.5t-68 -87.5t-98 -64.5 t-116.5 -29.5q18 -14 46 -23t58 -9q14 0 30.5 3.5t33.5 9t32.5 13.5t27.5 17q5 4 8 4t3 -3q0 -6 -15 -15t-36.5 -17.5t-44.5 -14t-39 -5.5q-70 0 -118 39q-32 1 -51 4.5t-42 13.5q-26 11 -47.5 30.5t-37 43.5t-24 52.5t-8.5 57.5q0 81 58 170zM792 575q32 -22 52.5 -42.5 t43.5 -50.5q40 33 40 60q0 18 -21.5 29t-56.5 11q-16 0 -28.5 -1.5t-29.5 -5.5zM471 349q47 0 103 10t111.5 27.5t106.5 41t89 49.5q-17 26 -44.5 51.5t-56.5 44.5q-45 -12 -90.5 -33.5t-87.5 -51t-78.5 -65t-64.5 -74.5h12zM766 582q-69 40 -153 63t-162 23q-52 0 -99 -13 t-82.5 -35.5t-56.5 -52t-21 -62.5q0 -57 50.5 -95t147.5 -57q59 83 157 142.5t219 86.5zM543 -16q52 0 106 26.5t98 68t72.5 92t28.5 98.5q0 38 -21.5 59.5t-59.5 21.5q-42 0 -86.5 -26t-81.5 -66t-61 -89t-24 -94q0 -26 7.5 -50t21.5 -41zM978 774q-2 -23 -3 -38t-2 -27.5 t-2 -25.5t-2 -31q0 -4 -2 -4t-2 4q-2 23 -4.5 41t-7.5 28q-15 -10 -40 -22.5t-51 -24t-48 -19.5t-30 -8q-3 0 -3 2q0 1 7 4q27 12 56 27t55 31.5t46.5 33t32.5 29.5z"/>
    <glyph glyph-name="ccircumflex" unicode="" horiz-adv-x="242" d="M253 265q17 0 26.5 -11.5t9.5 -31.5q0 -17 -6.5 -35t-16.5 -32.5t-22 -24t-23 -9.5q-9 0 -15.5 6t-6.5 16q0 15 9.5 25t35.5 23q35 17 35 45q0 10 -6.5 16t-17.5 6q-20 0 -47.5 -23.5t-52.5 -57t-42 -71t-17 -64.5q0 -21 11.5 -33.5t31.5 -12.5q16 0 37.5 11t45.5 31 t49.5 48t50.5 62q5 8 9 8q2 0 2 -3q0 -1 -6.5 -9.5t-16.5 -20.5t-22 -26t-24 -26q-41 -45 -70 -63.5t-58 -18.5q-17 0 -32 7t-26.5 19t-18 28t-6.5 34q0 42 33 85.5t90 75.5q23 13 43 20t34 7zM351 440q-2 -27 -3.5 -43.5t-2 -28.5t-1 -22t-1.5 -25q0 -4 -2 -4t-2 1.5 t-1 9.5q-3 41 -11 60q-15 -10 -40 -22.5t-49.5 -23.5t-45.5 -18.5t-29 -7.5q-3 0 -3 2q0 1 7 4q27 11 55 26t53.5 31.5t45 32t30.5 28.5z"/>
    </font>
</defs>
</svg>
