<?xml version="1.0" standalone="no"?>
<!DOCTYPE svg PUBLIC "-//W3C//DTD SVG 1.1//EN" "http://www.w3.org/Graphics/SVG/1.1/DTD/svg11.dtd" >
<svg xmlns="http://www.w3.org/2000/svg" xmlns:xlink="http://www.w3.org/1999/xlink" version="1.1">
<metadata>
Created by FontForge 20190801 at Wed Oct 10 18:30:19 2001
 By Unknown
Copyright 1990-2001 Bitstream Inc. All rights reserved.
</metadata>
<defs>
<font id="EmbassyBT-Regular" horiz-adv-x="1024" >
  <font-face 
    font-family="Embassy BT"
    font-weight="400"
    font-stretch="normal"
    units-per-em="2048"
    panose-1="3 3 6 2 4 5 7 9 12 3"
    ascent="1556"
    descent="-492"
    x-height="522"
    cap-height="1491"
    bbox="-541 -594 2904 1960"
    underline-thickness="61"
    underline-position="-319"
    unicode-range="U+0020-F002"
  />
<missing-glyph horiz-adv-x="1229" 
d="M102 -362v1806h1024v-1806h-1024zM217 -248h795v1577h-795v-1577z" />
    <glyph glyph-name=".notdef" horiz-adv-x="1229" 
d="M102 -362v1806h1024v-1806h-1024zM217 -248h795v1577h-795v-1577z" />
    <glyph glyph-name=".null" horiz-adv-x="0" 
 />
    <glyph glyph-name="nonmarkingreturn" horiz-adv-x="494" 
 />
    <glyph glyph-name="space" unicode=" " horiz-adv-x="494" 
 />
    <glyph glyph-name="exclam" unicode="!" horiz-adv-x="768" 
d="M186 0q-28 0 -46.5 16t-18.5 41q0 38 30 67.5t70 29.5q28 0 46 -16.5t18 -41.5q0 -38 -29.5 -67t-69.5 -29zM344 338l686 928q16 22 36.5 34.5t39.5 12.5q27 0 51.5 -17.5t24.5 -35.5q0 -21 -29 -54q-6 -7 -11 -13l-763 -884l-3 -3q-20 -23 -34 -23q-8 0 -12 5t-4 15
q0 4 5 13.5t13 21.5z" />
    <glyph glyph-name="quotedbl" unicode="&#x22;" horiz-adv-x="666" 
d="M508 870h-29l-57 453q-2 12 -3 23.5t-1 21.5q0 47 19 70.5t57 23.5q37 0 57 -24.5t20 -69.5q0 -7 -0.5 -15.5t-3.5 -29.5zM186 870h-28l-60 453q-2 12 -3 23.5t-1 21.5q0 46 20 70t58 24q37 0 56.5 -24t19.5 -70q0 -6 -1 -15.5l-3 -28.5z" />
    <glyph glyph-name="numbersign" unicode="#" horiz-adv-x="1575" 
d="M700 877l-108 -304h301l106 304h-299zM809 1454h94l-174 -498h299l176 498h96l-176 -498h322l-27 -79h-323l-107 -304h348l-28 -79h-348l-175 -494h-96l174 494h-301l-174 -494h-94l174 494h-340l31 79h338l106 304h-368l28 79h369z" />
    <glyph glyph-name="dollar" unicode="$" horiz-adv-x="985" 
d="M762 737l338 469q-175 0 -267 -80t-92 -233q0 -37 5.5 -76t15.5 -80zM309 35h29q163 0 259.5 91.5t96.5 246.5q0 31 -4.5 74t-13.5 95zM97 -255q-2 -3 -4 -5q-19 -25 -38 -25q-7 0 -12.5 7t-5.5 16q0 7 8 16q6 7 8 10l174 240q-93 40 -137.5 103.5t-44.5 154.5
q0 47 7.5 68.5t23.5 21.5q8 0 14 -5.5t6 -12.5q0 -5 -3 -29t-3 -43q0 -75 44.5 -132t123.5 -83l406 555q-12 72 -17.5 123t-5.5 88q0 198 120.5 316t321.5 118q18 0 27.5 -0.5t18.5 -0.5l100 136v1q21 26 41 26q7 0 11.5 -5.5t4.5 -14.5q0 -7 -9 -19q-5 -7 -8 -11l-89 -124
q64 -20 104.5 -75.5t40.5 -119.5q0 -12 -5.5 -19t-14.5 -7q-19 0 -26 36q-4 22 -9 35q-19 47 -48.5 73t-72.5 34l-375 -516q20 -67 29.5 -123t9.5 -102q0 -200 -136 -332.5t-343 -132.5q-25 0 -37 0.5t-23 0.5z" />
    <glyph glyph-name="percent" unicode="%" horiz-adv-x="1251" 
d="M862 102q0 -29 15.5 -49t37.5 -20q41 0 85.5 31t84.5 88q42 58 67.5 128t25.5 123q0 31 -14.5 51.5t-35.5 20.5q-30 0 -67.5 -29t-83.5 -90q-54 -70 -84.5 -138t-30.5 -116zM913 -14q-54 0 -86 40t-32 109q0 86 31.5 158.5t97.5 138.5q45 45 95.5 70.5t94.5 25.5
q51 0 78 -32t27 -93q0 -66 -26 -141t-71 -139t-101 -100.5t-108 -36.5zM381 614q0 -24 18 -42.5t41 -18.5q36 0 80.5 32t83.5 87q41 59 65.5 128.5t24.5 123.5q0 32 -13 51.5t-34 19.5q-31 0 -69 -29.5t-82 -86.5q-56 -74 -85.5 -142t-29.5 -123zM1208 961
q-67 -32 -130.5 -47t-127.5 -15q-50 0 -102.5 11t-106.5 32q-13 -187 -104 -311.5t-207 -124.5q-54 0 -85.5 38t-31.5 103q0 77 29 151.5t82 135.5q48 54 106 84.5t113 30.5q28 0 51 -16t35 -44q58 -27 111.5 -40t107.5 -13q76 0 152 24.5t153 73.5q37 24 79.5 54t47.5 30
q9 0 14 -5t5 -13q-1 -4 -4.5 -9t-12.5 -14l-1269 -1251q-9 -8 -18.5 -13.5t-16.5 -5.5h-2l-25 9q-9 3 -13.5 6t-4.5 6q0 2 5.5 9.5t12.5 15.5z" />
    <glyph glyph-name="ampersand" unicode="&#x26;" horiz-adv-x="1290" 
d="M1024 150q-131 178 -210.5 358t-115.5 377q-204 -67 -310.5 -192.5t-106.5 -299.5q0 -161 109.5 -256.5t295.5 -95.5q95 0 178 26.5t160 82.5zM756 953q228 58 347.5 150t119.5 208q0 61 -40.5 100t-103.5 39q-68 0 -134.5 -50.5t-121.5 -144.5q-36 -63 -53.5 -124
t-17.5 -123q0 -11 0.5 -21.5t3.5 -33.5zM1053 104q-83 -61 -182 -91.5t-212 -30.5q-222 0 -361.5 126.5t-139.5 325.5q0 194 132.5 320t399.5 184q-5 46 -6.5 68t-1.5 41q0 205 107.5 327.5t285.5 122.5q122 0 190 -54.5t68 -150.5q0 -122 -132.5 -213.5t-440.5 -177.5
q26 -196 101.5 -375t201.5 -346q55 56 85 111t30 102q-1 23 -6.5 38t-12.5 15q-1 0 -6 -4q-29 -24 -61 -24q-35 0 -56.5 22t-21.5 58q0 38 25.5 62t68.5 24q56 0 93.5 -49t37.5 -125q0 -73 -36.5 -140t-110.5 -133l47 -61l1 -1q23 -34 23 -48q0 -8 -3 -12.5t-9 -4.5
q-18 0 -36 21q-4 5 -5 6z" />
    <glyph glyph-name="quotesingle" unicode="'" horiz-adv-x="342" 
d="M184 870h-28l-60 454q-1 6 -1.5 15t-0.5 29q0 47 19 70.5t57 23.5q37 0 57.5 -24.5t20.5 -69.5q0 -6 -1 -15.5l-3 -28.5z" />
    <glyph glyph-name="parenleft" unicode="(" horiz-adv-x="901" 
d="M1657 1481q0 -15 -97 -59t-174 -85q-204 -109 -376 -265.5t-299 -348.5q-153 -229 -235.5 -409.5t-129.5 -374.5q-2 -9 -6 -25q-18 -72 -39 -72q-10 0 -14 5.5t-4 17.5q0 18 6.5 70t17.5 112q42 215 113 401t166 332q116 177 283.5 315.5t416.5 264.5q116 59 222.5 100
t123.5 41q12 0 18.5 -5.5t6.5 -14.5z" />
    <glyph glyph-name="parenright" unicode=")" horiz-adv-x="901" 
d="M-254 -139q0 15 97 58.5t173 84.5q203 109 375.5 266t300.5 351q154 231 236 410t129 372q2 9 7 27q17 71 38 71q9 0 13.5 -6t4.5 -18q0 -18 -6.5 -70t-17.5 -113q-42 -214 -113 -400.5t-166 -332.5q-116 -176 -284 -314.5t-418 -264.5q-116 -59 -221.5 -100.5
t-122.5 -41.5q-12 0 -18.5 5.5t-6.5 15.5z" />
    <glyph glyph-name="asterisk" unicode="*" horiz-adv-x="1006" 
d="M967 1178l-164 -80q-29 -15 -43.5 -19t-28.5 -4q-16 0 -27.5 14t-11.5 35q0 20 17.5 31t68.5 21l178 30l-149 103q-37 25 -48 38t-11 27q0 18 12.5 32.5t27.5 14.5q28 0 68 -46l4 -5l117 -139l14 180q4 53 14 71.5t33 18.5q24 0 36.5 -11t12.5 -32q0 -13 -11 -44
q-5 -13 -7 -19l-61 -170l163 80q2 0 4 1q41 19 68 19q16 0 27.5 -14t11.5 -33q0 -20 -16 -30.5t-70 -20.5l-178 -33l151 -102q38 -25 49 -38t11 -26q0 -18 -14 -33.5t-29 -15.5q-26 0 -64 44q-6 7 -8 9l-117 139l-12 -180q-4 -53 -15 -72.5t-36 -19.5q-21 0 -33 12.5
t-12 34.5q0 17 14 55q1 4 2 7z" />
    <glyph glyph-name="plus" unicode="+" horiz-adv-x="1706" 
d="M813 1221h80v-570h559v-82h-559v-569h-80v569h-559v82h559v570z" />
    <glyph glyph-name="comma" unicode="," horiz-adv-x="494" 
d="M150 0h-7q-25 0 -39 14.5t-14 40.5q0 42 30 76.5t66 34.5q31 0 50.5 -20.5t19.5 -53.5q0 -32 -18 -65.5t-54 -65.5q-34 -30 -76 -51t-63 -21q-12 0 -18 3.5t-7 11.5q0 15 47.5 39t82.5 57z" />
    <glyph glyph-name="hyphen" unicode="-" horiz-adv-x="473" 
d="M180 317h258l-63 -86h-256z" />
    <glyph glyph-name="period" unicode="." horiz-adv-x="494" 
d="M154 0q-29 0 -46.5 16t-17.5 41q0 38 30 67.5t70 29.5q28 0 46 -16.5t18 -41.5q0 -38 -30 -67t-70 -29z" />
    <glyph glyph-name="slash" unicode="/" horiz-adv-x="551" 
d="M106 -190l787 1687h78l-787 -1687h-78z" />
    <glyph glyph-name="zero" unicode="0" horiz-adv-x="862" 
d="M113 100q0 -33 17.5 -48t57.5 -15q82 0 233 102.5t296 263.5q145 163 239.5 321t94.5 220q0 31 -14 47.5t-42 16.5q-80 0 -221 -110t-334 -323q-142 -156 -234.5 -293.5t-92.5 -181.5zM172 -14q-58 0 -93.5 38.5t-35.5 102.5q0 95 82.5 237.5t222.5 282.5
q195 195 364 300.5t283 105.5q55 0 84 -32.5t29 -92.5q0 -97 -89 -238t-269 -332q-162 -169 -322 -270.5t-256 -101.5z" />
    <glyph glyph-name="one" unicode="1" horiz-adv-x="537" 
d="M573 717q-154 -132 -254.5 -199t-142.5 -67q-11 0 -16.5 3.5t-5.5 10.5q0 19 27 32q4 2 5 3q64 31 137.5 84t180.5 147q35 31 98 86q270 236 326 236q13 0 21.5 -5.5t8.5 -13.5q0 -17 -52 -71q-23 -23 -36 -37q-206 -221 -419 -496q-41 -54 -56 -72l-262 -313l-3 -4
q-35 -41 -73 -41h-67q-10 0 -16.5 4t-6.5 8q0 29 158.5 213.5t447.5 491.5z" />
    <glyph glyph-name="two" unicode="2" horiz-adv-x="797" 
d="M-4 106q41 21 76.5 31t66.5 10q50 0 128 -35.5t106 -35.5q49 0 108.5 41t67.5 41q12 -1 18 -5.5t6 -13.5q0 -10 -8 -20t-30 -25l-70 -45q-51 -34 -94.5 -48.5t-89.5 -14.5q-56 0 -132.5 32.5t-103.5 32.5q-30 0 -74 -25.5t-61 -25.5q-9 0 -15.5 9.5t-7.5 25.5
q0 20 19 55.5t47 65.5q85 90 434 250q83 38 127 59q77 36 153.5 95t151.5 140q72 76 108 133t36 95q0 37 -21 56.5t-61 19.5q-48 0 -109 -32t-145 -102q-109 -90 -148 -136.5t-39 -80.5q0 -22 11 -32.5t36 -10.5q52 0 121 43.5t129 116.5q23 27 46 72t36 45q9 0 14 -6t5 -17
q0 -20 -13.5 -48.5t-38.5 -59.5q-67 -85 -151 -138t-146 -53q-56 0 -87 30.5t-31 86.5q0 46 25.5 97.5t74.5 103.5q76 80 171.5 125t188.5 45q94 0 143.5 -43t49.5 -123q0 -117 -86.5 -224.5t-237.5 -177.5q-99 -45 -243 -102.5t-187 -77.5q-128 -59 -183.5 -101.5
t-90.5 -97.5z" />
    <glyph glyph-name="three" unicode="3" horiz-adv-x="854" 
d="M690 512q37 -15 56.5 -50t19.5 -85q0 -66 -38.5 -132t-109.5 -122q-86 -67 -181 -102t-187 -35q-120 0 -195 61t-75 156q0 72 44 122t107 50q37 0 57.5 -16t20.5 -46q0 -31 -22.5 -52t-57.5 -21q-15 0 -35.5 7t-25.5 7q-12 0 -21.5 -17t-9.5 -38q0 -70 51 -113t133 -43
q75 0 159.5 45t172.5 131q54 54 86.5 109.5t32.5 91.5q0 28 -16.5 45t-46.5 20q-9 1 -24 2q-48 3 -48 23q0 18 71 39t131 55q49 28 100 76t107 121q35 44 50.5 75t15.5 56q0 35 -21 54.5t-59 19.5q-48 0 -108.5 -31.5t-143.5 -100.5q-95 -77 -135.5 -126t-40.5 -82
q0 -23 10.5 -32t36.5 -9q49 0 116.5 42.5t125.5 112.5q21 26 43.5 68.5t35.5 42.5q9 0 14 -5.5t5 -15.5q0 -19 -13 -47.5t-36 -56.5q-64 -82 -146 -133t-143 -51q-54 0 -84.5 29.5t-30.5 82.5q0 44 25.5 94t73.5 101q73 78 166 122t184 44q81 0 127.5 -43t46.5 -117
q0 -144 -97 -244t-274 -139z" />
    <glyph glyph-name="four" unicode="4" horiz-adv-x="868" 
d="M196 335q-67 -8 -104 -24t-37 -37q0 -6 8.5 -10t22.5 -4q23 0 51.5 19.5t58.5 55.5zM614 266l-137 -164q-8 -10 -23 -28q-58 -72 -96 -72h-73q-11 0 -18 4t-7 10q0 4 3.5 10.5t11.5 17.5l202 253q-55 14 -110 24t-111 17q-41 -57 -90.5 -89t-95.5 -32q-28 0 -46 13.5
t-18 33.5q0 51 61 83.5t164 35.5q222 357 346.5 513.5t186.5 156.5q36 0 61 -9.5t25 -21.5l-187 -202.5t-368 -444.5q53 -7 106.5 -16.5t108.5 -22.5q258 326 440.5 514t237.5 188q9 0 13.5 -3.5t4.5 -10.5q0 -8 -45 -45t-80 -74q-104 -109 -291 -383q-97 -143 -151 -217
q32 -5 56.5 -7.5t41.5 -2.5q15 0 35.5 3t26.5 3q7 0 12.5 -6.5t5.5 -15.5q0 -13 -20.5 -21t-55.5 -8q-26 0 -57.5 4t-69.5 12z" />
    <glyph glyph-name="five" unicode="5" horiz-adv-x="778" 
d="M358 596l228 322q62 90 100.5 115.5t91.5 25.5q35 0 121 -17.5t135 -17.5q32 0 66 13q10 3 12 3q9 0 15 -4t6 -12q0 -32 -56.5 -73.5t-109.5 -41.5q-45 0 -132 33t-120 33q-11 0 -22 -6t-17 -14l-227 -316q47 21 86.5 32t66.5 11q80 0 120 -39.5t40 -118.5
q0 -72 -51 -161.5t-142 -176.5q-109 -105 -213 -154.5t-213 -49.5q-84 0 -139 48.5t-55 123.5q0 62 40 105.5t97 43.5q35 0 55.5 -17.5t20.5 -47.5q0 -29 -21 -48.5t-51 -19.5q-14 0 -34.5 6t-28.5 6q-15 0 -23 -10.5t-8 -30.5q0 -45 40 -78.5t97 -33.5q67 0 148.5 52.5
t193.5 170.5q97 99 149 182t52 135q0 35 -19 51.5t-59 16.5q-39 0 -88 -16.5t-117 -53.5q-21 -39 -45.5 -61.5t-46.5 -22.5q-12 0 -18 5.5t-7 17.5q0 21 20 43t62 47z" />
    <glyph glyph-name="six" unicode="6" horiz-adv-x="825" 
d="M321 462q-101 -132 -154.5 -228t-53.5 -146q0 -30 14.5 -44.5t44.5 -14.5q55 0 155 71.5t205 190.5q95 106 148 192t53 131q0 23 -8 32t-27 9q-31 0 -72.5 -18t-99.5 -57q-53 -37 -107.5 -87.5t-62.5 -50.5q-9 0 -17.5 5.5t-17.5 14.5zM385 537q120 90 194 127.5
t128 37.5q52 0 80 -29.5t28 -84.5q0 -87 -62.5 -194.5t-174.5 -213.5q-106 -98 -203 -147t-185 -49q-64 0 -98.5 34t-34.5 99q0 112 81 258.5t220 283.5q189 186 364 291t292 105q64 0 100.5 -31.5t36.5 -85.5q0 -53 -34 -91t-81 -38q-26 0 -41.5 15t-15.5 40q0 39 53 67.5
t53 41.5q0 16 -18 26.5t-47 10.5q-92 0 -250 -118t-385 -355z" />
    <glyph glyph-name="seven" unicode="7" horiz-adv-x="653" 
d="M647 956q-3 0 -10 1t-10 1q-34 0 -58 -15t-24 -36q0 -6 5.5 -9t18.5 -3q20 0 41 16.5t37 44.5zM969 930q-32 -16 -60.5 -23.5t-58.5 -7.5q-38 0 -79 10t-89 31q-31 -46 -65.5 -70t-67.5 -24q-29 0 -46.5 16t-17.5 43q0 54 53.5 92.5t139.5 43.5q5 14 11 36q15 49 30 49
q6 0 11 -6t5 -14q0 -6 -4.5 -22.5t-13.5 -47.5q31 -1 96 -16.5t100 -15.5q36 0 79 12t50 12q17 0 25 -7.5t8 -23.5q0 -12 -17.5 -39t-45.5 -59q-71 -77 -254 -216t-260 -204q-129 -106 -219 -193t-150 -161q-15 -19 -40 -52q-54 -73 -83 -73h-65q-12 0 -20.5 5t-8.5 11
q0 41 84.5 150.5t208.5 210.5q113 92 342 233q94 59 139 88q92 62 160.5 118t122.5 114z" />
    <glyph glyph-name="eight" unicode="8" horiz-adv-x="872" 
d="M719 631q150 24 255 115t105 180q0 38 -24 59t-70 21q-108 0 -177.5 -97.5t-88.5 -277.5zM586 559q-86 -21 -155 -54t-124 -79q-91 -76 -143.5 -154t-52.5 -135q0 -46 30.5 -74t81.5 -28q146 0 245 141.5t118 382.5zM596 608q45 215 144.5 331t238.5 116q78 0 122 -38.5
t44 -105.5q0 -112 -112.5 -197.5t-321.5 -131.5q-33 -262 -170.5 -428t-311.5 -166q-88 0 -140 50.5t-52 137.5q0 161 141 270t418 162z" />
    <glyph glyph-name="nine" unicode="9" horiz-adv-x="825" 
d="M766 563q99 134 154 235t55 150q0 33 -14.5 48.5t-45.5 15.5q-52 0 -153.5 -74t-208.5 -195q-96 -107 -150.5 -195.5t-54.5 -135.5q0 -22 8.5 -30.5t28.5 -8.5q34 0 74.5 17.5t97.5 58.5q55 37 108.5 88t61.5 51t18.5 -6.5t20.5 -18.5zM702 492q-120 -91 -192 -127.5
t-125 -36.5q-51 0 -80 30.5t-29 83.5q0 77 45.5 170t129.5 187q108 122 225 188t223 66q64 0 99.5 -33.5t35.5 -93.5q0 -85 -60.5 -210t-166.5 -253q-80 -97 -166.5 -177.5t-181.5 -146.5q-117 -81 -203.5 -119t-151.5 -38q-75 0 -119 41t-44 110q0 63 38 110.5t87 47.5
q28 0 46.5 -16.5t18.5 -41.5q0 -32 -25 -51.5t-67 -19.5h-37q-8 0 -13 -12t-5 -33q0 -40 29.5 -63t80.5 -23q105 0 257 115t351 346z" />
    <glyph glyph-name="colon" unicode=":" horiz-adv-x="588" 
d="M129 0q-29 0 -47.5 16t-18.5 41q0 38 30 67.5t71 29.5q27 0 45 -16.5t18 -41.5q0 -38 -29 -67t-69 -29zM403 340q-28 0 -45.5 16t-17.5 41q0 38 30 67.5t70 29.5q28 0 46 -16.5t18 -41.5q0 -38 -30.5 -67t-70.5 -29z" />
    <glyph glyph-name="semicolon" unicode=";" horiz-adv-x="588" 
d="M403 340q-28 0 -45.5 16t-17.5 41q0 38 30 67.5t70 29.5q28 0 46 -16.5t18 -41.5q0 -38 -30.5 -67t-70.5 -29zM123 0h-6q-26 0 -40 14.5t-14 40.5q0 42 30 76.5t67 34.5q30 0 49.5 -20.5t19.5 -53.5q0 -32 -18 -65.5t-53 -65.5q-35 -30 -76.5 -51t-63.5 -21
q-13 1 -18.5 4.5t-5.5 10.5q0 15 47 39t82 57z" />
    <glyph glyph-name="less" unicode="&#x3c;" horiz-adv-x="1706" 
d="M1442 1124v-90l-1045 -424l1045 -424v-88l-1178 482v61z" />
    <glyph glyph-name="equal" unicode="=" horiz-adv-x="1706" 
d="M254 469h1198v-82h-1198v82zM254 831h1198v-79h-1198v79z" />
    <glyph glyph-name="greater" unicode="&#x3e;" horiz-adv-x="1706" 
d="M264 1124l1178 -483v-61l-1178 -482v88l1045 424l-1045 424v90z" />
    <glyph glyph-name="question" unicode="?" horiz-adv-x="1100" 
d="M535 250q0 25 37 60t159 114q6 4 19 12q153 97 249 217q74 91 114 168.5t40 128.5q0 60 -38 92.5t-107 32.5q-73 0 -161 -35.5t-163 -95.5q-81 -65 -126.5 -139t-45.5 -139q0 -59 34 -94t91 -35q84 0 164 69.5t133 190.5q13 29 23 79t28 50q10 -1 14 -5.5t5 -15.5
q0 -32 -19.5 -89t-50.5 -111q-59 -101 -137 -157t-158 -56q-75 0 -122.5 48.5t-47.5 125.5q0 78 49.5 159t140.5 154q83 64 178.5 101.5t176.5 37.5q99 0 157 -58t58 -157q0 -72 -26.5 -144.5t-78.5 -140.5q-93 -125 -312 -227q-19 -9 -29 -14q-92 -43 -128.5 -64.5
t-54.5 -40.5q-6 -6 -16 -20q-20 -27 -33 -27q-8 1 -12 7t-4 18zM451 0q-29 0 -46.5 16t-17.5 41q0 38 30 67.5t70 29.5q28 0 46 -16.5t18 -41.5q0 -38 -30 -67t-70 -29z" />
    <glyph glyph-name="at" unicode="@" horiz-adv-x="2019" 
d="M1194 344q-59 -108 -138.5 -162.5t-178.5 -54.5q-115 0 -188 92t-73 240q0 106 49 214t136 193q65 65 142 101.5t151 36.5q83 0 139.5 -52t79.5 -149l57 184h121l-168 -604l-2 -6q-18 -68 -18 -103q0 -52 27.5 -81t76.5 -29q48 0 108 29t113 79q96 90 150.5 221.5
t54.5 274.5q0 291 -194.5 467t-516.5 176q-175 0 -327 -57.5t-271 -167.5q-137 -128 -206.5 -300t-69.5 -382q0 -175 55.5 -301t177.5 -232q118 -102 268 -155.5t320 -53.5q173 0 331 53.5t292 155.5l26 -30q-146 -109 -309 -164.5t-340 -55.5q-191 0 -342.5 45.5
t-271.5 139.5q-151 115 -228 275t-77 356q0 203 85 378.5t250 313.5q132 109 290.5 165t338.5 56q345 0 551.5 -186.5t206.5 -497.5q0 -156 -58 -295.5t-163 -234.5q-60 -55 -123.5 -83t-128.5 -28q-97 0 -148 55t-57 164zM1090 971q-58 0 -104.5 -31t-94.5 -102
q-74 -109 -117 -234t-43 -223q0 -100 44 -157.5t120 -57.5q67 0 131 45.5t123 134.5q59 91 93 198.5t34 198.5q0 96 -54.5 162t-131.5 66z" />
    <glyph glyph-name="A" unicode="A" horiz-adv-x="1550" 
d="M985 76q49 112 73.5 220.5t24.5 213.5q0 27 -0.5 40.5t-1.5 24.5l-63 -59q-82 -76 -172 -152.5t-187 -152.5q62 -57 142.5 -90.5t183.5 -44.5zM621 252q97 72 185.5 146t168.5 149l100 94q-22 159 -104 248.5t-203 89.5q-131 0 -218 -97t-87 -245q0 -98 39.5 -194.5
t118.5 -190.5zM952 35q-93 12 -174.5 48t-156.5 99q-139 -100 -235 -143t-177 -43q-98 0 -157.5 53.5t-59.5 140.5q0 69 39.5 114.5t97.5 45.5q40 0 65 -25t25 -65q0 -34 -21 -54t-57 -20q-17 0 -42.5 6.5t-32.5 6.5q-12 0 -17.5 -6.5t-5.5 -20.5q0 -54 46 -88.5t122 -34.5
q75 0 168 43.5t205 130.5q-89 106 -132.5 216.5t-43.5 230.5q0 183 92.5 300t234.5 117q140 0 243 -109.5t140 -299.5l338 309q314 287 487 394.5t306 107.5q17 0 29 -7t12 -16q0 -5 -113 -126.5t-213 -258.5q-29 -39 -89 -121q-414 -568 -738 -880q102 5 188 35.5t168 91.5
q39 28 84 67t53 39t12 -4.5t5 -13.5q0 -12 -24 -35t-95 -80q-96 -76 -202.5 -112t-243.5 -37l-23 -25q-9 -10 -22.5 -15t-32.5 -5h-46q-11 0 -16.5 3t-5.5 7q0 1 1.5 5.5t4.5 10.5zM1127 615q2 -42 2.5 -61t0.5 -36q0 -89 -13.5 -175t-41.5 -169q217 245 453.5 545
t275.5 344q84 93 175 182t190 174q-100 -6 -279 -128t-413 -345z" />
    <glyph glyph-name="B" unicode="B" horiz-adv-x="1954" 
d="M1686 774q-21 6 -41.5 9t-42.5 3q-47 0 -78 -16.5t-31 -40.5q0 -12 13 -21.5t30 -9.5q31 0 65.5 17.5t84.5 58.5zM1860 1303q-162 -133 -420 -509q-86 -124 -131 -188q-220 -306 -429 -461t-401 -155q-127 0 -209 67.5t-82 169.5q0 61 34.5 99.5t88.5 38.5q41 0 65.5 -24
t24.5 -62q0 -37 -24 -58.5t-66 -21.5q-7 0 -23.5 3t-25.5 3q-6 -1 -8 -5t-2 -14q0 -50 61 -96.5t136 -46.5q133 0 314.5 156t483.5 536l7 9q338 428 567 608q-62 51 -136 74.5t-172 23.5q-162 0 -327 -54t-328 -161q-181 -118 -287 -258t-106 -258q0 -74 43.5 -119
t114.5 -45q117 0 276.5 111t286.5 288q41 58 67 127.5t39 69.5q9 0 14 -8t5 -21q0 -53 -47 -155.5t-121 -196.5q-101 -126 -238.5 -200t-267.5 -74q-103 0 -164 59.5t-61 159.5q0 113 78.5 237t226.5 244q182 147 383 224t403 77q115 0 202 -27.5t159 -85.5q55 38 96 59
t57 21q12 0 18.5 -5t6.5 -15q0 -13 -47.5 -42t-83.5 -61q41 -59 60.5 -114t19.5 -111q0 -96 -52.5 -182t-160.5 -166q31 -39 46 -81.5t15 -90.5q0 -103 -57.5 -210.5t-169.5 -213.5q-103 -97 -213 -148t-217 -51q-69 0 -112.5 40t-43.5 104q0 65 51 143t148 160
q73 61 147.5 102t97.5 41q11 0 18 -5.5t7 -14.5q0 -17 -57 -48q-45 -24 -74 -42q-134 -85 -211.5 -175.5t-77.5 -160.5q0 -43 28 -67.5t77 -24.5q59 0 132 47t169 147q132 138 203 255.5t71 197.5q0 22 -5 39t-15 30q-73 -50 -118.5 -71t-80.5 -21q-43 0 -69.5 20.5
t-26.5 53.5q0 48 46.5 77t123.5 29q24 0 51.5 -4t60.5 -12q81 85 125.5 187t44.5 200q0 29 -7.5 53t-24.5 50z" />
    <glyph glyph-name="C" unicode="C" horiz-adv-x="1450" 
d="M803 778q217 57 396.5 147t313.5 210q97 85 152 159t55 115q0 21 -13.5 31t-43.5 10q-143 0 -384 -184t-476 -488zM586 729q140 183 303 333t350 269q128 81 240.5 125.5t187.5 44.5q58 0 86.5 -25.5t28.5 -76.5q0 -172 -288.5 -369t-750.5 -323q-131 -170 -195.5 -294
t-64.5 -206t53.5 -128t147.5 -46q73 0 158.5 45.5t193.5 142.5q83 75 122.5 127t39.5 86q0 32 -15.5 46t-49.5 14q-56 0 -138 -42.5t-161 -113.5q-51 -45 -100.5 -110.5t-63.5 -65.5q-7 0 -11.5 5t-5.5 13q0 16 26 55t66 80q105 110 206.5 167t191.5 57q60 0 92.5 -34.5
t32.5 -96.5q0 -74 -57 -158.5t-154 -151.5q-84 -58 -174.5 -88t-180.5 -30q-139 0 -215.5 73.5t-76.5 208.5q0 89 31.5 188.5t93.5 204.5q-133 -28 -227 -43.5t-134 -15.5q-17 0 -27.5 6t-11.5 16q0 24 159 50.5t292 60.5z" />
    <glyph glyph-name="D" unicode="D" horiz-adv-x="1821" 
d="M811 57q34 -10 70 -15t75 -5q133 0 257 47t231 139q169 145 266.5 338t97.5 379q0 49 -7.5 97t-22.5 96q-68 -71 -185 -264t-178 -281q-151 -218 -294.5 -343.5t-309.5 -187.5zM600 51q-114 35 -209 53.5t-158 18.5q-27 0 -43 -8t-16 -21q0 -28 70.5 -44.5t191.5 -16.5
q55 0 94 4.5t70 13.5zM707 25q-78 -21 -147.5 -31t-129.5 -10q-151 0 -230 30.5t-79 87.5q0 36 30 54t89 18q69 0 168.5 -19t289.5 -71q116 44 244.5 158.5t284.5 312.5q44 57 128 169q248 333 398 454q-60 122 -167 188t-249 66q-124 0 -255 -53t-251 -152
q-130 -109 -210 -233.5t-80 -211.5q0 -70 49 -113.5t129 -43.5q152 0 308 124.5t253 327.5q21 45 37 102.5t31 57.5q11 0 16.5 -6t5.5 -19q0 -43 -35 -129t-90 -163q-112 -160 -250.5 -251t-265.5 -91q-114 0 -181 68.5t-67 184.5q0 88 41.5 183t118.5 186
q118 140 283 214.5t356 74.5q175 0 299.5 -68t212.5 -211q67 46 117.5 72.5t70.5 26.5q9 0 17 -7t8 -16q0 -8 -65 -41.5t-121 -83.5q16 -55 24 -110.5t8 -112.5q0 -156 -61 -310.5t-180 -299.5q-139 -168 -301 -254t-340 -86q-42 0 -95 7t-167 30z" />
    <glyph glyph-name="E" unicode="E" horiz-adv-x="1327" 
d="M831 856q32 -36 66 -54t72 -18q24 0 39.5 11.5t15.5 27.5q0 21 -22 33t-60 12q-27 0 -53.5 -3t-57.5 -9zM759 895q-3 17 -5 36t-2 38q0 74 32.5 147t92.5 131q120 119 278.5 187.5t310.5 68.5q113 0 175.5 -53.5t62.5 -151.5q0 -88 -58.5 -172t-164.5 -147
q-72 -42 -152 -68t-123 -26q-6 0 -12 7t-6 15q0 17 55 36.5t92 39.5q136 75 223 176t87 176q0 53 -41 83t-113 30q-101 0 -241 -77.5t-267 -207.5q-85 -86 -125.5 -147t-40.5 -103v-3q21 2 41 3.5t39 1.5q94 0 136 -21.5t42 -70.5q0 -38 -31 -61t-83 -23q-50 0 -94.5 25
t-84.5 76q-90 -35 -181 -102t-183 -167q-89 -96 -132.5 -179.5t-43.5 -155.5q0 -86 65 -143.5t162 -57.5q93 0 196 49.5t232 157.5q81 68 119.5 116t38.5 80q0 27 -21 42.5t-57 15.5q-74 0 -166.5 -43.5t-185.5 -122.5q-41 -34 -84 -82.5t-60 -48.5q-8 0 -12 6t-4 16
q0 14 36 55.5t93 90.5q92 79 196 126.5t181 47.5q64 0 100.5 -35t36.5 -96q0 -50 -24 -102.5t-70 -102.5q-99 -108 -233 -169t-275 -61q-158 0 -249 91t-91 247q0 210 160 368t433 214z" />
    <glyph glyph-name="F" unicode="F" horiz-adv-x="1561" 
d="M1255 748q-259 -60 -470 -176q-36 -19 -42 -19q-8 0 -14 5.5t-6 12.5q0 38 146 101.5t446 154.5q146 224 269.5 365t166.5 141q8 0 12 -3.5t4 -10.5q0 -8 -37 -55q-148 -187 -251 -396q115 27 229.5 70t124.5 43q17 0 26 -6t9 -17q0 -16 -58 -61t-92 -94
q-24 -36 -48 -82.5t-38 -46.5q-24 0 -39.5 8.5t-15.5 22.5q0 16 29 61.5t77 101.5q-51 -12 -109 -29.5t-142 -45.5q-250 -413 -494 -612t-498 -199q-145 0 -231 65t-86 172q0 61 34.5 100t88.5 39q40 0 65 -24.5t25 -63.5q0 -37 -24.5 -58.5t-65.5 -21.5q-7 0 -23 3.5
t-24 3.5q-7 -1 -9.5 -5t-3.5 -14q0 -56 67 -99.5t163 -43.5q159 0 329 137.5t510 575.5zM1315 1229q0 -26 -28.5 -88t-72.5 -121q-94 -128 -209 -195t-239 -67q-118 0 -188 69.5t-70 186.5q0 213 206 348t541 135q154 0 465 -47l13 -2q38 -6 109 -17q248 -38 315 -38
q74 0 155 21q18 5 23 5q8 0 14 -4.5t6 -11.5q0 -29 -72 -57.5t-167 -28.5q-42 0 -86.5 5t-87.5 15q-25 6 -74 18q-388 95 -578 95q-148 0 -269 -36t-214 -107q-116 -89 -174 -169t-58 -153q0 -77 56 -125.5t145 -48.5q117 0 226.5 74t203.5 217q24 37 49.5 93t40.5 56
q9 0 14 -6t5 -16z" />
    <glyph glyph-name="G" unicode="G" horiz-adv-x="1413" 
d="M813 713q167 34 333 112.5t312 192.5q150 117 248 230.5t98 158.5q0 22 -17.5 34.5t-47.5 12.5q-155 0 -421 -206.5t-505 -534.5zM705 688q19 141 154 303t355 305q144 94 284 147.5t235 53.5q60 0 92.5 -28t32.5 -80q0 -66 -58 -145t-178 -177q-200 -161 -410 -265.5
t-428 -150.5q-13 -31 -18.5 -52.5t-5.5 -37.5q0 -52 35.5 -83.5t95.5 -31.5q62 0 157.5 42.5t204.5 119.5q13 9 39 28q175 124 250 195l8 8q32 33 58 33q8 0 12 -3.5t4 -10.5q0 -31 -55 -74q-13 -10 -21 -16q-59 -49 -182 -208q-35 -45 -53 -68q-7 -9 -22 -28
q-185 -234 -341 -329q-133 -80 -268 -117.5t-291 -37.5q-196 0 -300.5 61.5t-104.5 177.5q0 61 34.5 100t88.5 39q39 0 64.5 -24.5t25.5 -63.5q0 -37 -24.5 -58.5t-65.5 -21.5q-7 0 -23 3.5t-25 3.5q-6 -1 -9 -5.5t-3 -13.5q0 -64 89 -105.5t235 -41.5q207 0 386 103
t355 325q-74 -32 -128.5 -47t-96.5 -15q-93 0 -144 55.5t-51 157.5v27q-57 -8 -126 -12t-156 -4h-74q-23 0 -35 6t-12 18q0 11 11.5 17t33.5 6h57q107 0 180.5 5t131.5 15z" />
    <glyph glyph-name="H" unicode="H" horiz-adv-x="1554" 
d="M915 602q-378 -74 -624 -208.5t-246 -250.5q0 -51 39.5 -80.5t108.5 -29.5q152 0 332 142t390 427zM1118 647q-217 -318 -454.5 -489.5t-458.5 -171.5q-101 0 -157 46t-56 130q0 156 232 277t743 229q86 115 165.5 212t157.5 183q-63 -43 -117 -63.5t-102 -20.5
q-59 0 -91 27t-32 77q0 72 126 168q18 13 28 21q41 31 55 48t14 32t-11.5 22.5t-33.5 7.5q-69 0 -169 -49.5t-199 -134.5q-23 -19 -57 -54.5t-48 -35.5q-6 0 -10 4.5t-4 11.5q0 20 29 54t82 75q108 86 215.5 134.5t183.5 48.5q57 0 88 -26t31 -75q0 -30 -16.5 -59t-49.5 -55
q-16 -13 -47 -36q-113 -87 -113 -132q0 -12 12 -18.5t33 -6.5q59 0 137.5 48.5t256.5 207.5q53 48 123.5 118.5t87.5 70.5q6 0 11 -5t5 -12q0 -2 -182 -236.5t-361 -506.5l312 67q293 372 496.5 546.5t342.5 174.5q57 0 88 -33.5t31 -95.5q0 -176 -218 -340.5t-599 -269.5
l-430 -582q-38 -50 -50 -74t-12 -43q0 -15 13 -22.5t39 -7.5q48 0 130.5 41.5t172.5 113.5q40 33 95 82t66 49q9 0 14 -4.5t5 -11.5q0 -13 -31.5 -44.5t-103.5 -90.5q-114 -94 -206 -140t-169 -46q-56 0 -87.5 27.5t-31.5 76.5q0 113 289 495q64 85 98 132zM1669 827
q167 48 293 112.5t227 154.5q93 82 146 159t53 127q0 37 -18.5 56.5t-53.5 19.5q-106 0 -262 -151.5t-385 -477.5z" />
    <glyph glyph-name="I" unicode="I" horiz-adv-x="1456" 
d="M1098 543q-46 34 -71.5 91.5t-25.5 125.5q0 110 71 227.5t190 202.5q168 121 354.5 184.5t394.5 71.5q60 25 89 35t42 10q17 0 26 -7t9 -20q0 -21 -55 -33.5t-94 -35.5q-265 -156 -737 -827l-29 -41q8 -2 16 -2.5t25 -0.5q86 0 163.5 46t149.5 139q40 50 73 120t48 70
q8 0 14 -5t6 -11q0 -24 -28 -78t-78 -125q-70 -96 -165.5 -151.5t-193.5 -55.5q-13 0 -30 1.5t-35 4.5q-200 -243 -436 -371t-484 -128q-162 0 -254 62.5t-92 172.5q0 63 35.5 103t89.5 40q40 0 65 -24.5t25 -63.5q0 -37 -23.5 -58.5t-64.5 -21.5q-7 0 -24 3.5t-25 3.5
q-6 0 -8 -4.5t-2 -16.5q0 -62 75.5 -101.5t198.5 -39.5q201 0 394.5 123.5t400.5 384.5zM1126 582q296 371 495 563t359 266q-161 -11 -311 -77.5t-299 -192.5q-144 -123 -225.5 -239.5t-81.5 -196.5q0 -38 15 -67t48 -56z" />
    <glyph glyph-name="J" unicode="J" horiz-adv-x="860" 
d="M752 702q260 313 450 485.5t354 248.5q-173 -33 -316 -93t-261 -149q-135 -103 -208 -206.5t-73 -192.5q0 -33 13 -55t41 -38zM721 659q-53 42 -76.5 88t-23.5 105q0 127 96.5 242.5t283.5 212.5q134 69 292 109.5t334 50.5q23 15 46 22.5t47 7.5q19 0 28 -6t9 -18
q0 -16 -34.5 -26t-99.5 -13q-135 -62 -328 -261t-429 -518q15 -4 30.5 -6t31.5 -2q57 0 120 28t121 79q45 39 89 100t61 61q8 0 14 -5t6 -11q0 -11 -30.5 -55.5t-71.5 -85.5q-78 -78 -161 -117t-173 -39q-19 0 -37.5 2t-36.5 6q-90 -115 -197.5 -248.5t-250.5 -308.5
q138 16 234 49.5t176 94.5q44 32 92.5 74t56.5 42q7 0 11.5 -5t4.5 -13q0 -20 -114 -110l-11 -9q-96 -77 -212.5 -118t-272.5 -52q-235 -291 -417 -433t-320 -142q-70 0 -108 34.5t-38 98.5q0 159 205 291t537 176q103 128 230 283t286 345zM164 -20q-111 -14 -219.5 -57
t-216.5 -116q-104 -68 -156.5 -129.5t-52.5 -113.5q0 -44 25.5 -67t72.5 -23q84 0 196 100t351 406z" />
    <glyph glyph-name="K" unicode="K" horiz-adv-x="1571" 
d="M1180 1018q-64 -42 -116.5 -62t-100.5 -20q-60 0 -91.5 26.5t-31.5 75.5q0 68 125 161q17 13 26 20q39 27 54.5 46.5t15.5 37.5q0 13 -11.5 20.5t-31.5 7.5q-68 0 -170 -49t-201 -131q-23 -19 -56 -54.5t-46 -35.5q-5 0 -10.5 5t-6.5 11q0 19 29 51.5t84 73.5
q106 83 214 130.5t183 47.5q59 0 90 -25t31 -73q0 -29 -16 -56t-49 -55q-19 -15 -54 -40q-108 -81 -108 -123q0 -11 11.5 -17t33.5 -6q53 0 133 45.5t272 194.5q58 45 130.5 109.5t86.5 64.5q10 0 15.5 -4t5.5 -11q0 -13 -125 -140t-229 -259q-97 -124 -262 -357t-242 -315
q-155 -166 -304 -248.5t-292 -82.5q-119 0 -200 69t-81 168q0 61 34.5 99t88.5 38q41 0 65.5 -24t24.5 -64q0 -37 -24 -58.5t-66 -21.5q-7 0 -22.5 3.5t-24.5 3.5q-7 -1 -9.5 -5t-2.5 -14q0 -51 61 -96t135 -45q75 0 162.5 54t233.5 196q81 80 292 331t347 402zM1335 663
q-27 -9 -53 -13.5t-53 -4.5q-50 0 -78.5 18t-28.5 50q0 31 22.5 48t61.5 17q40 0 78 -16.5t70 -48.5q143 49 388 297q128 129 202 192q127 111 240 176.5t169 65.5q13 0 21 -5t8 -14q0 -16 -60 -38.5t-102 -51.5q-58 -41 -198 -178q-91 -89 -144 -139
q-168 -157 -277.5 -230.5t-224.5 -115.5q6 -24 9.5 -45.5t3.5 -38.5q0 -58 -31 -120t-111 -159q-30 -36 -87 -92q-87 -86 -87 -129q0 -28 21 -45.5t55 -17.5q56 0 133.5 35.5t179.5 107.5q61 42 121.5 93.5t67.5 51.5t11.5 -5t4.5 -13q0 -15 -40.5 -52t-115.5 -91
q-118 -88 -207 -129t-159 -41q-62 0 -99.5 37t-37.5 98q0 57 34.5 125.5t98.5 136.5q29 31 82 83q116 116 116 169q0 9 -3 28q0 3 -1 4zM1308 694q-26 22 -52 32.5t-54 10.5q-16 0 -26.5 -6.5t-10.5 -15.5q0 -15 16 -23t44 -8q22 0 43 2.5t40 7.5z" />
    <glyph glyph-name="L" unicode="L" horiz-adv-x="1231" 
d="M307 70q-133 38 -239.5 56.5t-188.5 18.5q-48 0 -79 -12.5t-31 -30.5q0 -36 68 -55.5t196 -19.5q64 0 132 10.5t142 32.5zM1198 774q241 88 412.5 200t287.5 259q39 48 60.5 93t21.5 75t-15.5 43.5t-51.5 13.5q-132 0 -317 -176.5t-398 -507.5zM1141 694
q-178 -273 -341 -418t-351 -202q77 -23 141.5 -34t114.5 -11q126 0 239 44.5t252 151.5q22 17 55 45q48 41 62 41q6 0 10 -4.5t4 -11.5q0 -12 -25 -36.5t-98 -82.5q-138 -108 -248 -150t-239 -42q-80 0 -162 16t-170 49q-84 -33 -173.5 -49t-186.5 -16q-149 0 -227.5 29
t-78.5 85q0 47 46.5 69.5t140.5 22.5q93 0 210 -23.5t249 -70.5q143 69 282 199.5t289 339.5l-268 -55l-21 -5q-81 -16 -94 -16q-18 0 -27.5 5t-9.5 14q0 23 166.5 52t308.5 68q299 403 529 604t391 201q59 0 90 -28.5t31 -83.5q0 -156 -238.5 -343.5t-652.5 -353.5z" />
    <glyph glyph-name="M" unicode="M" horiz-adv-x="1538" 
d="M1217 1049l-670 -668l-12 -11q-381 -382 -508 -382q-75 0 -116.5 42t-41.5 117t49 127t119 52q46 0 73 -25t27 -68q0 -39 -23 -63.5t-61 -24.5q-27 0 -62 17.5t-44 17.5q-12 0 -20.5 -14.5t-8.5 -36.5q0 -43 29.5 -69.5t77.5 -26.5q49 0 101 29.5t118 95.5l1280 1269
l18 18q54 52 78 52q8 0 11 -2t3 -6q0 -13 -9.5 -31.5t-31.5 -48.5l-940 -1248l-3 -3q-23 -30 -23 -45q0 -6 2 -8.5t8 -2.5q11 0 21 5.5t26 19.5l1307 1274l13 13q54 54 81 54q8 0 11 -1.5t3 -6.5q0 -13 -8.5 -30t-32.5 -48l-719 -917q-112 -143 -179.5 -251.5t-67.5 -141.5
q0 -16 14 -27.5t35 -11.5q45 0 137.5 46.5t196.5 123.5q39 29 86.5 69.5t56.5 40.5q7 0 11.5 -5t4.5 -13q0 -19 -108 -105l-13 -10q-123 -97 -223.5 -146.5t-175.5 -49.5q-62 0 -98.5 32.5t-36.5 87.5q0 56 48 135.5t192 247.5l434 512l-776 -766q-145 -142 -217 -195.5
t-115 -53.5q-33 0 -49.5 18.5t-16.5 54.5q0 50 38 118.5t120 166.5z" />
    <glyph glyph-name="N" unicode="N" horiz-adv-x="1546" 
d="M1325 1262q-183 -191 -441.5 -529t-361.5 -452q-128 -144 -255 -218.5t-242 -74.5q-100 0 -162 49t-62 129q0 66 49.5 114t116.5 48q47 0 75 -24t28 -64q0 -41 -25 -63.5t-70 -22.5q-27 0 -60 16t-42 16q-11 0 -18 -10t-7 -26q0 -47 51 -81t126 -34q65 0 134.5 27.5
t145.5 82.5q162 119 575 660q74 96 113 147q189 245 329.5 396t176.5 151q5 0 7.5 -2.5t2.5 -7.5q0 -17 -51.5 -123.5t-79.5 -206.5q-16 -61 -48 -194q-112 -469 -249 -738l455 555q300 366 506 550t317 184q19 0 29 -6.5t10 -18.5q0 -17 -42.5 -28t-69.5 -23
q-124 -57 -279.5 -202.5t-361.5 -399.5l-629 -770q-38 -47 -60.5 -66.5t-35.5 -19.5q-8 0 -12.5 5.5t-4.5 14.5q0 8 24.5 53.5t41.5 85.5q47 115 90 296q8 34 12 50l5 20q105 430 249 755z" />
    <glyph glyph-name="O" unicode="O" horiz-adv-x="1366" 
d="M1540 940q-15 -5 -42 -15q-69 -24 -83 -24q-11 0 -17.5 4.5t-6.5 12.5q0 19 51.5 38.5t84.5 40.5q-9 47 -43 72t-87 25q-116 0 -316 -129t-385 -334q-83 -93 -154.5 -205.5t-86.5 -112.5q-7 0 -11 6t-4 15q0 35 62.5 141t156.5 217q186 222 367.5 337.5t343.5 115.5
q80 0 131 -29.5t74 -89.5q91 56 139.5 125.5t48.5 144.5q0 72 -55 114t-147 42q-131 0 -318.5 -104.5t-398.5 -296.5q-251 -229 -406 -460t-155 -358q0 -97 61.5 -150.5t173.5 -53.5q137 0 344 114.5t387 298.5q144 147 216.5 271.5t74.5 226.5zM1589 965v-11
q0 -93 -55 -205t-166 -241q-97 -113 -206 -207t-228 -168q-120 -75 -224.5 -113t-189.5 -38q-142 0 -219.5 77t-77.5 217q0 166 91.5 349.5t260.5 357.5q238 244 499.5 381t481.5 137q120 0 190.5 -60t70.5 -161q0 -93 -57 -172t-171 -143z" />
    <glyph glyph-name="P" unicode="P" horiz-adv-x="1659" 
d="M1366 606q13 -2 23 -3t18 -1q64 0 138 33.5t145 95.5q114 100 178.5 211t64.5 205q0 36 -11 67.5t-36 63.5q-77 -54 -203 -216.5t-317 -455.5zM1325 559q-190 -287 -414 -432t-479 -145q-170 0 -268 65.5t-98 177.5q0 62 34.5 101t87.5 39q41 0 67 -25.5t26 -63.5
q0 -36 -24.5 -57.5t-66.5 -21.5q-6 0 -23 3t-26 3q-5 0 -7.5 -4.5t-2.5 -14.5q0 -60 77 -104.5t193 -44.5q187 0 367 128t440 460q-20 22 -30.5 47t-10.5 55q0 62 47 112t99 50q14 0 23.5 -6.5t9.5 -16.5q0 -16 -47 -33q-14 -5 -22 -8q-30 -12 -47.5 -38t-17.5 -60
q0 -18 8 -33.5t21 -25.5l28 34q384 478 574 623q-89 65 -193 97t-229 32q-193 0 -387.5 -66.5t-361.5 -189.5q-137 -101 -210 -210.5t-73 -211.5q0 -77 56.5 -127.5t146.5 -50.5q121 0 263.5 96t264.5 262q60 82 101 176.5t53 94.5q5 0 7.5 -6.5t2.5 -22.5q0 -50 -27 -131
t-69 -150q-111 -178 -260.5 -273t-319.5 -95q-121 0 -194.5 63t-73.5 166q0 111 78 229t223 226q174 128 377.5 197t406.5 69q135 0 249.5 -37.5t213.5 -113.5q59 42 107 68t63 26q12 0 18.5 -4t6.5 -11q0 -15 -59 -48.5t-103 -67.5q44 -44 66 -104.5t22 -137.5
q0 -117 -52 -216.5t-157 -180.5q-75 -59 -168 -91t-186 -32q-25 0 -55.5 3t-65.5 9z" />
    <glyph glyph-name="Q" unicode="Q" horiz-adv-x="1446" 
d="M563 51q-96 -34 -182 -51.5t-160 -17.5q-115 0 -175 29t-60 85q0 44 38.5 66t114.5 22q72 0 172 -19t240 -61q531 225 843 514.5t312 544.5q0 134 -110.5 213.5t-299.5 79.5q-164 0 -318 -61.5t-298 -184.5q-107 -92 -170.5 -205.5t-63.5 -211.5q0 -99 60.5 -156
t165.5 -57q129 0 261.5 104.5t231.5 288.5q35 64 60 144.5t43 80.5q7 0 10.5 -10.5t3.5 -32.5q0 -59 -26.5 -146t-71.5 -169q-74 -138 -211.5 -224t-282.5 -86q-134 0 -213.5 71t-79.5 192q0 84 37.5 174t108.5 176q141 169 340.5 263.5t412.5 94.5q237 0 369.5 -109.5
t132.5 -304.5q0 -274 -282.5 -519.5t-878.5 -485.5q76 -28 148 -41.5t137 -13.5q116 0 228.5 42t231.5 132q42 31 88.5 71.5t55.5 40.5q7 0 11.5 -5t4.5 -13q0 -19 -141 -132l-17 -13q-101 -81 -221.5 -124.5t-238.5 -43.5q-72 0 -161.5 17t-199.5 52zM483 76l-19 4
q-214 51 -339 51q-40 0 -64 -11.5t-24 -29.5q0 -30 46 -44.5t142 -14.5q56 0 120 11t138 34z" />
    <glyph glyph-name="R" unicode="R" horiz-adv-x="1681" 
d="M1456 569q-8 -1 -16 -1.5t-23 -0.5q-49 0 -75.5 18.5t-26.5 53.5q0 20 17 35.5t40 15.5q32 0 58.5 -13t48.5 -40q56 2 119 41.5t131 114.5q86 96 132 190.5t46 173.5q0 51 -17.5 93.5t-54.5 78.5q-58 -47 -120 -114t-148 -179q-100 -128 -245 -341.5t-204 -280.5
q-191 -220 -387 -327t-405 -107q-159 0 -251.5 59t-92.5 158q0 58 39 98.5t94 40.5q42 0 71 -27.5t29 -66.5q0 -34 -21 -53t-59 -19q-17 0 -45.5 11.5t-42.5 11.5q-7 0 -10.5 -5t-3.5 -14q0 -57 77 -101t183 -44q88 0 168.5 21.5t154.5 66.5q82 49 185.5 154t277.5 319
q48 59 140 175q355 448 567 599q-79 46 -168.5 69t-192.5 23q-192 0 -387.5 -66.5t-361.5 -189.5q-136 -101 -209.5 -210.5t-73.5 -211.5q0 -78 57 -129t146 -51q120 0 263 96.5t265 263.5q60 82 101 175.5t53 93.5q6 0 9 -6.5t3 -20.5q0 -48 -27.5 -129.5t-70.5 -150.5
q-111 -179 -259.5 -274t-318.5 -95q-121 0 -195.5 63.5t-74.5 165.5q0 111 78 229t223 226q174 128 378 197t407 69q110 0 209 -26.5t190 -79.5q70 40 98 52.5t43 12.5q8 0 14.5 -4t6.5 -10q0 -17 -55 -50q-36 -21 -58 -36q60 -60 89.5 -123t29.5 -131q0 -194 -128.5 -336.5
t-352.5 -189.5q10 -27 15 -52t5 -49q0 -50 -23.5 -102t-74.5 -113q-40 -47 -106 -115t-66 -88q0 -11 8 -17.5t22 -6.5q47 0 132.5 43.5t187.5 120.5q42 31 89 71.5t54 40.5q8 0 12 -4.5t5 -13.5q0 -12 -26.5 -38.5t-92.5 -78.5q-110 -88 -209.5 -138t-161.5 -50
q-58 0 -86.5 25t-28.5 77q0 73 122 198q41 42 63 66q61 67 83.5 105.5t22.5 70.5q0 10 -1.5 19t-4.5 18z" />
    <glyph glyph-name="S" unicode="S" horiz-adv-x="1309" 
d="M1350 774q186 66 341.5 165.5t276.5 229.5q71 75 110.5 137.5t39.5 98.5q0 27 -12 38t-42 11q-133 0 -327 -182.5t-387 -497.5zM1077 633q-131 -32 -254.5 -49t-216.5 -17q-23 0 -35 6t-12 17q0 18 194 37.5t380 74.5q296 399 528 598t399 199q57 0 86 -27t29 -79
q0 -156 -247.5 -356.5t-641.5 -344.5q-219 -346 -490 -528t-567 -182q-178 0 -276 61.5t-98 171.5q0 59 36.5 98t92.5 39q43 0 69.5 -24t26.5 -64q0 -36 -25.5 -56t-70.5 -20q-11 0 -31 5.5t-29 5.5q-6 0 -9 -5t-3 -16q0 -59 87.5 -105t213.5 -46q97 0 187 23.5t171 70.5
q96 56 206.5 166.5t299.5 345.5z" />
    <glyph glyph-name="T" unicode="T" horiz-adv-x="1456" 
d="M414 35q177 0 384 182t509 608q174 248 287.5 378t154.5 130q8 0 12 -3.5t4 -10.5q0 -3 -75 -104t-146 -218q-20 -34 -61 -101q-302 -504 -512 -687q-129 -112 -264 -169.5t-269 -57.5q-145 0 -231 65t-86 172q0 61 34.5 100t88.5 39q40 0 65 -24.5t25 -63.5
q0 -37 -24.5 -58.5t-65.5 -21.5q-7 0 -23 3.5t-24 3.5q-7 -1 -9.5 -5t-3.5 -14q0 -56 67 -99.5t163 -43.5zM1313 1229q0 -27 -28 -88.5t-71 -120.5q-94 -128 -209 -195t-239 -67q-118 0 -189 69.5t-71 186.5q0 213 206 348t541 135q154 0 465 -47l13 -2q36 -6 102 -16
q256 -39 324 -39q74 0 155 22q16 4 21 4q9 0 15.5 -5t6.5 -11q0 -29 -72 -57.5t-167 -28.5q-42 0 -86.5 5t-87.5 15q-24 6 -69 17q-393 96 -585 96q-148 0 -268 -35.5t-213 -107.5q-117 -90 -175.5 -170t-58.5 -152q0 -76 57 -125t146 -49q117 0 226.5 74t203.5 217
q25 38 49.5 93.5t38.5 55.5q9 0 14 -6t5 -16z" />
    <glyph glyph-name="U" unicode="U" horiz-adv-x="1722" 
d="M1274 250q-159 -138 -265.5 -204t-170.5 -66q-48 0 -75.5 28t-27.5 78q0 110 173 299l8 9l144 158q213 234 241 272l1 1q152 196 152 330q0 130 -114.5 214.5t-295.5 84.5q-133 0 -263 -43t-242 -125q-111 -80 -174.5 -180t-63.5 -193q0 -88 56.5 -146t142.5 -58
q110 0 256.5 91t253.5 234q46 62 77.5 136.5t47.5 74.5q6 0 9 -6.5t3 -34.5q0 -50 -33.5 -129t-87.5 -147q-104 -132 -234 -201.5t-272 -69.5q-119 0 -192.5 72t-73.5 189q0 78 38.5 159t113.5 158q120 125 290.5 195.5t352.5 70.5q212 0 339.5 -109t127.5 -290
q0 -235 -459 -757l-39 -44q-27 -30 -75 -82q-112 -120 -112 -162q1 -11 10 -16.5t27 -5.5q41 0 171.5 88.5t246.5 210.5l615 645q55 57 75.5 73.5t32.5 16.5q21 0 42.5 -21.5t21.5 -39.5q0 -12 -119 -133t-219 -234q-203 -227 -324 -385.5t-121 -194.5q0 -16 7 -23t22 -7
q47 0 121 34.5t174 102.5q60 42 120 93.5t68 51.5t12 -4.5t5 -13.5q0 -20 -106 -105l-7 -6q-116 -94 -222 -149t-163 -55q-48 0 -74 25.5t-26 74.5q0 29 12.5 70.5t40.5 99.5z" />
    <glyph glyph-name="V" unicode="V" horiz-adv-x="1165" 
d="M485 111q284 152 772 764l4 5l37 46q305 384 449 485q46 33 93 54.5t65 21.5q11 0 18.5 -6.5t7.5 -16.5q0 -13 -40.5 -28.5t-65.5 -30.5q-154 -93 -469 -483l-56 -68q-26 -32 -77 -96q-307 -381 -490 -533q-125 -104 -237 -173.5t-142 -69.5q-11 0 -14.5 2.5t-3.5 9.5
q0 18 55 84.5t90 120.5q70 107 209.5 410.5t237.5 480.5q-58 -52 -119 -81.5t-111 -29.5q-46 0 -74 28t-28 74q0 66 107 178q12 12 18 19q21 21 33 41.5t12 34.5q0 11 -9 18.5t-24 7.5q-50 0 -133.5 -53t-169.5 -143q-39 -41 -77.5 -98.5t-49.5 -57.5q-8 0 -13 4t-5 10
q0 29 35 80.5t98 112.5q99 97 189.5 149t158.5 52q47 0 73.5 -26t26.5 -73t-77 -133q-15 -17 -23 -26l-8 -9q-68 -77 -68 -106q0 -16 7.5 -23.5t25.5 -7.5q56 0 116 43t181 182q137 158 177.5 198t55.5 40q8 0 12.5 -4.5t4.5 -11.5q0 -14 -24 -40q-16 -18 -23 -28
q-84 -111 -186 -367l-5 -12q-156 -383 -275.5 -578.5t-271.5 -342.5z" />
    <glyph glyph-name="W" unicode="W" horiz-adv-x="1485" 
d="M969 1079q-56 -39 -114 -60.5t-110 -21.5q-50 0 -79 27t-29 74q0 67 121 170q14 11 22 18q30 25 45 44.5t15 33.5q0 13 -11 21t-30 8q-50 0 -137.5 -44t-176.5 -116q-43 -36 -87.5 -87.5t-55.5 -51.5q-7 0 -11.5 5t-4.5 13q0 24 42 72t111 100q102 77 192.5 118.5
t155.5 41.5q54 0 82.5 -26t28.5 -75q0 -53 -93 -133q-18 -15 -26 -22q-52 -45 -70 -69.5t-18 -47.5q1 -14 8 -19t27 -5q61 0 124.5 35.5t186.5 150.5q63 58 156 148q119 114 137 114q10 0 13 -3t3 -11q0 -17 -52.5 -78.5t-84.5 -104.5q-113 -153 -224 -366q-24 -46 -34 -64
q-43 -75 -104.5 -162.5t-157.5 -207.5q72 61 305 303.5t381 390.5q126 125 239 214t136 89q11 0 17.5 -3.5t7.5 -10.5q0 -5 -64.5 -100.5t-124.5 -202.5q-22 -40 -72 -136q-191 -367 -360 -608q539 568 792.5 806.5t315.5 238.5q11 0 19 -7t8 -18q0 -12 -60 -50.5
t-104 -72.5q-198 -156 -516 -495q-76 -80 -113 -119l-156 -162q-550 -573 -592 -573q-6 0 -9 4.5t-3 13.5q0 15 89 128.5t161 227.5q12 19 194 343t367 575q-197 -175 -470.5 -462t-350.5 -361q-211 -206 -366.5 -337.5t-182.5 -131.5q-7 0 -12.5 5t-5.5 13q0 15 84.5 100
t148.5 158q82 94 190 257t347 564z" />
    <glyph glyph-name="X" unicode="X" horiz-adv-x="1716" 
d="M1186 401q-215 -215 -395 -318t-338 -103q-129 0 -209 59t-80 154q0 62 38.5 104.5t94.5 42.5q46 0 74 -26.5t28 -69.5q0 -38 -21 -60t-56 -22q-23 0 -52.5 15.5t-40.5 15.5q-9 -1 -13.5 -8t-4.5 -21q0 -53 71 -95t173 -42q139 0 301.5 109t355.5 333
q222 256 336.5 444.5t114.5 296.5q0 113 -88 182.5t-232 69.5q-131 0 -259 -41t-251 -123q-153 -102 -243.5 -228t-90.5 -232q0 -94 59.5 -148.5t162.5 -54.5q139 0 297.5 116.5t261.5 299.5q38 67 64 144t38 77q4 0 8 -8t4 -19q0 -9 -2 -23.5t-6 -33.5
q-18 -87 -41.5 -154.5t-48.5 -107.5q-98 -161 -240.5 -247.5t-306.5 -86.5q-140 0 -215.5 64t-75.5 184q0 103 62.5 209.5t187.5 216.5q133 115 306.5 181t345.5 66q162 0 261 -91t99 -240q0 -51 -12 -112t-37 -136q254 297 422.5 427t296.5 130q73 0 112 -36.5t39 -104.5
q0 -56 -26 -88.5t-70 -32.5q-32 0 -53 20t-21 49q0 41 33 80.5t33 44.5q0 9 -17.5 16t-42.5 7q-77 0 -197.5 -80.5t-262.5 -228.5q-298 -311 -476 -580t-178 -395q0 -69 32.5 -102t98.5 -33q68 0 153 41.5t218 142.5q37 27 79.5 64.5t51.5 37.5q8 0 12 -4.5t4 -13.5
q0 -18 -89 -90l-21 -17q-137 -109 -234 -157.5t-178 -48.5q-84 0 -131 43.5t-47 121.5q0 45 18 107t56 147z" />
    <glyph glyph-name="Y" unicode="Y" horiz-adv-x="1655" 
d="M1446 557q-128 -111 -235.5 -168t-188.5 -57q-67 0 -108.5 44t-41.5 116q0 73 45.5 148t212.5 241l13 12q252 248 252 348q0 97 -90 157t-238 60q-139 0 -279 -55t-258 -156q-85 -74 -132.5 -157.5t-47.5 -159.5q0 -80 46.5 -126t125.5 -46q97 0 228 92t239 240
q38 51 63.5 115.5t34.5 64.5q6 -1 9.5 -9t3.5 -20q0 -47 -36 -131t-93 -160q-89 -120 -196.5 -179.5t-233.5 -59.5q-105 0 -170.5 60.5t-65.5 158.5q0 82 48.5 169.5t138.5 168.5q125 112 274 171.5t303 59.5q179 0 285 -82t106 -219q0 -87 -55 -181.5t-186 -230.5
q-31 -31 -86 -85q-187 -182 -187 -259q0 -34 19.5 -50.5t60.5 -16.5q109 0 313.5 160t466.5 452q169 189 303 304.5t177 115.5q8 0 14 -5t6 -11q0 -18 -46 -45q-31 -18 -48 -31q-89 -67 -186 -179.5t-222 -295.5q-26 -39 -77 -117q-240 -366 -429 -514
q-144 -112 -303 -169.5t-325 -57.5q-173 0 -276 61t-103 162q0 62 39 104.5t96 42.5q45 0 69.5 -22t24.5 -62q0 -36 -21 -57t-57 -21q-23 0 -50.5 9.5t-33.5 9.5t-10 -8t-4 -21q0 -62 86 -108.5t213 -46.5q216 0 415.5 132t387.5 400z" />
    <glyph glyph-name="Z" unicode="Z" horiz-adv-x="1251" 
d="M909 70q-358 -72 -574 -207t-216 -279q0 -52 32.5 -80t92.5 -28q77 0 179.5 56.5t217.5 162.5q108 100 174.5 193t93.5 182zM862 262q-33 17 -62.5 25t-56.5 8q-38 0 -65 -11t-27 -24t17 -22t45 -9q38 0 76 8.5t73 24.5zM899 221q-57 -17 -97.5 -25t-72.5 -8
q-64 0 -95.5 18.5t-31.5 55.5q0 33 33.5 54.5t87.5 21.5q61 0 106 -14t80 -43q112 42 225 138.5t224 246.5q96 128 143 237.5t47 204.5q0 158 -127.5 252t-343.5 94q-139 0 -266 -46.5t-244 -139.5q-121 -96 -188.5 -214.5t-67.5 -234.5q0 -103 51 -163t140 -60
q129 0 260.5 107t226.5 292q31 60 51.5 137.5t38.5 77.5q8 0 11.5 -11t3.5 -36q0 -67 -28 -156.5t-75 -166.5q-79 -134 -203.5 -212.5t-255.5 -78.5q-122 0 -192 71t-70 195q0 95 41.5 192.5t120.5 188.5q127 145 297 224t356 79q249 0 398 -131t149 -348
q0 -232 -179.5 -434.5t-510.5 -343.5q12 -21 20 -49t11 -60q184 48 333 166q31 25 37 25q8 0 12.5 -5t4.5 -12q0 -34 -113.5 -102t-273.5 -117q-13 -127 -81 -246.5t-185 -218.5q-107 -91 -233.5 -144.5t-227.5 -53.5q-81 0 -127.5 47t-46.5 129q0 179 204 304t642 214
q0 4 1 12t1 12q0 22 -5.5 42t-15.5 36z" />
    <glyph glyph-name="bracketleft" unicode="[" horiz-adv-x="901" 
d="M1190 1419q27 37 48 48.5t67 11.5h221q21 0 29 -6t8 -21q0 -12 -9.5 -18.5t-27.5 -6.5h-154q-20 0 -29 -5.5t-22 -22.5l-1079 -1481h178q21 0 30 -6t9 -21q0 -12 -10 -18t-29 -6h-273q-24 0 -36.5 6t-12.5 18q0 8 10.5 29t26.5 43z" />
    <glyph glyph-name="backslash" unicode="\" 
d="M903 -190l-385 1687h68l385 -1687h-68z" />
    <glyph glyph-name="bracketright" unicode="]" horiz-adv-x="901" 
d="M285 -74q-27 -37 -48 -48t-67 -11h-221q-22 0 -30.5 6t-8.5 21q0 11 10 17.5t29 6.5h153q19 0 28.5 5.5t23.5 23.5l1079 1480h-178q-23 0 -31 5.5t-8 19.5q0 12 10.5 19.5t28.5 7.5h270q25 0 38 -6.5t13 -18.5q0 -7 -10.5 -28.5t-26.5 -43.5z" />
    <glyph glyph-name="asciicircum" unicode="^" horiz-adv-x="2048" 
d="M946 1462h152l534 -565h-84l-526 465l-530 -465h-80z" />
    <glyph glyph-name="underscore" unicode="_" 
d="M0 -403h1024v-80h-1024v80z" />
    <glyph glyph-name="grave" unicode="`" 
d="M846 614q0 -5 -5 -10.5t-10 -5.5q-10 0 -22.5 9t-38.5 34q-81 87 -112 138.5t-31 94.5q0 38 18.5 60t48.5 22q29 0 44.5 -18t15.5 -53q0 -3 -1 -23t-1 -37q0 -90 75 -182q19 -23 19 -29z" />
    <glyph glyph-name="a" unicode="a" horiz-adv-x="772" 
d="M264 150l230 245q13 14 20.5 28t7.5 26q0 10 -7 16t-19 6q-34 0 -89.5 -28.5t-113.5 -77.5q-95 -79 -157 -165t-62 -126q0 -14 8.5 -22.5t21.5 -8.5q27 0 70.5 28.5t89.5 78.5zM272 108q-60 -59 -111 -88.5t-91 -29.5q-42 0 -65 31t-23 88q0 67 32 128t99 119
q86 77 185 122.5t175 45.5q43 0 63 -16t23 -53q14 16 32.5 31.5t41.5 29.5q8 0 23 1t22 1q35 0 50 -5.5t15 -18.5q0 -12 -46 -53q-25 -22 -40 -35q-134 -127 -210 -216.5t-76 -121.5q0 -13 5.5 -18t20.5 -5q44 0 130 42.5t182 115.5q40 30 86 70t55 40q7 0 11.5 -5t4.5 -13
q0 -18 -112 -109l-5 -4q-111 -89 -212.5 -139.5t-165.5 -50.5q-46 0 -73.5 25.5t-27.5 68.5q0 9 0.5 13.5t1.5 8.5z" />
    <glyph glyph-name="b" unicode="b" horiz-adv-x="821" 
d="M594 281q72 80 102.5 123.5t30.5 64.5q0 4 -4.5 7t-11.5 3q-43 0 -86 -49.5t-43 -101.5q0 -8 3 -20.5t9 -26.5zM256 414q-65 -48 -137 -109t-82 -61q-6 0 -9 4.5t-3 13.5q0 16 75 79t248 191l576 674q13 15 23.5 20t27.5 5q32 0 53 -7.5t21 -19.5q-1 -11 -15 -28
q-3 -3 -4 -5l-637 -741q-126 -147 -170.5 -219t-44.5 -121q0 -14 13.5 -24.5t31.5 -10.5q52 0 140 50t196 141q-14 24 -21.5 45.5t-7.5 40.5q0 72 56 132t125 60q28 0 44.5 -15t16.5 -40q0 -33 -30.5 -81.5t-110.5 -137.5q15 -11 32 -16t37 -5q74 0 137 42t64 42
q8 0 12 -3.5t5 -10.5q0 -27 -71.5 -70t-150.5 -43q-27 0 -53.5 6.5t-50.5 18.5q-128 -108 -229.5 -162.5t-176.5 -54.5q-44 0 -71 25.5t-27 68.5q0 68 40.5 147.5t127.5 178.5z" />
    <glyph glyph-name="c" unicode="c" horiz-adv-x="592" 
d="M477 479q-4 1 -9 1.5t-15 0.5q-31 0 -66.5 -14t-71.5 -41q-85 -66 -141.5 -154t-56.5 -145q0 -36 24.5 -61t59.5 -25q70 0 161 45t195 131q27 23 64 58q41 38 51 38q7 0 11.5 -5t4.5 -13q0 -13 -28.5 -42.5t-84.5 -74.5q-116 -96 -215 -142t-188 -46q-70 0 -113 47
t-43 123q0 69 42 134.5t128 131.5q63 47 129 71.5t129 24.5q47 0 75 -23.5t28 -62.5q0 -43 -29 -73.5t-69 -30.5q-26 0 -41 15.5t-15 41.5q0 24 22 47.5t62 42.5z" />
    <glyph glyph-name="d" unicode="d" horiz-adv-x="766" 
d="M264 150l168 178l21 21q69 75 69 100q0 10 -7 16t-19 6q-34 0 -89.5 -28.5t-113.5 -77.5q-95 -79 -157 -165t-62 -126q0 -14 8.5 -22.5t21.5 -8.5q27 0 70.5 28.5t89.5 78.5zM272 108q-60 -59 -111 -88.5t-91 -29.5q-42 0 -65 31t-23 88q0 67 32 128t99 119
q87 77 186 122.5t172 45.5q44 0 63.5 -15.5t24.5 -53.5l609 750q10 13 21 18.5t28 5.5q32 0 52.5 -7.5t20.5 -19.5q0 -8 -3 -14.5t-15 -18.5l-840 -997q-31 -35 -46 -61.5t-15 -42.5q0 -13 5.5 -18t20.5 -5q44 0 130 42.5t182 115.5q40 30 86 70t55 40q7 0 11.5 -5t4.5 -13
q0 -18 -112 -109l-5 -4q-112 -90 -213.5 -141t-164.5 -51q-46 0 -73.5 26t-27.5 70q0 9 0.5 13.5t1.5 8.5z" />
    <glyph glyph-name="e" unicode="e" horiz-adv-x="571" 
d="M129 178q-9 -19 -13.5 -37t-4.5 -32q0 -32 20.5 -50t56.5 -18q63 0 154 46.5t195 131.5q27 23 66 58.5t48 35.5q8 0 12 -4.5t5 -13.5q0 -11 -27 -38.5t-94 -84.5q-100 -85 -200 -132.5t-175 -47.5q-72 0 -115 44t-43 120q0 68 43 135.5t125 128.5q72 52 135 78t117 26
q48 0 68 -15.5t20 -53.5q0 -77 -113 -160t-280 -117zM158 238q135 28 227 90t92 116q0 19 -7 27t-24 8q-50 0 -123 -61.5t-165 -179.5z" />
    <glyph glyph-name="f" unicode="f" horiz-adv-x="522" 
d="M662 770q279 167 441.5 304t162.5 202q0 18 -7 25.5t-24 7.5q-74 0 -208 -125.5t-365 -413.5zM4 68q-9 16 -13.5 30t-4.5 27q0 24 13 37.5t36 13.5q12 0 22 -2.5t19 -7.5l182 246q-62 -47 -134.5 -108.5t-84.5 -61.5q-5 0 -8.5 5t-3.5 13q0 23 244 209l79 61
q295 393 532 615.5t357 222.5q35 0 54.5 -19t19.5 -55q0 -89 -174 -241.5t-584 -419.5l-383 -508q18 -5 34.5 -7.5t31.5 -2.5q53 0 111.5 24.5t129.5 75.5q43 31 85.5 73t49.5 42q5 0 9 -6t4 -13q0 -18 -41 -59t-111 -92q-93 -67 -176.5 -98t-165.5 -31h-31l-430 -580
q-11 -16 -22 -22.5t-27 -6.5h-45q-15 0 -23 6t-8 17q0 4 2.5 9.5t6.5 10.5z" />
    <glyph glyph-name="g" unicode="g" horiz-adv-x="772" 
d="M109 -82q-218 -94 -343.5 -200t-125.5 -191q0 -27 12 -44.5t31 -17.5q36 0 84.5 42.5t146.5 164.5zM268 150l230 245q12 13 19 27t7 27q0 11 -6.5 16.5t-17.5 5.5q-34 0 -90.5 -29t-114.5 -77q-95 -79 -156 -164.5t-61 -126.5q0 -14 8.5 -22.5t22.5 -8.5q26 0 69.5 28.5
t89.5 78.5zM276 -33q-221 -276 -368 -410.5t-227 -134.5q-45 0 -67 24.5t-22 72.5q0 111 155.5 241t408.5 222l39 51q-35 -17 -67 -25t-62 -8q-38 0 -59 28t-21 78q0 67 32.5 129.5t96.5 118.5q89 79 188.5 124.5t175.5 45.5q41 0 60.5 -16t23.5 -53q15 17 33 32.5t39 28.5
q8 0 23 1t22 1q35 0 50 -5.5t15 -18.5q0 -4 -149.5 -150.5t-284.5 -323.5q89 8 188.5 53.5t211.5 129.5q39 29 86.5 69.5t56.5 40.5q7 0 11.5 -5t4.5 -13q0 -15 -40.5 -52t-114.5 -91q-111 -81 -215 -124.5t-224 -60.5z" />
    <glyph glyph-name="h" unicode="h" horiz-adv-x="805" 
d="M33 0q-10 -3 -23.5 -4.5t-46.5 -1.5q-35 0 -47 3t-12 11q0 10 123 142t233 266q-64 -48 -137.5 -111t-85.5 -63q-6 0 -9 4.5t-3 13.5q0 19 91 94t246 183l566 667q13 15 23 20t26 5q29 0 48 -7.5t19 -19.5t-13 -27q-3 -3 -5 -6l-674 -794q102 76 172 111.5t117 35.5
q33 0 51.5 -19t18.5 -52q0 -36 -25 -73.5t-104 -113.5q-22 -20 -61 -56q-122 -114 -122 -138q0 -11 9 -18t24 -7q44 0 128.5 42.5t180.5 115.5q41 30 87 70t55 40q7 0 11.5 -5t4.5 -13q0 -18 -112 -109l-5 -4q-109 -86 -210.5 -138t-155.5 -52q-45 0 -73 25t-28 65
q0 48 36.5 105t105.5 116q22 19 60 51q93 78 93 92q0 7 -7 12t-17 5q-63 0 -227.5 -131.5t-325.5 -331.5z" />
    <glyph glyph-name="i" unicode="i" horiz-adv-x="508" 
d="M627 791q0 28 19.5 45.5t51.5 17.5q33 0 52.5 -17.5t19.5 -45.5q0 -30 -20 -48t-52 -18q-33 0 -52 18t-19 48zM223 369q-56 -32 -112.5 -75.5t-65.5 -43.5q-6 0 -10 4t-4 10q0 16 37 44l1 1l62 47q113 87 185 129.5t106 42.5q45 0 72.5 -6t27.5 -16q0 -7 -81.5 -75.5
t-151.5 -137.5q-89 -87 -133.5 -144t-44.5 -81q0 -13 8 -20t22 -7q42 0 124.5 42t176.5 114q37 27 81.5 64.5t51.5 37.5q6 0 10.5 -5t4.5 -11q0 -19 -95 -95l-22 -18q-102 -83 -198.5 -130.5t-157.5 -47.5q-44 0 -71.5 24t-27.5 62q0 51 51 123t154 168z" />
    <glyph glyph-name="j" unicode="j" horiz-adv-x="451" 
d="M-18 -37q-210 -94 -340.5 -218t-130.5 -218q0 -27 16 -41t47 -14q73 0 172.5 119.5t235.5 371.5zM25 43q68 118 124 207t109 166q-66 -49 -136.5 -109.5t-80.5 -60.5q-5 0 -9.5 5.5t-4.5 12.5q0 24 96 102.5t235 161.5q9 1 19 1.5t22 0.5q36 0 60 -8t24 -18
q0 -3 -104 -133.5t-199 -280.5q133 53 242.5 140l109.5 87q8 0 12 -4.5t5 -13.5q0 -30 -122 -118t-286 -158q-180 -309 -315 -449.5t-248 -140.5q-59 0 -89 27t-30 81q0 113 151 248t415 254zM563 793q0 29 20.5 47t53.5 18t53.5 -18t20.5 -47q0 -30 -20.5 -48t-53.5 -18
t-53.5 18t-20.5 48z" />
    <glyph glyph-name="k" unicode="k" horiz-adv-x="844" 
d="M80 0q-33 -5 -48.5 -6.5t-29.5 -1.5q-20 0 -31.5 5t-11.5 13q0 10 66 85q18 20 28 32l301 350q-108 -70 -209 -152.5t-108 -82.5q-6 0 -9 4.5t-3 13.5q0 20 110 108.5t330 243.5l510 592l2 3q19 22 43 22q29 0 50.5 -8.5t21.5 -18.5q0 -5 -4 -12.5t-13 -18.5l-661 -770
q84 62 147 92.5t105 30.5q41 0 65.5 -22.5t24.5 -61.5q0 -37 -25.5 -62.5t-64.5 -25.5q-19 0 -32 14.5t-13 34.5t14.5 37.5t46.5 34.5h-8q-41 0 -95 -25.5t-139 -85.5q45 -15 67.5 -42.5t22.5 -67.5q0 -42 -45 -98.5t-45 -87.5q0 -11 7.5 -16t21.5 -5q43 0 128.5 43.5
t182.5 116.5q40 29 86.5 68.5t55.5 39.5q7 0 11.5 -5t4.5 -13q0 -18 -111 -108l-6 -5q-111 -89 -212.5 -139.5t-166.5 -50.5q-45 0 -73.5 27.5t-28.5 70.5q0 42 43 103t43 88q0 25 -15.5 39t-45.5 16q-78 -81 -149 -165t-136 -171z" />
    <glyph glyph-name="l" unicode="l" horiz-adv-x="608" 
d="M256 412q-65 -48 -137 -109t-82 -61q-6 0 -9 4.5t-3 13.5q0 16 75 79t248 191l600 674q13 15 23.5 20t25.5 5q29 0 47.5 -7.5t18.5 -19.5q0 -8 -3.5 -14.5t-15.5 -18.5l-694 -811q-75 -88 -115 -157.5t-40 -110.5q0 -25 9 -36t29 -11q46 0 110.5 30t156.5 95
q59 42 120 93.5t68 51.5q8 0 12 -4.5t5 -13.5q0 -18 -113 -109l-5 -4q-111 -89 -211.5 -139.5t-164.5 -50.5q-46 0 -72 25t-26 69q0 58 35 137.5t108 188.5z" />
    <glyph glyph-name="m" unicode="m" horiz-adv-x="1214" 
d="M82 0q-9 -3 -23 -4.5t-47 -1.5q-34 0 -45.5 3t-11.5 11q0 18 88 99q59 55 96 92l24 22q202 196 202 225q-1 9 -4 13t-7 4q-28 0 -71.5 -27t-122.5 -96q-20 -17 -48 -43q-37 -35 -49 -35q-7 0 -12.5 5t-5.5 12q0 14 73 79q14 12 21 19q90 78 150 112.5t104 34.5
q32 0 49 -21t17 -63q0 -7 -1 -17t-3 -29q136 85 185.5 107.5t82.5 22.5q27 0 42 -21.5t15 -62.5q0 -8 -0.5 -17t-2.5 -29q122 77 177.5 103.5t87.5 26.5q35 0 55.5 -19.5t20.5 -53.5q0 -61 -126 -184l-3 -3q-22 -20 -60 -56q-122 -114 -122 -138q0 -11 9 -18t24 -7
q44 0 129.5 42.5t181.5 115.5q41 30 87 70t54 40q7 0 11 -4.5t4 -13.5q0 -18 -111 -108l-6 -5q-109 -86 -211 -138t-156 -52q-44 0 -72 25t-28 65q0 48 36.5 105t104.5 116q22 19 60 51q94 78 94 92q0 7 -7.5 12t-17.5 5q-56 0 -216.5 -126t-368.5 -337q-10 -3 -24 -4.5
t-46 -1.5q-35 0 -47 3t-12 11q0 18 87 99q34 32 54 51q143 135 206.5 201.5t63.5 80.5q0 9 -7 16t-15 7q-55 0 -220 -128.5t-366 -334.5z" />
    <glyph glyph-name="n" unicode="n" horiz-adv-x="883" 
d="M82 0q-9 -3 -23 -4.5t-47 -1.5q-34 0 -45.5 3t-11.5 11q0 18 88 99q59 55 96 92l24 22q202 196 202 225q-1 9 -4 13t-7 4q-28 0 -71.5 -27t-122.5 -96q-20 -17 -48 -43q-37 -35 -49 -35q-7 0 -12.5 5t-5.5 12q0 14 71 77q15 13 23 21q84 74 147 110.5t107 36.5
q32 0 49 -21t17 -63q0 -7 -1 -17t-3 -29q99 69 160 98.5t104 29.5q32 0 50.5 -19t18.5 -52q0 -36 -24.5 -73.5t-104.5 -113.5q-21 -20 -60 -56q-122 -114 -122 -138q0 -11 9 -18t24 -7q44 0 128.5 42.5t180.5 115.5q41 30 87 70t55 40q7 0 11 -4.5t5 -13.5q0 -18 -111 -108
l-5 -4q-110 -87 -211.5 -139t-155.5 -52q-45 0 -73 25t-28 65q0 48 36.5 105t105.5 116q22 19 60 51q93 78 93 92q0 7 -7 12t-17 5q-57 0 -222.5 -129.5t-359.5 -333.5z" />
    <glyph glyph-name="o" unicode="o" horiz-adv-x="664" 
d="M53 78q0 -18 9 -25.5t28 -7.5q44 0 116 41t167 121q82 70 128 130.5t46 96.5q0 19 -11.5 30t-31.5 11q-34 0 -93 -32.5t-124 -88.5q-107 -91 -170.5 -166.5t-63.5 -109.5zM494 256q-129 -127 -236 -193.5t-182 -66.5q-52 0 -82.5 30t-30.5 80q0 70 56.5 148.5
t160.5 153.5q78 56 159.5 88t143.5 32q50 0 80.5 -26.5t30.5 -69.5q0 -29 -17.5 -65t-52.5 -78q11 -23 30 -34t46 -11q38 0 88 34.5t62 34.5q6 0 9 -4t3 -12q0 -20 -57 -57t-105 -37q-32 0 -57.5 12.5t-48.5 40.5z" />
    <glyph glyph-name="p" unicode="p" horiz-adv-x="817" 
d="M-18 -90l-369 -481q-13 -5 -27.5 -7t-34.5 -2q-28 0 -40.5 4t-12.5 13q0 21 145.5 209t604.5 753l-154 -120q-12 -11 -18 -14t-13 -3q-6 0 -12 5.5t-6 11.5q0 13 109 97.5t194 158.5q39 33 100 90q109 100 146 100q13 0 20 -3.5t7 -10.5q0 -12 -86 -114.5t-158 -207.5
q91 65 163 99t115 34q33 0 51.5 -19t18.5 -52q0 -36 -24.5 -73.5t-104.5 -113.5q-22 -20 -61 -56q-121 -114 -121 -138q0 -11 9 -18t23 -7q44 0 128.5 42.5t181.5 115.5q40 30 86 70t55 40q7 0 11.5 -5t4.5 -13q0 -18 -112 -109l-5 -4q-107 -86 -209.5 -138t-158.5 -52
q-44 0 -72 25t-28 65q0 47 31 97.5t106 121.5q37 35 95 81.5t58 61.5q0 9 -6 14t-16 5q-13 0 -44 -15.5t-83 -48.5q-118 -74 -223 -176t-264 -313z" />
    <glyph glyph-name="q" unicode="q" horiz-adv-x="770" 
d="M291 14l-369 -426q-20 -23 -31.5 -46.5t-11.5 -43.5q0 -13 4.5 -20.5t12.5 -7.5q29 0 76.5 35t105.5 100q97 108 152 213t61 196zM262 143l230 251q13 14 20.5 28.5t7.5 26.5q0 10 -7 16t-19 6q-36 0 -89 -28t-114 -78q-96 -80 -157.5 -167t-61.5 -130q0 -14 8.5 -23.5
t21.5 -9.5q27 0 70.5 29t89.5 79zM332 14q-3 -92 -47.5 -188.5t-130.5 -198.5q-91 -107 -155 -156t-112 -49q-30 0 -49.5 24.5t-19.5 61.5q0 84 91 211.5t294 327.5q-44 -29 -77.5 -43t-57.5 -14q-42 0 -65 31t-23 88q0 67 32 128t99 119q85 76 184.5 122t171.5 46
q46 0 65.5 -15t24.5 -54q14 16 32.5 31.5t41.5 29.5q8 0 23 1t22 1q35 0 50 -5.5t15 -18.5q0 -12 -47 -53q-24 -22 -39 -35q-134 -127 -210 -216.5t-76 -121.5q0 -13 6.5 -18t21.5 -5q44 0 128.5 42.5t181.5 115.5q40 30 86 70t55 40q7 0 11.5 -5t4.5 -13q0 -18 -94 -95
l-22 -18q-107 -86 -202 -135t-151 -49q-20 0 -35.5 4t-27.5 12z" />
    <glyph glyph-name="r" unicode="r" horiz-adv-x="737" 
d="M588 485q2 3 10 5.5t16 3.5q28 0 48 -6.5t20 -14.5q0 -4 -18.5 -23.5t-30.5 -35.5q-37 -48 -56.5 -93.5t-19.5 -80.5q0 -26 14 -42t37 -16q25 0 54 15t71 51q18 15 45 39q32 30 41 30q8 0 12 -4.5t5 -13.5q0 -9 -11 -22.5t-47 -43.5q-72 -59 -115 -80.5t-81 -21.5
q-52 0 -80.5 31.5t-28.5 87.5q0 20 5.5 46t15.5 56q-91 -83 -171.5 -171.5t-148.5 -180.5q-26 -4 -48 -6t-40 -2q-19 0 -30 4t-11 10q0 13 58 76q35 39 57 63q112 131 151 189t39 88q0 9 -2.5 12.5t-7.5 3.5q-26 0 -67.5 -23t-108.5 -75q-20 -16 -49 -43q-36 -33 -47 -33
q-8 0 -13.5 5.5t-5.5 13.5q0 10 20.5 31.5t73.5 66.5q77 65 148.5 104t107.5 39q28 0 44 -17.5t16 -47.5q0 -22 -8 -50.5t-25 -64.5z" />
    <glyph glyph-name="s" unicode="s" horiz-adv-x="592" 
d="M27 69q6 -20 26.5 -30t57.5 -10q99 0 154 106.5t64 318.5q-95 -53 -177 -122.5t-91 -69.5q-7 0 -11.5 4t-4.5 10q0 21 82 86t213 146q7 58 33 93.5t59 35.5q16 0 25.5 -10.5t9.5 -28.5q0 -29 -22 -58t-60 -48q21 -32 31 -73t10 -91q0 -82 -26 -144t-76 -100
q128 51 237 140t111 89q7 0 11.5 -5t4.5 -13q0 -15 -43.5 -56t-112.5 -87q-110 -78 -218.5 -120t-194.5 -42q-64 0 -104 29t-40 75q0 37 23 60.5t57 23.5q25 0 40.5 -15t15.5 -38q0 -27 -18 -42t-48 -15q-8 0 -12 0.5t-6 0.5z" />
    <glyph glyph-name="t" unicode="t" horiz-adv-x="592" 
d="M258 412q-62 -47 -134.5 -108.5t-84.5 -61.5q-5 0 -8.5 5t-3.5 13q0 23 244 209l79 61l88 97h-176l33 35h178l186 233q11 13 23.5 19t30.5 6q33 0 53 -9t20 -22q0 -7 -2 -13t-8 -14l-172 -200h203l-33 -35h-196l-234 -269q-82 -94 -121 -159.5t-39 -108.5q0 -23 8.5 -34
t26.5 -11q50 0 133 42t185 120q38 28 80.5 67t52.5 39q7 0 11.5 -5t4.5 -13q0 -12 -21 -33.5t-102 -85.5q-111 -89 -207 -136.5t-163 -47.5q-46 0 -72.5 25t-26.5 69q0 66 39 144t125 182z" />
    <glyph glyph-name="u" unicode="u" horiz-adv-x="909" 
d="M223 369q-56 -32 -112.5 -75.5t-65.5 -43.5q-6 0 -10 4t-4 10q0 16 37 44l1 1l62 47q113 87 185 129.5t106 42.5q45 0 72.5 -6t27.5 -16q0 -3 -5 -9.5t-14 -13.5l-175 -153q-93 -81 -155 -158.5t-62 -103.5q0 -13 8 -20t22 -7q43 0 120.5 39t141.5 98l358 323q6 5 13 13
q16 16 29 16q48 0 80 -7.5t32 -16.5q0 -4 -5 -10t-12 -12l-175 -154q-93 -81 -155 -158.5t-62 -103.5q0 -13 8 -20t23 -7q31 0 105.5 35t158.5 92q60 41 120 93t68 52t12 -4.5t5 -13.5q0 -18 -95 -95l-22 -18q-111 -89 -213 -139.5t-166 -50.5q-54 0 -82.5 22.5t-28.5 65.5
q0 13 0.5 19t1.5 11q-110 -64 -175 -91t-109 -27t-71.5 24t-27.5 62q0 51 51 123t154 168z" />
    <glyph glyph-name="v" unicode="v" horiz-adv-x="862" 
d="M637 276q70 79 101.5 124t31.5 67q0 4 -4.5 7t-11.5 3q-43 0 -86 -49.5t-43 -101.5q0 -9 3 -22t9 -28zM602 244q-15 25 -22 45t-7 39q0 72 57 133t126 61q28 0 43.5 -14.5t15.5 -40.5q0 -33 -30.5 -81.5t-110.5 -137.5q17 -11 37 -17t41 -6q68 0 128.5 43t63.5 43
q8 0 13 -4.5t6 -11.5q0 -27 -72.5 -69t-151.5 -42q-27 0 -53.5 6.5t-50.5 18.5q-133 -112 -233.5 -164.5t-182.5 -52.5q-50 0 -76 23.5t-26 68.5t36.5 102.5t102.5 114.5q19 16 51 43q103 87 103 102q0 7 -7 13t-16 6q-19 0 -63 -22.5t-99 -61.5q-46 -32 -99 -75.5
t-63 -43.5q-6 0 -11 5t-5 12q0 13 35.5 45t99.5 77q85 60 151 90.5t109 30.5q33 0 50.5 -18t17.5 -51q0 -76 -184 -231l-11 -9q-60 -52 -85 -82.5t-25 -52.5q0 -16 11 -24.5t32 -8.5q55 0 152.5 54t201.5 145z" />
    <glyph glyph-name="w" unicode="w" horiz-adv-x="1251" 
d="M328 330q-93 -81 -155 -158.5t-62 -103.5q0 -13 8 -20t22 -7q49 0 142.5 52.5t208.5 144.5q108 87 204 189.5t107 102.5q53 0 81.5 -6.5t28.5 -17.5q0 -7 -63.5 -64t-118.5 -116q-63 -70 -101 -136.5t-38 -103.5q0 -22 10.5 -32.5t32.5 -10.5q54 0 150.5 54t203.5 147
q-15 25 -21.5 45t-6.5 39q0 72 56.5 133t125.5 61q28 0 44.5 -15t16.5 -40q0 -32 -30 -79.5t-113 -139.5q14 -10 32 -15.5t40 -5.5q73 0 135 42t63 42q8 0 13 -4.5t6 -11.5q0 -27 -72.5 -69t-151.5 -42q-27 0 -53 6.5t-51 18.5q-124 -106 -228.5 -162.5t-177.5 -56.5
q-56 0 -85 25t-29 73q0 26 6 57t18 68q-116 -105 -224 -164t-181 -59q-45 0 -73 24.5t-28 63.5q0 52 50.5 124.5t152.5 166.5q-56 -32 -112.5 -75.5t-65.5 -43.5q-7 0 -10.5 4t-3.5 12t5.5 15.5t18.5 17.5l76 57q110 85 184 128.5t107 43.5q45 0 72.5 -6t27.5 -16
q0 -3 -5 -9.5t-14 -13.5zM1020 276q70 79 101.5 124t31.5 67q0 4 -4.5 7t-11.5 3q-43 0 -86 -49.5t-43 -101.5q0 -9 3 -22t9 -28z" />
    <glyph glyph-name="x" unicode="x" horiz-adv-x="764" 
d="M223 143q-81 -81 -134.5 -115t-96.5 -34q-33 0 -52.5 20t-19.5 54q0 26 20 45.5t46 19.5q22 0 35.5 -14t13.5 -37q0 -10 -2 -19.5t-6 -19.5q32 6 89 53t122 123q56 67 90 125.5t34 83.5q0 14 -5 22.5t-13 8.5q-21 0 -55.5 -20.5t-93.5 -67.5q-36 -29 -78.5 -69t-53.5 -40
q-7 0 -12.5 5t-5.5 12q0 14 71 77q15 13 23 21q82 72 144.5 109.5t101.5 37.5q31 0 48.5 -19t17.5 -52q0 -13 -3.5 -33t-9.5 -47q128 95 179.5 123t87.5 28q30 0 49.5 -19.5t19.5 -49.5q0 -31 -17.5 -49.5t-47.5 -18.5q-23 0 -36.5 13t-13.5 36q0 11 1 17t3 11
q-147 -61 -251.5 -178t-104.5 -204q0 -27 11.5 -38t39.5 -11q50 0 144.5 46.5t199.5 125.5q37 27 84.5 67.5t57.5 40.5q7 0 11.5 -5t4.5 -13q0 -15 -40.5 -52t-114.5 -91q-113 -83 -202.5 -122.5t-162.5 -39.5q-56 0 -86.5 33.5t-30.5 97.5v22z" />
    <glyph glyph-name="y" unicode="y" horiz-adv-x="958" 
d="M457 -33q-218 -272 -367 -408.5t-227 -136.5q-43 0 -67.5 26.5t-24.5 72.5q0 109 159.5 240t421.5 229l43 71q-50 -34 -100 -51.5t-96 -17.5q-45 0 -73 25t-28 65q0 48 37.5 106.5t106.5 116.5q19 17 52 45q99 83 99 96q0 7 -6.5 12t-15.5 5q-16 0 -48.5 -15.5
t-72.5 -41.5q-61 -42 -119.5 -93t-67.5 -51q-6 0 -12 5.5t-6 11.5q0 10 29 39t76 65q92 71 159.5 105t114.5 34q32 0 51 -19t19 -52q0 -36 -25 -73.5t-104 -113.5q-28 -26 -75 -70q-108 -101 -108 -124q1 -12 12.5 -19.5t28.5 -7.5q34 0 78.5 23t97.5 69l289 250
q43 37 84.5 70t81.5 61h25q26 0 36.5 -4t10.5 -14q0 -9 -153 -160.5t-292 -323.5q97 16 184 52.5t183 101.5q60 41 120 93t68 52t12 -4.5t5 -13.5q0 -14 -42 -52.5t-114 -90.5q-107 -78 -213.5 -122.5t-226.5 -62.5zM307 -78q-229 -101 -357 -206t-128 -189q0 -27 13 -44.5
t32 -17.5q52 0 157 108.5t283 348.5z" />
    <glyph glyph-name="z" unicode="z" horiz-adv-x="674" 
d="M127 80q-8 15 -21.5 24t-29.5 9q-24 0 -43 -14t-19 -31q0 -13 10 -21t25 -8q18 0 38 10.5t40 30.5zM63 -90q-222 -98 -360.5 -216t-138.5 -200q0 -25 11.5 -36t37.5 -11q46 0 164 121t286 342zM168 113q118 103 183 185.5t65 127.5q0 15 -7 21t-26 6q-32 0 -82.5 -25.5
t-118.5 -75.5q-34 -25 -73.5 -59.5t-49.5 -34.5q-7 0 -10.5 4t-3.5 12q0 16 33 48.5t90 72.5q86 62 159.5 95.5t123.5 33.5q40 0 62 -21.5t22 -62.5q0 -80 -87.5 -178.5t-252.5 -204.5q2 -8 4 -18t2 -19q0 -2 -1 -9t-1 -11q115 33 216.5 82.5t192.5 118.5q41 30 89 71t57 41
q7 0 10.5 -4.5t3.5 -13.5q0 -20 -112 -111l-5 -4q-107 -86 -222 -143t-241 -88q-29 -95 -109.5 -197.5t-211.5 -210.5q-83 -67 -147.5 -101t-110.5 -34q-43 0 -66.5 24t-23.5 68q0 102 158.5 233t418.5 236l25 58q-25 -12 -43.5 -17.5t-32.5 -5.5q-31 0 -49.5 17t-18.5 44
q0 35 28.5 57.5t72.5 22.5q23 0 44 -7t46 -23z" />
    <glyph glyph-name="braceleft" unicode="{" 
d="M844 1516v-47q-153 -2 -207.5 -55t-54.5 -210v-147q0 -225 -64.5 -308t-238.5 -114q174 -30 238.5 -112.5t64.5 -309.5v-147q0 -157 54.5 -210t207.5 -55v-45h-10q-213 0 -293 73t-80 273v222q0 154 -59.5 212.5t-225.5 71.5v56q169 15 227 72.5t58 211.5v221
q0 200 80 273.5t293 73.5h10z" />
    <glyph glyph-name="bar" unicode="|" 
d="M467 1565h90v-2048h-90v2048z" />
    <glyph glyph-name="braceright" unicode="}" 
d="M178 1516h10q214 0 294.5 -74t80.5 -273v-221q0 -155 58 -212t227 -72v-56q-166 -13 -225.5 -71.5t-59.5 -212.5v-222q0 -198 -80.5 -272t-294.5 -74h-10v45q154 2 209 55t55 210v147q0 226 64 308t239 114q-174 31 -238.5 114t-64.5 308v147q0 156 -55 209.5t-209 55.5
v47z" />
    <glyph glyph-name="asciitilde" unicode="~" horiz-adv-x="1706" 
d="M1530 739v-92q-106 -74 -202 -110.5t-185 -36.5q-99 0 -266 61q-16 6 -22 8q-12 4 -33 12q-167 60 -257 60q-83 0 -175 -37.5t-212 -122.5v92q105 74 201 110t186 36q100 0 271 -61q12 -5 19 -7q8 -3 27 -10q168 -61 261 -61q83 0 175 37.5t212 121.5z" />
    <glyph glyph-name="Adieresis" unicode="&#xc4;" horiz-adv-x="1550" 
d="M985 76q49 112 73.5 220.5t24.5 213.5q0 27 -0.5 40.5t-1.5 24.5l-63 -59q-82 -76 -172 -152.5t-187 -152.5q62 -57 142.5 -90.5t183.5 -44.5zM621 252q97 72 185.5 146t168.5 149l100 94q-22 159 -104 248.5t-203 89.5q-131 0 -218 -97t-87 -245q0 -98 39.5 -194.5
t118.5 -190.5zM952 35q-93 12 -174.5 48t-156.5 99q-139 -100 -235 -143t-177 -43q-98 0 -157.5 53.5t-59.5 140.5q0 69 39.5 114.5t97.5 45.5q40 0 65 -25t25 -65q0 -34 -21 -54t-57 -20q-17 0 -42.5 6.5t-32.5 6.5q-12 0 -17.5 -6.5t-5.5 -20.5q0 -54 46 -88.5t122 -34.5
q75 0 168 43.5t205 130.5q-89 106 -132.5 216.5t-43.5 230.5q0 183 92.5 300t234.5 117q140 0 243 -109.5t140 -299.5l338 309q314 287 487 394.5t306 107.5q17 0 29 -7t12 -16q0 -5 -113 -126.5t-213 -258.5q-29 -39 -89 -121q-414 -568 -738 -880q102 5 188 35.5t168 91.5
q39 28 84 67t53 39t12 -4.5t5 -13.5q0 -12 -24 -35t-95 -80q-96 -76 -202.5 -112t-243.5 -37l-23 -25q-9 -10 -22.5 -15t-32.5 -5h-46q-11 0 -16.5 3t-5.5 7q0 1 1.5 5.5t4.5 10.5zM1127 615q2 -42 2.5 -61t0.5 -36q0 -89 -13.5 -175t-41.5 -169q217 245 453.5 545
t275.5 344q84 93 175 182t190 174q-100 -6 -279 -128t-413 -345zM2009 1754q0 38 24 64t60 26q30 0 47.5 -19t17.5 -51q0 -37 -24.5 -62.5t-59.5 -25.5q-31 0 -48 18t-17 50zM2342 1754q0 38 24.5 64t59.5 26q31 0 47.5 -18.5t16.5 -51.5q0 -37 -24.5 -62.5t-59.5 -25.5
q-31 0 -47.5 17.5t-16.5 50.5z" />
    <glyph glyph-name="Aring" unicode="&#xc5;" horiz-adv-x="1550" 
d="M1127 615q2 -42 2.5 -61t0.5 -36q0 -89 -13.5 -175t-41.5 -169q217 245 453.5 545t275.5 344q84 93 175 182t190 174q-100 -6 -279 -128t-413 -345zM952 35q-93 12 -174.5 48t-156.5 99q-139 -100 -235 -143t-177 -43q-98 0 -157.5 53.5t-59.5 140.5q0 69 39.5 114.5
t97.5 45.5q40 0 65 -25t25 -65q0 -34 -21 -54t-57 -20q-17 0 -42.5 6.5t-32.5 6.5q-12 0 -17.5 -6.5t-5.5 -20.5q0 -54 46 -88.5t122 -34.5q75 0 168 43.5t205 130.5q-89 106 -132.5 216.5t-43.5 230.5q0 183 92.5 300t234.5 117q140 0 243 -109.5t140 -299.5l338 309
q314 287 487 394.5t306 107.5q17 0 29 -7t12 -16q0 -5 -113 -126.5t-213 -258.5q-29 -39 -89 -121q-414 -568 -738 -880q102 5 188 35.5t168 91.5q39 28 84 67t53 39t12 -4.5t5 -13.5q0 -12 -24 -35t-95 -80q-96 -76 -202.5 -112t-243.5 -37l-23 -25q-9 -10 -22.5 -15
t-32.5 -5h-46q-11 0 -16.5 3t-5.5 7q0 1 1.5 5.5t4.5 10.5zM621 252q97 72 185.5 146t168.5 149l100 94q-22 159 -104 248.5t-203 89.5q-131 0 -218 -97t-87 -245q0 -98 39.5 -194.5t118.5 -190.5zM985 76q49 112 73.5 220.5t24.5 213.5q0 27 -0.5 40.5t-1.5 24.5l-63 -59
q-82 -76 -172 -152.5t-187 -152.5q62 -57 142.5 -90.5t183.5 -44.5zM2232 1698q0 -53 34.5 -88t86.5 -35q51 0 86 35.5t35 87.5q0 50 -35 85.5t-86 35.5q-52 0 -86.5 -34.5t-34.5 -86.5zM2179 1698q0 74 50 124t124 50t124 -50t50 -124t-50 -124t-124 -50q-73 0 -123.5 50.5
t-50.5 123.5z" />
    <glyph glyph-name="Ccedilla" unicode="&#xc7;" horiz-adv-x="1450" 
d="M803 778q217 57 396.5 147t313.5 210q97 85 152 159t55 115q0 21 -13.5 31t-43.5 10q-143 0 -384 -184t-476 -488zM586 729q140 183 303 333t350 269q128 81 240.5 125.5t187.5 44.5q58 0 86.5 -25.5t28.5 -76.5q0 -172 -288.5 -369t-750.5 -323q-131 -170 -195.5 -294
t-64.5 -206t53.5 -128t147.5 -46q73 0 158.5 45.5t193.5 142.5q83 75 122.5 127t39.5 86q0 32 -15.5 46t-49.5 14q-56 0 -138 -42.5t-161 -113.5q-51 -45 -100.5 -110.5t-63.5 -65.5q-7 0 -11.5 5t-5.5 13q0 16 26 55t66 80q105 110 206.5 167t191.5 57q60 0 92.5 -34.5
t32.5 -96.5q0 -74 -57 -158.5t-154 -151.5q-84 -58 -174.5 -88t-180.5 -30q-139 0 -215.5 73.5t-76.5 208.5q0 89 31.5 188.5t93.5 204.5q-133 -28 -227 -43.5t-134 -15.5q-17 0 -27.5 6t-11.5 16q0 24 159 50.5t292 60.5zM575 -119q27 15 54.5 22t56.5 7q83 0 122 -31
t39 -96q0 -75 -55.5 -119.5t-150.5 -44.5q-103 0 -187 32.5t-84 55.5q0 7 5 12t12 5q10 0 85.5 -23t139.5 -23q63 0 101 27t38 70q0 39 -25.5 57t-80.5 18q-11 0 -25 -2t-29 -6z" />
    <glyph glyph-name="Eacute" unicode="&#xc9;" horiz-adv-x="1327" 
d="M831 856q32 -36 66 -54t72 -18q24 0 39.5 11.5t15.5 27.5q0 21 -22 33t-60 12q-27 0 -53.5 -3t-57.5 -9zM759 895q-3 17 -5 36t-2 38q0 74 32.5 147t92.5 131q120 119 278.5 187.5t310.5 68.5q113 0 175.5 -53.5t62.5 -151.5q0 -88 -58.5 -172t-164.5 -147
q-72 -42 -152 -68t-123 -26q-6 0 -12 7t-6 15q0 17 55 36.5t92 39.5q136 75 223 176t87 176q0 53 -41 83t-113 30q-101 0 -241 -77.5t-267 -207.5q-85 -86 -125.5 -147t-40.5 -103v-3q21 2 41 3.5t39 1.5q94 0 136 -21.5t42 -70.5q0 -38 -31 -61t-83 -23q-50 0 -94.5 25
t-84.5 76q-90 -35 -181 -102t-183 -167q-89 -96 -132.5 -179.5t-43.5 -155.5q0 -86 65 -143.5t162 -57.5q93 0 196 49.5t232 157.5q81 68 119.5 116t38.5 80q0 27 -21 42.5t-57 15.5q-74 0 -166.5 -43.5t-185.5 -122.5q-41 -34 -84 -82.5t-60 -48.5q-8 0 -12 6t-4 16
q0 14 36 55.5t93 90.5q92 79 196 126.5t181 47.5q64 0 100.5 -35t36.5 -96q0 -50 -24 -102.5t-70 -102.5q-99 -108 -233 -169t-275 -61q-158 0 -249 91t-91 247q0 210 160 368t433 214zM1468 1606q-10 0 -14 3.5t-4 10.5t68 56.5t110 115.5q14 23 32 72q35 90 82 90
q29 0 45.5 -16.5t16.5 -44.5q0 -48 -43 -99t-131 -108q-59 -39 -100.5 -59.5t-61.5 -20.5z" />
    <glyph glyph-name="Ntilde" unicode="&#xd1;" horiz-adv-x="1546" 
d="M1325 1262q-183 -191 -441.5 -529t-361.5 -452q-128 -144 -255 -218.5t-242 -74.5q-100 0 -162 49t-62 129q0 66 49.5 114t116.5 48q47 0 75 -24t28 -64q0 -41 -25 -63.5t-70 -22.5q-27 0 -60 16t-42 16q-11 0 -18 -10t-7 -26q0 -47 51 -81t126 -34q65 0 134.5 27.5
t145.5 82.5q162 119 575 660q74 96 113 147q189 245 329.5 396t176.5 151q5 0 7.5 -2.5t2.5 -7.5q0 -17 -51.5 -123.5t-79.5 -206.5q-16 -61 -48 -194q-112 -469 -249 -738l455 555q300 366 506 550t317 184q19 0 29 -6.5t10 -18.5q0 -17 -42.5 -28t-69.5 -23
q-124 -57 -279.5 -202.5t-361.5 -399.5l-629 -770q-38 -47 -60.5 -66.5t-35.5 -19.5q-8 0 -12.5 5.5t-4.5 14.5q0 8 24.5 53.5t41.5 85.5q47 115 90 296q8 34 12 50l5 20q105 430 249 755zM1897 1856q41 0 125.5 -37t121.5 -37q45 0 81.5 49.5t45.5 49.5t15 -5t6 -12
q0 -19 -22 -62.5t-56 -84.5q-17 -21 -42.5 -32t-53.5 -11q-43 0 -128 36.5t-122 36.5q-45 0 -81.5 -49t-45.5 -49q-8 0 -13 4.5t-5 12.5q0 18 22 62t55 85q17 21 41.5 32t55.5 11z" />
    <glyph glyph-name="Odieresis" unicode="&#xd6;" horiz-adv-x="1366" 
d="M1540 940q-15 -5 -42 -15q-69 -24 -83 -24q-11 0 -17.5 4.5t-6.5 12.5q0 19 51.5 38.5t84.5 40.5q-9 47 -43 72t-87 25q-116 0 -316 -129t-385 -334q-83 -93 -154.5 -205.5t-86.5 -112.5q-7 0 -11 6t-4 15q0 35 62.5 141t156.5 217q186 222 367.5 337.5t343.5 115.5
q80 0 131 -29.5t74 -89.5q91 56 139.5 125.5t48.5 144.5q0 72 -55 114t-147 42q-131 0 -318.5 -104.5t-398.5 -296.5q-251 -229 -406 -460t-155 -358q0 -97 61.5 -150.5t173.5 -53.5q137 0 344 114.5t387 298.5q144 147 216.5 271.5t74.5 226.5zM1589 965v-11
q0 -93 -55 -205t-166 -241q-97 -113 -206 -207t-228 -168q-120 -75 -224.5 -113t-189.5 -38q-142 0 -219.5 77t-77.5 217q0 166 91.5 349.5t260.5 357.5q238 244 499.5 381t481.5 137q120 0 190.5 -60t70.5 -161q0 -93 -57 -172t-171 -143zM1422 1754q0 38 24 64t60 26
q30 0 47.5 -19t17.5 -51q0 -37 -24.5 -62.5t-59.5 -25.5q-31 0 -48 18t-17 50zM1755 1754q0 38 24.5 64t59.5 26q31 0 47.5 -18.5t16.5 -51.5q0 -37 -24.5 -62.5t-59.5 -25.5q-31 0 -47.5 17.5t-16.5 50.5z" />
    <glyph glyph-name="Udieresis" unicode="&#xdc;" horiz-adv-x="1722" 
d="M1274 250q-159 -138 -265.5 -204t-170.5 -66q-48 0 -75.5 28t-27.5 78q0 110 173 299l8 9l144 158q213 234 241 272l1 1q152 196 152 330q0 130 -114.5 214.5t-295.5 84.5q-133 0 -263 -43t-242 -125q-111 -80 -174.5 -180t-63.5 -193q0 -88 56.5 -146t142.5 -58
q110 0 256.5 91t253.5 234q46 62 77.5 136.5t47.5 74.5q6 0 9 -6.5t3 -34.5q0 -50 -33.5 -129t-87.5 -147q-104 -132 -234 -201.5t-272 -69.5q-119 0 -192.5 72t-73.5 189q0 78 38.5 159t113.5 158q120 125 290.5 195.5t352.5 70.5q212 0 339.5 -109t127.5 -290
q0 -235 -459 -757l-39 -44q-27 -30 -75 -82q-112 -120 -112 -162q1 -11 10 -16.5t27 -5.5q41 0 171.5 88.5t246.5 210.5l615 645q55 57 75.5 73.5t32.5 16.5q21 0 42.5 -21.5t21.5 -39.5q0 -12 -119 -133t-219 -234q-203 -227 -324 -385.5t-121 -194.5q0 -16 7 -23t22 -7
q47 0 121 34.5t174 102.5q60 42 120 93.5t68 51.5t12 -4.5t5 -13.5q0 -20 -106 -105l-7 -6q-116 -94 -222 -149t-163 -55q-48 0 -74 25.5t-26 74.5q0 29 12.5 70.5t40.5 99.5zM1856 1754q0 38 24 64t60 26q30 0 47.5 -19t17.5 -51q0 -37 -24.5 -62.5t-59.5 -25.5
q-31 0 -48 18t-17 50zM2189 1754q0 38 24.5 64t59.5 26q31 0 47.5 -18.5t16.5 -51.5q0 -37 -24.5 -62.5t-59.5 -25.5q-31 0 -47.5 17.5t-16.5 50.5z" />
    <glyph glyph-name="aacute" unicode="&#xe1;" horiz-adv-x="772" 
d="M264 150l230 245q13 14 20.5 28t7.5 26q0 10 -7 16t-19 6q-34 0 -89.5 -28.5t-113.5 -77.5q-95 -79 -157 -165t-62 -126q0 -14 8.5 -22.5t21.5 -8.5q27 0 70.5 28.5t89.5 78.5zM272 108q-60 -59 -111 -88.5t-91 -29.5q-42 0 -65 31t-23 88q0 67 32 128t99 119
q86 77 185 122.5t175 45.5q43 0 63 -16t23 -53q14 16 32.5 31.5t41.5 29.5q8 0 23 1t22 1q35 0 50 -5.5t15 -18.5q0 -12 -46 -53q-25 -22 -40 -35q-134 -127 -210 -216.5t-76 -121.5q0 -13 5.5 -18t20.5 -5q44 0 130 42.5t182 115.5q40 30 86 70t55 40q7 0 11.5 -5t4.5 -13
q0 -18 -112 -109l-5 -4q-111 -89 -212.5 -139.5t-165.5 -50.5q-46 0 -73.5 25.5t-27.5 68.5q0 9 0.5 13.5t1.5 8.5zM559 602q-10 0 -14 3.5t-4 10.5t68 56.5t110 115.5q14 23 32 72q35 90 82 90q29 0 45.5 -16.5t16.5 -44.5q0 -48 -43 -99t-131 -108q-59 -39 -100.5 -59.5
t-61.5 -20.5z" />
    <glyph glyph-name="agrave" unicode="&#xe0;" horiz-adv-x="772" 
d="M264 150l230 245q13 14 20.5 28t7.5 26q0 10 -7 16t-19 6q-34 0 -89.5 -28.5t-113.5 -77.5q-95 -79 -157 -165t-62 -126q0 -14 8.5 -22.5t21.5 -8.5q27 0 70.5 28.5t89.5 78.5zM272 108q-60 -59 -111 -88.5t-91 -29.5q-42 0 -65 31t-23 88q0 67 32 128t99 119
q86 77 185 122.5t175 45.5q43 0 63 -16t23 -53q14 16 32.5 31.5t41.5 29.5q8 0 23 1t22 1q35 0 50 -5.5t15 -18.5q0 -12 -46 -53q-25 -22 -40 -35q-134 -127 -210 -216.5t-76 -121.5q0 -13 5.5 -18t20.5 -5q44 0 130 42.5t182 115.5q40 30 86 70t55 40q7 0 11.5 -5t4.5 -13
q0 -18 -112 -109l-5 -4q-111 -89 -212.5 -139.5t-165.5 -50.5q-46 0 -73.5 25.5t-27.5 68.5q0 9 0.5 13.5t1.5 8.5zM721 614q0 -5 -5 -10.5t-10 -5.5q-10 0 -22.5 9t-38.5 34q-81 87 -112 138.5t-31 94.5q0 38 18.5 60t48.5 22q29 0 44.5 -18t15.5 -53q0 -3 -1 -23t-1 -37
q0 -90 75 -182q19 -23 19 -29z" />
    <glyph glyph-name="acircumflex" unicode="&#xe2;" horiz-adv-x="772" 
d="M264 150l230 245q13 14 20.5 28t7.5 26q0 10 -7 16t-19 6q-34 0 -89.5 -28.5t-113.5 -77.5q-95 -79 -157 -165t-62 -126q0 -14 8.5 -22.5t21.5 -8.5q27 0 70.5 28.5t89.5 78.5zM272 108q-60 -59 -111 -88.5t-91 -29.5q-42 0 -65 31t-23 88q0 67 32 128t99 119
q86 77 185 122.5t175 45.5q43 0 63 -16t23 -53q14 16 32.5 31.5t41.5 29.5q8 0 23 1t22 1q35 0 50 -5.5t15 -18.5q0 -12 -46 -53q-25 -22 -40 -35q-134 -127 -210 -216.5t-76 -121.5q0 -13 5.5 -18t20.5 -5q44 0 130 42.5t182 115.5q40 30 86 70t55 40q7 0 11.5 -5t4.5 -13
q0 -18 -112 -109l-5 -4q-111 -89 -212.5 -139.5t-165.5 -50.5q-46 0 -73.5 25.5t-27.5 68.5q0 9 0.5 13.5t1.5 8.5zM729 784l-240 -127q-56 -29 -82 -40t-36 -11q-15 0 -21 4.5t-6 14.5q0 17 59 52q22 13 35 21q109 69 212.5 144.5t109.5 75.5q9 -1 16.5 -7.5t9.5 -15.5
l70 -243q2 -10 3 -16t1 -11q0 -11 -4.5 -17t-11.5 -6q-28 0 -97 145q-12 24 -18 37z" />
    <glyph glyph-name="adieresis" unicode="&#xe4;" horiz-adv-x="772" 
d="M264 150l230 245q13 14 20.5 28t7.5 26q0 10 -7 16t-19 6q-34 0 -89.5 -28.5t-113.5 -77.5q-95 -79 -157 -165t-62 -126q0 -14 8.5 -22.5t21.5 -8.5q27 0 70.5 28.5t89.5 78.5zM272 108q-60 -59 -111 -88.5t-91 -29.5q-42 0 -65 31t-23 88q0 67 32 128t99 119
q86 77 185 122.5t175 45.5q43 0 63 -16t23 -53q14 16 32.5 31.5t41.5 29.5q8 0 23 1t22 1q35 0 50 -5.5t15 -18.5q0 -12 -46 -53q-25 -22 -40 -35q-134 -127 -210 -216.5t-76 -121.5q0 -13 5.5 -18t20.5 -5q44 0 130 42.5t182 115.5q40 30 86 70t55 40q7 0 11.5 -5t4.5 -13
q0 -18 -112 -109l-5 -4q-111 -89 -212.5 -139.5t-165.5 -50.5q-46 0 -73.5 25.5t-27.5 68.5q0 9 0.5 13.5t1.5 8.5zM416 750q0 38 24 64t60 26q30 0 47.5 -19t17.5 -51q0 -37 -24.5 -62.5t-59.5 -25.5q-31 0 -48 18t-17 50zM749 750q0 38 24.5 64t59.5 26q31 0 47.5 -18.5
t16.5 -51.5q0 -37 -24.5 -62.5t-59.5 -25.5q-31 0 -47.5 17.5t-16.5 50.5z" />
    <glyph glyph-name="atilde" unicode="&#xe3;" horiz-adv-x="772" 
d="M264 150l230 245q13 14 20.5 28t7.5 26q0 10 -7 16t-19 6q-34 0 -89.5 -28.5t-113.5 -77.5q-95 -79 -157 -165t-62 -126q0 -14 8.5 -22.5t21.5 -8.5q27 0 70.5 28.5t89.5 78.5zM272 108q-60 -59 -111 -88.5t-91 -29.5q-42 0 -65 31t-23 88q0 67 32 128t99 119
q86 77 185 122.5t175 45.5q43 0 63 -16t23 -53q14 16 32.5 31.5t41.5 29.5q8 0 23 1t22 1q35 0 50 -5.5t15 -18.5q0 -12 -46 -53q-25 -22 -40 -35q-134 -127 -210 -216.5t-76 -121.5q0 -13 5.5 -18t20.5 -5q44 0 130 42.5t182 115.5q40 30 86 70t55 40q7 0 11.5 -5t4.5 -13
q0 -18 -112 -109l-5 -4q-111 -89 -212.5 -139.5t-165.5 -50.5q-46 0 -73.5 25.5t-27.5 68.5q0 9 0.5 13.5t1.5 8.5zM543 852q41 0 125.5 -37t121.5 -37q45 0 81.5 49.5t45.5 49.5t15 -5t6 -12q0 -19 -22 -62.5t-56 -84.5q-17 -21 -42.5 -32t-53.5 -11q-43 0 -128 36.5
t-122 36.5q-45 0 -81.5 -49t-45.5 -49q-8 0 -13 4.5t-5 12.5q0 18 22 62t55 85q17 21 41.5 32t55.5 11z" />
    <glyph glyph-name="aring" unicode="&#xe5;" horiz-adv-x="772" 
d="M498 733q0 -52 34 -86.5t86 -34.5t86.5 35t34.5 86t-35 87t-86 36t-85.5 -35t-34.5 -88zM444 733q0 74 50.5 124t123.5 50q74 0 124.5 -50t50.5 -124t-50.5 -124t-124.5 -50q-72 0 -123 50.5t-51 123.5zM264 150l230 245q13 14 20.5 28t7.5 26q0 10 -7 16t-19 6
q-34 0 -89.5 -28.5t-113.5 -77.5q-95 -79 -157 -165t-62 -126q0 -14 8.5 -22.5t21.5 -8.5q27 0 70.5 28.5t89.5 78.5zM272 108q-60 -59 -111 -88.5t-91 -29.5q-42 0 -65 31t-23 88q0 67 32 128t99 119q86 77 185 122.5t175 45.5q43 0 63 -16t23 -53q14 16 32.5 31.5
t41.5 29.5q8 0 23 1t22 1q35 0 50 -5.5t15 -18.5q0 -12 -46 -53q-25 -22 -40 -35q-134 -127 -210 -216.5t-76 -121.5q0 -13 5.5 -18t20.5 -5q44 0 130 42.5t182 115.5q40 30 86 70t55 40q7 0 11.5 -5t4.5 -13q0 -18 -112 -109l-5 -4q-111 -89 -212.5 -139.5t-165.5 -50.5
q-46 0 -73.5 25.5t-27.5 68.5q0 9 0.5 13.5t1.5 8.5z" />
    <glyph glyph-name="ccedilla" unicode="&#xe7;" horiz-adv-x="592" 
d="M477 479q-4 1 -9 1.5t-15 0.5q-31 0 -66.5 -14t-71.5 -41q-85 -66 -141.5 -154t-56.5 -145q0 -36 24.5 -61t59.5 -25q70 0 161 45t195 131q27 23 64 58q41 38 51 38q7 0 11.5 -5t4.5 -13q0 -13 -28.5 -42.5t-84.5 -74.5q-116 -96 -215 -142t-188 -46q-70 0 -113 47
t-43 123q0 69 42 134.5t128 131.5q63 47 129 71.5t129 24.5q47 0 75 -23.5t28 -62.5q0 -43 -29 -73.5t-69 -30.5q-26 0 -41 15.5t-15 41.5q0 24 22 47.5t62 42.5zM4 -119q27 15 54.5 22t56.5 7q83 0 122 -31t39 -96q0 -75 -55.5 -119.5t-150.5 -44.5q-103 0 -187 32.5
t-84 55.5q0 7 5 12t12 5q10 0 85.5 -23t139.5 -23q63 0 101 27t38 70q0 39 -25.5 57t-80.5 18q-11 0 -25 -2t-29 -6z" />
    <glyph glyph-name="eacute" unicode="&#xe9;" horiz-adv-x="571" 
d="M129 178q-9 -19 -13.5 -37t-4.5 -32q0 -32 20.5 -50t56.5 -18q63 0 154 46.5t195 131.5q27 23 66 58.5t48 35.5q8 0 12 -4.5t5 -13.5q0 -11 -27 -38.5t-94 -84.5q-100 -85 -200 -132.5t-175 -47.5q-72 0 -115 44t-43 120q0 68 43 135.5t125 128.5q72 52 135 78t117 26
q48 0 68 -15.5t20 -53.5q0 -77 -113 -160t-280 -117zM158 238q135 28 227 90t92 116q0 19 -7 27t-24 8q-50 0 -123 -61.5t-165 -179.5zM397 602q-10 0 -14 3.5t-4 10.5t68 56.5t110 115.5q14 23 32 72q35 90 82 90q29 0 45.5 -16.5t16.5 -44.5q0 -48 -43 -99t-131 -108
q-59 -39 -100.5 -59.5t-61.5 -20.5z" />
    <glyph glyph-name="egrave" unicode="&#xe8;" horiz-adv-x="571" 
d="M129 178q-9 -19 -13.5 -37t-4.5 -32q0 -32 20.5 -50t56.5 -18q63 0 154 46.5t195 131.5q27 23 66 58.5t48 35.5q8 0 12 -4.5t5 -13.5q0 -11 -27 -38.5t-94 -84.5q-100 -85 -200 -132.5t-175 -47.5q-72 0 -115 44t-43 120q0 68 43 135.5t125 128.5q72 52 135 78t117 26
q48 0 68 -15.5t20 -53.5q0 -77 -113 -160t-280 -117zM158 238q135 28 227 90t92 116q0 19 -7 27t-24 8q-50 0 -123 -61.5t-165 -179.5zM559 614q0 -5 -5 -10.5t-10 -5.5q-10 0 -22.5 9t-38.5 34q-81 87 -112 138.5t-31 94.5q0 38 18.5 60t48.5 22q29 0 44.5 -18t15.5 -53
q0 -3 -1 -23t-1 -37q0 -90 75 -182q19 -23 19 -29z" />
    <glyph glyph-name="ecircumflex" unicode="&#xea;" horiz-adv-x="571" 
d="M129 178q-9 -19 -13.5 -37t-4.5 -32q0 -32 20.5 -50t56.5 -18q63 0 154 46.5t195 131.5q27 23 66 58.5t48 35.5q8 0 12 -4.5t5 -13.5q0 -11 -27 -38.5t-94 -84.5q-100 -85 -200 -132.5t-175 -47.5q-72 0 -115 44t-43 120q0 68 43 135.5t125 128.5q72 52 135 78t117 26
q48 0 68 -15.5t20 -53.5q0 -77 -113 -160t-280 -117zM158 238q135 28 227 90t92 116q0 19 -7 27t-24 8q-50 0 -123 -61.5t-165 -179.5zM567 784l-240 -127q-56 -29 -82 -40t-36 -11q-15 0 -21 4.5t-6 14.5q0 17 59 52q22 13 35 21q109 69 212.5 144.5t109.5 75.5
q9 -1 16.5 -7.5t9.5 -15.5l70 -243q2 -10 3 -16t1 -11q0 -11 -4.5 -17t-11.5 -6q-28 0 -97 145q-12 24 -18 37z" />
    <glyph glyph-name="edieresis" unicode="&#xeb;" horiz-adv-x="571" 
d="M129 178q-9 -19 -13.5 -37t-4.5 -32q0 -32 20.5 -50t56.5 -18q63 0 154 46.5t195 131.5q27 23 66 58.5t48 35.5q8 0 12 -4.5t5 -13.5q0 -11 -27 -38.5t-94 -84.5q-100 -85 -200 -132.5t-175 -47.5q-72 0 -115 44t-43 120q0 68 43 135.5t125 128.5q72 52 135 78t117 26
q48 0 68 -15.5t20 -53.5q0 -77 -113 -160t-280 -117zM158 238q135 28 227 90t92 116q0 19 -7 27t-24 8q-50 0 -123 -61.5t-165 -179.5zM254 750q0 38 24 64t60 26q30 0 47.5 -19t17.5 -51q0 -37 -24.5 -62.5t-59.5 -25.5q-31 0 -48 18t-17 50zM587 750q0 38 24.5 64t59.5 26
q31 0 47.5 -18.5t16.5 -51.5q0 -37 -24.5 -62.5t-59.5 -25.5q-31 0 -47.5 17.5t-16.5 50.5z" />
    <glyph glyph-name="iacute" unicode="&#xed;" horiz-adv-x="508" 
d="M223 369q-56 -32 -112.5 -75.5t-65.5 -43.5q-6 0 -10 4t-4 10q0 16 37 44l1 1l62 47q113 87 185 129.5t106 42.5q45 0 72.5 -6t27.5 -16q0 -7 -81.5 -75.5t-151.5 -137.5q-89 -87 -133.5 -144t-44.5 -81q0 -13 8 -20t22 -7q42 0 124.5 42t176.5 114q37 27 81.5 64.5
t51.5 37.5q6 0 10.5 -5t4.5 -11q0 -19 -95 -95l-22 -18q-102 -83 -198.5 -130.5t-157.5 -47.5q-44 0 -71.5 24t-27.5 62q0 51 51 123t154 168zM426 602q-10 0 -14 3.5t-4 10.5t68 56.5t110 115.5q14 23 32 72q35 90 82 90q29 0 45.5 -16.5t16.5 -44.5q0 -48 -43 -99
t-131 -108q-59 -39 -100.5 -59.5t-61.5 -20.5z" />
    <glyph glyph-name="igrave" unicode="&#xec;" horiz-adv-x="508" 
d="M223 369q-56 -32 -112.5 -75.5t-65.5 -43.5q-6 0 -10 4t-4 10q0 16 37 44l1 1l62 47q113 87 185 129.5t106 42.5q45 0 72.5 -6t27.5 -16q0 -7 -81.5 -75.5t-151.5 -137.5q-89 -87 -133.5 -144t-44.5 -81q0 -13 8 -20t22 -7q42 0 124.5 42t176.5 114q37 27 81.5 64.5
t51.5 37.5q6 0 10.5 -5t4.5 -11q0 -19 -95 -95l-22 -18q-102 -83 -198.5 -130.5t-157.5 -47.5q-44 0 -71.5 24t-27.5 62q0 51 51 123t154 168zM588 614q0 -5 -5 -10.5t-10 -5.5q-10 0 -22.5 9t-38.5 34q-81 87 -112 138.5t-31 94.5q0 38 18.5 60t48.5 22q29 0 44.5 -18
t15.5 -53q0 -3 -1 -23t-1 -37q0 -90 75 -182q19 -23 19 -29z" />
    <glyph glyph-name="icircumflex" unicode="&#xee;" horiz-adv-x="508" 
d="M223 369q-56 -32 -112.5 -75.5t-65.5 -43.5q-6 0 -10 4t-4 10q0 16 37 44l1 1l62 47q113 87 185 129.5t106 42.5q45 0 72.5 -6t27.5 -16q0 -7 -81.5 -75.5t-151.5 -137.5q-89 -87 -133.5 -144t-44.5 -81q0 -13 8 -20t22 -7q42 0 124.5 42t176.5 114q37 27 81.5 64.5
t51.5 37.5q6 0 10.5 -5t4.5 -11q0 -19 -95 -95l-22 -18q-102 -83 -198.5 -130.5t-157.5 -47.5q-44 0 -71.5 24t-27.5 62q0 51 51 123t154 168zM596 784l-240 -127q-56 -29 -82 -40t-36 -11q-15 0 -21 4.5t-6 14.5q0 17 59 52q22 13 35 21q109 69 212.5 144.5t109.5 75.5
q9 -1 16.5 -7.5t9.5 -15.5l70 -243q2 -10 3 -16t1 -11q0 -11 -4.5 -17t-11.5 -6q-28 0 -97 145q-12 24 -18 37z" />
    <glyph glyph-name="idieresis" unicode="&#xef;" horiz-adv-x="508" 
d="M223 369q-56 -32 -112.5 -75.5t-65.5 -43.5q-6 0 -10 4t-4 10q0 16 37 44l1 1l62 47q113 87 185 129.5t106 42.5q45 0 72.5 -6t27.5 -16q0 -7 -81.5 -75.5t-151.5 -137.5q-89 -87 -133.5 -144t-44.5 -81q0 -13 8 -20t22 -7q42 0 124.5 42t176.5 114q37 27 81.5 64.5
t51.5 37.5q6 0 10.5 -5t4.5 -11q0 -19 -95 -95l-22 -18q-102 -83 -198.5 -130.5t-157.5 -47.5q-44 0 -71.5 24t-27.5 62q0 51 51 123t154 168zM283 750q0 38 24 64t60 26q30 0 47.5 -19t17.5 -51q0 -37 -24.5 -62.5t-59.5 -25.5q-31 0 -48 18t-17 50zM616 750q0 38 24.5 64
t59.5 26q31 0 47.5 -18.5t16.5 -51.5q0 -37 -24.5 -62.5t-59.5 -25.5q-31 0 -47.5 17.5t-16.5 50.5z" />
    <glyph glyph-name="ntilde" unicode="&#xf1;" horiz-adv-x="883" 
d="M82 0q-9 -3 -23 -4.5t-47 -1.5q-34 0 -45.5 3t-11.5 11q0 18 88 99q59 55 96 92l24 22q202 196 202 225q-1 9 -4 13t-7 4q-28 0 -71.5 -27t-122.5 -96q-20 -17 -48 -43q-37 -35 -49 -35q-7 0 -12.5 5t-5.5 12q0 14 71 77q15 13 23 21q84 74 147 110.5t107 36.5
q32 0 49 -21t17 -63q0 -7 -1 -17t-3 -29q99 69 160 98.5t104 29.5q32 0 50.5 -19t18.5 -52q0 -36 -24.5 -73.5t-104.5 -113.5q-21 -20 -60 -56q-122 -114 -122 -138q0 -11 9 -18t24 -7q44 0 128.5 42.5t180.5 115.5q41 30 87 70t55 40q7 0 11 -4.5t5 -13.5q0 -18 -111 -108
l-5 -4q-110 -87 -211.5 -139t-155.5 -52q-45 0 -73 25t-28 65q0 48 36.5 105t105.5 116q22 19 60 51q93 78 93 92q0 7 -7 12t-17 5q-57 0 -222.5 -129.5t-359.5 -333.5zM568 852q41 0 125.5 -37t121.5 -37q45 0 81.5 49.5t45.5 49.5t15 -5t6 -12q0 -19 -22 -62.5t-56 -84.5
q-17 -21 -42.5 -32t-53.5 -11q-43 0 -128 36.5t-122 36.5q-45 0 -81.5 -49t-45.5 -49q-8 0 -13 4.5t-5 12.5q0 18 22 62t55 85q17 21 41.5 32t55.5 11z" />
    <glyph glyph-name="oacute" unicode="&#xf3;" horiz-adv-x="664" 
d="M53 78q0 -18 9 -25.5t28 -7.5q44 0 116 41t167 121q82 70 128 130.5t46 96.5q0 19 -11.5 30t-31.5 11q-34 0 -93 -32.5t-124 -88.5q-107 -91 -170.5 -166.5t-63.5 -109.5zM494 256q-129 -127 -236 -193.5t-182 -66.5q-52 0 -82.5 30t-30.5 80q0 70 56.5 148.5
t160.5 153.5q78 56 159.5 88t143.5 32q50 0 80.5 -26.5t30.5 -69.5q0 -29 -17.5 -65t-52.5 -78q11 -23 30 -34t46 -11q38 0 88 34.5t62 34.5q6 0 9 -4t3 -12q0 -20 -57 -57t-105 -37q-32 0 -57.5 12.5t-48.5 40.5zM461 602q-10 0 -14 3.5t-4 10.5t68 56.5t110 115.5
q14 23 32 72q35 90 82 90q29 0 45.5 -16.5t16.5 -44.5q0 -48 -43 -99t-131 -108q-59 -39 -100.5 -59.5t-61.5 -20.5z" />
    <glyph glyph-name="ograve" unicode="&#xf2;" horiz-adv-x="664" 
d="M53 78q0 -18 9 -25.5t28 -7.5q44 0 116 41t167 121q82 70 128 130.5t46 96.5q0 19 -11.5 30t-31.5 11q-34 0 -93 -32.5t-124 -88.5q-107 -91 -170.5 -166.5t-63.5 -109.5zM494 256q-129 -127 -236 -193.5t-182 -66.5q-52 0 -82.5 30t-30.5 80q0 70 56.5 148.5
t160.5 153.5q78 56 159.5 88t143.5 32q50 0 80.5 -26.5t30.5 -69.5q0 -29 -17.5 -65t-52.5 -78q11 -23 30 -34t46 -11q38 0 88 34.5t62 34.5q6 0 9 -4t3 -12q0 -20 -57 -57t-105 -37q-32 0 -57.5 12.5t-48.5 40.5zM623 614q0 -5 -5 -10.5t-10 -5.5q-10 0 -22.5 9t-38.5 34
q-81 87 -112 138.5t-31 94.5q0 38 18.5 60t48.5 22q29 0 44.5 -18t15.5 -53q0 -3 -1 -23t-1 -37q0 -90 75 -182q19 -23 19 -29z" />
    <glyph glyph-name="ocircumflex" unicode="&#xf4;" horiz-adv-x="664" 
d="M53 78q0 -18 9 -25.5t28 -7.5q44 0 116 41t167 121q82 70 128 130.5t46 96.5q0 19 -11.5 30t-31.5 11q-34 0 -93 -32.5t-124 -88.5q-107 -91 -170.5 -166.5t-63.5 -109.5zM494 256q-129 -127 -236 -193.5t-182 -66.5q-52 0 -82.5 30t-30.5 80q0 70 56.5 148.5
t160.5 153.5q78 56 159.5 88t143.5 32q50 0 80.5 -26.5t30.5 -69.5q0 -29 -17.5 -65t-52.5 -78q11 -23 30 -34t46 -11q38 0 88 34.5t62 34.5q6 0 9 -4t3 -12q0 -20 -57 -57t-105 -37q-32 0 -57.5 12.5t-48.5 40.5zM631 784l-240 -127q-56 -29 -82 -40t-36 -11q-15 0 -21 4.5
t-6 14.5q0 17 59 52q22 13 35 21q109 69 212.5 144.5t109.5 75.5q9 -1 16.5 -7.5t9.5 -15.5l70 -243q2 -10 3 -16t1 -11q0 -11 -4.5 -17t-11.5 -6q-28 0 -97 145q-12 24 -18 37z" />
    <glyph glyph-name="odieresis" unicode="&#xf6;" horiz-adv-x="664" 
d="M53 78q0 -18 9 -25.5t28 -7.5q44 0 116 41t167 121q82 70 128 130.5t46 96.5q0 19 -11.5 30t-31.5 11q-34 0 -93 -32.5t-124 -88.5q-107 -91 -170.5 -166.5t-63.5 -109.5zM494 256q-129 -127 -236 -193.5t-182 -66.5q-52 0 -82.5 30t-30.5 80q0 70 56.5 148.5
t160.5 153.5q78 56 159.5 88t143.5 32q50 0 80.5 -26.5t30.5 -69.5q0 -29 -17.5 -65t-52.5 -78q11 -23 30 -34t46 -11q38 0 88 34.5t62 34.5q6 0 9 -4t3 -12q0 -20 -57 -57t-105 -37q-32 0 -57.5 12.5t-48.5 40.5zM318 750q0 38 24 64t60 26q30 0 47.5 -19t17.5 -51
q0 -37 -24.5 -62.5t-59.5 -25.5q-31 0 -48 18t-17 50zM651 750q0 38 24.5 64t59.5 26q31 0 47.5 -18.5t16.5 -51.5q0 -37 -24.5 -62.5t-59.5 -25.5q-31 0 -47.5 17.5t-16.5 50.5z" />
    <glyph glyph-name="otilde" unicode="&#xf5;" horiz-adv-x="664" 
d="M53 78q0 -18 9 -25.5t28 -7.5q44 0 116 41t167 121q82 70 128 130.5t46 96.5q0 19 -11.5 30t-31.5 11q-34 0 -93 -32.5t-124 -88.5q-107 -91 -170.5 -166.5t-63.5 -109.5zM494 256q-129 -127 -236 -193.5t-182 -66.5q-52 0 -82.5 30t-30.5 80q0 70 56.5 148.5
t160.5 153.5q78 56 159.5 88t143.5 32q50 0 80.5 -26.5t30.5 -69.5q0 -29 -17.5 -65t-52.5 -78q11 -23 30 -34t46 -11q38 0 88 34.5t62 34.5q6 0 9 -4t3 -12q0 -20 -57 -57t-105 -37q-32 0 -57.5 12.5t-48.5 40.5zM445 852q41 0 125.5 -37t121.5 -37q45 0 81.5 49.5
t45.5 49.5t15 -5t6 -12q0 -19 -22 -62.5t-56 -84.5q-17 -21 -42.5 -32t-53.5 -11q-43 0 -128 36.5t-122 36.5q-45 0 -81.5 -49t-45.5 -49q-8 0 -13 4.5t-5 12.5q0 18 22 62t55 85q17 21 41.5 32t55.5 11z" />
    <glyph glyph-name="uacute" unicode="&#xfa;" horiz-adv-x="909" 
d="M223 369q-56 -32 -112.5 -75.5t-65.5 -43.5q-6 0 -10 4t-4 10q0 16 37 44l1 1l62 47q113 87 185 129.5t106 42.5q45 0 72.5 -6t27.5 -16q0 -3 -5 -9.5t-14 -13.5l-175 -153q-93 -81 -155 -158.5t-62 -103.5q0 -13 8 -20t22 -7q43 0 120.5 39t141.5 98l358 323q6 5 13 13
q16 16 29 16q48 0 80 -7.5t32 -16.5q0 -4 -5 -10t-12 -12l-175 -154q-93 -81 -155 -158.5t-62 -103.5q0 -13 8 -20t23 -7q31 0 105.5 35t158.5 92q60 41 120 93t68 52t12 -4.5t5 -13.5q0 -18 -95 -95l-22 -18q-111 -89 -213 -139.5t-166 -50.5q-54 0 -82.5 22.5t-28.5 65.5
q0 13 0.5 19t1.5 11q-110 -64 -175 -91t-109 -27t-71.5 24t-27.5 62q0 51 51 123t154 168zM627 602q-10 0 -14 3.5t-4 10.5t68 56.5t110 115.5q14 23 32 72q35 90 82 90q29 0 45.5 -16.5t16.5 -44.5q0 -48 -43 -99t-131 -108q-59 -39 -100.5 -59.5t-61.5 -20.5z" />
    <glyph glyph-name="ugrave" unicode="&#xf9;" horiz-adv-x="909" 
d="M223 369q-56 -32 -112.5 -75.5t-65.5 -43.5q-6 0 -10 4t-4 10q0 16 37 44l1 1l62 47q113 87 185 129.5t106 42.5q45 0 72.5 -6t27.5 -16q0 -3 -5 -9.5t-14 -13.5l-175 -153q-93 -81 -155 -158.5t-62 -103.5q0 -13 8 -20t22 -7q43 0 120.5 39t141.5 98l358 323q6 5 13 13
q16 16 29 16q48 0 80 -7.5t32 -16.5q0 -4 -5 -10t-12 -12l-175 -154q-93 -81 -155 -158.5t-62 -103.5q0 -13 8 -20t23 -7q31 0 105.5 35t158.5 92q60 41 120 93t68 52t12 -4.5t5 -13.5q0 -18 -95 -95l-22 -18q-111 -89 -213 -139.5t-166 -50.5q-54 0 -82.5 22.5t-28.5 65.5
q0 13 0.5 19t1.5 11q-110 -64 -175 -91t-109 -27t-71.5 24t-27.5 62q0 51 51 123t154 168zM789 614q0 -5 -5 -10.5t-10 -5.5q-10 0 -22.5 9t-38.5 34q-81 87 -112 138.5t-31 94.5q0 38 18.5 60t48.5 22q29 0 44.5 -18t15.5 -53q0 -3 -1 -23t-1 -37q0 -90 75 -182
q19 -23 19 -29z" />
    <glyph glyph-name="ucircumflex" unicode="&#xfb;" horiz-adv-x="909" 
d="M223 369q-56 -32 -112.5 -75.5t-65.5 -43.5q-6 0 -10 4t-4 10q0 16 37 44l1 1l62 47q113 87 185 129.5t106 42.5q45 0 72.5 -6t27.5 -16q0 -3 -5 -9.5t-14 -13.5l-175 -153q-93 -81 -155 -158.5t-62 -103.5q0 -13 8 -20t22 -7q43 0 120.5 39t141.5 98l358 323q6 5 13 13
q16 16 29 16q48 0 80 -7.5t32 -16.5q0 -4 -5 -10t-12 -12l-175 -154q-93 -81 -155 -158.5t-62 -103.5q0 -13 8 -20t23 -7q31 0 105.5 35t158.5 92q60 41 120 93t68 52t12 -4.5t5 -13.5q0 -18 -95 -95l-22 -18q-111 -89 -213 -139.5t-166 -50.5q-54 0 -82.5 22.5t-28.5 65.5
q0 13 0.5 19t1.5 11q-110 -64 -175 -91t-109 -27t-71.5 24t-27.5 62q0 51 51 123t154 168zM797 784l-240 -127q-56 -29 -82 -40t-36 -11q-15 0 -21 4.5t-6 14.5q0 17 59 52q22 13 35 21q109 69 212.5 144.5t109.5 75.5q9 -1 16.5 -7.5t9.5 -15.5l70 -243q2 -10 3 -16t1 -11
q0 -11 -4.5 -17t-11.5 -6q-28 0 -97 145q-12 24 -18 37z" />
    <glyph glyph-name="udieresis" unicode="&#xfc;" horiz-adv-x="909" 
d="M223 369q-56 -32 -112.5 -75.5t-65.5 -43.5q-6 0 -10 4t-4 10q0 16 37 44l1 1l62 47q113 87 185 129.5t106 42.5q45 0 72.5 -6t27.5 -16q0 -3 -5 -9.5t-14 -13.5l-175 -153q-93 -81 -155 -158.5t-62 -103.5q0 -13 8 -20t22 -7q43 0 120.5 39t141.5 98l358 323q6 5 13 13
q16 16 29 16q48 0 80 -7.5t32 -16.5q0 -4 -5 -10t-12 -12l-175 -154q-93 -81 -155 -158.5t-62 -103.5q0 -13 8 -20t23 -7q31 0 105.5 35t158.5 92q60 41 120 93t68 52t12 -4.5t5 -13.5q0 -18 -95 -95l-22 -18q-111 -89 -213 -139.5t-166 -50.5q-54 0 -82.5 22.5t-28.5 65.5
q0 13 0.5 19t1.5 11q-110 -64 -175 -91t-109 -27t-71.5 24t-27.5 62q0 51 51 123t154 168zM484 750q0 38 24 64t60 26q30 0 47.5 -19t17.5 -51q0 -37 -24.5 -62.5t-59.5 -25.5q-31 0 -48 18t-17 50zM817 750q0 38 24.5 64t59.5 26q31 0 47.5 -18.5t16.5 -51.5
q0 -37 -24.5 -62.5t-59.5 -25.5q-31 0 -47.5 17.5t-16.5 50.5z" />
    <glyph glyph-name="dagger" unicode="&#x2020;" horiz-adv-x="1006" 
d="M815 930l113 127q-98 -21 -177 -32t-126 -11q-38 0 -54 12t-16 39q0 32 21.5 46.5t68.5 14.5q45 0 110 -8.5t185 -32.5q18 56 47 150q81 266 141 266q30 0 50 -14t20 -35q0 -37 -60 -136.5t-163 -230.5q119 22 193.5 31.5t115.5 9.5q38 0 55 -12t17 -39q0 -32 -22 -46.5
t-68 -14.5q-45 0 -110 8.5t-185 32.5l-21 -156q-122 -216 -262 -489t-321 -652l-35 9q188 414 301 686.5t182 476.5z" />
    <glyph glyph-name="degree" unicode="&#xb0;" horiz-adv-x="674" 
d="M338 1389q-89 0 -151 -62t-62 -151t62.5 -151t150.5 -62t150.5 62t62.5 151q0 88 -62.5 150.5t-150.5 62.5zM338 1450q112 0 192 -80.5t80 -193.5q0 -114 -80 -193.5t-194 -79.5q-115 0 -194 79t-79 194q0 114 80.5 194t194.5 80z" />
    <glyph glyph-name="cent" unicode="&#xa2;" horiz-adv-x="721" 
d="M23 -170q-12 -15 -19 -20t-16 -5q-10 1 -15.5 7t-5.5 16q0 5 3 10.5t12 16.5l131 163q-40 22 -60 59t-20 89q0 148 138 256t351 121l105 135q12 17 18 20.5t14 3.5q10 0 16.5 -6t6.5 -16q0 -6 -10 -20q-4 -5 -6 -8l-93 -122q33 -16 50.5 -39.5t17.5 -52.5
q0 -41 -20 -64.5t-56 -23.5q-23 0 -36 14t-13 39q0 20 12.5 40t36.5 40l-20 13l-344 -441q17 -4 34 -6t33 -2q85 0 187.5 53.5t107.5 53.5q6 0 11.5 -4t5.5 -9q0 -32 -119 -86.5t-232 -54.5q-17 0 -32.5 2t-32.5 6zM158 78l331 422q-73 -11 -139 -52t-123 -112
q-44 -55 -69 -108.5t-25 -90.5q0 -20 6 -34.5t19 -24.5z" />
    <glyph glyph-name="sterling" unicode="&#xa3;" horiz-adv-x="1049" 
d="M160 61q-87 27 -162.5 40.5t-142.5 13.5q-29 0 -49.5 -10.5t-20.5 -22.5q0 -25 47.5 -39t130.5 -14q40 0 88.5 8t108.5 24zM207 35q-60 -26 -121 -38.5t-127 -12.5q-113 0 -169 23.5t-56 70.5q0 41 37.5 64.5t103.5 23.5q50 0 128 -17t220 -61q46 27 109 102.5t186 255.5
h-270q-28 0 -37.5 5t-9.5 16q0 12 13 19.5t36 7.5h297q203 322 357.5 464t297.5 142q75 0 119.5 -40.5t44.5 -107.5q0 -66 -35 -127t-69 -61q-6 0 -9.5 5t-3.5 13q0 5 35 60.5t35 109.5q0 47 -30.5 75t-80.5 28q-107 0 -213 -108.5t-307 -452.5h277q26 0 36.5 -5.5
t10.5 -17.5q-1 -12 -13.5 -18t-35.5 -7h-306q-78 -151 -168 -246t-192 -137q45 -16 89 -24t85 -8q83 0 152.5 22t158.5 80q25 16 58.5 44t46.5 28q9 0 14.5 -4t5.5 -11q0 -18 -19.5 -38.5t-76.5 -59.5q-93 -61 -171.5 -85.5t-170.5 -24.5q-51 0 -114 12.5t-148 40.5z" />
    <glyph glyph-name="section" unicode="&#xa7;" horiz-adv-x="1006" 
d="M498 526q-21 44 -32 89t-11 87q0 121 83 213t242 148q-13 35 -19.5 67.5t-6.5 61.5q0 125 113 217t270 92q90 0 158.5 -30t68.5 -64q0 -19 -11.5 -31t-29.5 -12q-12 0 -88.5 35t-147.5 35q-104 0 -161.5 -44t-57.5 -122q0 -36 13.5 -81t40.5 -100l104 -213
q24 -50 36.5 -99t12.5 -95q0 -132 -81.5 -222.5t-243.5 -140.5q15 -37 22.5 -68t7.5 -56q0 -125 -116 -218.5t-277 -93.5q-97 0 -166 30t-69 69q0 18 13.5 31.5t33.5 13.5q10 0 92 -39t160 -39q99 0 155 44.5t56 123.5q0 30 -10.5 68.5t-28.5 78.5zM725 369q124 16 191 72.5
t67 144.5q0 27 -9 59.5t-28 69.5l-141 291q-124 -17 -190 -73.5t-66 -144.5q0 -29 8.5 -61.5t26.5 -67.5z" />
    <glyph glyph-name="bullet" unicode="&#x2022;" horiz-adv-x="1208" 
d="M307 762q0 123 87 209t210 86q122 0 208.5 -86.5t86.5 -208.5t-87.5 -209.5t-209.5 -87.5q-123 0 -209 87t-86 210z" />
    <glyph glyph-name="paragraph" unicode="&#xb6;" 
d="M932 1479v-64h-129v-1415h-70v1415h-192v-1415h-70v782q-175 8 -278 102.5t-103 245.5q0 157 108.5 253t286.5 96h447z" />
    <glyph glyph-name="germandbls" unicode="&#xdf;" horiz-adv-x="891" 
d="M330 461q-93 -63 -186.5 -141t-104.5 -78q-5 0 -8.5 5t-3.5 13q0 19 98 98t281 205q293 382 521.5 593.5t344.5 211.5q35 0 54.5 -19t19.5 -55q0 -47 -40.5 -103t-154.5 -159q-39 -35 -120 -94q-154 -115 -200 -197q-41 -76 -67 -291q-6 -56 -10 -85q-16 -124 -39.5 -182
t-65.5 -95q118 60 218 142.5t104 82.5q7 0 11.5 -5t4.5 -13q0 -15 -43.5 -56t-112.5 -87q-110 -78 -218.5 -120t-194.5 -42q-64 0 -104 29t-40 75q0 37 23 60.5t57 23.5q25 0 40.5 -15t15.5 -38q0 -27 -18 -42t-48 -15q-8 0 -12 0.5t-6 0.5q4 -20 25 -30t61 -10q67 0 106 33
t72 122q30 80 68 269t87 270q47 74 291 269q39 32 60 48q102 84 152 142.5t50 93.5q0 18 -6.5 25.5t-23.5 7.5q-76 0 -231.5 -145.5t-342.5 -393.5l-989 -1319q-11 -16 -22 -22.5t-27 -6.5h-43q-16 1 -24.5 7t-8.5 16q0 4 2.5 9.5t5.5 10.5z" />
    <glyph glyph-name="registered" unicode="&#xae;" horiz-adv-x="1683" 
d="M717 717q12 -1 26.5 -1.5t40.5 -0.5q128 0 195.5 45t67.5 131q0 76 -58.5 121t-159.5 45q-54 0 -83 -20t-29 -56v-264zM469 1087h391q147 0 231.5 -52.5t84.5 -143.5q0 -75 -70 -122.5t-221 -76.5q92 -30 139.5 -78.5t71.5 -136.5q5 -20 12 -59q15 -88 55 -88
q41 0 60 30.5t20 97.5l37 1v-8q0 -88 -37.5 -132.5t-112.5 -44.5q-46 0 -79 18.5t-45 51.5q-16 39 -17.5 113.5t-9.5 99.5q-23 66 -76 96.5t-147 30.5q-6 0 -19 -1t-20 -1v-248q0 -56 29 -78t108 -25v-38h-385v38q79 3 108 25t29 78v512q0 57 -30 80t-107 25v36zM844 1298
q-123 0 -235.5 -47t-198.5 -135q-88 -89 -134.5 -201.5t-46.5 -236.5q0 -126 46.5 -238.5t134.5 -199.5q88 -89 198 -135t234 -46q126 0 236.5 46.5t195.5 134.5q88 91 135 203.5t47 234.5q0 123 -48 240.5t-132 201.5q-85 85 -198 131.5t-234 46.5zM844 1370
q134 0 261 -52.5t224 -148.5q96 -95 149.5 -225t53.5 -266q0 -135 -53 -261t-152 -227q-97 -98 -221.5 -150t-263.5 -52q-138 0 -262.5 51.5t-225.5 150.5q-99 100 -150.5 224t-51.5 264q0 138 51 263t149 224q97 98 225 151.5t267 53.5z" />
    <glyph glyph-name="copyright" unicode="&#xa9;" horiz-adv-x="1683" 
d="M1118 1093l31 1v-308h-37q-32 136 -104 205.5t-181 69.5q-127 0 -192.5 -95.5t-65.5 -281.5q0 -190 70 -286.5t207 -96.5q90 0 161 42.5t126 129.5l30 -20q-55 -102 -140.5 -154.5t-195.5 -52.5q-164 0 -279.5 122t-115.5 296q0 184 113.5 310t277.5 126q71 0 145 -34
t85 -34q28 0 44.5 16t20.5 45zM844 1298q-123 0 -235.5 -47t-198.5 -135q-88 -89 -134.5 -201.5t-46.5 -236.5q0 -126 46.5 -238.5t134.5 -199.5q88 -89 198 -135t234 -46q126 0 236.5 46.5t195.5 134.5q88 91 135 203.5t47 234.5q0 123 -48 240.5t-132 201.5
q-85 85 -198 131.5t-234 46.5zM844 1370q134 0 261 -52.5t224 -148.5q96 -95 149.5 -225t53.5 -266q0 -135 -53 -261t-152 -227q-97 -98 -221.5 -150t-263.5 -52q-138 0 -262.5 51.5t-225.5 150.5q-99 100 -150.5 224t-51.5 264q0 138 51 263t149 224q97 98 225 151.5
t267 53.5z" />
    <glyph glyph-name="trademark" unicode="&#x2122;" horiz-adv-x="1683" 
d="M801 1432h170l145 -414l158 414h162v-25h-31q-22 0 -35.5 -15t-13.5 -40v-369q0 -24 13.5 -39.5t35.5 -15.5h31v-25h-228v25h31q22 0 35.5 15.5t13.5 39.5v406l-186 -490h-8l-174 487v-403q0 -24 13.5 -39.5t35.5 -15.5h30v-25h-198v23h30q22 0 36 15.5t14 41.5v367
q0 24 -14 40.5t-36 16.5h-30v25zM264 1432h436l11 -175h-23q-8 81 -41.5 116.5t-101.5 35.5h-23v-426q0 -24 14 -39.5t35 -15.5h31v-25h-242v25h33q22 0 35.5 15.5t13.5 39.5v426h-22q-69 0 -102.5 -35.5t-41.5 -116.5h-22z" />
    <glyph glyph-name="acute" unicode="&#xb4;" 
d="M684 602q-10 0 -14 3.5t-4 10.5t68 56.5t110 115.5q14 23 32 72q35 90 82 90q29 0 45.5 -16.5t16.5 -44.5q0 -48 -43 -99t-131 -108q-59 -39 -100.5 -59.5t-61.5 -20.5z" />
    <glyph glyph-name="dieresis" unicode="&#xa8;" 
d="M541 750q0 38 24 64t60 26q30 0 47.5 -19t17.5 -51q0 -37 -24.5 -62.5t-59.5 -25.5q-31 0 -48 18t-17 50zM874 750q0 38 24.5 64t59.5 26q31 0 47.5 -18.5t16.5 -51.5q0 -37 -24.5 -62.5t-59.5 -25.5q-31 0 -47.5 17.5t-16.5 50.5z" />
    <glyph glyph-name="notequal" unicode="&#x2260;" horiz-adv-x="1706" 
d="M1217 1157l63 -49l-217 -277h389v-79h-440l-219 -283h659v-82h-711l-254 -324l-61 48l215 276h-387v82h436l221 283h-657v79h709z" />
    <glyph glyph-name="AE" unicode="&#xc6;" horiz-adv-x="2556" 
d="M504 252q97 72 186 146t168 149l100 94q-22 159 -103.5 248.5t-203.5 89.5q-131 0 -218 -97t-87 -245q0 -98 39.5 -194.5t118.5 -190.5zM868 76q49 112 74 220.5t25 213.5q0 27 -0.5 40t-2.5 25l-63 -59q-104 -95 -190 -168.5t-166 -136.5q62 -58 141.5 -91t181.5 -44z
M1010 615q2 -38 3 -57.5t1 -35.5q0 -87 -14.5 -173.5t-43.5 -174.5q290 285 613 722q85 114 121 159q65 82 156 174t206 190q-100 -6 -279 -128t-413 -345zM2030 856q43 -37 78.5 -54.5t66.5 -17.5q18 0 32.5 13t14.5 28q0 22 -21.5 31.5t-70.5 9.5q-26 0 -51.5 -2.5
t-48.5 -7.5zM836 35q-93 12 -175 48t-157 99q-139 -100 -234.5 -143t-177.5 -43q-98 0 -157.5 53.5t-59.5 140.5q0 69 40 114.5t97 45.5q40 0 65 -25t25 -65q0 -34 -21 -54t-56 -20q-17 0 -43 6.5t-33 6.5q-12 0 -17.5 -6.5t-5.5 -20.5q0 -54 46.5 -88.5t121.5 -34.5
q76 0 164.5 41t208.5 133q-89 106 -132.5 216.5t-43.5 230.5q0 183 93 300t237 117q139 0 241 -109t139 -300l338 309q314 287 487 394.5t306 107.5q17 0 29 -7t12 -16t-62.5 -73t-109.5 -119q-98 -113 -285 -371q-92 -128 -141 -192q69 63 164.5 109t218.5 75q-4 17 -6 36
t-2 38q0 73 33 146t94 132q120 119 278.5 187.5t310.5 68.5q113 0 175.5 -53.5t62.5 -151.5q0 -88 -58.5 -172t-164.5 -147q-71 -42 -152 -68t-125 -26q-6 0 -12 7t-6 15q0 17 55 36.5t92 39.5q136 75 223 176t87 176q0 54 -40 83.5t-112 29.5q-101 0 -242.5 -78
t-267.5 -207q-83 -85 -123.5 -146.5t-40.5 -103.5v-3q22 2 41 3.5t37 1.5q94 0 136 -21.5t42 -70.5q0 -38 -31 -61t-83 -23q-50 0 -93.5 25t-83.5 76q-92 -36 -183.5 -103t-182.5 -166q-88 -95 -131 -178.5t-43 -156.5q0 -86 65 -143.5t162 -57.5q93 0 196.5 49.5
t231.5 157.5q80 67 118 115t38 81q0 27 -20 42.5t-56 15.5q-74 0 -166 -43.5t-186 -122.5q-40 -33 -84.5 -82t-61.5 -49q-7 0 -11.5 6t-4.5 16q0 14 36.5 55.5t92.5 90.5q92 79 196 126.5t181 47.5q65 0 102 -35t37 -96q0 -49 -24.5 -101.5t-71.5 -103.5
q-100 -109 -233.5 -169.5t-274.5 -60.5q-152 0 -243 85t-91 225q0 61 19.5 127t60.5 143q-94 -122 -201 -240t-229 -235l-78 -74q-11 -11 -23.5 -15.5t-31.5 -4.5h-45q-11 0 -17 3t-6 7q0 1 1.5 5.5t4.5 10.5z" />
    <glyph glyph-name="Oslash" unicode="&#xd8;" horiz-adv-x="1366" 
d="M387 53l827 987q-164 -86 -314 -212t-271 -279q-51 -65 -104 -150.5t-70 -85.5q-7 0 -11 6t-4 15q0 35 62.5 141t156.5 217q170 200 327.5 310t311.5 137l264 313q-136 -2 -323.5 -106t-394.5 -293q-251 -228 -406 -460.5t-155 -359.5q0 -60 25 -103.5t79 -76.5z
M1632 1446l-254 -301q72 0 122 -30.5t75 -88.5q92 56 140 124.5t48 143.5q0 58 -32.5 96t-98.5 56zM1329 1083l-878 -1048q13 -3 27.5 -4.5t31.5 -1.5q128 0 298.5 84.5t340.5 234.5q186 164 287.5 318.5t103.5 273.5q-15 -5 -42 -15q-69 -24 -83 -24q-11 0 -17.5 4.5
t-6.5 12.5q0 19 51.5 38.5t85.5 40.5q-11 48 -42.5 72.5t-82.5 24.5q-15 0 -32.5 -2.5t-41.5 -8.5zM1589 965v-9q0 -123 -92 -276t-264 -315q-190 -180 -382.5 -282.5t-334.5 -102.5q-24 0 -50 4t-54 12l-234 -279q-4 -5 -11.5 -8.5t-12.5 -3.5q-13 0 -21 7t-8 18
q0 4 3 11.5t7 12.5l223 264q-69 40 -102 103t-33 155q0 200 126.5 416.5t365.5 423.5q208 182 428 282.5t407 100.5q21 0 30.5 -0.5t16.5 -1.5l162 194q4 6 11.5 9.5t13.5 3.5q12 0 20 -8t8 -19q0 -5 -2.5 -10.5t-7.5 -11.5l-141 -168q77 -26 116.5 -78.5t39.5 -128.5
q0 -93 -57 -172t-171 -143z" />
    <glyph glyph-name="infinity" unicode="&#x221e;" horiz-adv-x="1706" 
d="M889 557q54 -103 125 -154t162 -51q107 0 176 78t69 199q0 119 -63.5 196.5t-159.5 77.5q-87 0 -157.5 -77.5t-151.5 -268.5zM819 670q-52 102 -123.5 153t-163.5 51q-108 0 -176.5 -77.5t-68.5 -198.5q0 -118 63.5 -195t159.5 -77q88 0 158 76t151 268zM870 510
q-70 -138 -147.5 -202t-173.5 -64q-130 0 -220.5 106t-90.5 262q0 166 80 267.5t210 101.5q98 0 172.5 -64.5t135.5 -203.5q66 139 146 206.5t177 67.5q130 0 219.5 -106t89.5 -265q0 -166 -80.5 -269t-209.5 -103q-93 0 -164.5 61t-143.5 205z" />
    <glyph glyph-name="plusminus" unicode="&#xb1;" horiz-adv-x="1706" 
d="M254 141h1198v-82h-1198v82zM813 1161h80v-354h559v-80h-559v-352h-80v352h-559v80h559v354z" />
    <glyph glyph-name="lessequal" unicode="&#x2264;" horiz-adv-x="1706" 
d="M264 129h1178v-80h-1178v80zM1442 1171v-88l-1043 -350l1043 -352v-88l-1178 405v70z" />
    <glyph glyph-name="greaterequal" unicode="&#x2265;" horiz-adv-x="1706" 
d="M264 129h1178v-80h-1178v80zM264 1171l1178 -403v-70l-1178 -405v88l1043 352l-1043 350v88z" />
    <glyph glyph-name="yen" unicode="&#xa5;" horiz-adv-x="985" 
d="M248 0l282 444h-352l39 62h352l-24 135h-242l41 64h184l-79 329h98l108 -463l551 463h92l-389 -329h205l-39 -64h-239l-170 -135h319l-39 -62h-319l-285 -444h-94z" />
    <glyph glyph-name="mu" unicode="&#xb5;" horiz-adv-x="1051" 
d="M162 190q-21 -131 -41 -330q-28 -276 -101 -276q-29 0 -49 18t-20 44q0 39 59.5 287t98.5 432l108 520h119l-111 -518q-4 -20 -6 -41.5t-2 -46.5q0 -95 46.5 -153t121.5 -58q99 0 170 85t109 250l110 482h119l-117 -527q-13 -59 -19.5 -104.5t-6.5 -73.5q0 -44 20 -69
t55 -25q43 0 77.5 27t53.5 75q13 30 30 79q25 71 44 71q12 0 19.5 -8.5t7.5 -22.5q0 -30 -15.5 -82.5t-37.5 -93.5q-40 -72 -93.5 -108.5t-117.5 -36.5q-70 0 -107 45t-37 129q0 4 1 15.5t1 17.5q-43 -108 -110 -160.5t-160 -52.5t-149 53.5t-70 156.5z" />
    <glyph glyph-name="partialdiff" unicode="&#x2202;" 
d="M750 578q11 69 16.5 144.5t5.5 160.5q0 179 -38 266.5t-116 87.5q-45 0 -99.5 -73.5t-108.5 -73.5q-29 0 -48.5 18.5t-19.5 46.5q0 59 61 102t148 43q160 0 254 -147t94 -401q0 -335 -131.5 -557t-323.5 -222q-139 0 -224 105t-85 280q0 173 107 296.5t258 123.5
q97 0 158.5 -49t91.5 -151zM713 459q0 125 -47 190.5t-138 65.5q-117 0 -190.5 -125t-73.5 -330q0 -117 47.5 -179.5t137.5 -62.5q114 0 189 125.5t75 315.5z" />
    <glyph glyph-name="summation" unicode="&#x2211;" horiz-adv-x="1384" 
d="M8 1473h1090l80 -304h-68l-55 209q-5 16 -16.5 23.5t-32.5 7.5h-824l951 -879v-36l-914 -789h895q67 0 84.5 13t30.5 53l71 229h68l-119 -393h-1237v10l1018 872l-1022 941v43z" />
    <glyph glyph-name="product" unicode="&#x220f;" horiz-adv-x="1538" 
d="M61 1473h1416v-64h-187v-1739h187v-63h-494v63h207v1739h-842v-1739h207v-63h-494v63h187v1739h-187v64z" />
    <glyph glyph-name="pi" unicode="&#x3c0;" horiz-adv-x="1298" 
d="M1268 885l-25 -109h-311q-45 -219 -78 -520q-34 -299 -113 -299q-34 0 -54.5 22t-20.5 58q0 29 77.5 273.5t133.5 465.5h-361q-44 -219 -78 -520q-33 -299 -112 -299q-35 0 -55.5 22t-20.5 58q0 29 77.5 273.5t133.5 465.5h-189q-72 0 -111 -50.5t-71 -197.5h-65
q32 191 108.5 274t218.5 83h916z" />
    <glyph glyph-name="integral" unicode="&#x222b;" horiz-adv-x="948" 
d="M401 578q0 498 86.5 733t268.5 235q65 0 106 -35t41 -90q0 -45 -27.5 -71.5t-74.5 -26.5q-77 0 -101.5 64.5t-33.5 64.5q-67 0 -93 -159t-26 -687q0 -509 -85.5 -743t-268.5 -234q-64 0 -106 34.5t-42 84.5q0 48 28.5 77.5t76.5 29.5q33 0 56 -13.5t40 -42.5
q8 -14 12.5 -44.5t24.5 -30.5q66 0 92 165t26 689z" />
    <glyph glyph-name="ordfeminine" unicode="&#xaa;" horiz-adv-x="580" 
d="M199 1239l172 172q9 8 14.5 18t5.5 19q0 8 -4.5 12t-13.5 4q-27 0 -68.5 -19.5t-85.5 -53.5q-71 -55 -117.5 -115.5t-46.5 -89.5q1 -10 7.5 -15.5t15.5 -5.5q20 0 52 19.5t69 54.5zM205 1210q-45 -40 -83.5 -61t-68.5 -21q-32 0 -49.5 21.5t-17.5 60.5q0 47 24 89.5
t74 84.5q66 54 140 85.5t130 31.5q33 0 48 -11.5t18 -37.5q9 12 23 23t33 20q6 0 16.5 1t15.5 1q27 0 38 -3.5t11 -12.5q0 -10 -39 -42l-25 -20q-101 -90 -157.5 -153t-56.5 -84q0 -9 4.5 -13t15.5 -4q32 0 96 30t137 81q30 21 64 49.5t41 28.5q5 0 8.5 -3.5t3.5 -9.5
q0 -7 -15.5 -22t-70.5 -57q-85 -63 -161 -98.5t-123 -35.5q-35 0 -55.5 18t-20.5 48q0 7 0.5 10t1.5 6z" />
    <glyph glyph-name="ordmasculine" unicode="&#xba;" horiz-adv-x="498" 
d="M41 1190q0 -13 6.5 -19t20.5 -6q32 0 85 29t128 86q60 49 94.5 91t34.5 67q0 13 -8.5 20.5t-22.5 7.5q-27 0 -71 -22t-93 -62q-79 -62 -126.5 -115t-47.5 -77zM371 1315q-94 -89 -175 -135.5t-139 -46.5q-40 0 -63 20t-23 55q0 50 42.5 104.5t121.5 106.5q59 40 120 63
t107 23q38 0 61 -18.5t23 -48.5q0 -21 -13 -45.5t-39 -54.5q7 -17 21.5 -25t35.5 -8q28 0 65.5 24.5t46.5 24.5q5 -1 6.5 -3t1.5 -8q0 -14 -42.5 -40.5t-77.5 -26.5q-25 0 -44 9.5t-36 29.5z" />
    <glyph glyph-name="Omega" unicode="&#x3a9;" horiz-adv-x="1565" 
d="M1079 123v-23h318l78 232h59l-98 -332h-492q160 266 236.5 477.5t76.5 386.5q0 264 -125.5 416t-345.5 152q-219 0 -346 -152.5t-127 -415.5q0 -177 76.5 -388.5t237.5 -475.5h-492l-98 332h59l78 -232h318v23q-152 202 -224.5 388t-72.5 372q0 277 163.5 445.5
t427.5 168.5q265 0 428.5 -168.5t163.5 -445.5q0 -184 -73 -370t-226 -390z" />
    <glyph glyph-name="ae" unicode="&#xe6;" horiz-adv-x="903" 
d="M59 84q0 -17 8.5 -27t22.5 -10q23 0 72 29t98 74q88 81 148.5 166t60.5 114q0 25 -10 36t-33 11q-35 0 -95.5 -42t-129.5 -116q-60 -63 -101 -134.5t-41 -100.5zM600 446q44 39 89 58.5t87 19.5q39 0 57.5 -16.5t18.5 -52.5q0 -76 -112.5 -159.5t-278.5 -117.5
q-9 -19 -14 -37t-5 -32q0 -32 21 -50t57 -18q62 0 153.5 46.5t194.5 131.5q28 23 66.5 58.5t48.5 35.5q8 0 12 -5t4 -13q0 -11 -26.5 -38.5t-93.5 -84.5q-101 -85 -201 -132.5t-174 -47.5q-73 0 -114.5 43t-41.5 119q0 4 1 12t1 12q-92 -89 -169.5 -137.5t-127.5 -48.5
q-43 0 -67.5 31.5t-24.5 85.5q0 65 28 122.5t89 114.5q86 81 181 129.5t161 48.5q31 0 49.5 -14t28.5 -45l28 33q15 16 25.5 21t30.5 5h32q13 0 19 -3t6 -9q0 -3 -2 -9t-4 -9zM477 238q134 22 230 88t96 120q0 18 -7.5 25.5t-25.5 7.5q-55 0 -139 -67t-154 -174z" />
    <glyph glyph-name="oslash" unicode="&#xf8;" horiz-adv-x="688" 
d="M416 444q-156 -101 -259.5 -209t-103.5 -157q0 -19 12 -28t37 -9zM506 479l-328 -418q171 95 281 203t110 170q0 21 -14 33t-39 12h-10zM516 256q-114 -113 -209.5 -177t-173.5 -79l-125 -158q-11 -13 -17.5 -17.5t-13.5 -4.5q-9 0 -14.5 6t-5.5 16q0 5 3.5 12.5
t10.5 16.5l94 125q-51 9 -76.5 36t-25.5 74q0 70 56.5 148.5t160.5 153.5q72 52 148 83t157 41l82 107q8 11 15 15.5t16 4.5q10 0 15 -5.5t5 -16.5q0 -6 -3 -13t-11 -16l-65 -82q42 -18 59.5 -39.5t17.5 -54.5q0 -30 -17.5 -67.5t-49.5 -75.5q10 -23 28.5 -34t45.5 -11
q38 0 87.5 34.5t61.5 34.5q7 0 10.5 -4t3.5 -12q0 -20 -57.5 -57t-105.5 -37q-33 0 -58.5 12.5t-48.5 40.5z" />
    <glyph glyph-name="questiondown" unicode="&#xbf;" horiz-adv-x="1100" 
d="M961 1120q28 0 46.5 -16t18.5 -41q0 -38 -30 -68t-70 -30q-28 0 -46 16t-18 41q0 39 29.5 68.5t69.5 29.5zM879 870q0 -25 -37.5 -59.5t-159.5 -114.5q-6 -4 -19 -12q-153 -97 -249 -217q-73 -90 -113.5 -169t-40.5 -130q0 -59 38 -92t108 -33q72 0 160 35.5t163 95.5
q81 65 126.5 140t45.5 141q0 58 -34 92.5t-91 34.5q-84 0 -164 -69.5t-133 -188.5q-13 -29 -23 -80t-28 -51q-10 0 -14 4.5t-4 15.5q0 32 19 89t50 112q59 100 137 156.5t158 56.5q76 0 123 -48t47 -124q0 -79 -49.5 -161t-140.5 -155q-82 -64 -178 -101.5t-177 -37.5
q-98 0 -156.5 58.5t-58.5 158.5q0 72 26.5 143t78.5 140q94 125 312 227q20 10 29 14q93 43 129 64.5t54 40.5q6 6 17 20q19 27 32 27q7 0 11.5 -5.5t5.5 -17.5z" />
    <glyph glyph-name="exclamdown" unicode="&#xa1;" horiz-adv-x="768" 
d="M1034 1159q-29 0 -47 16.5t-18 41.5q0 38 30 68t70 30q28 0 46 -16.5t18 -41.5q0 -39 -29.5 -68.5t-69.5 -29.5zM911 974l-686 -927q-16 -22 -36 -34.5t-39 -12.5q-28 0 -52 17t-24 36q0 20 26 49q8 9 12 14l765 888q13 15 20.5 19.5t15.5 4.5t11.5 -5t3.5 -15
q0 -4 -4.5 -13t-12.5 -21z" />
    <glyph glyph-name="logicalnot" unicode="&#xac;" horiz-adv-x="1706" 
d="M254 856h1198v-502h-78v420h-1120v82z" />
    <glyph glyph-name="radical" unicode="&#x221a;" horiz-adv-x="1264" 
d="M1092 1626h172v-61h-129l-596 -1606h-31l-330 907l-110 -39l-15 50l230 79l278 -759z" />
    <glyph glyph-name="florin" unicode="&#x192;" horiz-adv-x="985" 
d="M756 635q-337 -505 -553.5 -735t-354.5 -230q-62 0 -99.5 30t-37.5 79q0 38 20 62t52 24q27 0 46 -17t19 -41q0 -20 -20.5 -43.5t-20.5 -31.5q0 -12 7 -17.5t22 -5.5q150 0 654 743q81 119 124 183h-180q-16 0 -23.5 5.5t-7.5 18.5q0 9 10 16t25 7h215
q226 291 361.5 408.5t238.5 117.5q63 0 101.5 -29.5t38.5 -78.5q0 -38 -21 -62t-53 -24q-28 0 -47 16t-19 39q0 21 20.5 44.5t20.5 31.5q0 13 -7 18.5t-21 5.5q-79 0 -186 -108t-292 -379h203q17 0 24 -6t7 -19q0 -8 -11 -15t-26 -7h-229z" />
    <glyph glyph-name="approxequal" unicode="&#x2248;" horiz-adv-x="1706" 
d="M1530 578v-93q-106 -74 -202 -110.5t-185 -36.5q-106 0 -295.5 70.5t-282.5 70.5q-83 0 -171 -35.5t-216 -124.5v93q105 73 201 109t186 36q106 0 295.5 -69.5t282.5 -69.5q83 0 171 35.5t216 124.5zM1530 903v-94q-105 -73 -200.5 -109t-186.5 -36q-106 0 -295.5 69.5
t-282.5 69.5q-83 0 -171 -35.5t-216 -124.5v92q106 75 202 111.5t185 36.5q106 0 295.5 -71t282.5 -71q81 0 168.5 36t218.5 126z" />
    <glyph glyph-name="Delta" unicode="&#x2206;" horiz-adv-x="995" 
d="M485 1272l-391 -1172h768zM492 1497h26l486 -1497h-1010z" />
    <glyph glyph-name="guillemotleft" unicode="&#xab;" horiz-adv-x="772" 
d="M178 283l282 210q12 8 20.5 11.5t13.5 3.5q9 0 13.5 -4.5t4.5 -14.5q0 -11 -20 -28l-2 -2l-222 -191l68 -213q3 -7 4.5 -13.5t1.5 -10.5q0 -9 -5 -16t-11 -7q-10 1 -15.5 6t-15.5 25zM406 283l284 211q13 8 19.5 11t11.5 3q10 -1 14 -5t4 -14q0 -11 -20 -28l-3 -3
l-220 -190l67 -212q3 -8 4.5 -14t1.5 -11q0 -9 -5 -16t-11 -7q-8 0 -14.5 5.5t-16.5 25.5z" />
    <glyph glyph-name="guillemotright" unicode="&#xbb;" horiz-adv-x="772" 
d="M590 231l-285 -208q-12 -9 -19 -12t-12 -3q-9 0 -13.5 4t-4.5 13q0 7 3.5 13t16.5 17l224 191l-70 215q-3 7 -4.5 13.5t-1.5 10.5q0 9 5.5 15t12.5 6q10 0 16 -5.5t15 -23.5zM362 231l-284 -208q-13 -9 -19.5 -12t-11.5 -3q-10 0 -15 4t-5 13q0 11 20 28l3 3l220 190
l-67 214q-3 8 -4.5 14t-1.5 11q0 9 4.5 15t11.5 6q10 0 17.5 -6.5t15.5 -22.5z" />
    <glyph glyph-name="ellipsis" unicode="&#x2026;" horiz-adv-x="2048" 
d="M248 0q-29 0 -46.5 16t-17.5 41q0 38 30 67.5t70 29.5q28 0 46 -16.5t18 -41.5q0 -38 -30 -67t-70 -29zM930 0q-29 0 -46.5 16t-17.5 41q0 38 30 67.5t70 29.5q28 0 46 -16.5t18 -41.5q0 -38 -30 -67t-70 -29zM1614 0q-29 0 -46.5 16t-17.5 41q0 38 30 67.5t70 29.5
q28 0 46 -16.5t18 -41.5q0 -38 -30 -67t-70 -29z" />
    <glyph glyph-name="nonbreakingspace" unicode="&#xa0;" horiz-adv-x="985" 
 />
    <glyph glyph-name="Agrave" unicode="&#xc0;" horiz-adv-x="1550" 
d="M985 76q49 112 73.5 220.5t24.5 213.5q0 27 -0.5 40.5t-1.5 24.5l-63 -59q-82 -76 -172 -152.5t-187 -152.5q62 -57 142.5 -90.5t183.5 -44.5zM621 252q97 72 185.5 146t168.5 149l100 94q-22 159 -104 248.5t-203 89.5q-131 0 -218 -97t-87 -245q0 -98 39.5 -194.5
t118.5 -190.5zM952 35q-93 12 -174.5 48t-156.5 99q-139 -100 -235 -143t-177 -43q-98 0 -157.5 53.5t-59.5 140.5q0 69 39.5 114.5t97.5 45.5q40 0 65 -25t25 -65q0 -34 -21 -54t-57 -20q-17 0 -42.5 6.5t-32.5 6.5q-12 0 -17.5 -6.5t-5.5 -20.5q0 -54 46 -88.5t122 -34.5
q75 0 168 43.5t205 130.5q-89 106 -132.5 216.5t-43.5 230.5q0 183 92.5 300t234.5 117q140 0 243 -109.5t140 -299.5l338 309q314 287 487 394.5t306 107.5q17 0 29 -7t12 -16q0 -5 -113 -126.5t-213 -258.5q-29 -39 -89 -121q-414 -568 -738 -880q102 5 188 35.5t168 91.5
q39 28 84 67t53 39t12 -4.5t5 -13.5q0 -12 -24 -35t-95 -80q-96 -76 -202.5 -112t-243.5 -37l-23 -25q-9 -10 -22.5 -15t-32.5 -5h-46q-11 0 -16.5 3t-5.5 7q0 1 1.5 5.5t4.5 10.5zM1127 615q2 -42 2.5 -61t0.5 -36q0 -89 -13.5 -175t-41.5 -169q217 245 453.5 545
t275.5 344q84 93 175 182t190 174q-100 -6 -279 -128t-413 -345zM2314 1618q0 -5 -5 -10.5t-10 -5.5q-10 0 -22.5 9t-38.5 34q-81 87 -112 138.5t-31 94.5q0 38 18.5 60t48.5 22q29 0 44.5 -18t15.5 -53q0 -3 -1 -23t-1 -37q0 -90 75 -182q19 -23 19 -29z" />
    <glyph glyph-name="Atilde" unicode="&#xc3;" horiz-adv-x="1550" 
d="M985 76q49 112 73.5 220.5t24.5 213.5q0 27 -0.5 40.5t-1.5 24.5l-63 -59q-82 -76 -172 -152.5t-187 -152.5q62 -57 142.5 -90.5t183.5 -44.5zM621 252q97 72 185.5 146t168.5 149l100 94q-22 159 -104 248.5t-203 89.5q-131 0 -218 -97t-87 -245q0 -98 39.5 -194.5
t118.5 -190.5zM952 35q-93 12 -174.5 48t-156.5 99q-139 -100 -235 -143t-177 -43q-98 0 -157.5 53.5t-59.5 140.5q0 69 39.5 114.5t97.5 45.5q40 0 65 -25t25 -65q0 -34 -21 -54t-57 -20q-17 0 -42.5 6.5t-32.5 6.5q-12 0 -17.5 -6.5t-5.5 -20.5q0 -54 46 -88.5t122 -34.5
q75 0 168 43.5t205 130.5q-89 106 -132.5 216.5t-43.5 230.5q0 183 92.5 300t234.5 117q140 0 243 -109.5t140 -299.5l338 309q314 287 487 394.5t306 107.5q17 0 29 -7t12 -16q0 -5 -113 -126.5t-213 -258.5q-29 -39 -89 -121q-414 -568 -738 -880q102 5 188 35.5t168 91.5
q39 28 84 67t53 39t12 -4.5t5 -13.5q0 -12 -24 -35t-95 -80q-96 -76 -202.5 -112t-243.5 -37l-23 -25q-9 -10 -22.5 -15t-32.5 -5h-46q-11 0 -16.5 3t-5.5 7q0 1 1.5 5.5t4.5 10.5zM1127 615q2 -42 2.5 -61t0.5 -36q0 -89 -13.5 -175t-41.5 -169q217 245 453.5 545
t275.5 344q84 93 175 182t190 174q-100 -6 -279 -128t-413 -345zM2136 1856q41 0 125.5 -37t121.5 -37q45 0 81.5 49.5t45.5 49.5t15 -5t6 -12q0 -19 -22 -62.5t-56 -84.5q-17 -21 -42.5 -32t-53.5 -11q-43 0 -128 36.5t-122 36.5q-45 0 -81.5 -49t-45.5 -49q-8 0 -13 4.5
t-5 12.5q0 18 22 62t55 85q17 21 41.5 32t55.5 11z" />
    <glyph glyph-name="Otilde" unicode="&#xd5;" horiz-adv-x="1366" 
d="M1540 940q-15 -5 -42 -15q-69 -24 -83 -24q-11 0 -17.5 4.5t-6.5 12.5q0 19 51.5 38.5t84.5 40.5q-9 47 -43 72t-87 25q-116 0 -316 -129t-385 -334q-83 -93 -154.5 -205.5t-86.5 -112.5q-7 0 -11 6t-4 15q0 35 62.5 141t156.5 217q186 222 367.5 337.5t343.5 115.5
q80 0 131 -29.5t74 -89.5q91 56 139.5 125.5t48.5 144.5q0 72 -55 114t-147 42q-131 0 -318.5 -104.5t-398.5 -296.5q-251 -229 -406 -460t-155 -358q0 -97 61.5 -150.5t173.5 -53.5q137 0 344 114.5t387 298.5q144 147 216.5 271.5t74.5 226.5zM1589 965v-11
q0 -93 -55 -205t-166 -241q-97 -113 -206 -207t-228 -168q-120 -75 -224.5 -113t-189.5 -38q-142 0 -219.5 77t-77.5 217q0 166 91.5 349.5t260.5 357.5q238 244 499.5 381t481.5 137q120 0 190.5 -60t70.5 -161q0 -93 -57 -172t-171 -143zM1549 1856q41 0 125.5 -37
t121.5 -37q45 0 81.5 49.5t45.5 49.5t15 -5t6 -12q0 -19 -22 -62.5t-56 -84.5q-17 -21 -42.5 -32t-53.5 -11q-43 0 -128 36.5t-122 36.5q-45 0 -81.5 -49t-45.5 -49q-8 0 -13 4.5t-5 12.5q0 18 22 62t55 85q17 21 41.5 32t55.5 11z" />
    <glyph glyph-name="OE" unicode="&#x152;" horiz-adv-x="2480" 
d="M1540 940q-15 -5 -42 -15q-69 -24 -83 -24q-11 0 -17.5 4.5t-6.5 12.5q0 19 51.5 38.5t84.5 40.5q-9 47 -43 72t-87 25q-116 0 -316 -129t-385 -334q-83 -93 -154.5 -205.5t-86.5 -112.5q-7 0 -11 6t-4 15q0 35 62.5 141t156.5 217q186 222 367.5 337.5t343.5 115.5
q80 0 131 -29.5t74 -89.5q91 56 139.5 125.5t48.5 144.5q0 72 -55 114t-147 42q-131 0 -318.5 -104.5t-398.5 -296.5q-251 -229 -406 -460t-155 -358q0 -97 61.5 -150.5t173.5 -53.5q137 0 344 114.5t387 298.5q144 147 216.5 271.5t74.5 226.5zM1956 856q31 -36 65 -54
t72 -18q24 0 39.5 11.5t15.5 27.5q0 21 -21 33t-59 12q-27 0 -55 -3t-57 -9zM1589 965v-11q0 -44 -13.5 -94t-39.5 -104q73 48 159 82.5t189 56.5q-4 18 -6 36.5t-2 37.5q0 73 33.5 146t93.5 132q120 119 278.5 187.5t311.5 68.5q112 0 173.5 -53.5t61.5 -151.5
q0 -88 -58.5 -172t-164.5 -147q-71 -42 -151 -68t-123 -26q-7 0 -13 7t-6 15q0 17 55.5 36.5t92.5 39.5q135 75 222 176t87 176q0 54 -39.5 83.5t-112.5 29.5q-101 0 -242.5 -78t-267.5 -207q-83 -85 -123 -146.5t-40 -103.5v-4q21 3 40 4.5t37 1.5q94 0 136.5 -21.5
t42.5 -70.5q0 -38 -31.5 -61t-83.5 -23q-50 0 -94.5 25t-83.5 76q-91 -35 -182 -102t-183 -167q-89 -96 -132.5 -179.5t-43.5 -155.5q0 -85 66 -143t163 -58q94 0 198.5 50.5t229.5 156.5q80 67 118 115t38 81q0 27 -20 42.5t-56 15.5q-74 0 -167.5 -43.5t-186.5 -122.5
q-40 -34 -83.5 -82.5t-59.5 -48.5q-8 0 -12.5 6t-4.5 16q0 14 36.5 55.5t92.5 90.5q92 79 196 126.5t181 47.5q65 0 101 -35t36 -96q0 -50 -24 -102.5t-70 -102.5q-99 -108 -233 -169t-275 -61q-157 0 -248.5 90.5t-91.5 243.5q0 29 4.5 61.5t13.5 69.5
q-218 -219 -424 -338.5t-364 -119.5q-142 0 -219.5 77t-77.5 217q0 166 91.5 349.5t260.5 357.5q238 244 499.5 381t481.5 137q120 0 190.5 -60t70.5 -161q0 -93 -57 -172t-171 -143z" />
    <glyph glyph-name="oe" unicode="&#x153;" horiz-adv-x="975" 
d="M594 426q69 49 130 73.5t114 24.5q47 0 66.5 -16t19.5 -53q0 -77 -113 -161t-279 -116q-10 -22 -15 -39.5t-5 -29.5q0 -32 21.5 -50t58.5 -18q62 0 153 46.5t195 131.5q28 23 66.5 58.5t48.5 35.5q7 0 10.5 -4.5t3.5 -13.5q0 -12 -28 -41t-91 -82q-99 -84 -200.5 -132
t-176.5 -48t-115 43t-40 123q0 5 1 14.5t1 13.5q-109 -95 -195 -142.5t-149 -47.5q-52 0 -82.5 30t-30.5 80q0 70 56.5 148.5t160.5 153.5q78 56 158.5 88t142.5 32q51 0 79 -25t34 -77zM53 78q0 -18 9 -25.5t28 -7.5q44 0 116 41t167 121q82 70 128 130.5t46 96.5
q0 19 -11.5 30t-31.5 11q-34 0 -93 -32.5t-124 -88.5q-107 -91 -170.5 -166.5t-63.5 -109.5zM561 238q133 26 226.5 90t93.5 116q0 19 -8 27t-25 8q-50 0 -122 -60.5t-165 -180.5z" />
    <glyph glyph-name="endash" unicode="&#x2013;" 
d="M61 305h963l-63 -61h-961z" />
    <glyph glyph-name="emdash" unicode="&#x2014;" horiz-adv-x="2048" 
d="M2048 305l-84 -61h-1855l81 61h1858z" />
    <glyph glyph-name="quotedblleft" unicode="&#x201c;" horiz-adv-x="829" 
d="M1122 1108h6q27 0 41.5 -14.5t14.5 -40.5q0 -42 -30 -76.5t-67 -34.5q-31 0 -51 20t-20 52q0 73 81 143t152 70q11 0 16.5 -3t6.5 -10q0 -15 -55 -42.5t-95 -63.5zM872 1108h7q26 0 40.5 -14.5t14.5 -40.5q0 -42 -30 -76.5t-66 -34.5q-31 0 -50.5 20t-19.5 52
q0 73 81.5 143t151.5 70q11 0 17 -3.5t6 -9.5q0 -15 -56 -42.5t-96 -63.5z" />
    <glyph glyph-name="quotedblright" unicode="&#x201d;" horiz-adv-x="829" 
d="M909 1063h-6q-26 0 -40.5 14.5t-14.5 40.5q0 42 30 76.5t66 34.5q31 0 51.5 -21t20.5 -53q0 -73 -82 -142t-154 -69q-11 0 -15.5 2.5t-4.5 7.5q0 16 55 44.5t94 64.5zM1159 1063h-6q-26 0 -40.5 14.5t-14.5 40.5q0 42 29.5 76.5t66.5 34.5q31 0 50.5 -21t19.5 -53
q0 -73 -81.5 -142t-152.5 -69q-12 0 -17 2.5t-5 7.5q0 16 55.5 44.5t95.5 64.5z" />
    <glyph glyph-name="quoteleft" unicode="&#x2018;" horiz-adv-x="584" 
d="M877 1108h6q26 0 39.5 -13.5t13.5 -39.5q0 -42 -30 -76.5t-66 -34.5q-31 0 -50.5 20t-19.5 52q0 37 19 71.5t59 67.5q37 31 82.5 52.5t66.5 21.5q12 0 19.5 -4t7.5 -11q0 -14 -54.5 -42.5t-92.5 -63.5z" />
    <glyph glyph-name="quoteright" unicode="&#x2019;" horiz-adv-x="584" 
d="M909 1065h-6q-26 0 -39.5 14.5t-13.5 40.5q0 42 29.5 75.5t66.5 33.5q31 0 50.5 -20t19.5 -52q0 -37 -19.5 -71.5t-58.5 -67.5q-39 -31 -84 -52.5t-66 -21.5q-11 0 -18.5 4t-7.5 10q0 15 54.5 43.5t92.5 63.5z" />
    <glyph glyph-name="divide" unicode="&#xf7;" horiz-adv-x="1706" 
d="M854 365q41 0 69.5 -29.5t28.5 -71.5q0 -40 -28.5 -69t-69.5 -29t-69.5 28.5t-28.5 69.5t29 71t69 30zM254 651h1198v-82h-1198v82zM854 1055q41 0 69.5 -28.5t28.5 -70.5q0 -40 -28.5 -70t-69.5 -30t-69.5 29.5t-28.5 70.5t28.5 70t69.5 29z" />
    <glyph glyph-name="lozenge" unicode="&#x25ca;" horiz-adv-x="1012" 
d="M506 1409l-385 -817l385 -825l385 825zM506 1653l500 -1061l-500 -1069l-500 1069z" />
    <glyph glyph-name="ydieresis" unicode="&#xff;" horiz-adv-x="958" 
d="M457 -33q-218 -272 -367 -408.5t-227 -136.5q-43 0 -67.5 26.5t-24.5 72.5q0 109 159.5 240t421.5 229l43 71q-50 -34 -100 -51.5t-96 -17.5q-45 0 -73 25t-28 65q0 48 37.5 106.5t106.5 116.5q19 17 52 45q99 83 99 96q0 7 -6.5 12t-15.5 5q-16 0 -48.5 -15.5
t-72.5 -41.5q-61 -42 -119.5 -93t-67.5 -51q-6 0 -12 5.5t-6 11.5q0 10 29 39t76 65q92 71 159.5 105t114.5 34q32 0 51 -19t19 -52q0 -36 -25 -73.5t-104 -113.5q-28 -26 -75 -70q-108 -101 -108 -124q1 -12 12.5 -19.5t28.5 -7.5q34 0 78.5 23t97.5 69l289 250
q43 37 84.5 70t81.5 61h25q26 0 36.5 -4t10.5 -14q0 -9 -153 -160.5t-292 -323.5q97 16 184 52.5t183 101.5q60 41 120 93t68 52t12 -4.5t5 -13.5q0 -14 -42 -52.5t-114 -90.5q-107 -78 -213.5 -122.5t-226.5 -62.5zM307 -78q-229 -101 -357 -206t-128 -189q0 -27 13 -44.5
t32 -17.5q52 0 157 108.5t283 348.5zM508 750q0 38 24 64t60 26q30 0 47.5 -19t17.5 -51q0 -37 -24.5 -62.5t-59.5 -25.5q-31 0 -48 18t-17 50zM841 750q0 38 24.5 64t59.5 26q31 0 47.5 -18.5t16.5 -51.5q0 -37 -24.5 -62.5t-59.5 -25.5q-31 0 -47.5 17.5t-16.5 50.5z" />
    <glyph glyph-name="Ydieresis" unicode="&#x178;" horiz-adv-x="1655" 
d="M1446 557q-128 -111 -235.5 -168t-188.5 -57q-67 0 -108.5 44t-41.5 116q0 73 45.5 148t212.5 241l13 12q252 248 252 348q0 97 -90 157t-238 60q-139 0 -279 -55t-258 -156q-85 -74 -132.5 -157.5t-47.5 -159.5q0 -80 46.5 -126t125.5 -46q97 0 228 92t239 240
q38 51 63.5 115.5t34.5 64.5q6 -1 9.5 -9t3.5 -20q0 -47 -36 -131t-93 -160q-89 -120 -196.5 -179.5t-233.5 -59.5q-105 0 -170.5 60.5t-65.5 158.5q0 82 48.5 169.5t138.5 168.5q125 112 274 171.5t303 59.5q179 0 285 -82t106 -219q0 -87 -55 -181.5t-186 -230.5
q-31 -31 -86 -85q-187 -182 -187 -259q0 -34 19.5 -50.5t60.5 -16.5q109 0 313.5 160t466.5 452q169 189 303 304.5t177 115.5q8 0 14 -5t6 -11q0 -18 -46 -45q-31 -18 -48 -31q-89 -67 -186 -179.5t-222 -295.5q-26 -39 -77 -117q-240 -366 -429 -514
q-144 -112 -303 -169.5t-325 -57.5q-173 0 -276 61t-103 162q0 62 39 104.5t96 42.5q45 0 69.5 -22t24.5 -62q0 -36 -21 -57t-57 -21q-23 0 -50.5 9.5t-33.5 9.5t-10 -8t-4 -21q0 -62 86 -108.5t213 -46.5q216 0 415.5 132t387.5 400zM1747 1754q0 38 24 64t60 26
q30 0 47.5 -19t17.5 -51q0 -37 -24.5 -62.5t-59.5 -25.5q-31 0 -48 18t-17 50zM2080 1754q0 38 24.5 64t59.5 26q31 0 47.5 -18.5t16.5 -51.5q0 -37 -24.5 -62.5t-59.5 -25.5q-31 0 -47.5 17.5t-16.5 50.5z" />
    <glyph glyph-name="fraction" unicode="&#x2215;" horiz-adv-x="285" 
d="M812 1031q2 2 8 7q16 15 24 15q10 0 16 -6.5t6 -16.5q0 -7 -4 -13.5t-12 -12.5l-1094 -996q-3 -3 -10 -9q-13 -13 -22 -13q-11 0 -16 5.5t-5 16.5q0 6 4 13t10 14z" />
    <glyph glyph-name="currency" unicode="&#xa4;" horiz-adv-x="862" 
d="M1202 920q0 -49 -33 -84t-84 -35q-29 0 -50 19.5t-21 49.5q0 44 30.5 71t100.5 40q-1 2 -1.5 5t-2.5 5q-15 15 -29 20t-35 5q-82 0 -234.5 -108t-320.5 -281h314q26 0 36.5 -5.5t10.5 -17.5q0 -11 -13 -17.5t-36 -6.5l-357 -1l-27 -30q-39 -43 -57 -66h279q26 0 36.5 -5
t10.5 -17q0 -11 -13.5 -18t-35.5 -7h-314q-75 -96 -115 -175.5t-40 -131.5q0 -39 20.5 -60.5t59.5 -21.5q50 0 109.5 17.5t123.5 52.5q79 42 146.5 91.5t74.5 49.5h2q4 0 9 -2.5t6 -5.5q0 -11 -20 -32t-66 -58q-103 -84 -205.5 -129t-190.5 -45q-64 0 -105.5 41.5
t-41.5 111.5q0 42 9.5 86.5t29.5 93.5q14 31 29 60.5t32 56.5h-63q-29 0 -38 4.5t-9 16.5t13 19t36 7h94q20 28 40 52t40 45h-74q-29 0 -38 4.5t-9 15.5q0 12 13.5 19.5t35.5 7.5h117q48 48 108.5 99.5t163.5 131.5q109 81 230.5 138t193.5 57q58 0 91.5 -34.5t33.5 -98.5z
" />
    <glyph glyph-name="guilsinglleft" unicode="&#x2039;" horiz-adv-x="537" 
d="M178 283l282 210q12 8 20.5 11.5t13.5 3.5q9 0 13.5 -4.5t4.5 -14.5q0 -11 -20 -28l-2 -2l-222 -191l68 -213q3 -7 4.5 -13.5t1.5 -10.5q0 -9 -5 -16t-11 -7q-10 1 -15.5 6t-15.5 25z" />
    <glyph glyph-name="guilsinglright" unicode="&#x203a;" horiz-adv-x="537" 
d="M362 231l-284 -208q-13 -9 -19.5 -12t-11.5 -3q-10 0 -15 4t-5 13q0 11 20 28l3 3l220 190l-67 214q-3 8 -4.5 14t-1.5 11q0 9 4.5 15t11.5 6q10 0 17.5 -6.5t15.5 -22.5z" />
    <glyph glyph-name="fi" unicode="&#xf001;" horiz-adv-x="1022" 
d="M1141 791q0 28 20 45.5t53 17.5t52.5 -17.5t19.5 -45.5q0 -30 -19.5 -48t-52.5 -18t-53 18t-20 48zM2 68q-8 15 -12 29t-4 28q0 24 13 37.5t36 13.5q12 0 22 -2.5t19 -7.5l182 246q-62 -47 -134.5 -108.5t-84.5 -61.5q-5 0 -8.5 5t-3.5 13q0 23 244 209l79 61
q295 393 532 615.5t357 222.5q35 0 54.5 -19t19.5 -55q0 -89 -174 -241.5t-584 -419.5l-383 -508q18 -5 34.5 -7.5t31.5 -2.5q59 0 126 31.5t158 103.5l47 38q301 240 367 240q44 0 71 -6t27 -16q0 -7 -81 -75.5t-150 -137.5q-88 -87 -133 -144t-45 -81q0 -13 8 -20t22 -7
q42 0 123 42t176 114q37 27 81.5 64.5t51.5 37.5t12 -5t5 -11q0 -19 -95 -95l-22 -18q-101 -82 -198.5 -130t-159.5 -48q-43 0 -70 23.5t-27 62.5q0 51 51 123t154 168q-238 -204 -363 -272t-233 -68q-16 0 -24.5 0.5t-14.5 0.5l-430 -579q-11 -16 -22 -22.5t-27 -6.5h-45
q-15 0 -23 6t-8 17q0 4 2.5 9.5t6.5 10.5zM662 770q279 167 441.5 304t162.5 202q0 18 -7 25.5t-24 7.5q-75 0 -207 -123.5t-366 -415.5z" />
    <glyph glyph-name="fl" unicode="&#xf002;" horiz-adv-x="1147" 
d="M664 770q279 167 441.5 304t162.5 202q0 17 -7.5 25t-25.5 8q-74 0 -206 -124t-365 -415zM6 68q-9 17 -13.5 30.5t-4.5 26.5q0 24 13 37.5t36 13.5q12 0 22 -2.5t19 -7.5l180 246q-62 -47 -134.5 -108.5t-84.5 -61.5q-5 0 -8.5 5t-3.5 13q0 23 244 209l79 61
q301 398 536 618t355 220q35 0 54.5 -19t19.5 -55q0 -89 -174 -241.5t-584 -419.5l-383 -508q13 -5 27.5 -7.5t29.5 -2.5q92 0 241 79.5t349 235.5l666 774q13 15 23.5 20t27.5 5q32 0 52 -7.5t20 -19.5q0 -8 -3.5 -14.5t-15.5 -18.5l-694 -811q-76 -89 -117 -158.5
t-41 -109.5q0 -23 8.5 -34t26.5 -11q50 0 126.5 39t189.5 123q36 28 82 67t55 39q7 0 11.5 -5t4.5 -13q0 -18 -112 -109l-5 -4q-111 -89 -212.5 -139.5t-165.5 -50.5q-46 0 -71.5 25t-25.5 69q0 51 23 108.5t69 124.5q-185 -144 -338 -217t-270 -73q-5 0 -15.5 1t-15.5 1
l-430 -580q-11 -16 -22 -22.5t-27 -6.5h-45q-15 0 -23 6t-8 17q0 4 2.5 9.5t6.5 10.5z" />
    <glyph glyph-name="daggerdbl" unicode="&#x2021;" horiz-adv-x="1006" 
d="M672 659q71 107 136 208.5t120 189.5q-98 -21 -177 -32t-126 -11q-38 0 -54 12t-16 39q0 32 21.5 46.5t68.5 14.5q45 0 110 -8.5t185 -32.5q18 56 47 150q81 266 141 266q30 0 50 -14t20 -35q0 -37 -60 -136.5t-163 -230.5q119 22 193.5 31.5t115.5 9.5q38 0 55 -12
t17 -39q0 -32 -22 -46.5t-68 -14.5q-45 0 -110 8.5t-185 32.5q-37 -106 -73 -221t-71 -238q-81 -123 -146 -223t-110 -172q98 20 177 31.5t126 11.5q37 0 53.5 -13t16.5 -41q0 -31 -21.5 -46t-68.5 -15q-44 0 -107 8.5t-186 32.5q-16 -51 -44 -140q-85 -276 -146 -276
q-30 0 -50 14.5t-20 34.5q0 38 60 137.5t163 229.5q-119 -21 -193.5 -31t-115.5 -10q-38 0 -55 12t-17 39q0 32 23 48t70 16q70 0 287 -42l5 -1q35 96 71 212t73 246z" />
    <glyph glyph-name="periodcentered" unicode="&#xb7;" horiz-adv-x="494" 
d="M307 520q0 34 24 58t58 24q35 0 59.5 -24t24.5 -58q0 -35 -24.5 -59.5t-59.5 -24.5q-34 0 -58 24.5t-24 59.5z" />
    <glyph glyph-name="quotesinglbase" unicode="&#x201a;" horiz-adv-x="541" 
d="M152 0h-7q-26 0 -40.5 14.5t-14.5 40.5q0 42 30 76.5t66 34.5q31 0 50.5 -20.5t19.5 -53.5q0 -73 -81 -142t-152 -69q-12 0 -17.5 3t-5.5 7q0 16 56 44.5t96 64.5z" />
    <glyph glyph-name="quotedblbase" unicode="&#x201e;" horiz-adv-x="786" 
d="M420 2h-6q-26 0 -40 14.5t-14 40.5q0 42 30 75.5t67 33.5q31 0 50 -20t19 -52q0 -73 -81 -142t-152 -69q-12 0 -17.5 3t-5.5 8q0 16 55 44.5t95 63.5zM172 2h-6q-26 0 -40.5 14.5t-14.5 40.5q0 42 29.5 75.5t66.5 33.5q31 0 50 -20t19 -52q0 -73 -81 -142t-152 -69
q-12 0 -17 2.5t-6 8.5q0 15 56 43.5t96 64.5z" />
    <glyph glyph-name="perthousand" unicode="&#x2030;" horiz-adv-x="1753" 
d="M1415 -14q-55 0 -87 40t-32 109q0 86 31.5 158.5t97.5 138.5q46 45 96.5 70.5t94.5 25.5q51 0 77.5 -32t26.5 -93q0 -66 -25.5 -141t-70.5 -139t-101 -100.5t-108 -36.5zM1366 102q0 -29 15.5 -49t37.5 -20q41 0 84 30.5t84 88.5q42 58 67 128t25 123q0 32 -13 52t-34 20
q-30 0 -67.5 -29t-83.5 -90q-54 -70 -84.5 -138t-30.5 -116zM862 102q0 -29 15.5 -49t37.5 -20q41 0 85.5 31t84.5 88q42 58 67.5 128t25.5 123q0 31 -14.5 51.5t-35.5 20.5q-30 0 -67.5 -29t-83.5 -90q-54 -70 -84.5 -138t-30.5 -116zM913 -14q-54 0 -86 40t-32 109
q0 86 31.5 158.5t97.5 138.5q45 45 95.5 70.5t94.5 25.5q51 0 78 -32t27 -93q0 -66 -26 -141t-71 -139t-101 -100.5t-108 -36.5zM381 614q0 -24 18 -42.5t41 -18.5q36 0 80.5 32t83.5 87q41 59 65.5 128.5t24.5 123.5q0 32 -13 51.5t-34 19.5q-31 0 -69 -29.5t-82 -86.5
q-56 -74 -85.5 -142t-29.5 -123zM1208 961q-67 -32 -130.5 -47t-127.5 -15q-50 0 -102.5 11t-106.5 32q-13 -187 -104 -311.5t-207 -124.5q-54 0 -85.5 38t-31.5 103q0 77 29 151.5t82 135.5q48 54 106 84.5t113 30.5q28 0 51 -16t35 -44q58 -27 111.5 -40t107.5 -13
q76 0 152 24.5t153 73.5q37 24 79.5 54t47.5 30q9 0 14 -5t5 -13q-1 -4 -4.5 -9t-12.5 -14l-1269 -1251q-9 -8 -18.5 -13.5t-16.5 -5.5h-2l-25 9q-9 3 -13.5 6t-4.5 6q0 2 5.5 9.5t12.5 15.5z" />
    <glyph glyph-name="Acircumflex" unicode="&#xc2;" horiz-adv-x="1550" 
d="M985 76q49 112 73.5 220.5t24.5 213.5q0 27 -0.5 40.5t-1.5 24.5l-63 -59q-82 -76 -172 -152.5t-187 -152.5q62 -57 142.5 -90.5t183.5 -44.5zM621 252q97 72 185.5 146t168.5 149l100 94q-22 159 -104 248.5t-203 89.5q-131 0 -218 -97t-87 -245q0 -98 39.5 -194.5
t118.5 -190.5zM952 35q-93 12 -174.5 48t-156.5 99q-139 -100 -235 -143t-177 -43q-98 0 -157.5 53.5t-59.5 140.5q0 69 39.5 114.5t97.5 45.5q40 0 65 -25t25 -65q0 -34 -21 -54t-57 -20q-17 0 -42.5 6.5t-32.5 6.5q-12 0 -17.5 -6.5t-5.5 -20.5q0 -54 46 -88.5t122 -34.5
q75 0 168 43.5t205 130.5q-89 106 -132.5 216.5t-43.5 230.5q0 183 92.5 300t234.5 117q140 0 243 -109.5t140 -299.5l338 309q314 287 487 394.5t306 107.5q17 0 29 -7t12 -16q0 -5 -113 -126.5t-213 -258.5q-29 -39 -89 -121q-414 -568 -738 -880q102 5 188 35.5t168 91.5
q39 28 84 67t53 39t12 -4.5t5 -13.5q0 -12 -24 -35t-95 -80q-96 -76 -202.5 -112t-243.5 -37l-23 -25q-9 -10 -22.5 -15t-32.5 -5h-46q-11 0 -16.5 3t-5.5 7q0 1 1.5 5.5t4.5 10.5zM1127 615q2 -42 2.5 -61t0.5 -36q0 -89 -13.5 -175t-41.5 -169q217 245 453.5 545
t275.5 344q84 93 175 182t190 174q-100 -6 -279 -128t-413 -345zM2322 1788l-240 -127q-56 -29 -82 -40t-36 -11q-15 0 -21 4.5t-6 14.5q0 17 59 52q22 13 35 21q109 69 212.5 144.5t109.5 75.5q9 -1 16.5 -7.5t9.5 -15.5l70 -243q2 -10 3 -16t1 -11q0 -11 -4.5 -17
t-11.5 -6q-28 0 -97 145q-12 24 -18 37z" />
    <glyph glyph-name="Ecircumflex" unicode="&#xca;" horiz-adv-x="1327" 
d="M831 856q32 -36 66 -54t72 -18q24 0 39.5 11.5t15.5 27.5q0 21 -22 33t-60 12q-27 0 -53.5 -3t-57.5 -9zM759 895q-3 17 -5 36t-2 38q0 74 32.5 147t92.5 131q120 119 278.5 187.5t310.5 68.5q113 0 175.5 -53.5t62.5 -151.5q0 -88 -58.5 -172t-164.5 -147
q-72 -42 -152 -68t-123 -26q-6 0 -12 7t-6 15q0 17 55 36.5t92 39.5q136 75 223 176t87 176q0 53 -41 83t-113 30q-101 0 -241 -77.5t-267 -207.5q-85 -86 -125.5 -147t-40.5 -103v-3q21 2 41 3.5t39 1.5q94 0 136 -21.5t42 -70.5q0 -38 -31 -61t-83 -23q-50 0 -94.5 25
t-84.5 76q-90 -35 -181 -102t-183 -167q-89 -96 -132.5 -179.5t-43.5 -155.5q0 -86 65 -143.5t162 -57.5q93 0 196 49.5t232 157.5q81 68 119.5 116t38.5 80q0 27 -21 42.5t-57 15.5q-74 0 -166.5 -43.5t-185.5 -122.5q-41 -34 -84 -82.5t-60 -48.5q-8 0 -12 6t-4 16
q0 14 36 55.5t93 90.5q92 79 196 126.5t181 47.5q64 0 100.5 -35t36.5 -96q0 -50 -24 -102.5t-70 -102.5q-99 -108 -233 -169t-275 -61q-158 0 -249 91t-91 247q0 210 160 368t433 214zM1638 1788l-240 -127q-56 -29 -82 -40t-36 -11q-15 0 -21 4.5t-6 14.5q0 17 59 52
q22 13 35 21q109 69 212.5 144.5t109.5 75.5q9 -1 16.5 -7.5t9.5 -15.5l70 -243q2 -10 3 -16t1 -11q0 -11 -4.5 -17t-11.5 -6q-28 0 -97 145q-12 24 -18 37z" />
    <glyph glyph-name="Aacute" unicode="&#xc1;" horiz-adv-x="1550" 
d="M985 76q49 112 73.5 220.5t24.5 213.5q0 27 -0.5 40.5t-1.5 24.5l-63 -59q-82 -76 -172 -152.5t-187 -152.5q62 -57 142.5 -90.5t183.5 -44.5zM621 252q97 72 185.5 146t168.5 149l100 94q-22 159 -104 248.5t-203 89.5q-131 0 -218 -97t-87 -245q0 -98 39.5 -194.5
t118.5 -190.5zM952 35q-93 12 -174.5 48t-156.5 99q-139 -100 -235 -143t-177 -43q-98 0 -157.5 53.5t-59.5 140.5q0 69 39.5 114.5t97.5 45.5q40 0 65 -25t25 -65q0 -34 -21 -54t-57 -20q-17 0 -42.5 6.5t-32.5 6.5q-12 0 -17.5 -6.5t-5.5 -20.5q0 -54 46 -88.5t122 -34.5
q75 0 168 43.5t205 130.5q-89 106 -132.5 216.5t-43.5 230.5q0 183 92.5 300t234.5 117q140 0 243 -109.5t140 -299.5l338 309q314 287 487 394.5t306 107.5q17 0 29 -7t12 -16q0 -5 -113 -126.5t-213 -258.5q-29 -39 -89 -121q-414 -568 -738 -880q102 5 188 35.5t168 91.5
q39 28 84 67t53 39t12 -4.5t5 -13.5q0 -12 -24 -35t-95 -80q-96 -76 -202.5 -112t-243.5 -37l-23 -25q-9 -10 -22.5 -15t-32.5 -5h-46q-11 0 -16.5 3t-5.5 7q0 1 1.5 5.5t4.5 10.5zM1127 615q2 -42 2.5 -61t0.5 -36q0 -89 -13.5 -175t-41.5 -169q217 245 453.5 545
t275.5 344q84 93 175 182t190 174q-100 -6 -279 -128t-413 -345zM2152 1606q-10 0 -14 3.5t-4 10.5t68 56.5t110 115.5q14 23 32 72q35 90 82 90q29 0 45.5 -16.5t16.5 -44.5q0 -48 -43 -99t-131 -108q-59 -39 -100.5 -59.5t-61.5 -20.5z" />
    <glyph glyph-name="Edieresis" unicode="&#xcb;" horiz-adv-x="1327" 
d="M831 856q32 -36 66 -54t72 -18q24 0 39.5 11.5t15.5 27.5q0 21 -22 33t-60 12q-27 0 -53.5 -3t-57.5 -9zM759 895q-3 17 -5 36t-2 38q0 74 32.5 147t92.5 131q120 119 278.5 187.5t310.5 68.5q113 0 175.5 -53.5t62.5 -151.5q0 -88 -58.5 -172t-164.5 -147
q-72 -42 -152 -68t-123 -26q-6 0 -12 7t-6 15q0 17 55 36.5t92 39.5q136 75 223 176t87 176q0 53 -41 83t-113 30q-101 0 -241 -77.5t-267 -207.5q-85 -86 -125.5 -147t-40.5 -103v-3q21 2 41 3.5t39 1.5q94 0 136 -21.5t42 -70.5q0 -38 -31 -61t-83 -23q-50 0 -94.5 25
t-84.5 76q-90 -35 -181 -102t-183 -167q-89 -96 -132.5 -179.5t-43.5 -155.5q0 -86 65 -143.5t162 -57.5q93 0 196 49.5t232 157.5q81 68 119.5 116t38.5 80q0 27 -21 42.5t-57 15.5q-74 0 -166.5 -43.5t-185.5 -122.5q-41 -34 -84 -82.5t-60 -48.5q-8 0 -12 6t-4 16
q0 14 36 55.5t93 90.5q92 79 196 126.5t181 47.5q64 0 100.5 -35t36.5 -96q0 -50 -24 -102.5t-70 -102.5q-99 -108 -233 -169t-275 -61q-158 0 -249 91t-91 247q0 210 160 368t433 214zM1325 1754q0 38 24 64t60 26q30 0 47.5 -19t17.5 -51q0 -37 -24.5 -62.5t-59.5 -25.5
q-31 0 -48 18t-17 50zM1658 1754q0 38 24.5 64t59.5 26q31 0 47.5 -18.5t16.5 -51.5q0 -37 -24.5 -62.5t-59.5 -25.5q-31 0 -47.5 17.5t-16.5 50.5z" />
    <glyph glyph-name="Egrave" unicode="&#xc8;" horiz-adv-x="1327" 
d="M831 856q32 -36 66 -54t72 -18q24 0 39.5 11.5t15.5 27.5q0 21 -22 33t-60 12q-27 0 -53.5 -3t-57.5 -9zM759 895q-3 17 -5 36t-2 38q0 74 32.5 147t92.5 131q120 119 278.5 187.5t310.5 68.5q113 0 175.5 -53.5t62.5 -151.5q0 -88 -58.5 -172t-164.5 -147
q-72 -42 -152 -68t-123 -26q-6 0 -12 7t-6 15q0 17 55 36.5t92 39.5q136 75 223 176t87 176q0 53 -41 83t-113 30q-101 0 -241 -77.5t-267 -207.5q-85 -86 -125.5 -147t-40.5 -103v-3q21 2 41 3.5t39 1.5q94 0 136 -21.5t42 -70.5q0 -38 -31 -61t-83 -23q-50 0 -94.5 25
t-84.5 76q-90 -35 -181 -102t-183 -167q-89 -96 -132.5 -179.5t-43.5 -155.5q0 -86 65 -143.5t162 -57.5q93 0 196 49.5t232 157.5q81 68 119.5 116t38.5 80q0 27 -21 42.5t-57 15.5q-74 0 -166.5 -43.5t-185.5 -122.5q-41 -34 -84 -82.5t-60 -48.5q-8 0 -12 6t-4 16
q0 14 36 55.5t93 90.5q92 79 196 126.5t181 47.5q64 0 100.5 -35t36.5 -96q0 -50 -24 -102.5t-70 -102.5q-99 -108 -233 -169t-275 -61q-158 0 -249 91t-91 247q0 210 160 368t433 214zM1630 1618q0 -5 -5 -10.5t-10 -5.5q-10 0 -22.5 9t-38.5 34q-81 87 -112 138.5
t-31 94.5q0 38 18.5 60t48.5 22q29 0 44.5 -18t15.5 -53q0 -3 -1 -23t-1 -37q0 -90 75 -182q19 -23 19 -29z" />
    <glyph glyph-name="Iacute" unicode="&#xcd;" horiz-adv-x="1456" 
d="M1098 543q-46 34 -71.5 91.5t-25.5 125.5q0 110 71 227.5t190 202.5q168 121 354.5 184.5t394.5 71.5q60 25 89 35t42 10q17 0 26 -7t9 -20q0 -21 -55 -33.5t-94 -35.5q-265 -156 -737 -827l-29 -41q8 -2 16 -2.5t25 -0.5q86 0 163.5 46t149.5 139q40 50 73 120t48 70
q8 0 14 -5t6 -11q0 -24 -28 -78t-78 -125q-70 -96 -165.5 -151.5t-193.5 -55.5q-13 0 -30 1.5t-35 4.5q-200 -243 -436 -371t-484 -128q-162 0 -254 62.5t-92 172.5q0 63 35.5 103t89.5 40q40 0 65 -24.5t25 -63.5q0 -37 -23.5 -58.5t-64.5 -21.5q-7 0 -24 3.5t-25 3.5
q-6 0 -8 -4.5t-2 -16.5q0 -62 75.5 -101.5t198.5 -39.5q201 0 394.5 123.5t400.5 384.5zM1126 582q296 371 495 563t359 266q-161 -11 -311 -77.5t-299 -192.5q-144 -123 -225.5 -239.5t-81.5 -196.5q0 -38 15 -67t48 -56zM1980 1606q-10 0 -14 3.5t-4 10.5t68 56.5
t110 115.5q14 23 32 72q35 90 82 90q29 0 45.5 -16.5t16.5 -44.5q0 -48 -43 -99t-131 -108q-59 -39 -100.5 -59.5t-61.5 -20.5z" />
    <glyph glyph-name="Icircumflex" unicode="&#xce;" horiz-adv-x="1456" 
d="M1098 543q-46 34 -71.5 91.5t-25.5 125.5q0 110 71 227.5t190 202.5q168 121 354.5 184.5t394.5 71.5q60 25 89 35t42 10q17 0 26 -7t9 -20q0 -21 -55 -33.5t-94 -35.5q-265 -156 -737 -827l-29 -41q8 -2 16 -2.5t25 -0.5q86 0 163.5 46t149.5 139q40 50 73 120t48 70
q8 0 14 -5t6 -11q0 -24 -28 -78t-78 -125q-70 -96 -165.5 -151.5t-193.5 -55.5q-13 0 -30 1.5t-35 4.5q-200 -243 -436 -371t-484 -128q-162 0 -254 62.5t-92 172.5q0 63 35.5 103t89.5 40q40 0 65 -24.5t25 -63.5q0 -37 -23.5 -58.5t-64.5 -21.5q-7 0 -24 3.5t-25 3.5
q-6 0 -8 -4.5t-2 -16.5q0 -62 75.5 -101.5t198.5 -39.5q201 0 394.5 123.5t400.5 384.5zM1126 582q296 371 495 563t359 266q-161 -11 -311 -77.5t-299 -192.5q-144 -123 -225.5 -239.5t-81.5 -196.5q0 -38 15 -67t48 -56zM2150 1788l-240 -127q-56 -29 -82 -40t-36 -11
q-15 0 -21 4.5t-6 14.5q0 17 59 52q22 13 35 21q109 69 212.5 144.5t109.5 75.5q9 -1 16.5 -7.5t9.5 -15.5l70 -243q2 -10 3 -16t1 -11q0 -11 -4.5 -17t-11.5 -6q-28 0 -97 145q-12 24 -18 37z" />
    <glyph glyph-name="Idieresis" unicode="&#xcf;" horiz-adv-x="1456" 
d="M1098 543q-46 34 -71.5 91.5t-25.5 125.5q0 110 71 227.5t190 202.5q168 121 354.5 184.5t394.5 71.5q60 25 89 35t42 10q17 0 26 -7t9 -20q0 -21 -55 -33.5t-94 -35.5q-265 -156 -737 -827l-29 -41q8 -2 16 -2.5t25 -0.5q86 0 163.5 46t149.5 139q40 50 73 120t48 70
q8 0 14 -5t6 -11q0 -24 -28 -78t-78 -125q-70 -96 -165.5 -151.5t-193.5 -55.5q-13 0 -30 1.5t-35 4.5q-200 -243 -436 -371t-484 -128q-162 0 -254 62.5t-92 172.5q0 63 35.5 103t89.5 40q40 0 65 -24.5t25 -63.5q0 -37 -23.5 -58.5t-64.5 -21.5q-7 0 -24 3.5t-25 3.5
q-6 0 -8 -4.5t-2 -16.5q0 -62 75.5 -101.5t198.5 -39.5q201 0 394.5 123.5t400.5 384.5zM1126 582q296 371 495 563t359 266q-161 -11 -311 -77.5t-299 -192.5q-144 -123 -225.5 -239.5t-81.5 -196.5q0 -38 15 -67t48 -56zM1837 1754q0 38 24 64t60 26q30 0 47.5 -19
t17.5 -51q0 -37 -24.5 -62.5t-59.5 -25.5q-31 0 -48 18t-17 50zM2170 1754q0 38 24.5 64t59.5 26q31 0 47.5 -18.5t16.5 -51.5q0 -37 -24.5 -62.5t-59.5 -25.5q-31 0 -47.5 17.5t-16.5 50.5z" />
    <glyph glyph-name="Igrave" unicode="&#xcc;" horiz-adv-x="1456" 
d="M1098 543q-46 34 -71.5 91.5t-25.5 125.5q0 110 71 227.5t190 202.5q168 121 354.5 184.5t394.5 71.5q60 25 89 35t42 10q17 0 26 -7t9 -20q0 -21 -55 -33.5t-94 -35.5q-265 -156 -737 -827l-29 -41q8 -2 16 -2.5t25 -0.5q86 0 163.5 46t149.5 139q40 50 73 120t48 70
q8 0 14 -5t6 -11q0 -24 -28 -78t-78 -125q-70 -96 -165.5 -151.5t-193.5 -55.5q-13 0 -30 1.5t-35 4.5q-200 -243 -436 -371t-484 -128q-162 0 -254 62.5t-92 172.5q0 63 35.5 103t89.5 40q40 0 65 -24.5t25 -63.5q0 -37 -23.5 -58.5t-64.5 -21.5q-7 0 -24 3.5t-25 3.5
q-6 0 -8 -4.5t-2 -16.5q0 -62 75.5 -101.5t198.5 -39.5q201 0 394.5 123.5t400.5 384.5zM1126 582q296 371 495 563t359 266q-161 -11 -311 -77.5t-299 -192.5q-144 -123 -225.5 -239.5t-81.5 -196.5q0 -38 15 -67t48 -56zM2142 1618q0 -5 -5 -10.5t-10 -5.5q-10 0 -22.5 9
t-38.5 34q-81 87 -112 138.5t-31 94.5q0 38 18.5 60t48.5 22q29 0 44.5 -18t15.5 -53q0 -3 -1 -23t-1 -37q0 -90 75 -182q19 -23 19 -29z" />
    <glyph glyph-name="Oacute" unicode="&#xd3;" horiz-adv-x="1366" 
d="M1540 940q-15 -5 -42 -15q-69 -24 -83 -24q-11 0 -17.5 4.5t-6.5 12.5q0 19 51.5 38.5t84.5 40.5q-9 47 -43 72t-87 25q-116 0 -316 -129t-385 -334q-83 -93 -154.5 -205.5t-86.5 -112.5q-7 0 -11 6t-4 15q0 35 62.5 141t156.5 217q186 222 367.5 337.5t343.5 115.5
q80 0 131 -29.5t74 -89.5q91 56 139.5 125.5t48.5 144.5q0 72 -55 114t-147 42q-131 0 -318.5 -104.5t-398.5 -296.5q-251 -229 -406 -460t-155 -358q0 -97 61.5 -150.5t173.5 -53.5q137 0 344 114.5t387 298.5q144 147 216.5 271.5t74.5 226.5zM1589 965v-11
q0 -93 -55 -205t-166 -241q-97 -113 -206 -207t-228 -168q-120 -75 -224.5 -113t-189.5 -38q-142 0 -219.5 77t-77.5 217q0 166 91.5 349.5t260.5 357.5q238 244 499.5 381t481.5 137q120 0 190.5 -60t70.5 -161q0 -93 -57 -172t-171 -143zM1565 1606q-10 0 -14 3.5t-4 10.5
t68 56.5t110 115.5q14 23 32 72q35 90 82 90q29 0 45.5 -16.5t16.5 -44.5q0 -48 -43 -99t-131 -108q-59 -39 -100.5 -59.5t-61.5 -20.5z" />
    <glyph glyph-name="Ocircumflex" unicode="&#xd4;" horiz-adv-x="1366" 
d="M1540 940q-15 -5 -42 -15q-69 -24 -83 -24q-11 0 -17.5 4.5t-6.5 12.5q0 19 51.5 38.5t84.5 40.5q-9 47 -43 72t-87 25q-116 0 -316 -129t-385 -334q-83 -93 -154.5 -205.5t-86.5 -112.5q-7 0 -11 6t-4 15q0 35 62.5 141t156.5 217q186 222 367.5 337.5t343.5 115.5
q80 0 131 -29.5t74 -89.5q91 56 139.5 125.5t48.5 144.5q0 72 -55 114t-147 42q-131 0 -318.5 -104.5t-398.5 -296.5q-251 -229 -406 -460t-155 -358q0 -97 61.5 -150.5t173.5 -53.5q137 0 344 114.5t387 298.5q144 147 216.5 271.5t74.5 226.5zM1589 965v-11
q0 -93 -55 -205t-166 -241q-97 -113 -206 -207t-228 -168q-120 -75 -224.5 -113t-189.5 -38q-142 0 -219.5 77t-77.5 217q0 166 91.5 349.5t260.5 357.5q238 244 499.5 381t481.5 137q120 0 190.5 -60t70.5 -161q0 -93 -57 -172t-171 -143zM1735 1788l-240 -127
q-56 -29 -82 -40t-36 -11q-15 0 -21 4.5t-6 14.5q0 17 59 52q22 13 35 21q109 69 212.5 144.5t109.5 75.5q9 -1 16.5 -7.5t9.5 -15.5l70 -243q2 -10 3 -16t1 -11q0 -11 -4.5 -17t-11.5 -6q-28 0 -97 145q-12 24 -18 37z" />
    <glyph glyph-name="apple" unicode="&#xf000;" horiz-adv-x="1618" 
d="M836 1216q-1 6 -1.5 14t-0.5 23q0 124 95 229.5t236 131.5q1 -10 1.5 -23t0.5 -39q0 -131 -103.5 -234.5t-203.5 -103.5h-8q-3 0 -7.5 1t-8.5 1zM1505 403q-114 -247 -205 -342.5t-204 -95.5q-50 0 -131.5 33t-122.5 33q-45 0 -131 -33t-127 -33q-64 0 -128.5 44
t-129.5 132q-102 140 -157.5 295.5t-55.5 300.5q0 219 125 356.5t323 137.5q68 0 155 -34t124 -34q34 0 121.5 35t152.5 35q110 0 198 -40t161 -124q-102 -65 -151.5 -145.5t-49.5 -182.5q0 -113 60 -200t173 -138z" />
    <glyph glyph-name="Ograve" unicode="&#xd2;" horiz-adv-x="1366" 
d="M1540 940q-15 -5 -42 -15q-69 -24 -83 -24q-11 0 -17.5 4.5t-6.5 12.5q0 19 51.5 38.5t84.5 40.5q-9 47 -43 72t-87 25q-116 0 -316 -129t-385 -334q-83 -93 -154.5 -205.5t-86.5 -112.5q-7 0 -11 6t-4 15q0 35 62.5 141t156.5 217q186 222 367.5 337.5t343.5 115.5
q80 0 131 -29.5t74 -89.5q91 56 139.5 125.5t48.5 144.5q0 72 -55 114t-147 42q-131 0 -318.5 -104.5t-398.5 -296.5q-251 -229 -406 -460t-155 -358q0 -97 61.5 -150.5t173.5 -53.5q137 0 344 114.5t387 298.5q144 147 216.5 271.5t74.5 226.5zM1589 965v-11
q0 -93 -55 -205t-166 -241q-97 -113 -206 -207t-228 -168q-120 -75 -224.5 -113t-189.5 -38q-142 0 -219.5 77t-77.5 217q0 166 91.5 349.5t260.5 357.5q238 244 499.5 381t481.5 137q120 0 190.5 -60t70.5 -161q0 -93 -57 -172t-171 -143zM1727 1618q0 -5 -5 -10.5
t-10 -5.5q-10 0 -22.5 9t-38.5 34q-81 87 -112 138.5t-31 94.5q0 38 18.5 60t48.5 22q29 0 44.5 -18t15.5 -53q0 -3 -1 -23t-1 -37q0 -90 75 -182q19 -23 19 -29z" />
    <glyph glyph-name="Uacute" unicode="&#xda;" horiz-adv-x="1722" 
d="M1274 250q-159 -138 -265.5 -204t-170.5 -66q-48 0 -75.5 28t-27.5 78q0 110 173 299l8 9l144 158q213 234 241 272l1 1q152 196 152 330q0 130 -114.5 214.5t-295.5 84.5q-133 0 -263 -43t-242 -125q-111 -80 -174.5 -180t-63.5 -193q0 -88 56.5 -146t142.5 -58
q110 0 256.5 91t253.5 234q46 62 77.5 136.5t47.5 74.5q6 0 9 -6.5t3 -34.5q0 -50 -33.5 -129t-87.5 -147q-104 -132 -234 -201.5t-272 -69.5q-119 0 -192.5 72t-73.5 189q0 78 38.5 159t113.5 158q120 125 290.5 195.5t352.5 70.5q212 0 339.5 -109t127.5 -290
q0 -235 -459 -757l-39 -44q-27 -30 -75 -82q-112 -120 -112 -162q1 -11 10 -16.5t27 -5.5q41 0 171.5 88.5t246.5 210.5l615 645q55 57 75.5 73.5t32.5 16.5q21 0 42.5 -21.5t21.5 -39.5q0 -12 -119 -133t-219 -234q-203 -227 -324 -385.5t-121 -194.5q0 -16 7 -23t22 -7
q47 0 121 34.5t174 102.5q60 42 120 93.5t68 51.5t12 -4.5t5 -13.5q0 -20 -106 -105l-7 -6q-116 -94 -222 -149t-163 -55q-48 0 -74 25.5t-26 74.5q0 29 12.5 70.5t40.5 99.5zM1999 1606q-10 0 -14 3.5t-4 10.5t68 56.5t110 115.5q14 23 32 72q35 90 82 90q29 0 45.5 -16.5
t16.5 -44.5q0 -48 -43 -99t-131 -108q-59 -39 -100.5 -59.5t-61.5 -20.5z" />
    <glyph glyph-name="Ucircumflex" unicode="&#xdb;" horiz-adv-x="1722" 
d="M1274 250q-159 -138 -265.5 -204t-170.5 -66q-48 0 -75.5 28t-27.5 78q0 110 173 299l8 9l144 158q213 234 241 272l1 1q152 196 152 330q0 130 -114.5 214.5t-295.5 84.5q-133 0 -263 -43t-242 -125q-111 -80 -174.5 -180t-63.5 -193q0 -88 56.5 -146t142.5 -58
q110 0 256.5 91t253.5 234q46 62 77.5 136.5t47.5 74.5q6 0 9 -6.5t3 -34.5q0 -50 -33.5 -129t-87.5 -147q-104 -132 -234 -201.5t-272 -69.5q-119 0 -192.5 72t-73.5 189q0 78 38.5 159t113.5 158q120 125 290.5 195.5t352.5 70.5q212 0 339.5 -109t127.5 -290
q0 -235 -459 -757l-39 -44q-27 -30 -75 -82q-112 -120 -112 -162q1 -11 10 -16.5t27 -5.5q41 0 171.5 88.5t246.5 210.5l615 645q55 57 75.5 73.5t32.5 16.5q21 0 42.5 -21.5t21.5 -39.5q0 -12 -119 -133t-219 -234q-203 -227 -324 -385.5t-121 -194.5q0 -16 7 -23t22 -7
q47 0 121 34.5t174 102.5q60 42 120 93.5t68 51.5t12 -4.5t5 -13.5q0 -20 -106 -105l-7 -6q-116 -94 -222 -149t-163 -55q-48 0 -74 25.5t-26 74.5q0 29 12.5 70.5t40.5 99.5zM2169 1788l-240 -127q-56 -29 -82 -40t-36 -11q-15 0 -21 4.5t-6 14.5q0 17 59 52q22 13 35 21
q109 69 212.5 144.5t109.5 75.5q9 -1 16.5 -7.5t9.5 -15.5l70 -243q2 -10 3 -16t1 -11q0 -11 -4.5 -17t-11.5 -6q-28 0 -97 145q-12 24 -18 37z" />
    <glyph glyph-name="Ugrave" unicode="&#xd9;" horiz-adv-x="1722" 
d="M1274 250q-159 -138 -265.5 -204t-170.5 -66q-48 0 -75.5 28t-27.5 78q0 110 173 299l8 9l144 158q213 234 241 272l1 1q152 196 152 330q0 130 -114.5 214.5t-295.5 84.5q-133 0 -263 -43t-242 -125q-111 -80 -174.5 -180t-63.5 -193q0 -88 56.5 -146t142.5 -58
q110 0 256.5 91t253.5 234q46 62 77.5 136.5t47.5 74.5q6 0 9 -6.5t3 -34.5q0 -50 -33.5 -129t-87.5 -147q-104 -132 -234 -201.5t-272 -69.5q-119 0 -192.5 72t-73.5 189q0 78 38.5 159t113.5 158q120 125 290.5 195.5t352.5 70.5q212 0 339.5 -109t127.5 -290
q0 -235 -459 -757l-39 -44q-27 -30 -75 -82q-112 -120 -112 -162q1 -11 10 -16.5t27 -5.5q41 0 171.5 88.5t246.5 210.5l615 645q55 57 75.5 73.5t32.5 16.5q21 0 42.5 -21.5t21.5 -39.5q0 -12 -119 -133t-219 -234q-203 -227 -324 -385.5t-121 -194.5q0 -16 7 -23t22 -7
q47 0 121 34.5t174 102.5q60 42 120 93.5t68 51.5t12 -4.5t5 -13.5q0 -20 -106 -105l-7 -6q-116 -94 -222 -149t-163 -55q-48 0 -74 25.5t-26 74.5q0 29 12.5 70.5t40.5 99.5zM2161 1618q0 -5 -5 -10.5t-10 -5.5q-10 0 -22.5 9t-38.5 34q-81 87 -112 138.5t-31 94.5
q0 38 18.5 60t48.5 22q29 0 44.5 -18t15.5 -53q0 -3 -1 -23t-1 -37q0 -90 75 -182q19 -23 19 -29z" />
    <glyph glyph-name="dotlessi" unicode="&#x131;" horiz-adv-x="508" 
d="M223 369q-56 -32 -112.5 -75.5t-65.5 -43.5q-6 0 -10 4t-4 10q0 16 37 44l1 1l62 47q113 87 185 129.5t106 42.5q45 0 72.5 -6t27.5 -16q0 -7 -81.5 -75.5t-151.5 -137.5q-89 -87 -133.5 -144t-44.5 -81q0 -13 8 -20t22 -7q42 0 124.5 42t176.5 114q37 27 81.5 64.5
t51.5 37.5q6 0 10.5 -5t4.5 -11q0 -19 -95 -95l-22 -18q-102 -83 -198.5 -130.5t-157.5 -47.5q-44 0 -71.5 24t-27.5 62q0 51 51 123t154 168z" />
    <glyph glyph-name="circumflex" unicode="&#x2c6;" 
d="M854 784l-240 -127q-56 -29 -82 -40t-36 -11q-15 0 -21 4.5t-6 14.5q0 17 59 52q22 13 35 21q109 69 212.5 144.5t109.5 75.5q9 -1 16.5 -7.5t9.5 -15.5l70 -243q2 -10 3 -16t1 -11q0 -11 -4.5 -17t-11.5 -6q-28 0 -97 145q-12 24 -18 37z" />
    <glyph glyph-name="tilde" unicode="&#x2dc;" 
d="M668 852q41 0 125.5 -37t121.5 -37q45 0 81.5 49.5t45.5 49.5t15 -5t6 -12q0 -19 -22 -62.5t-56 -84.5q-17 -21 -42.5 -32t-53.5 -11q-43 0 -128 36.5t-122 36.5q-45 0 -81.5 -49t-45.5 -49q-8 0 -13 4.5t-5 12.5q0 18 22 62t55 85q17 21 41.5 32t55.5 11z" />
    <glyph glyph-name="macron" unicode="&#xaf;" 
d="M563 707q-13 0 -20.5 6t-7.5 16v6l10 50q3 12 11 18t22 6h426q12 0 20 -6.5t8 -16.5v-6l-12 -51q-3 -12 -10.5 -17t-22.5 -5h-424z" />
    <glyph glyph-name="breve" unicode="&#x2d8;" 
d="M766 774q44 0 93.5 18.5t117.5 61.5q23 15 56 42.5t48 27.5q8 -1 12 -7t5 -18q0 -14 -14.5 -33.5t-49.5 -52.5q-87 -85 -151.5 -120.5t-130.5 -35.5q-86 0 -149.5 72.5t-63.5 161.5q0 19 5.5 27t18.5 8q18 0 31 -30q3 -7 4 -9q26 -60 65.5 -86.5t102.5 -26.5z" />
    <glyph glyph-name="dotaccent" unicode="&#x2d9;" 
d="M719 745q0 43 25.5 71t64.5 28q30 0 49 -19t19 -49q0 -44 -24.5 -71t-64.5 -27q-32 0 -50.5 18t-18.5 49z" />
    <glyph glyph-name="ring" unicode="&#x2da;" 
d="M606 750q0 73 50.5 123.5t123.5 50.5q74 0 124 -50.5t50 -123.5q0 -74 -50 -124.5t-124 -50.5q-73 0 -123.5 50.5t-50.5 124.5zM659 752q0 -53 34.5 -88t86.5 -35t87.5 35.5t35.5 87.5q0 50 -36 85t-87 35q-52 0 -86.5 -34t-34.5 -86z" />
    <glyph glyph-name="cedilla" unicode="&#xb8;" 
d="M258 -119q27 15 54.5 22t56.5 7q83 0 122 -31t39 -96q0 -75 -55.5 -119.5t-150.5 -44.5q-103 0 -187 32.5t-84 55.5q0 7 5 12t12 5q10 0 85.5 -23t139.5 -23q63 0 101 27t38 70q0 39 -25.5 57t-80.5 18q-11 0 -25 -2t-29 -6z" />
    <glyph glyph-name="hungarumlaut" unicode="&#x2dd;" 
d="M600 602q-8 0 -12 4.5t-4 11.5q0 8 50 48.5t89 93.5q22 30 51 111t64 81q27 0 42 -16t15 -47q0 -47 -35.5 -95t-118.5 -110q-59 -43 -93 -62.5t-48 -19.5zM809 602q-8 0 -12 4.5t-4 11.5q0 8 50 48.5t89 93.5q22 31 50 111.5t62 80.5q28 0 43 -16t15 -47q0 -48 -35.5 -96
t-116.5 -109q-59 -43 -93 -62.5t-48 -19.5z" />
    <glyph glyph-name="ogonek" unicode="&#x2db;" 
d="M420 31q-69 -81 -105 -149.5t-36 -117.5q0 -37 19 -60t50 -23q50 0 101 55q11 12 14 12q7 0 11.5 -4t4.5 -10q0 -30 -56 -73.5t-118 -43.5q-54 0 -85.5 31.5t-31.5 85.5q0 58 49.5 132t149.5 165h33z" />
    <glyph glyph-name="caron" unicode="&#x2c7;" 
d="M778 737l240 127q56 29 82 40t37 11q14 0 19 -3.5t5 -14.5q0 -18 -61 -55l-30 -18q-111 -70 -214 -146t-108 -76q-9 0 -16.5 7t-10.5 18l-70 244q-2 9 -3 15t-1 11q0 10 4 15.5t13 5.5q28 0 100 -151z" />
    <glyph glyph-name="Lslash" unicode="&#x141;" horiz-adv-x="1231" 
d="M307 70q-133 38 -239.5 56.5t-188.5 18.5q-48 0 -79 -12.5t-31 -30.5q0 -36 68 -55.5t196 -19.5q64 0 132 10.5t142 32.5zM979 690q319 419 545.5 616t386.5 197q58 0 91.5 -31t33.5 -83q0 -70 -37.5 -140.5t-112.5 -140.5q-67 -62 -137.5 -96.5t-130.5 -34.5
q-17 0 -27.5 6t-11.5 16q0 6 85 44t155 100q69 61 115 137.5t46 120.5q0 30 -15.5 43.5t-51.5 13.5q-134 0 -322.5 -183t-404.5 -523l299 88q1 0 3 1t3 1q4 0 8 -4.5t4 -10.5q0 -1 -1 -4t-1 -4l-4 -18q-2 -8 -10 -14t-23 -11l-331 -98q-168 -257 -332 -401t-352 -203
q77 -23 141.5 -34t114.5 -11q126 0 239 44.5t252 151.5q22 17 55 45q48 41 62 41q6 0 10 -4.5t4 -11.5q0 -12 -25 -36.5t-98 -82.5q-138 -108 -248 -150t-239 -42q-80 0 -162 16t-170 49q-84 -33 -173.5 -49t-186.5 -16q-149 0 -227.5 29t-78.5 85q0 47 46.5 69.5
t140.5 22.5q93 0 210 -23.5t249 -70.5q141 68 277 195t278 323l-304 -90q-1 0 -3 -1t-3 -1q-4 0 -8 4.5t-4 10.5l1 3.5t1 4.5l4 18q2 8 10 14t23 11z" />
    <glyph glyph-name="lslash" unicode="&#x142;" horiz-adv-x="608" 
d="M256 412q-65 -48 -137 -109t-82 -61q-6 0 -9 4.5t-3 13.5q0 16 75 79t248 191l150 172l-265 -79h-4q-6 0 -9 3t-3 9q0 2 1 5t1 5l2 12q3 11 9 16t22 9l313 96l383 426q16 16 26 20.5t23 4.5q29 0 47.5 -7.5t18.5 -19.5q0 -11 -13 -26q-4 -5 -5 -6l-275 -330l256 75h6
q6 0 9 -3.5t3 -10.5q0 -1 -1 -4.5l-1 -3.5l-4 -13q-2 -14 -25 -22q-3 -1 -5 -2l-308 -94l-350 -404q-73 -84 -114 -155.5t-41 -112.5q0 -25 9 -36t29 -11q46 0 110.5 30t156.5 95q59 42 120 93.5t68 51.5q8 0 12 -4.5t5 -13.5q0 -18 -113 -109l-5 -4q-111 -89 -211.5 -139.5
t-164.5 -50.5q-46 0 -72 25t-26 69q0 58 35 137.5t108 188.5z" />
    <glyph glyph-name="Scaron" unicode="&#x160;" horiz-adv-x="1309" 
d="M1350 774q186 66 341.5 165.5t276.5 229.5q71 75 110.5 137.5t39.5 98.5q0 27 -12 38t-42 11q-133 0 -327 -182.5t-387 -497.5zM1077 633q-131 -32 -254.5 -49t-216.5 -17q-23 0 -35 6t-12 17q0 18 194 37.5t380 74.5q296 399 528 598t399 199q57 0 86 -27t29 -79
q0 -156 -247.5 -356.5t-641.5 -344.5q-219 -346 -490 -528t-567 -182q-178 0 -276 61.5t-98 171.5q0 59 36.5 98t92.5 39q43 0 69.5 -24t26.5 -64q0 -36 -25.5 -56t-70.5 -20q-11 0 -31 5.5t-29 5.5q-6 0 -9 -5t-3 -16q0 -59 87.5 -105t213.5 -46q97 0 187 23.5t171 70.5
q96 56 206.5 166.5t299.5 345.5zM2105 1741l240 127q56 29 82 40t37 11q14 0 19 -3.5t5 -14.5q0 -18 -61 -55l-30 -18q-111 -70 -214 -146t-108 -76q-9 0 -16.5 7t-10.5 18l-70 244q-2 9 -3 15t-1 11q0 10 4 15.5t13 5.5q28 0 100 -151z" />
    <glyph glyph-name="scaron" unicode="&#x161;" horiz-adv-x="592" 
d="M27 69q6 -20 26.5 -30t57.5 -10q99 0 154 106.5t64 318.5q-95 -53 -177 -122.5t-91 -69.5q-7 0 -11.5 4t-4.5 10q0 21 82 86t213 146q7 58 33 93.5t59 35.5q16 0 25.5 -10.5t9.5 -28.5q0 -29 -22 -58t-60 -48q21 -32 31 -73t10 -91q0 -82 -26 -144t-76 -100
q128 51 237 140t111 89q7 0 11.5 -5t4.5 -13q0 -15 -43.5 -56t-112.5 -87q-110 -78 -218.5 -120t-194.5 -42q-64 0 -104 29t-40 75q0 37 23 60.5t57 23.5q25 0 40.5 -15t15.5 -38q0 -27 -18 -42t-48 -15q-8 0 -12 0.5t-6 0.5zM448 737l240 127q56 29 82 40t37 11
q14 0 19 -3.5t5 -14.5q0 -18 -61 -55l-30 -18q-111 -70 -214 -146t-108 -76q-9 0 -16.5 7t-10.5 18l-70 244q-2 9 -3 15t-1 11q0 10 4 15.5t13 5.5q28 0 100 -151z" />
    <glyph glyph-name="Zcaron" unicode="&#x17d;" horiz-adv-x="1251" 
d="M909 70q-358 -72 -574 -207t-216 -279q0 -52 32.5 -80t92.5 -28q77 0 179.5 56.5t217.5 162.5q108 100 174.5 193t93.5 182zM862 262q-33 17 -62.5 25t-56.5 8q-38 0 -65 -11t-27 -24t17 -22t45 -9q38 0 76 8.5t73 24.5zM899 221q-57 -17 -97.5 -25t-72.5 -8
q-64 0 -95.5 18.5t-31.5 55.5q0 33 33.5 54.5t87.5 21.5q61 0 106 -14t80 -43q112 42 225 138.5t224 246.5q96 128 143 237.5t47 204.5q0 158 -127.5 252t-343.5 94q-139 0 -266 -46.5t-244 -139.5q-121 -96 -188.5 -214.5t-67.5 -234.5q0 -103 51 -163t140 -60
q129 0 260.5 107t226.5 292q31 60 51.5 137.5t38.5 77.5q8 0 11.5 -11t3.5 -36q0 -67 -28 -156.5t-75 -166.5q-79 -134 -203.5 -212.5t-255.5 -78.5q-122 0 -192 71t-70 195q0 95 41.5 192.5t120.5 188.5q127 145 297 224t356 79q249 0 398 -131t149 -348
q0 -232 -179.5 -434.5t-510.5 -343.5q12 -21 20 -49t11 -60q184 48 333 166q31 25 37 25q8 0 12.5 -5t4.5 -12q0 -34 -113.5 -102t-273.5 -117q-13 -127 -81 -246.5t-185 -218.5q-107 -91 -233.5 -144.5t-227.5 -53.5q-81 0 -127.5 47t-46.5 129q0 179 204 304t642 214
q0 4 1 12t1 12q0 22 -5.5 42t-15.5 36zM1167 1741l240 127q56 29 82 40t37 11q14 0 19 -3.5t5 -14.5q0 -18 -61 -55l-30 -18q-111 -70 -214 -146t-108 -76q-9 0 -16.5 7t-10.5 18l-70 244q-2 9 -3 15t-1 11q0 10 4 15.5t13 5.5q28 0 100 -151z" />
    <glyph glyph-name="zcaron" unicode="&#x17e;" horiz-adv-x="674" 
d="M127 80q-8 15 -21.5 24t-29.5 9q-24 0 -43 -14t-19 -31q0 -13 10 -21t25 -8q18 0 38 10.5t40 30.5zM63 -90q-222 -98 -360.5 -216t-138.5 -200q0 -25 11.5 -36t37.5 -11q46 0 164 121t286 342zM168 113q118 103 183 185.5t65 127.5q0 15 -7 21t-26 6q-32 0 -82.5 -25.5
t-118.5 -75.5q-34 -25 -73.5 -59.5t-49.5 -34.5q-7 0 -10.5 4t-3.5 12q0 16 33 48.5t90 72.5q86 62 159.5 95.5t123.5 33.5q40 0 62 -21.5t22 -62.5q0 -80 -87.5 -178.5t-252.5 -204.5q2 -8 4 -18t2 -19q0 -2 -1 -9t-1 -11q115 33 216.5 82.5t192.5 118.5q41 30 89 71t57 41
q7 0 10.5 -4.5t3.5 -13.5q0 -20 -112 -111l-5 -4q-107 -86 -222 -143t-241 -88q-29 -95 -109.5 -197.5t-211.5 -210.5q-83 -67 -147.5 -101t-110.5 -34q-43 0 -66.5 24t-23.5 68q0 102 158.5 233t418.5 236l25 58q-25 -12 -43.5 -17.5t-32.5 -5.5q-31 0 -49.5 17t-18.5 44
q0 35 28.5 57.5t72.5 22.5q23 0 44 -7t46 -23zM604 737l240 127q56 29 82 40t37 11q14 0 19 -3.5t5 -14.5q0 -18 -61 -55l-30 -18q-111 -70 -214 -146t-108 -76q-9 0 -16.5 7t-10.5 18l-70 244q-2 9 -3 15t-1 11q0 10 4 15.5t13 5.5q28 0 100 -151z" />
    <glyph glyph-name="brokenbar" unicode="&#xa6;" 
d="M467 408h90v-758h-90v758zM467 1432h90v-758h-90v758z" />
    <glyph glyph-name="Eth" unicode="&#xd0;" horiz-adv-x="1821" 
d="M811 57q34 -10 70 -15t75 -5q133 0 257 47t231 139q169 145 266.5 338t97.5 379q0 49 -7.5 97t-22.5 96q-62 -62 -179 -255t-190 -296h166q6 0 10 -3t4 -8q0 -3 -2 -7q-1 -2 -2 -3l-14 -18q-6 -7 -11.5 -9.5t-15.5 -3.5h-10h-164q-113 -171 -251.5 -288.5t-307.5 -184.5z
M600 51q-114 35 -209 53.5t-158 18.5q-27 0 -43 -8t-16 -21q0 -28 70.5 -44.5t191.5 -16.5q55 0 94 4.5t70 13.5zM707 25q-78 -21 -147.5 -31t-129.5 -10q-151 0 -230 30.5t-79 87.5q0 36 30 54t89 18q69 0 168.5 -19t289.5 -71q114 45 239.5 154.5t270.5 291.5h-182
q-6 1 -9 3.5t-3 7.5q0 3 1 5.5t3 4.5l14 18q6 7 12 10t15 3h10h172q50 62 142 182q241 312 370 414q-60 122 -167 188t-249 66q-124 0 -255 -53t-251 -152q-130 -109 -210 -233.5t-80 -211.5q0 -70 49 -113.5t129 -43.5q152 0 308 124.5t253 327.5q21 45 37 102.5t31 57.5
q11 0 16.5 -6t5.5 -19q0 -43 -35 -129t-90 -163q-112 -160 -250.5 -251t-265.5 -91q-114 0 -181 68.5t-67 184.5q0 88 41.5 183t118.5 186q118 140 283 214.5t356 74.5q175 0 299.5 -68t212.5 -211q67 46 117.5 72.5t70.5 26.5q9 0 17 -7t8 -16q0 -8 -65 -41.5t-121 -83.5
q16 -55 24 -110.5t8 -112.5q0 -156 -61 -310.5t-180 -299.5q-139 -168 -301 -254t-340 -86q-42 0 -95 7t-167 30z" />
    <glyph glyph-name="eth" unicode="&#xf0;" horiz-adv-x="664" 
d="M721 819l323 96h5q6 0 9 -3t3 -9q0 -2 -1 -5t-1 -5l-2 -12q-3 -10 -9 -15.5t-22 -9.5l-309 -92q-26 -149 -75 -270t-118 -205q11 -23 30 -34t46 -11q39 0 88.5 34.5t61.5 34.5q6 0 9 -4t3 -12q0 -19 -57 -56.5t-105 -37.5q-33 0 -58 12.5t-48 40.5q-128 -126 -236 -193
t-182 -67q-52 0 -82.5 30t-30.5 80q0 70 56.5 148.5t160.5 153.5q80 56 161.5 88t143.5 32q31 0 53.5 -11t41.5 -36q21 54 36 117.5t25 142.5l-389 -118q-1 0 -3 -1t-3 -1q-5 0 -7.5 4t-2.5 10q0 1 0.5 4t1.5 6l2 13q1 9 7 14.5t23 9.5l377 111l1 6q3 62 3 92q0 144 -34 267
q-5 17 -5 20q0 13 21 29t41 16q32 0 46.5 -53t14.5 -173q0 -31 -3 -71.5t-11 -106.5zM504 475q-35 0 -95 -33t-126 -90q-106 -89 -168 -163.5t-62 -110.5q0 -18 9 -25.5t28 -7.5q46 0 118.5 41.5t164.5 120.5q82 70 128 130.5t46 96.5q0 19 -11.5 30t-31.5 11z" />
    <glyph glyph-name="Yacute" unicode="&#xdd;" horiz-adv-x="1655" 
d="M1446 557q-128 -111 -235.5 -168t-188.5 -57q-67 0 -108.5 44t-41.5 116q0 73 45.5 148t212.5 241l13 12q252 248 252 348q0 97 -90 157t-238 60q-139 0 -279 -55t-258 -156q-85 -74 -132.5 -157.5t-47.5 -159.5q0 -80 46.5 -126t125.5 -46q97 0 228 92t239 240
q38 51 63.5 115.5t34.5 64.5q6 -1 9.5 -9t3.5 -20q0 -47 -36 -131t-93 -160q-89 -120 -196.5 -179.5t-233.5 -59.5q-105 0 -170.5 60.5t-65.5 158.5q0 82 48.5 169.5t138.5 168.5q125 112 274 171.5t303 59.5q179 0 285 -82t106 -219q0 -87 -55 -181.5t-186 -230.5
q-31 -31 -86 -85q-187 -182 -187 -259q0 -34 19.5 -50.5t60.5 -16.5q109 0 313.5 160t466.5 452q169 189 303 304.5t177 115.5q8 0 14 -5t6 -11q0 -18 -46 -45q-31 -18 -48 -31q-89 -67 -186 -179.5t-222 -295.5q-26 -39 -77 -117q-240 -366 -429 -514
q-144 -112 -303 -169.5t-325 -57.5q-173 0 -276 61t-103 162q0 62 39 104.5t96 42.5q45 0 69.5 -22t24.5 -62q0 -36 -21 -57t-57 -21q-23 0 -50.5 9.5t-33.5 9.5t-10 -8t-4 -21q0 -62 86 -108.5t213 -46.5q216 0 415.5 132t387.5 400zM1890 1606q-10 0 -14 3.5t-4 10.5
t68 56.5t110 115.5q14 23 32 72q35 90 82 90q29 0 45.5 -16.5t16.5 -44.5q0 -48 -43 -99t-131 -108q-59 -39 -100.5 -59.5t-61.5 -20.5z" />
    <glyph glyph-name="yacute" unicode="&#xfd;" horiz-adv-x="958" 
d="M457 -33q-218 -272 -367 -408.5t-227 -136.5q-43 0 -67.5 26.5t-24.5 72.5q0 109 159.5 240t421.5 229l43 71q-50 -34 -100 -51.5t-96 -17.5q-45 0 -73 25t-28 65q0 48 37.5 106.5t106.5 116.5q19 17 52 45q99 83 99 96q0 7 -6.5 12t-15.5 5q-16 0 -48.5 -15.5
t-72.5 -41.5q-61 -42 -119.5 -93t-67.5 -51q-6 0 -12 5.5t-6 11.5q0 10 29 39t76 65q92 71 159.5 105t114.5 34q32 0 51 -19t19 -52q0 -36 -25 -73.5t-104 -113.5q-28 -26 -75 -70q-108 -101 -108 -124q1 -12 12.5 -19.5t28.5 -7.5q34 0 78.5 23t97.5 69l289 250
q43 37 84.5 70t81.5 61h25q26 0 36.5 -4t10.5 -14q0 -9 -153 -160.5t-292 -323.5q97 16 184 52.5t183 101.5q60 41 120 93t68 52t12 -4.5t5 -13.5q0 -14 -42 -52.5t-114 -90.5q-107 -78 -213.5 -122.5t-226.5 -62.5zM307 -78q-229 -101 -357 -206t-128 -189q0 -27 13 -44.5
t32 -17.5q52 0 157 108.5t283 348.5zM651 602q-10 0 -14 3.5t-4 10.5t68 56.5t110 115.5q14 23 32 72q35 90 82 90q29 0 45.5 -16.5t16.5 -44.5q0 -48 -43 -99t-131 -108q-59 -39 -100.5 -59.5t-61.5 -20.5z" />
    <glyph glyph-name="Thorn" unicode="&#xde;" horiz-adv-x="1659" 
d="M1722 1108q94 -48 142.5 -130.5t48.5 -195.5t-53 -213t-156 -180q-77 -60 -169 -90.5t-196 -30.5q-59 0 -111 10.5t-100 30.5q-159 -162 -330.5 -244.5t-348.5 -82.5q-183 0 -283 64t-100 179q0 62 34.5 101t87.5 39q41 0 67 -25.5t26 -63.5q0 -36 -24.5 -57.5
t-66.5 -21.5q-6 0 -22.5 3t-26.5 3q-5 0 -7.5 -4.5t-2.5 -14.5q0 -60 77 -104.5t193 -44.5q156 0 295.5 80t325.5 286q76 85 271 328.5t329 386.5q-57 24 -126 35.5t-155 11.5q-146 0 -294.5 -38.5t-292.5 -114.5q-186 -99 -291 -220t-105 -235q0 -70 55 -116t140 -46
q116 0 252.5 87t251.5 237q57 74 95.5 157.5t47.5 83.5q6 0 9 -6.5t3 -17.5q0 -44 -26 -117.5t-66 -134.5q-104 -161 -246.5 -246.5t-304.5 -85.5q-116 0 -187 56.5t-71 148.5q0 101 75 207.5t214 204.5q162 112 353 174.5t372 62.5q97 0 177.5 -13.5t148.5 -41.5
q125 125 246.5 208t160.5 83q12 0 18.5 -4.5t6.5 -12.5q0 -15 -30 -29q-21 -9 -32 -16q-63 -39 -138.5 -106.5t-160.5 -163.5zM1161 344q38 -10 72 -15t63 -5q77 0 150 31t147 96q113 98 177.5 206.5t64.5 196.5q0 70 -35 124.5t-106 96.5q-108 -142 -282 -395.5
t-251 -335.5z" />
    <glyph glyph-name="thorn" unicode="&#xfe;" horiz-adv-x="817" 
d="M-387 -571q-10 -4 -21 -5.5t-30 -1.5h-27q-20 1 -28 4t-9 11q0 29 218.5 305.5t555.5 669.5l-177 -133l-9 -6q-15 -11 -23 -11q-7 0 -12.5 5t-5.5 12q0 13 111 98.5t192 152.5l600 674q13 15 23.5 20t25.5 5q29 0 47.5 -7.5t18.5 -19.5q0 -7 -4 -15t-19 -24l-678 -782
q103 70 176.5 105.5t116.5 35.5q31 0 49.5 -17.5t18.5 -45.5q0 -41 -23 -79.5t-104 -115.5q-22 -20 -61 -56q-121 -114 -121 -138q0 -11 9 -18t23 -7q44 0 128.5 42.5t181.5 115.5q41 30 87.5 70t53.5 40q6 0 11 -6t5 -12q0 -19 -84 -86q-21 -17 -32 -27
q-108 -86 -210.5 -138t-158.5 -52q-44 0 -72 25t-28 65q0 47 31 97.5t106 121.5q36 34 94.5 80.5t58.5 64.5q0 8 -6.5 12.5t-15.5 4.5q-13 0 -44 -15.5t-83 -48.5q-215 -136 -484 -485l-4 -5z" />
    <glyph glyph-name="minus" unicode="&#x2212;" horiz-adv-x="1706" 
d="M254 651h1198v-82h-1198v82z" />
    <glyph glyph-name="multiply" unicode="&#xd7;" horiz-adv-x="1706" 
d="M367 1155l487 -487l487 487l58 -57l-488 -488l488 -487l-58 -57l-487 487l-487 -487l-58 57l488 487l-488 488z" />
    <glyph glyph-name="onesuperior" unicode="&#xb9;" horiz-adv-x="354" 
d="M379 846q-107 -82 -171 -121t-91 -39q-8 0 -11.5 2t-3.5 6q0 12 19 20l2 1q45 21 95.5 54.5t113.5 84.5q22 17 62 49q182 144 218 144q10 -1 15.5 -4t5.5 -7q0 -10 -33 -42q-15 -14 -25 -23q-126 -123 -265 -283q-37 -44 -50 -57l-172 -189l-3 -3q-23 -23 -48 -23h-43
q-7 0 -11.5 2t-5.5 6q0 16 106.5 128.5t295.5 293.5z" />
    <glyph glyph-name="twosuperior" unicode="&#xb2;" horiz-adv-x="526" 
d="M-2 479q26 13 49.5 19t44.5 6q33 0 84.5 -21.5t69.5 -21.5q32 0 72 24.5t44 24.5q8 0 12 -2.5t5 -7.5q-1 -8 -7 -14t-20 -13l-45 -29q-32 -19 -61.5 -27.5t-61.5 -8.5q-37 0 -86.5 19t-66.5 19q-20 0 -50 -15t-40 -15q-7 0 -11 5.5t-4 14.5q0 13 12 34t31 40
q57 53 292 151q52 22 79 33q50 22 100.5 57.5t100.5 84.5q47 45 70.5 79.5t23.5 57.5q0 22 -14 33.5t-39 11.5q-31 0 -71 -19t-97 -61q-70 -52 -96.5 -81t-26.5 -50q0 -13 7 -19t24 -6q35 0 80 26t85 71q14 15 29.5 42t24.5 27q5 0 8.5 -4t3.5 -10q0 -12 -9 -29t-26 -37
q-43 -50 -98 -81t-96 -31q-39 0 -59.5 18t-20.5 51q0 27 17.5 58.5t49.5 62.5q51 48 113.5 74.5t124.5 26.5q61 0 94 -25.5t33 -73.5q0 -70 -57 -135t-156 -106q-61 -25 -157 -60t-128 -49q-81 -33 -119 -59t-61 -60z" />
    <glyph glyph-name="threesuperior" unicode="&#xb3;" horiz-adv-x="563" 
d="M455 723q25 -10 38 -31t13 -51q0 -39 -26 -78.5t-72 -73.5q-56 -39 -119.5 -60t-122.5 -21q-80 0 -130 36t-50 93q0 43 29.5 73.5t70.5 30.5q24 0 37.5 -10t13.5 -27q0 -19 -14.5 -32t-36.5 -13q-10 0 -24 4t-17 4q-8 0 -14 -9.5t-6 -22.5q0 -42 33 -67.5t87 -25.5
q51 0 106.5 27t113.5 78q35 33 56 66t21 55q0 17 -10.5 27t-30.5 12h-13q-33 2 -34 14q0 11 47 24t86 33q32 15 64.5 43.5t73.5 75.5q22 26 32.5 44.5t10.5 33.5q0 22 -14 33.5t-40 11.5q-29 0 -68.5 -19t-96.5 -61q-61 -44 -89 -74.5t-28 -50.5q0 -13 7 -18.5t26 -5.5
q32 0 76 25.5t81 68.5q16 15 30.5 40t22.5 25q7 0 10 -3t3 -9q0 -12 -8.5 -28.5t-24.5 -35.5q-42 -48 -96 -79t-94 -31q-36 0 -56 18t-20 49q0 27 16.5 57t48.5 60q47 47 109 74t123 27q53 0 83.5 -26t30.5 -71q0 -86 -63.5 -145.5t-181.5 -83.5z" />
    <glyph glyph-name="onequarter" unicode="&#xbc;" horiz-adv-x="1071" 
d="M537 852q-100 -84 -156.5 -122t-81.5 -38q-5 0 -8.5 3t-3.5 7q0 5 69 52.5t140 107.5q27 23 75 65q147 128 179 128q6 0 12 -4t6 -9q0 -7 -83 -98t-157 -182l-254 -313q-12 -16 -21.5 -21.5t-23.5 -5.5h-41q-7 0 -10 1.5t-4 6.5q0 19 97 132t266 290zM639 201
q-39 -5 -61.5 -15.5t-22.5 -23.5q0 -3 4.5 -4.5t13.5 -1.5q13 0 27.5 9t38.5 36zM895 158l-82 -99q-4 -4 -11 -13q-38 -46 -63 -46h-45q-6 0 -11 2.5t-5 5.5q0 1 2.5 5.5t7.5 10.5l125 154q-32 8 -65.5 14t-69.5 11q-25 -35 -55 -54.5t-60 -19.5q-17 0 -28 8t-11 21
q0 31 37 49.5t101 20.5q135 214 211.5 308.5t113.5 94.5q22 0 36.5 -5.5t14.5 -13.5q0 -1 -114 -123t-223 -265q26 -4 60 -9.5t73 -13.5q159 198 269 309t146 111q4 -1 5 -3t1 -8q0 -1 -38.5 -35t-73.5 -75q-45 -52 -122.5 -162.5t-110.5 -154.5q17 -4 34 -5.5t33 -1.5
q4 0 13.5 2t15.5 2t10 -4t4 -10q0 -8 -13 -13.5t-34 -5.5q-13 0 -32 2.5t-46 8.5zM1151 1030q3 3 9 8q16 15 24 15q10 0 16 -6.5t6 -16.5q0 -8 -3.5 -14.5t-10.5 -11.5l-1094 -996q-3 -3 -10 -9q-13 -13 -22 -13q-11 0 -16 5.5t-5 16.5q0 7 3.5 14t8.5 13z" />
    <glyph glyph-name="onehalf" unicode="&#xbd;" horiz-adv-x="1071" 
d="M524 852q-93 -80 -153 -120t-86 -40q-7 1 -9.5 3t-3.5 7q0 5 70 52.5t141 107.5q28 23 75 65q148 128 179 128q7 0 12.5 -3.5t6.5 -9.5q0 -7 -84.5 -98.5t-157.5 -181.5l-254 -313q-12 -16 -21.5 -21.5t-23.5 -5.5h-41q-7 0 -9.5 1.5t-2.5 6.5q0 19 97 132t265 290z
M547 63q24 13 44.5 19t41.5 6q34 0 81 -21.5t62 -21.5q32 0 68 24.5t39 24.5q6 0 10 -3t4 -7q0 -7 -4.5 -13.5t-16.5 -15.5l-42 -26q-32 -20 -56.5 -28.5t-50.5 -8.5q-39 0 -88 19.5t-64 19.5q-18 0 -45 -15.5t-36 -15.5q-7 0 -11 5.5t-4 14.5q0 81 369 251l12 5
q102 47 189.5 141t87.5 136q0 25 -12 37t-38 12q-30 0 -70.5 -20.5t-86.5 -59.5q-66 -55 -89.5 -82.5t-23.5 -48.5q0 -13 6.5 -18.5t22.5 -5.5q32 0 75 26t78 70q14 15 27.5 41t22.5 26q6 0 9 -4t3 -12q0 -16 -19.5 -44t-52.5 -58q-36 -34 -75 -54t-66 -20q-34 0 -53 18.5
t-19 51.5q0 75 89.5 149t191.5 74q56 0 86.5 -26t30.5 -75q0 -69 -53 -133.5t-144 -105.5q-58 -26 -161 -68q-222 -88 -269 -160zM1139 1030q3 3 11 10q12 13 19 13q11 0 17 -6.5t6 -16.5q0 -8 -3.5 -14.5t-10.5 -11.5l-1094 -996q-4 -3 -11 -10q-13 -12 -22 -12
q-10 0 -15 5.5t-5 16.5q0 7 3 14t9 13z" />
    <glyph glyph-name="threequarters" unicode="&#xbe;" horiz-adv-x="1071" 
d="M651 201q-40 -5 -63 -15.5t-23 -23.5q0 -3 4.5 -4.5t14.5 -1.5q13 0 28.5 10t38.5 35zM905 157l-82 -98q-4 -5 -10 -12q-38 -47 -63 -47h-43q-7 0 -12 2.5t-5 5.5q0 2 2.5 7t5.5 9l125 154q-32 8 -65.5 14t-68.5 11q-26 -35 -56 -54.5t-60 -19.5q-17 0 -26.5 7.5
t-9.5 21.5q0 31 36.5 49.5t99.5 19.5q139 219 213.5 311.5t110.5 92.5q22 0 37.5 -5.5t16.5 -13.5q0 -1 -114.5 -123t-223.5 -266q25 -3 57.5 -8.5t73.5 -13.5q158 197 269.5 308.5t148.5 111.5q3 -1 4.5 -3.5t1.5 -7.5q0 -1 -40 -34.5t-75 -75.5q-44 -51 -120 -161
t-111 -156q18 -4 33.5 -5.5t31.5 -1.5q4 0 14.5 2t16.5 2t9 -4t3 -10q0 -8 -12.5 -13.5t-34.5 -5.5q-13 0 -32 2.5t-46 7.5zM541 729q21 -9 33 -30t12 -52q0 -26 -11 -52t-32 -52q-49 -58 -121 -93.5t-137 -35.5q-77 0 -123.5 36t-46.5 95q0 43 27 72.5t65 29.5
q21 0 33 -9.5t12 -27.5t-13 -30.5t-30 -12.5q-12 0 -26 4t-15 4q-8 0 -13 -11t-5 -27q0 -38 30.5 -63t77.5 -25q46 0 97.5 27t103.5 79q31 32 50 64.5t19 54.5q0 31 -39.5 39t-39.5 16q0 11 42 23t78 32q61 34 109.5 96t48.5 97q0 21 -12 32t-35 11q-29 0 -64.5 -18
t-80.5 -56q-58 -47 -81.5 -75.5t-23.5 -49.5q0 -13 6.5 -18.5t24.5 -5.5q27 0 66.5 25.5t74.5 68.5q13 16 26 40.5t21 24.5q5 0 9 -3t4 -9q0 -45 -73.5 -109.5t-131.5 -64.5q-32 0 -49 17.5t-17 50.5q0 74 85.5 145.5t182.5 71.5q49 0 76 -25.5t27 -71.5q0 -86 -58 -146
t-163 -83zM1202 1030q3 3 9 8q16 15 24 15q10 0 16 -6.5t6 -16.5q0 -7 -3.5 -13.5t-12.5 -12.5l-1094 -996l-9 -9q-14 -13 -23 -13q-11 0 -15.5 5t-5.5 17q0 6 4 13t11 14z" />
    <glyph glyph-name="franc" unicode="&#x20a3;" horiz-adv-x="2298" 
d="M1255 748q-259 -60 -470 -176q-36 -19 -42 -19q-8 0 -14 5.5t-6 12.5q0 38 146 101.5t446 154.5q146 224 269.5 365t166.5 141q8 0 12 -3.5t4 -10.5q0 -8 -37 -55q-148 -187 -251 -396q115 27 229.5 70t124.5 43q17 0 26 -6t9 -17q0 -16 -58 -61t-92 -94
q-24 -36 -48 -82.5t-38 -46.5q-24 0 -39.5 8.5t-15.5 22.5q0 16 29 61.5t77 101.5q-51 -12 -109 -29.5t-142 -45.5q-250 -413 -494 -612t-498 -199q-145 0 -231 65t-86 172q0 61 34.5 100t88.5 39q40 0 65 -24.5t25 -63.5q0 -37 -24.5 -58.5t-65.5 -21.5q-7 0 -23 3.5
t-24 3.5q-7 -1 -9.5 -5t-3.5 -14q0 -56 67 -99.5t163 -43.5q159 0 329 137.5t510 575.5zM1315 1229q0 -26 -28.5 -88t-72.5 -121q-94 -128 -209 -195t-239 -67q-118 0 -188 69.5t-70 186.5q0 213 206 348t541 135q154 0 465 -47l13 -2q38 -6 109 -17q248 -38 315 -38
q74 0 155 21q18 5 23 5q8 0 14 -4.5t6 -11.5q0 -29 -72 -57.5t-167 -28.5q-42 0 -86.5 5t-87.5 15q-25 6 -74 18q-388 95 -578 95q-148 0 -269 -36t-214 -107q-116 -89 -174 -169t-58 -153q0 -77 56 -125.5t145 -48.5q117 0 226.5 74t203.5 217q24 37 49.5 93t40.5 56
q9 0 14 -6t5 -16zM2149 485q2 3 10 5.5t16 3.5q28 0 48 -6.5t20 -14.5q0 -4 -18.5 -23.5t-30.5 -35.5q-37 -48 -56.5 -93.5t-19.5 -80.5q0 -26 14 -42t37 -16q25 0 54 15t71 51q18 15 45 39q32 30 41 30q8 0 12 -4.5t5 -13.5q0 -9 -11 -22.5t-47 -43.5q-72 -59 -115 -80.5
t-81 -21.5q-52 0 -80.5 31.5t-28.5 87.5q0 20 5.5 46t15.5 56q-91 -83 -171.5 -171.5t-148.5 -180.5q-26 -4 -48 -6t-40 -2q-19 0 -30 4t-11 10q0 13 58 76q35 39 57 63q112 131 151 189t39 88q0 9 -2.5 12.5t-7.5 3.5q-26 0 -67.5 -23t-108.5 -75q-20 -16 -49 -43
q-36 -33 -47 -33q-8 0 -13.5 5.5t-5.5 13.5q0 10 20.5 31.5t73.5 66.5q77 65 148.5 104t107.5 39q28 0 44 -17.5t16 -47.5q0 -22 -8 -50.5t-25 -64.5z" />
    <glyph glyph-name="Gbreve" unicode="&#x11e;" horiz-adv-x="1413" 
d="M813 713q167 34 333 112.5t312 192.5q150 117 248 230.5t98 158.5q0 22 -17.5 34.5t-47.5 12.5q-155 0 -421 -206.5t-505 -534.5zM705 688q19 141 154 303t355 305q144 94 284 147.5t235 53.5q60 0 92.5 -28t32.5 -80q0 -66 -58 -145t-178 -177q-200 -161 -410 -265.5
t-428 -150.5q-13 -31 -18.5 -52.5t-5.5 -37.5q0 -52 35.5 -83.5t95.5 -31.5q62 0 157.5 42.5t204.5 119.5q13 9 39 28q175 124 250 195l8 8q32 33 58 33q8 0 12 -3.5t4 -10.5q0 -31 -55 -74q-13 -10 -21 -16q-59 -49 -182 -208q-35 -45 -53 -68q-7 -9 -22 -28
q-185 -234 -341 -329q-133 -80 -268 -117.5t-291 -37.5q-196 0 -300.5 61.5t-104.5 177.5q0 61 34.5 100t88.5 39q39 0 64.5 -24.5t25.5 -63.5q0 -37 -24.5 -58.5t-65.5 -21.5q-7 0 -23 3.5t-25 3.5q-6 -1 -9 -5.5t-3 -13.5q0 -64 89 -105.5t235 -41.5q207 0 386 103
t355 325q-74 -32 -128.5 -47t-96.5 -15q-93 0 -144 55.5t-51 157.5v27q-57 -8 -126 -12t-156 -4h-74q-23 0 -35 6t-12 18q0 11 11.5 17t33.5 6h57q107 0 180.5 5t131.5 15zM1800 1778q44 0 93.5 18.5t117.5 61.5q23 15 56 42.5t48 27.5q8 -1 12 -7t5 -18q0 -14 -14.5 -33.5
t-49.5 -52.5q-87 -85 -151.5 -120.5t-130.5 -35.5q-86 0 -149.5 72.5t-63.5 161.5q0 19 5.5 27t18.5 8q18 0 31 -30q3 -7 4 -9q26 -60 65.5 -86.5t102.5 -26.5z" />
    <glyph glyph-name="gbreve" unicode="&#x11f;" horiz-adv-x="772" 
d="M109 -82q-218 -94 -343.5 -200t-125.5 -191q0 -27 12 -44.5t31 -17.5q36 0 84.5 42.5t146.5 164.5zM268 150l230 245q12 13 19 27t7 27q0 11 -6.5 16.5t-17.5 5.5q-34 0 -90.5 -29t-114.5 -77q-95 -79 -156 -164.5t-61 -126.5q0 -14 8.5 -22.5t22.5 -8.5q26 0 69.5 28.5
t89.5 78.5zM276 -33q-221 -276 -368 -410.5t-227 -134.5q-45 0 -67 24.5t-22 72.5q0 111 155.5 241t408.5 222l39 51q-35 -17 -67 -25t-62 -8q-38 0 -59 28t-21 78q0 67 32.5 129.5t96.5 118.5q89 79 188.5 124.5t175.5 45.5q41 0 60.5 -16t23.5 -53q15 17 33 32.5t39 28.5
q8 0 23 1t22 1q35 0 50 -5.5t15 -18.5q0 -4 -149.5 -150.5t-284.5 -323.5q89 8 188.5 53.5t211.5 129.5q39 29 86.5 69.5t56.5 40.5q7 0 11.5 -5t4.5 -13q0 -15 -40.5 -52t-114.5 -91q-111 -81 -215 -124.5t-224 -60.5zM641 774q44 0 93.5 18.5t117.5 61.5q23 15 56 42.5
t48 27.5q8 -1 12 -7t5 -18q0 -14 -14.5 -33.5t-49.5 -52.5q-87 -85 -151.5 -120.5t-130.5 -35.5q-86 0 -149.5 72.5t-63.5 161.5q0 19 5.5 27t18.5 8q18 0 31 -30q3 -7 4 -9q26 -60 65.5 -86.5t102.5 -26.5z" />
    <glyph glyph-name="Idotaccent" unicode="&#x130;" horiz-adv-x="1456" 
d="M1098 543q-46 34 -71.5 91.5t-25.5 125.5q0 110 71 227.5t190 202.5q168 121 354.5 184.5t394.5 71.5q60 25 89 35t42 10q17 0 26 -7t9 -20q0 -21 -55 -33.5t-94 -35.5q-265 -156 -737 -827l-29 -41q8 -2 16 -2.5t25 -0.5q86 0 163.5 46t149.5 139q40 50 73 120t48 70
q8 0 14 -5t6 -11q0 -24 -28 -78t-78 -125q-70 -96 -165.5 -151.5t-193.5 -55.5q-13 0 -30 1.5t-35 4.5q-200 -243 -436 -371t-484 -128q-162 0 -254 62.5t-92 172.5q0 63 35.5 103t89.5 40q40 0 65 -24.5t25 -63.5q0 -37 -23.5 -58.5t-64.5 -21.5q-7 0 -24 3.5t-25 3.5
q-6 0 -8 -4.5t-2 -16.5q0 -62 75.5 -101.5t198.5 -39.5q201 0 394.5 123.5t400.5 384.5zM1126 582q296 371 495 563t359 266q-161 -11 -311 -77.5t-299 -192.5q-144 -123 -225.5 -239.5t-81.5 -196.5q0 -38 15 -67t48 -56zM2015 1749q0 43 25.5 71t64.5 28q30 0 49 -19
t19 -49q0 -44 -24.5 -71t-64.5 -27q-32 0 -50.5 18t-18.5 49z" />
    <glyph glyph-name="Scedilla" unicode="&#x15e;" horiz-adv-x="1309" 
d="M1350 774q186 66 341.5 165.5t276.5 229.5q71 75 110.5 137.5t39.5 98.5q0 27 -12 38t-42 11q-133 0 -327 -182.5t-387 -497.5zM1077 633q-131 -32 -254.5 -49t-216.5 -17q-23 0 -35 6t-12 17q0 18 194 37.5t380 74.5q296 399 528 598t399 199q57 0 86 -27t29 -79
q0 -156 -247.5 -356.5t-641.5 -344.5q-219 -346 -490 -528t-567 -182q-178 0 -276 61.5t-98 171.5q0 59 36.5 98t92.5 39q43 0 69.5 -24t26.5 -64q0 -36 -25.5 -56t-70.5 -20q-11 0 -31 5.5t-29 5.5q-6 0 -9 -5t-3 -16q0 -59 87.5 -105t213.5 -46q97 0 187 23.5t171 70.5
q96 56 206.5 166.5t299.5 345.5zM123 -119q27 15 54.5 22t56.5 7q83 0 122 -31t39 -96q0 -75 -55.5 -119.5t-150.5 -44.5q-103 0 -187 32.5t-84 55.5q0 7 5 12t12 5q10 0 85.5 -23t139.5 -23q63 0 101 27t38 70q0 39 -25.5 57t-80.5 18q-11 0 -25 -2t-29 -6z" />
    <glyph glyph-name="scedilla" unicode="&#x15f;" horiz-adv-x="592" 
d="M27 69q6 -20 26.5 -30t57.5 -10q99 0 154 106.5t64 318.5q-95 -53 -177 -122.5t-91 -69.5q-7 0 -11.5 4t-4.5 10q0 21 82 86t213 146q7 58 33 93.5t59 35.5q16 0 25.5 -10.5t9.5 -28.5q0 -29 -22 -58t-60 -48q21 -32 31 -73t10 -91q0 -82 -26 -144t-76 -100
q128 51 237 140t111 89q7 0 11.5 -5t4.5 -13q0 -15 -43.5 -56t-112.5 -87q-110 -78 -218.5 -120t-194.5 -42q-64 0 -104 29t-40 75q0 37 23 60.5t57 23.5q25 0 40.5 -15t15.5 -38q0 -27 -18 -42t-48 -15q-8 0 -12 0.5t-6 0.5zM43 -119q27 15 54.5 22t56.5 7q83 0 122 -31
t39 -96q0 -75 -55.5 -119.5t-150.5 -44.5q-103 0 -187 32.5t-84 55.5q0 7 5 12t12 5q10 0 85.5 -23t139.5 -23q63 0 101 27t38 70q0 39 -25.5 57t-80.5 18q-11 0 -25 -2t-29 -6z" />
    <glyph glyph-name="Cacute" unicode="&#x106;" horiz-adv-x="1450" 
d="M803 778q217 57 396.5 147t313.5 210q97 85 152 159t55 115q0 21 -13.5 31t-43.5 10q-143 0 -384 -184t-476 -488zM586 729q140 183 303 333t350 269q128 81 240.5 125.5t187.5 44.5q58 0 86.5 -25.5t28.5 -76.5q0 -172 -288.5 -369t-750.5 -323q-131 -170 -195.5 -294
t-64.5 -206t53.5 -128t147.5 -46q73 0 158.5 45.5t193.5 142.5q83 75 122.5 127t39.5 86q0 32 -15.5 46t-49.5 14q-56 0 -138 -42.5t-161 -113.5q-51 -45 -100.5 -110.5t-63.5 -65.5q-7 0 -11.5 5t-5.5 13q0 16 26 55t66 80q105 110 206.5 167t191.5 57q60 0 92.5 -34.5
t32.5 -96.5q0 -74 -57 -158.5t-154 -151.5q-84 -58 -174.5 -88t-180.5 -30q-139 0 -215.5 73.5t-76.5 208.5q0 89 31.5 188.5t93.5 204.5q-133 -28 -227 -43.5t-134 -15.5q-17 0 -27.5 6t-11.5 16q0 24 159 50.5t292 60.5zM1616 1606q-10 0 -14 3.5t-4 10.5t68 56.5
t110 115.5q14 23 32 72q35 90 82 90q29 0 45.5 -16.5t16.5 -44.5q0 -48 -43 -99t-131 -108q-59 -39 -100.5 -59.5t-61.5 -20.5z" />
    <glyph glyph-name="cacute" unicode="&#x107;" horiz-adv-x="592" 
d="M477 479q-4 1 -9 1.5t-15 0.5q-31 0 -66.5 -14t-71.5 -41q-85 -66 -141.5 -154t-56.5 -145q0 -36 24.5 -61t59.5 -25q70 0 161 45t195 131q27 23 64 58q41 38 51 38q7 0 11.5 -5t4.5 -13q0 -13 -28.5 -42.5t-84.5 -74.5q-116 -96 -215 -142t-188 -46q-70 0 -113 47
t-43 123q0 69 42 134.5t128 131.5q63 47 129 71.5t129 24.5q47 0 75 -23.5t28 -62.5q0 -43 -29 -73.5t-69 -30.5q-26 0 -41 15.5t-15 41.5q0 24 22 47.5t62 42.5zM416 602q-10 0 -14 3.5t-4 10.5t68 56.5t110 115.5q14 23 32 72q35 90 82 90q29 0 45.5 -16.5t16.5 -44.5
q0 -48 -43 -99t-131 -108q-59 -39 -100.5 -59.5t-61.5 -20.5z" />
    <glyph glyph-name="Ccaron" unicode="&#x10c;" horiz-adv-x="1450" 
d="M803 778q217 57 396.5 147t313.5 210q97 85 152 159t55 115q0 21 -13.5 31t-43.5 10q-143 0 -384 -184t-476 -488zM586 729q140 183 303 333t350 269q128 81 240.5 125.5t187.5 44.5q58 0 86.5 -25.5t28.5 -76.5q0 -172 -288.5 -369t-750.5 -323q-131 -170 -195.5 -294
t-64.5 -206t53.5 -128t147.5 -46q73 0 158.5 45.5t193.5 142.5q83 75 122.5 127t39.5 86q0 32 -15.5 46t-49.5 14q-56 0 -138 -42.5t-161 -113.5q-51 -45 -100.5 -110.5t-63.5 -65.5q-7 0 -11.5 5t-5.5 13q0 16 26 55t66 80q105 110 206.5 167t191.5 57q60 0 92.5 -34.5
t32.5 -96.5q0 -74 -57 -158.5t-154 -151.5q-84 -58 -174.5 -88t-180.5 -30q-139 0 -215.5 73.5t-76.5 208.5q0 89 31.5 188.5t93.5 204.5q-133 -28 -227 -43.5t-134 -15.5q-17 0 -27.5 6t-11.5 16q0 24 159 50.5t292 60.5zM1710 1741l240 127q56 29 82 40t37 11
q14 0 19 -3.5t5 -14.5q0 -18 -61 -55l-30 -18q-111 -70 -214 -146t-108 -76q-9 0 -16.5 7t-10.5 18l-70 244q-2 9 -3 15t-1 11q0 10 4 15.5t13 5.5q28 0 100 -151z" />
    <glyph glyph-name="ccaron" unicode="&#x10d;" horiz-adv-x="592" 
d="M477 479q-4 1 -9 1.5t-15 0.5q-31 0 -66.5 -14t-71.5 -41q-85 -66 -141.5 -154t-56.5 -145q0 -36 24.5 -61t59.5 -25q70 0 161 45t195 131q27 23 64 58q41 38 51 38q7 0 11.5 -5t4.5 -13q0 -13 -28.5 -42.5t-84.5 -74.5q-116 -96 -215 -142t-188 -46q-70 0 -113 47
t-43 123q0 69 42 134.5t128 131.5q63 47 129 71.5t129 24.5q47 0 75 -23.5t28 -62.5q0 -43 -29 -73.5t-69 -30.5q-26 0 -41 15.5t-15 41.5q0 24 22 47.5t62 42.5zM510 737l240 127q56 29 82 40t37 11q14 0 19 -3.5t5 -14.5q0 -18 -61 -55l-30 -18q-111 -70 -214 -146
t-108 -76q-9 0 -16.5 7t-10.5 18l-70 244q-2 9 -3 15t-1 11q0 10 4 15.5t13 5.5q28 0 100 -151z" />
    <glyph glyph-name="dcroat" unicode="&#x111;" horiz-adv-x="766" 
d="M264 150l168 178l21 21q69 75 69 100q0 10 -7 16t-19 6q-39 0 -102 -35t-136 -98q-79 -70 -131.5 -149.5t-52.5 -114.5q0 -14 8.5 -22.5t21.5 -8.5q27 0 70.5 28.5t89.5 78.5zM272 108q-59 -59 -109.5 -88.5t-92.5 -29.5t-65 31t-23 88q0 67 32 128t99 119
q84 75 185 121.5t173 46.5q44 0 63.5 -15t24.5 -54l268 338h-284q-7 0 -11 2.5t-4 7.5q1 2 2.5 4.5t4.5 5.5l14 18q4 7 11 10t26 3h286l295 360q12 15 22 20t28 5q31 0 52 -8t21 -19q0 -5 -2 -10.5l-2 -5.5q0 -1 -5 -6t-9 -10l-273 -326h164q6 0 9.5 -2.5t3.5 -5.5
q-1 -2 -1.5 -4t-3.5 -7l-14 -20q-4 -7 -11 -9.5t-26 -2.5h-166l-522 -621q-32 -39 -46.5 -63.5t-14.5 -40.5q0 -14 5.5 -18.5t20.5 -4.5q41 0 119.5 38t167.5 103q52 37 105 82t61 45q7 0 11.5 -5t4.5 -13q0 -12 -22 -34t-94 -79q-111 -88 -213.5 -139t-165.5 -51
q-46 0 -73.5 25t-27.5 67q0 10 0.5 15t1.5 9z" />
    <glyph glyph-name="sfthyphen" unicode="&#xad;" horiz-adv-x="473" 
d="M180 317h258l-63 -86h-256z" />
    <glyph glyph-name="periodcentered" unicode="&#x2219;" horiz-adv-x="494" 
d="M307 520q0 34 24 58t58 24q35 0 59.5 -24t24.5 -58q0 -35 -24.5 -59.5t-59.5 -24.5q-34 0 -58 24.5t-24 59.5z" />
    <glyph glyph-name="Euro" horiz-adv-x="862" 
d="M1202 920q0 -49 -33 -84t-84 -35q-29 0 -50 19.5t-21 49.5q0 44 30.5 71t100.5 40q-1 2 -1.5 5t-2.5 5q-15 15 -29 20t-35 5q-82 0 -234.5 -108t-320.5 -281h314q26 0 36.5 -5.5t10.5 -17.5q0 -11 -13 -17.5t-36 -6.5l-357 -1l-27 -30q-39 -43 -57 -66h279q26 0 36.5 -5
t10.5 -17q0 -11 -13.5 -18t-35.5 -7h-314q-75 -96 -115 -175.5t-40 -131.5q0 -39 20.5 -60.5t59.5 -21.5q50 0 109.5 17.5t123.5 52.5q79 42 146.5 91.5t74.5 49.5h2q4 0 9 -2.5t6 -5.5q0 -11 -20 -32t-66 -58q-103 -84 -205.5 -129t-190.5 -45q-64 0 -105.5 41.5
t-41.5 111.5q0 42 9.5 86.5t29.5 93.5q14 31 29 60.5t32 56.5h-63q-29 0 -38 4.5t-9 16.5t13 19t36 7h94q20 28 40 52t40 45h-74q-29 0 -38 4.5t-9 15.5q0 12 13.5 19.5t35.5 7.5h117q48 48 108.5 99.5t163.5 131.5q109 81 230.5 138t193.5 57q58 0 91.5 -34.5t33.5 -98.5z
" />
    <glyph glyph-name="Euro" unicode="&#x20ac;" horiz-adv-x="862" 
d="M1202 920q0 -49 -33 -84t-84 -35q-29 0 -50 19.5t-21 49.5q0 44 30.5 71t100.5 40q-1 2 -1.5 5t-2.5 5q-15 15 -29 20t-35 5q-82 0 -234.5 -108t-320.5 -281h314q26 0 36.5 -5.5t10.5 -17.5q0 -11 -13 -17.5t-36 -6.5l-357 -1l-27 -30q-39 -43 -57 -66h279q26 0 36.5 -5
t10.5 -17q0 -11 -13.5 -18t-35.5 -7h-314q-75 -96 -115 -175.5t-40 -131.5q0 -39 20.5 -60.5t59.5 -21.5q50 0 109.5 17.5t123.5 52.5q79 42 146.5 91.5t74.5 49.5h2q4 0 9 -2.5t6 -5.5q0 -11 -20 -32t-66 -58q-103 -84 -205.5 -129t-190.5 -45q-64 0 -105.5 41.5
t-41.5 111.5q0 42 9.5 86.5t29.5 93.5q14 31 29 60.5t32 56.5h-63q-29 0 -38 4.5t-9 16.5t13 19t36 7h94q20 28 40 52t40 45h-74q-29 0 -38 4.5t-9 15.5q0 12 13.5 19.5t35.5 7.5h117q48 48 108.5 99.5t163.5 131.5q109 81 230.5 138t193.5 57q58 0 91.5 -34.5t33.5 -98.5z
" />
  </font>
</defs>
</svg>
